<svg width="24" height="24" viewBox="0 0 24 24" fill="none" xmlns="http://www.w3.org/2000/svg">
<path d="M15.9999 3V3C18.209 3 19.9999 4.79086 19.9999 7V14C19.9999 16.8003 19.9999 18.2004 19.4549 19.27C18.9755 20.2108 18.2106 20.9757 17.2698 21.455C16.2003 22 14.8001 22 11.9999 22V22C9.19962 22 7.79948 22 6.72993 21.455C5.78911 20.9757 5.02421 20.2108 4.54485 19.27C3.99988 18.2004 3.99988 16.8003 3.99988 14V7C3.99988 4.79086 5.79074 3 7.99988 3V3M15.9999 3V3C15.9999 1.89543 15.1044 1 13.9999 1H9.99988C8.89531 1 7.99988 1.89543 7.99988 3V3M15.9999 3V3C15.9999 4.10457 15.1044 5 13.9999 5H9.99988C8.89531 5 7.99988 4.10457 7.99988 3V3" stroke="currentColor" stroke-width="1.5" stroke-linecap="round" stroke-linejoin="round"/>
</svg>
