<svg width="24" height="24" viewBox="0 0 24 24" fill="none" xmlns="http://www.w3.org/2000/svg">
<path d="M6.88663 2.46859C7.89136 2 9.18697 2 11.7782 2C12.9105 2 13.4766 2 14.0113 2.11855C14.5806 2.24479 15.1235 2.46965 15.6153 2.78296C16.0772 3.07721 16.4775 3.47753 17.2782 4.27817L17.5 4.5C18.5197 5.51972 19.0296 6.02959 19.3693 6.64015C19.5559 6.97555 19.7033 7.33132 19.8085 7.70044C20 8.37237 20 9.09343 20 10.5355V14C20 14.7635 20 16 20 16M2 2L4.60883 4.60883M22 22L19.3912 19.3912M19.3912 19.3912C18.9091 20.2765 18.17 20.9964 17.27 21.455C16.2004 22 14.8003 22 12 22C9.19974 22 7.79961 22 6.73005 21.455C5.78924 20.9757 5.02433 20.2108 4.54497 19.27C4 18.2004 4 16.8003 4 14V9.77817C4 7.18697 4 5.89136 4.46859 4.88663C4.51256 4.79236 4.55934 4.69972 4.60883 4.60883M19.3912 19.3912L4.60883 4.60883M14 2.5V4.80003C14 5.92013 14 6.48019 14.218 6.90801C14.4097 7.28433 14.7157 7.5903 15.092 7.78204C15.5198 8.00003 16.0799 8.00003 17.2 8.00003H19.5" stroke="currentColor" stroke-width="1.5" stroke-linecap="round" stroke-linejoin="round"/>
</svg>
