<svg width="24" height="24" viewBox="0 0 24 24" fill="none" xmlns="http://www.w3.org/2000/svg">
<path d="M1.25 6.05C1.25 4.36984 1.25 3.52976 1.57698 2.88803C1.8646 2.32354 2.32354 1.8646 2.88803 1.57698C3.52976 1.25 4.36984 1.25 6.05 1.25H13.95C15.6302 1.25 16.4702 1.25 17.112 1.57698C17.6765 1.8646 18.1354 2.32354 18.423 2.88803C18.75 3.52976 18.75 4.36984 18.75 6.05V8H13.4C11.1598 8 10.0397 8 9.18404 8.43597C8.43139 8.81947 7.81947 9.43139 7.43597 10.184C7 11.0397 7 12.1598 7 14.4V14.75V14.75C6.51317 14.75 6.03947 14.9079 5.65 15.2L3.81 16.58C2.98604 17.198 2.57406 17.507 2.22921 17.4998C1.92912 17.4935 1.64769 17.3528 1.46264 17.1165C1.25 16.8449 1.25 16.3299 1.25 15.3V6.05Z" fill="#2F384C"/>
<path d="M13.05 20.8929C11.3698 20.8929 10.5298 20.8929 9.88803 20.5659C9.32354 20.2783 8.8646 19.8193 8.57698 19.2548C8.25 18.6131 8.25 17.773 8.25 16.0929V14.05C8.25 12.3698 8.25 11.5298 8.57698 10.888C8.8646 10.3235 9.32354 9.8646 9.88803 9.57698C10.5298 9.25 11.3698 9.25 13.05 9.25H17.95C19.6302 9.25 20.4702 9.25 21.112 9.57698C21.6765 9.8646 22.1354 10.3235 22.423 10.888C22.75 11.5298 22.75 12.3698 22.75 14.05V21.4322C22.75 22.2559 22.75 22.6677 22.6314 22.889C22.4108 23.3007 21.9345 23.5049 21.4841 23.3807C21.2421 23.3139 20.9439 23.0299 20.3475 22.4619V22.4619C19.8662 22.0036 19.6256 21.7744 19.3601 21.5926C18.8742 21.2598 18.3208 21.0384 17.7394 20.9443C17.4218 20.8929 17.0895 20.8929 16.4249 20.8929H13.05Z" fill="#2F384C"/>
</svg>
