<svg width="24" height="24" viewBox="0 0 24 24" fill="none" xmlns="http://www.w3.org/2000/svg">
<path fill-rule="evenodd" clip-rule="evenodd" d="M2.31934 16.6807C2.29299 16.6244 2.26675 16.5684 2.24087 16.5125C1.60482 15.1395 1.25 13.6102 1.25 12C1.25 6.06294 6.06294 1.25 12 1.25C17.9371 1.25 22.75 6.06294 22.75 12C22.75 17.9371 17.9371 22.75 12 22.75C10.786 22.75 9.72211 22.5765 8.72366 22.2194C7.83036 21.8998 7.46428 21.7705 7.35382 21.7445C6.68259 21.5866 6.0471 21.8925 5.41652 22.196C5.00937 22.392 4.60427 22.587 4.1929 22.6555C3.06842 22.8429 2.06787 21.9222 2.16118 20.7861C2.19452 20.3801 2.35166 20.0332 2.50977 19.6842C2.61162 19.4593 2.71389 19.2336 2.78372 18.9906C3.01855 18.1734 2.66113 17.4103 2.31934 16.6807ZM12.75 7.5C12.75 7.08579 12.4142 6.75 12 6.75C11.5858 6.75 11.25 7.08579 11.25 7.5V12.5C11.25 12.9142 11.5858 13.25 12 13.25C12.4142 13.25 12.75 12.9142 12.75 12.5V7.5ZM12 14.75C11.3096 14.75 10.75 15.3096 10.75 16C10.75 16.6904 11.3096 17.25 12 17.25C12.6904 17.25 13.25 16.6904 13.25 16C13.25 15.3096 12.6904 14.75 12 14.75Z" fill="#2F384C"/>
</svg>
