<svg width="24" height="24" viewBox="0 0 24 24" fill="none" xmlns="http://www.w3.org/2000/svg">
<path d="M2.00559 8H8M21.0056 8H12M2 2L3.71611 3.71611M22 22L20.2839 20.2839M20.2839 20.2839C20.1351 20.3874 19.9788 20.481 19.816 20.564C18.9603 21 17.8402 21 15.6 21H8.4C6.15979 21 5.03968 21 4.18404 20.564C3.43139 20.1805 2.81947 19.5686 2.43597 18.816C2 17.9603 2 16.8402 2 14.6V9.4C2 7.15979 2 6.03968 2.43597 5.18404C2.73649 4.59425 3.17727 4.09087 3.71611 3.71611M20.2839 20.2839L8 8M3.71611 3.71611L8 8M7 3.00559C7.41261 3 7.87562 3 8.4 3H15.6C17.8402 3 18.9603 3 19.816 3.43597C20.5686 3.81947 21.1805 4.43139 21.564 5.18404C22 6.03968 22 7.15979 22 9.4V14.6C22 15.5965 22 16.3714 21.9616 17C21.9508 17.1778 21.9368 17.3439 21.919 17.5M6 12H8" stroke="currentColor" stroke-width="1.5" stroke-linecap="round" stroke-linejoin="round"/>
</svg>
