<svg width="24" height="24" viewBox="0 0 24 24" fill="none" xmlns="http://www.w3.org/2000/svg">
<path d="M22 13.2857V9.4C22 7.15979 22 6.03968 21.564 5.18404C21.1805 4.43139 20.5686 3.81947 19.816 3.43597C18.9603 3 17.8402 3 15.6 3H8.4C6.15979 3 5.03968 3 4.18404 3.43597C3.43139 3.81947 2.81947 4.43139 2.43597 5.18404C2 6.03968 2 7.15979 2 9.4V14.6C2 16.8402 2 17.9603 2.43597 18.816C2.81947 19.5686 3.43139 20.1805 4.18404 20.564C5.03968 21 6.15979 21 8.4 21H14M2.5 8H21.5M20 16.5V19M20 19V21.5M20 19H17.5M20 19H22.5M6 12H9" stroke="currentColor" stroke-width="1.5" stroke-linecap="round" stroke-linejoin="round"/>
</svg>
