<svg width="24" height="24" viewBox="0 0 24 24" fill="none" xmlns="http://www.w3.org/2000/svg">
<path d="M9 14C9 15.1046 9.89543 16 11 16H13.2566C14.2194 16 15 15.2194 15 14.2566C15 13.5062 14.5198 12.8399 13.8079 12.6026L10.1921 11.3974C9.48019 11.1601 9 10.4938 9 9.74342C9 8.78055 9.78055 8 10.7434 8H13C14.1046 8 15 8.89543 15 10M12 6.5V17.5M22 12V12C22 6.47715 17.5228 2 12 2V2C6.47715 2 2 6.47715 2 12V12C2 17.5228 6.47715 22 12 22V22C17.5228 22 22 17.5228 22 12Z" stroke="currentColor" stroke-width="1.5" stroke-linecap="round" stroke-linejoin="round"/>
</svg>
