<svg width="24" height="24" viewBox="0 0 24 24" fill="none" xmlns="http://www.w3.org/2000/svg">
<path d="M6.5 14C6.5 14.2761 6.27614 14.5 6 14.5C5.72386 14.5 5.5 14.2761 5.5 14M6.5 14C6.5 13.7239 6.27614 13.5 6 13.5C5.72386 13.5 5.5 13.7239 5.5 14M6.5 14H5.5M6.5 18C6.5 18.2761 6.27614 18.5 6 18.5C5.72386 18.5 5.5 18.2761 5.5 18M6.5 18C6.5 17.7239 6.27614 17.5 6 17.5C5.72386 17.5 5.5 17.7239 5.5 18M6.5 18H5.5M10.5 14C10.5 14.2761 10.2761 14.5 10 14.5C9.72386 14.5 9.5 14.2761 9.5 14M10.5 14C10.5 13.7239 10.2761 13.5 10 13.5C9.72386 13.5 9.5 13.7239 9.5 14M10.5 14H9.5M10.5 18C10.5 18.2761 10.2761 18.5 10 18.5C9.72386 18.5 9.5 18.2761 9.5 18M10.5 18C10.5 17.7239 10.2761 17.5 10 17.5C9.72386 17.5 9.5 17.7239 9.5 18M10.5 18H9.5M14.5 14C14.5 14.2761 14.2761 14.5 14 14.5C13.7239 14.5 13.5 14.2761 13.5 14M14.5 14C14.5 13.7239 14.2761 13.5 14 13.5C13.7239 13.5 13.5 13.7239 13.5 14M14.5 14H13.5M14.5 18C14.5 18.2761 14.2761 18.5 14 18.5C13.7239 18.5 13.5 18.2761 13.5 18M14.5 18C14.5 17.7239 14.2761 17.5 14 17.5C13.7239 17.5 13.5 17.7239 13.5 18M14.5 18H13.5M22 10H18M18 7H18.8C19.9201 7 20.4802 7 20.908 7.21799C21.2843 7.40973 21.5903 7.71569 21.782 8.09202C22 8.51984 22 9.07989 22 10.2V13.8C22 14.9201 22 15.4802 21.782 15.908C21.5903 16.2843 21.2843 16.5903 20.908 16.782C20.4802 17 19.9201 17 18.8 17H18M6.6 10H13.4C13.9601 10 14.2401 10 14.454 9.89101C14.6422 9.79513 14.7951 9.64215 14.891 9.45399C15 9.24008 15 8.96005 15 8.4V6.6C15 6.03995 15 5.75992 14.891 5.54601C14.7951 5.35785 14.6422 5.20487 14.454 5.10899C14.2401 5 13.9601 5 13.4 5H6.6C6.03995 5 5.75992 5 5.54601 5.10899C5.35785 5.20487 5.20487 5.35785 5.10899 5.54601C5 5.75992 5 6.03995 5 6.6V8.4C5 8.96005 5 9.24008 5.10899 9.45399C5.20487 9.64215 5.35785 9.79513 5.54601 9.89101C5.75992 10 6.03995 10 6.6 10ZM6.8 22H13.2C14.8802 22 15.7202 22 16.362 21.673C16.9265 21.3854 17.3854 20.9265 17.673 20.362C18 19.7202 18 18.8802 18 17.2V6.8C18 5.11984 18 4.27976 17.673 3.63803C17.3854 3.07354 16.9265 2.6146 16.362 2.32698C15.7202 2 14.8802 2 13.2 2H6.8C5.11984 2 4.27976 2 3.63803 2.32698C3.07354 2.6146 2.6146 3.07354 2.32698 3.63803C2 4.27976 2 5.11984 2 6.8V17.2C2 18.8802 2 19.7202 2.32698 20.362C2.6146 20.9265 3.07354 21.3854 3.63803 21.673C4.27976 22 5.11984 22 6.8 22Z" stroke="currentColor" stroke-width="1.5" stroke-linecap="round" stroke-linejoin="round"/>
</svg>
