<svg width="24" height="24" viewBox="0 0 24 24" fill="none" xmlns="http://www.w3.org/2000/svg">
<path fill-rule="evenodd" clip-rule="evenodd" d="M2.53033 1.46967C2.23744 1.17678 1.76257 1.17678 1.46967 1.46967C1.17678 1.76257 1.17678 2.23744 1.46967 2.53033L3.50093 4.56159C2.17601 5.14004 1.25 6.46185 1.25 7.99994L1.25 12.6L1.25 12.633L1.25 12.6331C1.25 13.7252 1.24999 14.5906 1.30699 15.2882C1.36528 16.0016 1.48689 16.6053 1.76772 17.1564C2.22312 18.0502 2.94978 18.7769 3.84355 19.2323C4.39472 19.5131 4.99835 19.6347 5.71174 19.693C6.40935 19.75 7.27485 19.75 8.36698 19.75L8.4 19.75L18.6893 19.75L20.4697 21.5303C20.7626 21.8232 21.2374 21.8232 21.5303 21.5303C21.8232 21.2374 21.8232 20.7626 21.5303 20.4697L19.5303 18.4696L5.5303 4.46964L2.53033 1.46967ZM10 4.24997C9.58579 4.24997 9.25 4.58576 9.25 4.99997C9.25 5.41419 9.58579 5.74997 10 5.74997L15.9628 5.74997L16.0238 5.75006C17.8001 5.76304 19.2369 7.19987 19.2499 8.97622L19.2499 8.98611C19.2497 8.99595 19.2498 9.00577 19.25 9.01558L19.25 9.03719L19.25 14.3074C19.25 15.1697 20.1209 15.7594 20.9215 15.4392L20.643 14.7428L20.9216 15.4392C22.3279 14.8767 23.25 13.5146 23.25 12C23.25 10.4854 22.3279 9.12341 20.9216 8.56089L20.7219 8.481C20.4644 6.11277 18.4674 4.26788 16.0347 4.2501L15.9663 4.24997L15.9628 4.24997L10 4.24997ZM20.75 13.8462L20.75 10.1538C21.3658 10.5552 21.75 11.2458 21.75 12C21.75 12.7542 21.3658 13.4448 20.75 13.8462Z" fill="#2F384C"/>
</svg>
