<svg width="24" height="24" viewBox="0 0 24 24" fill="none" xmlns="http://www.w3.org/2000/svg">
<path fill-rule="evenodd" clip-rule="evenodd" d="M7.65024 19.75C5.41003 19.75 4.28993 19.75 3.43428 19.314C2.68163 18.9305 2.06971 18.3186 1.68622 17.566C1.25024 16.7103 1.25024 15.5902 1.25024 13.35L1.25024 13.35L1.25024 10.65C1.25024 8.40979 1.25024 7.28969 1.68622 6.43404C2.06971 5.68139 2.68163 5.06947 3.43428 4.68598C4.28993 4.25 5.41003 4.25 7.65024 4.25L14.3502 4.25C16.5905 4.25 17.7106 4.25 18.5662 4.68598C19.3189 5.06947 19.9308 5.68139 20.3143 6.43404C20.6016 6.99792 20.6996 7.67666 20.733 8.71514L20.783 8.72944C22.2433 9.14666 23.25 10.4813 23.25 12C23.25 13.5187 22.2432 14.8534 20.783 15.2706L20.733 15.2849C20.6996 16.3234 20.6016 17.0021 20.3143 17.566C19.9308 18.3186 19.3189 18.9305 18.5662 19.314C17.7106 19.75 16.5905 19.75 14.3503 19.75L14.3502 19.75L7.65024 19.75ZM20.7502 10.65L20.7502 10.3258C21.3564 10.6521 21.75 11.2901 21.75 12C21.75 12.71 21.3564 13.348 20.7502 13.6743L20.7502 13.35L20.7502 10.65L20.7502 10.65ZM7.75 10C7.75 9.58579 7.41421 9.25 7 9.25C6.58579 9.25 6.25 9.58579 6.25 10L6.25 14C6.25 14.4142 6.58579 14.75 7 14.75C7.41421 14.75 7.75 14.4142 7.75 14L7.75 10Z" fill="#2F384C"/>
</svg>
