<svg width="24" height="24" viewBox="0 0 24 24" fill="none" xmlns="http://www.w3.org/2000/svg">
<path fill-rule="evenodd" clip-rule="evenodd" d="M11.9999 1.25C6.06282 1.25 1.24988 6.06294 1.24988 12C1.24988 13.977 1.78357 15.8294 2.71474 17.4209C3.67199 16.3951 4.24997 15.7793 4.94281 15.3314C5.56386 14.9299 6.24667 14.6332 6.96395 14.4531C7.77398 14.2498 8.62947 14.2499 10.0637 14.25L10.1455 14.25C10.3502 13.7443 10.7557 13.3414 11.2632 13.1401C11.2546 13.0947 11.2501 13.0479 11.2501 13V9C11.2501 8.58579 11.5859 8.25 12.0001 8.25C12.4143 8.25 12.7501 8.58579 12.7501 9V13C12.7501 13.0479 12.7456 13.0947 12.737 13.1401C13.2445 13.3414 13.65 13.7443 13.8547 14.25L13.9366 14.25C15.3709 14.2499 16.2264 14.2498 17.0364 14.4531C17.7537 14.6332 18.4365 14.9299 19.0576 15.3314C19.7503 15.7793 20.3282 16.395 21.2852 17.4205C22.2163 15.8291 22.7499 13.9769 22.7499 12C22.7499 6.06294 17.9369 1.25 11.9999 1.25ZM20.4165 18.6882L20.2983 18.5615C19.2238 17.4102 18.77 16.9317 18.2432 16.5911C17.7601 16.2788 17.2291 16.0481 16.6712 15.908C16.0661 15.7561 15.4107 15.7501 13.8547 15.75C13.558 16.483 12.8395 17 12.0001 17C11.1608 17 10.4422 16.483 10.1455 15.75C8.58962 15.7501 7.9342 15.7561 7.32918 15.908C6.7713 16.0481 6.24022 16.2788 5.75718 16.5911C5.23038 16.9317 4.77661 17.4102 3.70205 18.5615L3.58349 18.6885C5.55295 21.1634 8.59114 22.75 11.9999 22.75C15.4088 22.75 18.4471 21.1633 20.4165 18.6882ZM12.7501 4C12.7501 3.58579 12.4143 3.25 12.0001 3.25C11.5859 3.25 11.2501 3.58579 11.2501 4V5.33333C11.2501 5.74755 11.5859 6.08333 12.0001 6.08333C12.4143 6.08333 12.7501 5.74755 12.7501 5.33333V4ZM7.19712 6.13634C6.90423 5.84344 6.42935 5.84344 6.13646 6.13634C5.84357 6.42923 5.84357 6.9041 6.13646 7.197L7.02535 8.08589C7.31824 8.37878 7.79311 8.37878 8.08601 8.08589C8.3789 7.79299 8.3789 7.31812 8.08601 7.02523L7.19712 6.13634ZM17.8638 7.197C18.1567 6.9041 18.1567 6.42923 17.8638 6.13634C17.5709 5.84344 17.096 5.84344 16.8031 6.13634L15.9142 7.02523C15.6213 7.31812 15.6213 7.79299 15.9142 8.08589C16.2071 8.37878 16.682 8.37878 16.9749 8.08589L17.8638 7.197ZM4.00012 11.25C3.58591 11.25 3.25012 11.5858 3.25012 12C3.25012 12.4142 3.58591 12.75 4.00012 12.75H5.33346C5.74767 12.75 6.08346 12.4142 6.08346 12C6.08346 11.5858 5.74767 11.25 5.33346 11.25H4.00012ZM18.6668 11.25C18.2526 11.25 17.9168 11.5858 17.9168 12C17.9168 12.4142 18.2526 12.75 18.6668 12.75H20.0001C20.4143 12.75 20.7501 12.4142 20.7501 12C20.7501 11.5858 20.4143 11.25 20.0001 11.25H18.6668Z" fill="#2F384C"/>
</svg>
