<svg width="24" height="24" viewBox="0 0 24 24" fill="none" xmlns="http://www.w3.org/2000/svg">
<path fill-rule="evenodd" clip-rule="evenodd" d="M20.2211 1.36444C19.4517 0.983176 18.5484 0.983175 17.779 1.36444C17.3718 1.56623 17.0156 1.92297 16.5555 2.38381L16.4697 2.46974L14.9224 4.01697C14.4856 3.67924 14.0918 3.44788 13.6781 3.3005C12.5928 2.91381 11.4072 2.91381 10.3219 3.3005C9.26089 3.67852 8.33049 4.60892 6.46967 6.46974L4.46967 8.46974C2.60885 10.3306 1.67844 11.261 1.30042 12.322C0.913735 13.4073 0.913735 14.5929 1.30042 15.6782C1.67844 16.7392 2.60885 17.6696 4.46967 19.5304C6.33049 21.3912 7.2609 22.3216 8.32189 22.6996C9.40722 23.0863 10.5928 23.0863 11.6781 22.6996C12.7391 22.3216 13.6695 21.3912 15.5303 19.5304L17.5303 17.5304C19.3911 15.6696 20.3216 14.7392 20.6996 13.6782C21.0863 12.5929 21.0863 11.4073 20.6996 10.322C20.5522 9.90829 20.3208 9.51448 19.9831 9.07763L21.5303 7.5304L21.6163 7.44456L21.6163 7.44455C22.0771 6.98448 22.4338 6.62832 22.6356 6.22111C23.0169 5.45173 23.0169 4.54842 22.6356 3.77903C22.4338 3.37182 22.0771 3.01566 21.6163 2.55558L21.5303 2.46975L21.4445 2.38382C20.9844 1.92298 20.6283 1.56623 20.2211 1.36444ZM18.9902 7.94925L20.4697 6.46974C21.0577 5.88167 21.2143 5.7111 21.2916 5.55509C21.4649 5.20537 21.4649 4.79477 21.2916 4.44505C21.2143 4.28905 21.0577 4.11847 20.4697 3.5304C19.8816 2.94233 19.711 2.78578 19.555 2.70847C19.2053 2.53517 18.7947 2.53517 18.445 2.70847C18.289 2.78578 18.1184 2.94233 17.5303 3.5304L16.0508 5.00991C16.4769 5.41635 16.9599 5.89933 17.5303 6.46974C18.1007 7.04015 18.5837 7.52314 18.9902 7.94925ZM9.43941 17.5005C9.7323 17.7934 10.2072 17.7934 10.5001 17.5005C10.793 17.2076 10.793 16.7327 10.5001 16.4398L7.56072 13.5005C7.26783 13.2076 6.79296 13.2076 6.50006 13.5005C6.20717 13.7934 6.20717 14.2683 6.50006 14.5612L9.43941 17.5005Z" fill="#2F384C"/>
</svg>
