<svg width="24" height="24" viewBox="0 0 24 24" fill="none" xmlns="http://www.w3.org/2000/svg">
<path fill-rule="evenodd" clip-rule="evenodd" d="M5.41581 3.624C5.76046 3.39423 5.85359 2.92858 5.62382 2.58393C5.39406 2.23929 4.92841 2.14616 4.58376 2.37592L3.00872 3.42595L2.93067 3.47792L2.93067 3.47792C2.48589 3.77398 2.1362 4.00674 1.87528 4.32419C1.64573 4.60348 1.4735 4.92529 1.36845 5.27122C1.24904 5.6644 1.24935 6.08447 1.24974 6.61878L1.24978 6.71255V14C1.24978 14.019 1.25049 14.0379 1.25189 14.0566C1.25003 14.3379 1.25003 14.6501 1.25003 15C1.25003 16.6277 1.25003 17.4415 1.43775 18.1072C1.90996 19.7815 3.2185 21.09 4.89283 21.5622C5.55844 21.75 6.37231 21.75 8.00003 21.75H16C17.6278 21.75 18.4416 21.75 19.1072 21.5622C20.7816 21.09 22.0901 19.7815 22.5623 18.1072C22.75 17.4415 22.75 16.6277 22.75 15C22.75 14.6475 22.75 14.3332 22.7481 14.0503C22.7492 14.0337 22.7498 14.0169 22.7498 14V6.71255L22.7498 6.61877V6.61875C22.7502 6.08446 22.7505 5.6644 22.6311 5.27122C22.5261 4.92529 22.3538 4.60348 22.1243 4.32419C21.8634 4.00673 21.5137 3.77397 21.0689 3.47792L20.9909 3.42595L19.4158 2.37592C19.0712 2.14616 18.6055 2.23929 18.3757 2.58393C18.146 2.92858 18.2391 3.39423 18.5838 3.624L20.1588 4.67402C20.7186 5.04725 20.8643 5.15354 20.9655 5.27663C21.0698 5.40358 21.1481 5.54986 21.1958 5.70709C21.2421 5.85955 21.2498 6.0397 21.2498 6.71255V9.679C20.6604 9.10131 19.9277 8.66908 19.1072 8.43768C18.4416 8.24996 17.6278 8.24996 16 8.24996H8.00003C6.37231 8.24996 5.55844 8.24996 4.89283 8.43768C4.07212 8.66914 3.3393 9.10155 2.74978 9.67948V6.71255C2.74978 6.0397 2.75742 5.85955 2.80372 5.70709C2.85147 5.54986 2.92976 5.40358 3.0341 5.27663C3.13527 5.15354 3.28093 5.04725 3.84077 4.67402L5.41581 3.624ZM8.00003 17C9.1046 17 10 16.1045 10 15C10 13.8954 9.1046 13 8.00003 13C6.89546 13 6.00003 13.8954 6.00003 15C6.00003 16.1045 6.89546 17 8.00003 17ZM18 15C18 16.1045 17.1046 17 16 17C14.8955 17 14 16.1045 14 15C14 13.8954 14.8955 13 16 13C17.1046 13 18 13.8954 18 15Z" fill="#2F384C"/>
</svg>
