<svg width="24" height="24" viewBox="0 0 24 24" fill="none" xmlns="http://www.w3.org/2000/svg">
<path fill-rule="evenodd" clip-rule="evenodd" d="M3.43404 4.68597C4.28968 4.25 5.40979 4.25 7.65 4.25H16.35C18.5902 4.25 19.7103 4.25 20.566 4.68597C21.3186 5.06947 21.9305 5.68139 22.314 6.43404C22.75 7.28968 22.75 8.40979 22.75 10.65V13.35C22.75 15.5902 22.75 16.7103 22.314 17.566C21.9305 18.3186 21.3186 18.9305 20.566 19.314C19.7103 19.75 18.5902 19.75 16.35 19.75H7.65C5.40979 19.75 4.28968 19.75 3.43404 19.314C2.68139 18.9305 2.06947 18.3186 1.68597 17.566C1.25 16.7103 1.25 15.5902 1.25 13.35V10.65C1.25 8.40979 1.25 7.28968 1.68597 6.43404C2.06947 5.68139 2.68139 5.06947 3.43404 4.68597ZM6 9C5.44772 9 5 9.44772 5 10C5 10.5523 5.44772 11 6 11C6.55228 11 7 10.5523 7 10C7 9.44772 6.55228 9 6 9ZM10 9C9.44772 9 9 9.44772 9 10C9 10.5523 9.44772 11 10 11C10.5523 11 11 10.5523 11 10C11 9.44772 10.5523 9 10 9ZM14 9C13.4477 9 13 9.44772 13 10C13 10.5523 13.4477 11 14 11C14.5523 11 15 10.5523 15 10C15 9.44772 14.5523 9 14 9ZM18 9C17.4477 9 17 9.44772 17 10C17 10.5523 17.4477 11 18 11C18.5523 11 19 10.5523 19 10C19 9.44772 18.5523 9 18 9ZM6 13C5.44772 13 5 13.4477 5 14C5 14.5523 5.44772 15 6 15C6.55228 15 7 14.5523 7 14C7 13.4477 6.55228 13 6 13ZM18 13C17.4477 13 17 13.4477 17 14C17 14.5523 17.4477 15 18 15C18.5523 15 19 14.5523 19 14C19 13.4477 18.5523 13 18 13ZM9.99995 13.25C9.58574 13.25 9.24995 13.5858 9.24995 14C9.24995 14.4142 9.58574 14.75 9.99995 14.75H14C14.4142 14.75 14.75 14.4142 14.75 14C14.75 13.5858 14.4142 13.25 14 13.25H9.99995Z" fill="#2F384C"/>
</svg>
