<svg width="24" height="24" viewBox="0 0 24 24" fill="none" xmlns="http://www.w3.org/2000/svg">
<path d="M10.25 2.25C7.44974 2.25 6.04961 2.25 4.98005 2.79497C4.03924 3.27433 3.27433 4.03924 2.79497 4.98005C2.25 6.04961 2.25 7.44974 2.25 10.25V13.1C2.25 13.9401 2.25 14.3601 2.41349 14.681C2.5573 14.9632 2.78677 15.1927 3.06901 15.3365C3.38988 15.5 3.80992 15.5 4.65 15.5H19.35C20.1901 15.5 20.6101 15.5 20.931 15.3365C21.2132 15.1927 21.4427 14.9632 21.5865 14.681C21.75 14.3601 21.75 13.9401 21.75 13.1V10.25C21.75 7.44974 21.75 6.04961 21.205 4.98005C20.7257 4.03924 19.9608 3.27433 19.02 2.79497C17.9504 2.25 16.5503 2.25 13.75 2.25H10.25Z" fill="#2F384C"/>
<path d="M1.54545 17C0.829995 17 0.25 17.58 0.25 18.2955V18.2955C0.25 20.2033 1.79665 21.75 3.70455 21.75H20.2955C22.2033 21.75 23.75 20.2033 23.75 18.2955V18.2955C23.75 17.58 23.17 17 22.4545 17H1.54545Z" fill="#2F384C"/>
</svg>
