<svg width="24" height="24" viewBox="0 0 24 24" fill="none" xmlns="http://www.w3.org/2000/svg">
<path fill-rule="evenodd" clip-rule="evenodd" d="M9.58955 1.45035C10.2756 1.25012 11.0199 1.25012 12.5085 1.25012C15.5367 1.25012 17.0508 1.25012 18.1869 1.8843C18.9961 2.33603 19.6638 3.00378 20.1155 3.813C20.7497 4.94905 20.7497 6.46317 20.7497 9.4914V14.0001C20.7497 17.5113 20.7497 19.2669 19.9071 20.528C19.5423 21.0739 19.0735 21.5427 18.5276 21.9075C17.2665 22.7501 15.5109 22.7501 11.9997 22.7501C8.48857 22.7501 6.73299 22.7501 5.47187 21.9075C4.92592 21.5427 4.45717 21.0739 4.09238 20.528C3.24973 19.2669 3.24973 17.5113 3.24973 14.0001V11.3491C3.24973 9.55741 3.24973 8.66157 3.54837 7.83671C3.84701 7.01184 4.42051 6.32364 5.56751 4.94724L5.56751 4.94724L6.17733 4.21546L6.17733 4.21546C7.13028 3.07192 7.60675 2.50016 8.19978 2.10128C8.62678 1.81408 9.09556 1.59451 9.58955 1.45035ZM12.7497 7.00011C12.7497 6.5859 12.4139 6.25011 11.9997 6.25011C11.5855 6.25011 11.2497 6.5859 11.2497 7.00011V11.0001C11.2497 11.4143 11.5855 11.7501 11.9997 11.7501C12.4139 11.7501 12.7497 11.4143 12.7497 11.0001V7.00011ZM15.7497 7.00011C15.7497 6.5859 15.4139 6.25011 14.9997 6.25011C14.5855 6.25011 14.2497 6.5859 14.2497 7.00011V11.0001C14.2497 11.4143 14.5855 11.7501 14.9997 11.7501C15.4139 11.7501 15.7497 11.4143 15.7497 11.0001V7.00011ZM9.7497 9.00011C9.7497 8.5859 9.41391 8.25011 8.9997 8.25011C8.58549 8.25011 8.2497 8.5859 8.2497 9.00011V11.0001C8.2497 11.4143 8.58549 11.7501 8.9997 11.7501C9.41391 11.7501 9.7497 11.4143 9.7497 11.0001V9.00011Z" fill="#2F384C"/>
</svg>
