<svg width="24" height="24" viewBox="0 0 24 24" fill="none" xmlns="http://www.w3.org/2000/svg">
<path fill-rule="evenodd" clip-rule="evenodd" d="M6.8 1.25H6.7679H6.76788C5.95505 1.24999 5.29944 1.24999 4.76853 1.29336C4.2219 1.33803 3.74175 1.43239 3.29754 1.65873C2.59193 2.01825 2.01825 2.59193 1.65873 3.29754C1.43239 3.74175 1.33803 4.2219 1.29336 4.76853C1.24999 5.29944 1.24999 5.95505 1.25 6.76788V6.7679V6.8V13V13.2V13.2321V13.2321C1.24999 14.045 1.24999 14.7006 1.29336 15.2315C1.33803 15.7781 1.43239 16.2582 1.65873 16.7025C2.01825 17.4081 2.59193 17.9818 3.29754 18.3413C3.74175 18.5676 4.2219 18.662 4.76853 18.7066C5.29944 18.75 5.95505 18.75 6.76788 18.75H6.8H9.21336C9.09872 19.8631 8.73682 20.4797 8.43944 20.8142C8.25452 21.0223 8.07626 21.1422 7.95529 21.2077C7.92217 21.2257 7.8933 21.2395 7.86976 21.25H7C6.58579 21.25 6.25 21.5858 6.25 22C6.25 22.4142 6.58579 22.75 7 22.75H8L15.9985 22.75L16 22.75H17C17.4142 22.75 17.75 22.4142 17.75 22C17.75 21.5858 17.4142 21.25 17 21.25H16.0221L16.0201 21.2497C16.0048 21.2475 15.9711 21.2415 15.9247 21.226C15.8344 21.1959 15.6887 21.128 15.5303 20.9697C15.2654 20.7047 14.8828 20.099 14.7776 18.75H17.2H17.2321C18.045 18.75 18.7006 18.75 19.2315 18.7066C19.7781 18.662 20.2582 18.5676 20.7025 18.3413C21.4081 17.9818 21.9817 17.4081 22.3413 16.7025C22.5676 16.2582 22.662 15.7781 22.7066 15.2315C22.75 14.7006 22.75 14.045 22.75 13.2321V13.2V13V6.8V6.76788C22.75 5.95505 22.75 5.29944 22.7066 4.76853C22.662 4.2219 22.5676 3.74175 22.3413 3.29754C21.9817 2.59193 21.4081 2.01825 20.7025 1.65873C20.2582 1.43239 19.7781 1.33803 19.2315 1.29336C18.7006 1.24999 18.045 1.24999 17.2321 1.25H17.2321H17.2H6.8ZM9.97426 21.25C10.3411 20.6493 10.6286 19.8375 10.7197 18.75H13.2739C13.3464 19.8396 13.5779 20.6504 13.899 21.25H9.97426ZM17.2 17.25H14H10H6.8C5.94755 17.25 5.35331 17.2494 4.89068 17.2116C4.4368 17.1745 4.17604 17.1054 3.97852 17.0048C3.55516 16.789 3.21095 16.4448 2.99524 16.0215C2.8946 15.824 2.82547 15.5632 2.78838 15.1093C2.7593 14.7534 2.75225 14.3195 2.75054 13.75H21.2495C21.2478 14.3195 21.2407 14.7534 21.2116 15.1093C21.1745 15.5632 21.1054 15.824 21.0048 16.0215C20.789 16.4448 20.4448 16.789 20.0215 17.0048C19.824 17.1054 19.5632 17.1745 19.1093 17.2116C18.6467 17.2494 18.0525 17.25 17.2 17.25Z" fill="#2F384C"/>
</svg>
