<svg width="24" height="24" viewBox="0 0 24 24" fill="none" xmlns="http://www.w3.org/2000/svg">
<path fill-rule="evenodd" clip-rule="evenodd" d="M8.75 2C8.75 1.58579 8.41421 1.25 8 1.25C7.58579 1.25 7.25 1.58579 7.25 2V6.25559C5.8999 6.27389 5.0894 6.35205 4.43404 6.68597C3.68139 7.06947 3.06947 7.68139 2.68597 8.43404C2.25 9.28969 2.25 10.4098 2.25 12.65V13.15C2.25 16.5103 2.25 18.1905 2.90396 19.4739C3.4792 20.6029 4.39708 21.5208 5.52606 22.096C6.80953 22.75 8.48969 22.75 11.85 22.75H12.15C15.5103 22.75 17.1905 22.75 18.4739 22.096C19.6029 21.5208 20.5208 20.6029 21.096 19.4739C21.75 18.1905 21.75 16.5103 21.75 13.15V12.65C21.75 10.4098 21.75 9.28969 21.314 8.43404C20.9305 7.68139 20.3186 7.06947 19.566 6.68597C18.9106 6.35205 18.1001 6.27389 16.75 6.25559V2C16.75 1.58579 16.4142 1.25 16 1.25C15.5858 1.25 15.25 1.58579 15.25 2V6.25H8.75V2ZM12.3354 9.82918C12.7059 10.0144 12.8561 10.4649 12.6708 10.8354L11.2135 13.75H14C14.2599 13.75 14.5013 13.8846 14.638 14.1057C14.7746 14.3268 14.7871 14.6029 14.6708 14.8354L12.6708 18.8354C12.4856 19.2059 12.0351 19.3561 11.6646 19.1708C11.2941 18.9856 11.1439 18.5351 11.3292 18.1646L12.7865 15.25H10C9.74007 15.25 9.49867 15.1154 9.36201 14.8943C9.22536 14.6732 9.21293 14.3971 9.32918 14.1646L11.3292 10.1646C11.5144 9.79411 11.9649 9.64394 12.3354 9.82918Z" fill="#2F384C"/>
</svg>
