<svg width="24" height="24" viewBox="0 0 24 24" fill="none" xmlns="http://www.w3.org/2000/svg">
<path fill-rule="evenodd" clip-rule="evenodd" d="M8.24987 4.99993C8.24994 2.92888 9.92888 1.25 11.9999 1.25C14.071 1.25 15.75 2.92896 15.75 5.00007V12.6414C16.9732 13.6949 17.75 15.2568 17.75 17C17.75 20.1756 15.1756 22.75 12 22.75C8.82436 22.75 6.25 20.1756 6.25 17C6.25 15.2569 7.02634 13.6949 8.2496 12.6413L8.24987 4.99993ZM10 4.25C9.58579 4.25 9.25 4.58579 9.25 5C9.25 5.41421 9.58579 5.75 10 5.75H11C11.4142 5.75 11.75 5.41421 11.75 5C11.75 4.58579 11.4142 4.25 11 4.25H10ZM10 7.25C9.58579 7.25 9.25 7.58579 9.25 8C9.25 8.41421 9.58579 8.75 10 8.75H11C11.4142 8.75 11.75 8.41421 11.75 8C11.75 7.58579 11.4142 7.25 11 7.25H10ZM10 10.25C9.58579 10.25 9.25 10.5858 9.25 11C9.25 11.4142 9.58579 11.75 10 11.75H11C11.4142 11.75 11.75 11.4142 11.75 11C11.75 10.5858 11.4142 10.25 11 10.25H10Z" fill="#2F384C"/>
</svg>
