<svg width="24" height="24" viewBox="0 0 24 24" fill="none" xmlns="http://www.w3.org/2000/svg">
<path fill-rule="evenodd" clip-rule="evenodd" d="M10.85 1.25C7.48969 1.25 5.80953 1.25 4.52606 1.90396C3.39708 2.4792 2.4792 3.39708 1.90396 4.52606C1.25 5.80953 1.25 7.48969 1.25 10.85V13.15C1.25 16.5103 1.25 18.1905 1.90396 19.4739C2.4792 20.6029 3.39708 21.5208 4.52606 22.096C5.80953 22.75 7.48969 22.75 10.85 22.75H13.15C16.5103 22.75 18.1905 22.75 19.4739 22.096C20.6029 21.5208 21.5208 20.6029 22.096 19.4739C22.75 18.1905 22.75 16.5103 22.75 13.15V10.85C22.75 7.48969 22.75 5.80953 22.096 4.52606C21.5208 3.39708 20.6029 2.4792 19.4739 1.90396C18.1905 1.25 16.5103 1.25 13.15 1.25H10.85ZM9.88288 13C9.19759 13 8.85495 13 8.54935 12.899C8.279 12.8097 8.03084 12.6637 7.82146 12.4707C7.58478 12.2526 7.41838 11.9531 7.08558 11.3541L7.06527 11.3175C6.74197 10.7356 6.58031 10.4446 6.56308 9.96478C6.55152 9.64294 6.72274 9.04352 6.90254 8.77635C7.1706 8.37803 7.3569 8.2745 7.72948 8.06744C8.72404 7.51473 10.1475 7 12 7C13.8524 7 15.2759 7.51473 16.2705 8.06744C16.6431 8.2745 16.8294 8.37803 17.0974 8.77635C17.2772 9.04352 17.4485 9.64294 17.4369 9.96478C17.4197 10.4446 17.258 10.7356 16.9347 11.3175L16.9144 11.3541L16.9144 11.3541C16.5816 11.9531 16.4152 12.2526 16.1785 12.4707C15.9691 12.6637 15.721 12.8097 15.4506 12.899C15.145 13 14.8024 13 14.1171 13H12.5246L10.6556 9.63577C10.4545 9.27368 9.99786 9.14322 9.63577 9.34438C9.27368 9.54554 9.14322 10.0021 9.34438 10.3642L10.8087 13H9.88288ZM10 16.25C9.58579 16.25 9.25 16.5858 9.25 17C9.25 17.4142 9.58579 17.75 10 17.75H14C14.4142 17.75 14.75 17.4142 14.75 17C14.75 16.5858 14.4142 16.25 14 16.25H10Z" fill="#2F384C"/>
</svg>
