<svg width="24" height="24" viewBox="0 0 24 24" fill="none" xmlns="http://www.w3.org/2000/svg">
<path d="M15 22V14M15 14V2L16.5761 2.39403C17.4428 2.61069 17.8761 2.71903 18.1988 2.96062C18.4834 3.17378 18.7061 3.459 18.8439 3.78687C19 4.15848 19 4.60515 19 5.49848V10.0223C19 10.7402 19 11.0992 18.8907 11.4161C18.794 11.6963 18.6363 11.9516 18.4288 12.1634C18.1943 12.4029 17.8732 12.5634 17.2311 12.8845L15 14ZM7 2V11M7 11V22M7 11L5.42496 9.94997C4.90398 9.60265 4.64349 9.42899 4.45491 9.19955C4.28796 8.99643 4.1627 8.76238 4.0863 8.5108C4 8.22663 4 7.91355 4 7.28741V2M7 11L8.57504 9.94997C9.09602 9.60265 9.35651 9.42899 9.54509 9.19955C9.71204 8.99643 9.8373 8.76238 9.9137 8.5108C10 8.22663 10 7.91355 10 7.28741V2" stroke="currentColor" stroke-width="1.5" stroke-linecap="round" stroke-linejoin="round"/>
</svg>
