<svg width="24" height="24" viewBox="0 0 24 24" fill="none" xmlns="http://www.w3.org/2000/svg">
<path d="M6 10.2236C3.66962 11.0556 2 13.3006 2 15.9394C2 19.2866 4.68629 22 8 22C11.3137 22 14 19.2866 14 15.9394C14 15.2611 13.8897 14.6089 13.6862 14M12 20.6144C13.0566 21.48 14.4116 22.0001 15.8891 22.0001C19.2641 22.0001 22 19.2866 22 15.9394C22 13.3281 20.3348 11.1025 18 10.2501M18 8C18 11.3137 15.3137 14 12 14C8.68629 14 6 11.3137 6 8C6 4.68629 8.68629 2 12 2C15.3137 2 18 4.68629 18 8Z" stroke="currentColor" stroke-width="1.5" stroke-linecap="round" stroke-linejoin="round"/>
</svg>
