<svg width="24" height="24" viewBox="0 0 24 24" fill="none" xmlns="http://www.w3.org/2000/svg">
<path fill-rule="evenodd" clip-rule="evenodd" d="M8.25003 5C8.25003 2.92893 9.92896 1.25 12 1.25C14.0711 1.25 15.75 2.92893 15.75 5V5.21604C17.0038 5.91056 18.0446 6.94252 18.75 8.18934L20.0638 6.87556C20.6079 6.33146 20.7901 6.14244 20.9185 5.93298C21.0418 5.73167 21.1327 5.51219 21.1879 5.28261C21.2452 5.04374 21.25 4.78125 21.25 4.01177V3C21.25 2.58579 21.5858 2.25 22 2.25C22.4142 2.25 22.75 2.58579 22.75 3V4.01177L22.75 4.09723C22.7502 4.7488 22.7504 5.1998 22.6464 5.63278C22.5546 6.01542 22.403 6.38121 22.1974 6.71673C21.9648 7.09639 21.6458 7.41521 21.1849 7.87581L21.1245 7.93622L19.5304 9.53033C19.4858 9.57489 19.437 9.61267 19.3853 9.64367C19.6222 10.3867 19.75 11.1784 19.75 12V15C19.75 15.2228 19.7406 15.4434 19.7222 15.6615L21.1245 17.0638L21.1849 17.1242L21.1849 17.1242C21.6458 17.5848 21.9648 17.9036 22.1974 18.2833C22.403 18.6188 22.5546 18.9846 22.6464 19.3672C22.7504 19.8002 22.7502 20.2512 22.75 20.9028L22.75 20.9882V22C22.75 22.4142 22.4142 22.75 22 22.75C21.5858 22.75 21.25 22.4142 21.25 22V20.9882C21.25 20.2188 21.2452 19.9563 21.1879 19.7174C21.1327 19.4878 21.0418 19.2683 20.9185 19.067C20.7901 18.8576 20.6079 18.6685 20.0638 18.1244L19.3634 17.424C18.4208 20.2891 15.8525 22.4163 12.75 22.7142V17C12.75 16.5858 12.4142 16.25 12 16.25C11.5858 16.25 11.25 16.5858 11.25 17V22.7142C8.1475 22.4162 5.57931 20.2891 4.63667 17.424L3.93625 18.1244C3.39215 18.6685 3.20995 18.8576 3.08159 19.067C2.95823 19.2683 2.86732 19.4878 2.8122 19.7174C2.75485 19.9563 2.75003 20.2188 2.75003 20.9882V22C2.75003 22.4142 2.41425 22.75 2.00003 22.75C1.58582 22.75 1.25003 22.4142 1.25003 22V20.9882L1.25002 20.9028C1.24983 20.2512 1.2497 19.8002 1.35364 19.3672C1.44551 18.9846 1.59702 18.6188 1.80263 18.2833C2.03529 17.9036 2.3543 17.5848 2.81515 17.1242L2.87559 17.0638L4.27787 15.6615C4.25944 15.4434 4.25003 15.2228 4.25003 15V12C4.25003 11.1784 4.37787 10.3867 4.61474 9.64367C4.56304 9.61267 4.51426 9.57489 4.4697 9.53033L2.87559 7.93622L2.81515 7.8758L2.81514 7.87579C2.35429 7.41521 2.03529 7.09639 1.80263 6.71673C1.59702 6.38121 1.44551 6.01542 1.35364 5.63278C1.2497 5.1998 1.24983 4.7488 1.25002 4.09724L1.25003 4.01177V3C1.25003 2.58579 1.58582 2.25 2.00003 2.25C2.41425 2.25 2.75003 2.58579 2.75003 3V4.01177C2.75003 4.78125 2.75485 5.04374 2.8122 5.28261C2.86732 5.51219 2.95823 5.73167 3.08159 5.93298C3.20995 6.14244 3.39215 6.33146 3.93625 6.87556L5.25003 8.18934C5.95543 6.94252 6.9963 5.91056 8.25003 5.21604V5ZM9.79121 4.56931C10.4912 4.36155 11.2326 4.25 12 4.25C12.7675 4.25 13.5089 4.36155 14.2089 4.56932C14.0079 3.5327 13.0954 2.75 12 2.75C10.9047 2.75 9.99215 3.5327 9.79121 4.56931Z" fill="#2F384C"/>
</svg>
