<svg width="24" height="24" viewBox="0 0 24 24" fill="none" xmlns="http://www.w3.org/2000/svg">
<path d="M22 8V7.5V7.5C22 4.46243 19.5376 2 16.5 2V2H16M22 16V16.5V16.5C22 19.5376 19.5376 22 16.5 22V22H16M2 16V16.5V16.5C2 19.5376 4.46243 22 7.5 22V22H8M2 8V7.5V7.5C2 4.46243 4.46243 2 7.5 2V2H8M11.9999 8V12.0001C11.9999 12.5523 11.5522 13 11 13M8 8V9.5M16 8V9.5M16.0007 15C15.0885 16.2144 13.6362 17 12.0004 17C10.3645 17 8.91221 16.2144 8 15" stroke="#2F384C" stroke-width="1.5" stroke-linecap="round" stroke-linejoin="round"/>
</svg>
