<svg width="24" height="24" viewBox="0 0 24 24" fill="none" xmlns="http://www.w3.org/2000/svg">
<path fill-rule="evenodd" clip-rule="evenodd" d="M3.98005 1.79497C5.04961 1.25 6.44974 1.25 9.25 1.25H14.75C17.5503 1.25 18.9504 1.25 20.02 1.79497C20.9608 2.27433 21.7257 3.03924 22.205 3.98005C22.75 5.04961 22.75 6.44974 22.75 9.25V14.75C22.75 17.5503 22.75 18.9504 22.205 20.02C21.7257 20.9608 20.9608 21.7257 20.02 22.205C18.9504 22.75 17.5503 22.75 14.75 22.75H9.25C6.44974 22.75 5.04961 22.75 3.98005 22.205C3.03924 21.7257 2.27433 20.9608 1.79497 20.02C1.25 18.9504 1.25 17.5503 1.25 14.75V9.25C1.25 6.44974 1.25 5.04961 1.79497 3.98005C2.27433 3.03924 3.03924 2.27433 3.98005 1.79497ZM12 4.25C11.1112 4.25 10.2603 4.41485 9.48024 4.71553C9.09375 4.86451 8.90121 5.29861 9.05019 5.6851C9.19918 6.07159 9.63327 6.26413 10.0198 6.11514C10.6294 5.88014 11.2975 5.75 12 5.75C14.9345 5.75 17.25 8.00649 17.25 10.7138C17.25 11.128 17.5858 11.4638 18 11.4638C18.4142 11.4638 18.75 11.128 18.75 10.7138C18.75 7.10983 15.693 4.25 12 4.25ZM7.88975 7.62567C8.1565 7.30879 8.11585 6.83565 7.79896 6.5689C7.48208 6.30216 7.00895 6.3428 6.7422 6.65969C5.81161 7.76518 5.25 9.17576 5.25 10.7138V13.5707C5.25 16.4602 7.22165 18.8771 9.90096 19.7158C10.2963 19.8395 10.717 19.6193 10.8408 19.224C10.9645 18.8287 10.7443 18.408 10.349 18.2842C8.23746 17.6233 6.75 15.7454 6.75 13.5707V10.7138C6.75 9.54938 7.17346 8.47659 7.88975 7.62567ZM12 7.25C10.0144 7.25 8.25 8.69909 8.25 10.6667V13.3333C8.25 13.7475 8.58579 14.0833 9 14.0833C9.41421 14.0833 9.75 13.7475 9.75 13.3333V10.6667C9.75 9.68873 10.6719 8.75 12 8.75C12.4142 8.75 12.75 8.41421 12.75 8C12.75 7.58579 12.4142 7.25 12 7.25ZM15.2273 8.92425C15.0013 8.57708 14.5367 8.47879 14.1896 8.70472C13.8424 8.93066 13.7441 9.39525 13.97 9.74242C14.151 10.0205 14.25 10.335 14.25 10.6667V13.3333C14.25 14.3113 13.3281 15.25 12 15.25C11.5727 15.25 11.1779 15.1485 10.843 14.9763C10.4746 14.7868 10.0224 14.9319 9.83301 15.3003C9.6436 15.6687 9.78867 16.1208 10.157 16.3102C10.7046 16.5918 11.3345 16.75 12 16.75C13.9856 16.75 15.75 15.3009 15.75 13.3333V10.6667C15.75 10.0269 15.5568 9.43064 15.2273 8.92425ZM12.75 11C12.75 10.5858 12.4142 10.25 12 10.25C11.5858 10.25 11.25 10.5858 11.25 11V13C11.25 13.4142 11.5858 13.75 12 13.75C12.4142 13.75 12.75 13.4142 12.75 13V11ZM18.75 13.5707C18.75 13.1565 18.4142 12.8207 18 12.8207C17.5858 12.8207 17.25 13.1565 17.25 13.5707C17.25 15.7454 15.7625 17.6233 13.651 18.2842C13.2557 18.408 13.0355 18.8287 13.1592 19.224C13.283 19.6193 13.7037 19.8395 14.099 19.7158C16.7784 18.8771 18.75 16.4602 18.75 13.5707Z" fill="#2F384C"/>
</svg>
