<svg width="24" height="24" viewBox="0 0 24 24" fill="none" xmlns="http://www.w3.org/2000/svg">
<path fill-rule="evenodd" clip-rule="evenodd" d="M3.98005 1.79497C5.04961 1.25 6.44974 1.25 9.25 1.25H14.75C17.5503 1.25 18.9504 1.25 20.02 1.79497C20.9608 2.27433 21.7257 3.03924 22.205 3.98005C22.75 5.04961 22.75 6.44974 22.75 9.25V14.75C22.75 17.5503 22.75 18.9504 22.205 20.02C21.7257 20.9608 20.9608 21.7257 20.02 22.205C18.9504 22.75 17.5503 22.75 14.75 22.75H9.25C6.44974 22.75 5.04961 22.75 3.98005 22.205C3.03924 21.7257 2.27433 20.9608 1.79497 20.02C1.25 18.9504 1.25 17.5503 1.25 14.75V9.25C1.25 6.44974 1.25 5.04961 1.79497 3.98005C2.27433 3.03924 3.03924 2.27433 3.98005 1.79497ZM12 4.25C10.898 4.25 9.84806 4.48254 8.89718 4.9022C8.51823 5.06944 8.34661 5.51222 8.51385 5.89117C8.68109 6.27012 9.12387 6.44174 9.50282 6.27449C10.2668 5.93731 11.1109 5.75 12 5.75C15.4447 5.75 18.25 8.57276 18.25 12.0707C18.25 12.4849 18.5858 12.8207 19 12.8207C19.4142 12.8207 19.75 12.4849 19.75 12.0707C19.75 7.75858 16.2873 4.25 12 4.25ZM7.00133 8.27583C7.24849 7.94344 7.17941 7.47362 6.84702 7.22645C6.51464 6.97928 6.04482 7.04836 5.79765 7.38075C4.82561 8.68793 4.25 10.3129 4.25 12.0707C4.25 15.8496 6.90723 19.0084 10.4494 19.7347C10.8551 19.8179 11.2515 19.5564 11.3347 19.1506C11.4179 18.7449 11.1564 18.3485 10.7506 18.2653C7.9025 17.6813 5.75 15.1334 5.75 12.0707C5.75 10.645 6.21583 9.33214 7.00133 8.27583ZM8.75 12C8.75 10.2051 10.2051 8.75 12 8.75C12.4142 8.75 12.75 8.41421 12.75 8C12.75 7.58579 12.4142 7.25 12 7.25C9.37665 7.25 7.25 9.37665 7.25 12C7.25 12.9701 7.54161 13.8744 8.04212 14.6271C8.27146 14.972 8.73699 15.0658 9.08192 14.8364C9.42685 14.6071 9.52056 14.1415 9.29122 13.7966C8.94926 13.2823 8.75 12.6656 8.75 12ZM15.1669 8.45967C14.8582 8.18343 14.3841 8.20969 14.1078 8.51834C13.8316 8.82698 13.8578 9.30113 14.1665 9.57738C14.8326 10.1735 15.25 11.0375 15.25 12C15.25 13.7949 13.7949 15.25 12 15.25C11.6188 15.25 11.2545 15.1847 10.9166 15.0653C10.5261 14.9272 10.0976 15.1319 9.95954 15.5225C9.8215 15.913 10.0262 16.3415 10.4167 16.4795C10.9129 16.6549 11.4462 16.75 12 16.75C14.6234 16.75 16.75 14.6234 16.75 12C16.75 10.5931 16.1374 9.32836 15.1669 8.45967ZM12.75 11C12.75 10.5858 12.4142 10.25 12 10.25C11.5858 10.25 11.25 10.5858 11.25 11V13C11.25 13.4142 11.5858 13.75 12 13.75C12.4142 13.75 12.75 13.4142 12.75 13V11ZM18.7144 15.9788C18.9202 15.6194 18.7957 15.1611 18.4362 14.9552C18.0768 14.7494 17.6185 14.8739 17.4127 15.2334C16.5298 16.775 15.0237 17.9015 13.2494 18.2653C12.8436 18.3485 12.5821 18.7449 12.6653 19.1506C12.7485 19.5564 13.1449 19.8179 13.5506 19.7347C15.7607 19.2816 17.6245 17.8819 18.7144 15.9788Z" fill="#2F384C"/>
</svg>
