<svg width="24" height="24" viewBox="0 0 24 24" fill="none" xmlns="http://www.w3.org/2000/svg">
<path fill-rule="evenodd" clip-rule="evenodd" d="M20.5303 2.53033C20.8232 2.23744 20.8232 1.76256 20.5303 1.46967C20.2374 1.17678 19.7626 1.17678 19.4697 1.46967L18.4699 2.46941L18.4697 2.46967L12.9697 7.96967L10.9918 9.94756C10.0901 9.501 9.07436 9.25 8 9.25C4.27208 9.25 1.25 12.2721 1.25 16C1.25 19.7279 4.27208 22.75 8 22.75C11.7279 22.75 14.75 19.7279 14.75 16C14.75 13.8968 13.7881 12.0183 12.2803 10.7804L13.7465 9.31415L18.3529 10.2354C18.5988 10.2846 18.853 10.2076 19.0303 10.0303L22.5303 6.53033C22.8232 6.23744 22.8232 5.76256 22.5303 5.46967L20.0607 3L20.5303 2.53033Z" fill="#2F384C"/>
</svg>
