<svg width="24" height="24" viewBox="0 0 24 24" fill="none" xmlns="http://www.w3.org/2000/svg">
<path fill-rule="evenodd" clip-rule="evenodd" d="M11.2 1.25H11.1696H11.1695C10.6354 1.24999 10.1896 1.24998 9.82533 1.27974C9.44545 1.31078 9.08879 1.37789 8.75153 1.54973C8.23408 1.81339 7.81338 2.23408 7.54973 2.75153C7.37789 3.08879 7.31078 3.44545 7.27974 3.82533C7.24998 4.18956 7.24999 4.63541 7.25 5.16956V5.16957L7.25 5.2V6.65029C4.84281 8.20922 3.25 10.9186 3.25 14C3.25 18.8325 7.16751 22.75 12 22.75C16.8325 22.75 20.75 18.8325 20.75 14C20.75 10.9186 19.1572 8.20922 16.75 6.65029V5.2V5.16955V5.16951C16.75 4.63538 16.75 4.18955 16.7203 3.82533C16.6892 3.44545 16.6221 3.08879 16.4503 2.75153C16.1866 2.23408 15.7659 1.81339 15.2485 1.54973C14.9112 1.37789 14.5546 1.31078 14.1747 1.27974C13.8104 1.24998 13.3646 1.24999 12.8305 1.25H12.8304H12.8H11.2ZM15.25 5.87345V5.2C15.25 4.62757 15.2494 4.24336 15.2252 3.94748C15.2018 3.66036 15.1599 3.52307 15.1138 3.43251C14.9939 3.19731 14.8027 3.00609 14.5675 2.88624C14.4769 2.8401 14.3396 2.79822 14.0525 2.77476C13.7566 2.75059 13.3724 2.75 12.8 2.75H11.2C10.6276 2.75 10.2434 2.75059 9.94748 2.77476C9.66035 2.79822 9.52307 2.8401 9.43251 2.88624C9.19731 3.00609 9.00608 3.19731 8.88624 3.43251C8.8401 3.52307 8.79822 3.66036 8.77476 3.94748C8.75058 4.24336 8.75 4.62757 8.75 5.2V5.87345C9.75479 5.47125 10.8516 5.25 12 5.25C13.1484 5.25 14.2452 5.47125 15.25 5.87345ZM11.25 12.75C11.25 12.3358 11.5858 12 12 12C12.4142 12 12.75 12.3358 12.75 12.75V15.25C12.75 15.6642 12.4142 16 12 16C11.5858 16 11.25 15.6642 11.25 15.25V12.75Z" fill="#2F384C"/>
</svg>
