<svg width="24" height="24" viewBox="0 0 24 24" fill="none" xmlns="http://www.w3.org/2000/svg">
<path fill-rule="evenodd" clip-rule="evenodd" d="M11.9999 1.25H11.9641C11.0599 1.24999 10.3306 1.24998 9.74233 1.3033C9.13598 1.35826 8.60618 1.47456 8.12493 1.75241C7.55486 2.08154 7.08147 2.55493 6.75234 3.125C6.54523 3.48372 6.66814 3.94241 7.02686 4.14952C7.38558 4.35663 7.84427 4.23372 8.05138 3.875C8.24885 3.53296 8.53289 3.24892 8.87493 3.05144C9.08983 2.92737 9.37542 2.84271 9.87773 2.79718C10.3903 2.75072 11.0515 2.75 11.9999 2.75C12.9484 2.75 13.6095 2.75072 14.1221 2.79718C14.6244 2.84271 14.91 2.92737 15.1249 3.05144C15.467 3.24892 15.751 3.53296 15.9485 3.875C16.0726 4.0899 16.1572 4.37549 16.2028 4.87779C16.2492 5.39041 16.2499 6.05158 16.2499 7V7.27015C15.6101 7.24999 14.879 7.24999 14.0416 7.25H14H12C11.5858 7.25 11.25 7.58579 11.25 8C11.25 8.41421 11.5858 8.75 12 8.75H14C15.4201 8.75 16.4287 8.75091 17.2102 8.83042C17.9793 8.90865 18.4449 9.05673 18.8056 9.29772C19.1605 9.53484 19.4652 9.83953 19.7023 10.1944C19.9433 10.5551 20.0914 11.0207 20.1696 11.7898C20.2491 12.5713 20.25 13.5799 20.25 15C20.25 15.7664 20.25 16.4167 20.2367 16.9824C20.2269 17.3965 20.5547 17.7401 20.9688 17.7498C21.3829 17.7595 21.7265 17.4317 21.7362 17.0176C21.75 16.4325 21.75 15.7653 21.75 15.0072V15V14.9584C21.75 13.5892 21.75 12.5043 21.6619 11.6379C21.5716 10.7503 21.3826 10.0093 20.9495 9.36104C20.6029 8.84239 20.1576 8.39707 19.639 8.05052C19.0875 7.68205 18.4689 7.49027 17.7499 7.38563V7V6.96423C17.7499 6.05998 17.7499 5.3307 17.6966 4.7424C17.6417 4.13605 17.5254 3.60625 17.2475 3.125C16.9184 2.55493 16.445 2.08154 15.8749 1.75241C15.3937 1.47456 14.8639 1.35826 14.2575 1.3033C13.6692 1.24998 12.94 1.24999 12.0357 1.25H11.9999ZM4.53033 3.46967C4.23744 3.17678 3.76256 3.17678 3.46967 3.46967C3.17678 3.76256 3.17678 4.23744 3.46967 4.53033L6.31545 7.37611C5.56107 7.48016 4.92224 7.67554 4.36104 8.05052C3.84239 8.39707 3.39707 8.84239 3.05052 9.36104C2.61739 10.0093 2.42841 10.7503 2.33812 11.6379C2.24999 12.5043 2.24999 13.5892 2.25 14.9584V14.9584V15V15.0416V15.0416C2.24999 16.4108 2.24999 17.4957 2.33812 18.3621C2.42841 19.2497 2.61739 19.9907 3.05052 20.639C3.39707 21.1576 3.84239 21.6029 4.36104 21.9495C5.00926 22.3826 5.7503 22.5716 6.63795 22.6619C7.50431 22.75 8.58922 22.75 9.95844 22.75H10H14H14.0416C15.4108 22.75 16.4957 22.75 17.3621 22.6619C18.2497 22.5716 18.9907 22.3826 19.639 21.9495C19.8863 21.7842 20.117 21.5964 20.3283 21.389L21.4697 22.5303C21.7626 22.8232 22.2374 22.8232 22.5303 22.5303C22.8232 22.2374 22.8232 21.7626 22.5303 21.4697L20.8142 19.7536L8.54357 7.48291L4.53033 3.46967ZM12.75 13.8107L11.25 12.3107V16C11.25 16.4142 11.5858 16.75 12 16.75C12.4142 16.75 12.75 16.4142 12.75 16V13.8107Z" fill="#2F384C"/>
</svg>
