<svg width="24" height="24" viewBox="0 0 24 24" fill="none" xmlns="http://www.w3.org/2000/svg">
<path fill-rule="evenodd" clip-rule="evenodd" d="M12 1.25L11.948 1.25H11.948C11.0495 1.24997 10.3003 1.24995 9.70556 1.32991C9.07776 1.41432 8.51096 1.59999 8.05549 2.05546C7.54717 2.56378 7.37479 3.21078 7.30438 3.92659C7.26384 4.33881 7.56514 4.70585 7.97736 4.7464C8.38959 4.78695 8.75663 4.48565 8.79718 4.07342C8.85465 3.48911 8.97129 3.26098 9.11615 3.11612C9.24647 2.9858 9.44397 2.87858 9.90543 2.81654C10.3885 2.7516 11.036 2.75 12 2.75C12.964 2.75 13.6116 2.7516 14.0946 2.81654C14.5561 2.87858 14.7536 2.9858 14.8839 3.11612C15.0142 3.24644 15.1215 3.44393 15.1835 3.9054C15.2456 4.36699 15.2498 4.97882 15.25 5.87347C14.2452 5.47126 13.1484 5.25 12 5.25C11.6302 5.25 11.2655 5.27298 10.9072 5.31766C10.7231 5.34062 10.5407 5.36931 10.3602 5.40354C9.95327 5.48074 9.68594 5.87322 9.76314 6.28018C9.84034 6.68713 10.2328 6.95446 10.6398 6.87726C10.7892 6.84892 10.9402 6.82516 11.0928 6.80613C11.3897 6.76911 11.6924 6.75 12 6.75C16.0041 6.75 19.25 9.99594 19.25 14C19.25 14.3076 19.2309 14.6103 19.1939 14.9072C19.1748 15.0598 19.1511 15.2108 19.1227 15.3602C19.0455 15.7672 19.3129 16.1597 19.7198 16.2369C20.1268 16.3141 20.5193 16.0467 20.5965 15.6398C20.6307 15.4593 20.6594 15.2769 20.6823 15.0928C20.727 14.7345 20.75 14.3698 20.75 14C20.75 10.9186 19.1572 8.20925 16.75 6.65032V6L16.75 5.94801V5.94798C16.7501 5.04951 16.7501 4.3003 16.6701 3.70552C16.5857 3.07773 16.4 2.51093 15.9446 2.05546C15.4891 1.59999 14.9223 1.41432 14.2945 1.32991C13.6997 1.24995 12.9505 1.24997 12.0521 1.25H12.052L12 1.25ZM3.53033 2.46967C3.23744 2.17678 2.76256 2.17678 2.46967 2.46967C2.17678 2.76257 2.17678 3.23744 2.46967 3.53033L6.30026 7.36092C4.43386 8.96476 3.25 11.3441 3.25 14C3.25 18.8325 7.16751 22.75 12 22.75C14.6559 22.75 17.0352 21.5661 18.6391 19.6997L21.4697 22.5303C21.7626 22.8232 22.2374 22.8232 22.5303 22.5303C22.8232 22.2374 22.8232 21.7626 22.5303 21.4697L19.0986 18.0379L7.96206 6.9014L3.53033 2.46967ZM12.75 13.8107L11.25 12.3107V15C11.25 15.4142 11.5858 15.75 12 15.75C12.4142 15.75 12.75 15.4142 12.75 15V13.8107Z" fill="#2F384C"/>
</svg>
