<svg width="24" height="24" viewBox="0 0 24 24" fill="none" xmlns="http://www.w3.org/2000/svg">
<path fill-rule="evenodd" clip-rule="evenodd" d="M3.98005 1.79497C5.04961 1.25 6.44974 1.25 9.25 1.25H14.75C17.5503 1.25 18.9504 1.25 20.02 1.79497C20.9608 2.27433 21.7257 3.03924 22.205 3.98005C22.75 5.04961 22.75 6.44974 22.75 9.25V14.75C22.75 17.5503 22.75 18.9504 22.205 20.02C21.7257 20.9608 20.9608 21.7257 20.02 22.205C18.9504 22.75 17.5503 22.75 14.75 22.75H9.25C6.44974 22.75 5.04961 22.75 3.98005 22.205C3.03924 21.7257 2.27433 20.9608 1.79497 20.02C1.25 18.9504 1.25 17.5503 1.25 14.75V9.25C1.25 6.44974 1.25 5.04961 1.79497 3.98005C2.27433 3.03924 3.03924 2.27433 3.98005 1.79497ZM8.70005 5.25L8.59744 5.24995C8.04739 5.24957 7.62223 5.24928 7.25357 5.35325C6.3327 5.61297 5.61301 6.33265 5.35329 7.25352C5.24932 7.62218 5.24961 8.04734 5.24999 8.59739L5.25004 8.7V9C5.25004 9.41421 5.58582 9.75 6.00004 9.75C6.41425 9.75 6.75004 9.41421 6.75004 9V8.7C6.75004 7.99812 6.75714 7.80193 6.79697 7.66069C6.91503 7.24211 7.24216 6.91498 7.66074 6.79693C7.80197 6.7571 7.99816 6.75 8.70005 6.75H9.70004H10C10.4143 6.75 10.75 6.41421 10.75 6C10.75 5.58579 10.4143 5.25 10 5.25H9.70004H8.70005ZM15.3001 6.75C16.0019 6.75 16.1981 6.7571 16.3393 6.79693C16.7579 6.91498 17.0851 7.24212 17.2031 7.6607C17.243 7.80194 17.25 7.99812 17.25 8.7V9C17.25 9.41421 17.5858 9.75 18 9.75C18.4143 9.75 18.75 9.41421 18.75 9V8.7L18.7501 8.59739C18.7505 8.04735 18.7508 7.62219 18.6468 7.25354C18.3871 6.33266 17.6674 5.61296 16.7465 5.35325C16.3779 5.24928 15.9527 5.24957 15.4027 5.24995L15.3001 5.25H14.3H14C13.5858 5.25 13.25 5.58579 13.25 6C13.25 6.41421 13.5858 6.75 14 6.75H14.3H15.3001ZM6.00004 11.25C5.58582 11.25 5.25004 11.5858 5.25004 12C5.25004 12.4142 5.58582 12.75 6.00004 12.75H18C18.4143 12.75 18.75 12.4142 18.75 12C18.75 11.5858 18.4143 11.25 18 11.25H6.00004ZM6.75004 15C6.75004 14.5858 6.41425 14.25 6.00004 14.25C5.58582 14.25 5.25004 14.5858 5.25004 15V15.3L5.24999 15.4026C5.24961 15.9527 5.24932 16.3778 5.35329 16.7465C5.61301 17.6673 6.3327 18.387 7.25357 18.6467C7.62223 18.7507 8.04739 18.7504 8.59744 18.75L8.70005 18.75H9.50004H9.80004C10.2143 18.75 10.55 18.4142 10.55 18C10.55 17.5858 10.2143 17.25 9.80004 17.25H9.50004H8.70005C7.99816 17.25 7.80197 17.2429 7.66074 17.2031C7.24216 17.085 6.91503 16.7579 6.79697 16.3393C6.75714 16.1981 6.75004 16.0019 6.75004 15.3V15ZM18.75 15C18.75 14.5858 18.4143 14.25 18 14.25C17.5858 14.25 17.25 14.5858 17.25 15V15.3C17.25 16.0019 17.243 16.1981 17.2031 16.3393C17.0851 16.7579 16.7579 17.085 16.3393 17.2031C16.1981 17.2429 16.0019 17.25 15.3 17.25H14.3H14C13.5858 17.25 13.25 17.5858 13.25 18C13.25 18.4142 13.5858 18.75 14 18.75H14.3H15.3L15.4027 18.75C15.9527 18.7504 16.3779 18.7507 16.7465 18.6468C17.6674 18.387 18.3871 17.6673 18.6468 16.7465C18.7508 16.3778 18.7505 15.9527 18.7501 15.4026L18.75 15.3V15Z" fill="#2F384C"/>
</svg>
