<svg width="24" height="24" viewBox="0 0 24 24" fill="none" xmlns="http://www.w3.org/2000/svg">
<path fill-rule="evenodd" clip-rule="evenodd" d="M2.25 8.6717C2.25 7.16622 2.25 6.41348 2.48675 5.75631C2.69601 5.17541 3.03692 4.65084 3.48276 4.22369C3.98714 3.74045 4.675 3.43473 6.05073 2.8233L9.40073 1.33442C10.3579 0.909015 10.8365 0.696312 11.334 0.612305C11.7749 0.537851 12.2251 0.537851 12.666 0.612305C13.1635 0.696312 13.6421 0.909016 14.5993 1.33442L17.9493 2.8233C19.325 3.43473 20.0129 3.74045 20.5172 4.22369C20.9631 4.65084 21.304 5.17541 21.5133 5.75631C21.75 6.41348 21.75 7.16622 21.75 8.6717V13.9761C21.75 15.2284 21.75 15.8545 21.5774 16.4229C21.4246 16.9261 21.1741 17.3942 20.8402 17.8004C20.463 18.2593 19.942 18.6066 18.9001 19.3012L16.4376 20.9429C14.8338 22.0121 14.0319 22.5467 13.1652 22.7544C12.3992 22.9379 11.6008 22.9379 10.8348 22.7544C9.96808 22.5467 9.16619 22.0121 7.5624 20.9429L5.09992 19.3012C4.05796 18.6066 3.53697 18.2593 3.15982 17.8004C2.82592 17.3942 2.57541 16.9261 2.4226 16.4229C2.25 15.8545 2.25 15.2284 2.25 13.9761L2.25 8.6717ZM5 7.76587C5 7.308 5 7.07907 5.07266 6.87987C5.13688 6.70382 5.24144 6.54526 5.37796 6.41688C5.53243 6.27164 5.74286 6.18146 6.16371 6.0011L10.8849 3.97785C11.2572 3.81829 11.4434 3.7385 11.5934 3.76701C11.7245 3.79193 11.8402 3.86823 11.9147 3.97892C12 4.10555 12 4.30809 12 4.71317V19.0346C12 19.5119 12 19.7505 11.9003 19.8838C11.8133 19.9999 11.6803 20.0725 11.5356 20.0828C11.3696 20.0947 11.1689 19.9656 10.7674 19.7075L5.88172 16.5666C5.55965 16.3596 5.39861 16.2561 5.28189 16.1174C5.17858 15.9946 5.10093 15.8524 5.05354 15.6991C5 15.5259 5 15.3345 5 14.9516V7.76587Z" fill="#2F384C"/>
</svg>
