<svg width="24" height="24" viewBox="0 0 24 24" fill="none" xmlns="http://www.w3.org/2000/svg">
<path d="M18 9L15 6M18 9L15 12M18 9H14.5C12.1703 9 11.0054 9 10.0866 9.3806C8.86144 9.88807 7.88807 10.8614 7.3806 12.0866C7 13.0054 7 14.1703 7 16.5V16.5V17.0001M10 2H14C16.8003 2 18.2004 2 19.27 2.54497C20.2108 3.02433 20.9757 3.78924 21.455 4.73005C22 5.79961 22 7.19974 22 10V14C22 16.8003 22 18.2004 21.455 19.27C20.9757 20.2108 20.2108 20.9757 19.27 21.455C18.2004 22 16.8003 22 14 22H10C7.19974 22 5.79961 22 4.73005 21.455C3.78924 20.9757 3.02433 20.2108 2.54497 19.27C2 18.2004 2 16.8003 2 14V10C2 7.19974 2 5.79961 2.54497 4.73005C3.02433 3.78924 3.78924 3.02433 4.73005 2.54497C5.79961 2 7.19974 2 10 2Z" stroke="currentColor" stroke-width="1.5" stroke-linecap="round" stroke-linejoin="round"/>
</svg>
