<svg width="24" height="24" viewBox="0 0 24 24" fill="none" xmlns="http://www.w3.org/2000/svg">
<path d="M2 9.99988C2 7.19962 2 5.79948 2.54497 4.72993C3.02433 3.78911 3.78924 3.02421 4.73005 2.54485C5.79961 1.99988 7.19974 1.99988 10 1.99988H14C16.8003 1.99988 18.2004 1.99988 19.27 2.54485C20.2108 3.02421 20.9757 3.78911 21.455 4.72993C22 5.79948 22 7.19962 22 9.99988V13.9999C22 16.8001 22 18.2003 21.455 19.2698C20.9757 20.2106 20.2108 20.9755 19.27 21.4549C18.2004 21.9999 16.8003 21.9999 14 21.9999H10C7.19974 21.9999 5.79961 21.9999 4.73005 21.4549C3.78924 20.9755 3.02433 20.2106 2.54497 19.2698C2 18.2003 2 16.8001 2 13.9999V9.99988Z" stroke="currentColor" stroke-width="1.5" stroke-linecap="round" stroke-linejoin="round"/>
<path d="M9.06421 10.1937C8.35151 10.8173 7.99515 11.1291 7.86415 11.4985C7.74913 11.8229 7.74913 12.1769 7.86415 12.5012C7.99515 12.8706 8.35151 13.1824 9.06421 13.8061L11.0196 15.517C12.2838 16.6232 12.9159 17.1763 13.4521 17.1935C13.918 17.2083 14.3643 17.0058 14.6598 16.6454C15 16.2307 15 15.3907 15 13.7108V10.2889C15 8.60904 15 7.76911 14.6598 7.35433C14.3643 6.99393 13.918 6.79141 13.4521 6.8063C12.9159 6.82343 12.2838 7.37653 11.0196 8.48274L9.06421 10.1937Z" stroke="currentColor" stroke-width="1.5" stroke-linecap="round" stroke-linejoin="round"/>
</svg>
