<svg width="24" height="24" viewBox="0 0 24 24" fill="none" xmlns="http://www.w3.org/2000/svg">
<path d="M18 12C18 15.3137 15.3137 18 12 18C8.68629 18 6.5 15 6.5 15M6 12C6 8.68629 8.66667 6 12 6C16 6 17.5 9 17.5 9M17.5 9V6.5M17.5 9H15.5M6.5 15H8.5M6.5 15V17.5M12 11V9M12.5 14C12.5 14.2761 12.2761 14.5 12 14.5C11.7239 14.5 11.5 14.2761 11.5 14M12.5 14C12.5 13.7239 12.2761 13.5 12 13.5C11.7239 13.5 11.5 13.7239 11.5 14M12.5 14H11.5M10 22H14C16.8003 22 18.2004 22 19.27 21.455C20.2108 20.9757 20.9757 20.2108 21.455 19.27C22 18.2004 22 16.8003 22 14V10C22 7.19974 22 5.79961 21.455 4.73005C20.9757 3.78924 20.2108 3.02433 19.27 2.54497C18.2004 2 16.8003 2 14 2H10C7.19974 2 5.79961 2 4.73005 2.54497C3.78924 3.02433 3.02433 3.78924 2.54497 4.73005C2 5.79961 2 7.19974 2 10V14C2 16.8003 2 18.2004 2.54497 19.27C3.02433 20.2108 3.78924 20.9757 4.73005 21.455C5.79961 22 7.19974 22 10 22Z" stroke="currentColor" stroke-width="1.5" stroke-linecap="round" stroke-linejoin="round"/>
</svg>
