<svg width="24" height="24" viewBox="0 0 24 24" fill="none" xmlns="http://www.w3.org/2000/svg">
<path d="M2 12C2 17.5228 6.47715 22 12 22C17.5228 22 21 16.5 21 16.5M22 12C22 6.47715 17.5556 2 12 2C5.33333 2 2 7.5 2 7.5M2 7.5V4M2 7.5H5.5M21 16.5H17.5M21 16.5V20M12 12V8M12.5 15C12.5 15.2761 12.2761 15.5 12 15.5C11.7239 15.5 11.5 15.2761 11.5 15M12.5 15C12.5 14.7239 12.2761 14.5 12 14.5C11.7239 14.5 11.5 14.7239 11.5 15M12.5 15H11.5" stroke="currentColor" stroke-width="1.5" stroke-linecap="round" stroke-linejoin="round"/>
</svg>
