<svg width="24" height="24" viewBox="0 0 24 24" fill="none" xmlns="http://www.w3.org/2000/svg">
<path d="M19 12.0707C19 8.16567 15.866 5 12 5C11.0045 5 10.0574 5.20993 9.2 5.58835M6.39949 7.82829C5.52072 9.01003 5 10.479 5 12.0707C5 15.4915 7.40486 18.3449 10.6 19M18.0635 15.6061C17.0772 17.3284 15.3922 18.5915 13.4 19M12 8C9.79086 8 8 9.79086 8 12C8 12.8178 8.24543 13.5783 8.66667 14.2119M14.6667 9.01852C15.485 9.75095 16 10.8153 16 12C16 14.2091 14.2091 16 12 16C11.5325 16 11.0837 15.9198 10.6667 15.7724M12 11V13M10 22H14C16.8003 22 18.2004 22 19.27 21.455C20.2108 20.9757 20.9757 20.2108 21.455 19.27C22 18.2004 22 16.8003 22 14V10C22 7.19974 22 5.79961 21.455 4.73005C20.9757 3.78924 20.2108 3.02433 19.27 2.54497C18.2004 2 16.8003 2 14 2H10C7.19974 2 5.79961 2 4.73005 2.54497C3.78924 3.02433 3.02433 3.78924 2.54497 4.73005C2 5.79961 2 7.19974 2 10V14C2 16.8003 2 18.2004 2.54497 19.27C3.02433 20.2108 3.78924 20.9757 4.73005 21.455C5.79961 22 7.19974 22 10 22Z" stroke="currentColor" stroke-width="1.5" stroke-linecap="round" stroke-linejoin="round"/>
</svg>
