<svg width="24" height="24" viewBox="0 0 24 24" fill="none" xmlns="http://www.w3.org/2000/svg">
<path d="M3 3L7.43173 7.43173M22 22L18.5683 18.5683M7.43173 7.43173C5.3574 8.87714 4 11.2801 4 14C4 18.4183 7.58172 22 12 22C14.7199 22 17.1229 20.6426 18.5683 18.5683M7.43173 7.43173L18.5683 18.5683M19.8596 15.5C19.8909 15.3351 19.9171 15.1683 19.9381 15C19.979 14.6724 20 14.3387 20 14C20 9.58172 16.4183 6 12 6C11.6613 6 11.3276 6.02104 11 6.06189C10.8317 6.08289 10.6649 6.10911 10.5 6.1404M16 7V6C16 4.11438 16 3.17157 15.4142 2.58579C14.8285 2 13.8857 2 12 2C10.1144 2 9.17161 2 8.58582 2.58579C8.25923 2.91238 8.11472 3.34994 8.05078 4" stroke="currentColor" stroke-width="1.5" stroke-linecap="round" stroke-linejoin="round"/>
</svg>
