<svg width="24" height="24" viewBox="0 0 24 24" fill="none" xmlns="http://www.w3.org/2000/svg">
<path d="M12 8H14C16.8089 8 18.2134 8 19.2223 8.67412C19.659 8.96596 20.034 9.34096 20.3259 9.77772C21 10.7866 21 12.1911 21 15C21 15.7637 21 16.4236 20.9865 17M4 4L8.01324 8.01324M22 22L20.2839 20.2839M8.01324 8.01324C6.46198 8.04908 5.5144 8.18189 4.77772 8.67412C4.34096 8.96596 3.96596 9.34096 3.67412 9.77772C3 10.7866 3 12.1911 3 15C3 17.8089 3 19.2134 3.67412 20.2223C3.96596 20.659 4.34096 21.034 4.77772 21.3259C5.78661 22 7.19108 22 10 22H14C16.8089 22 18.2134 22 19.2223 21.3259C19.6384 21.0479 19.9984 20.6944 20.2839 20.2839M8.01324 8.01324L20.2839 20.2839M16.9999 8V7C16.9999 5.13077 16.9999 4.19615 16.598 3.5C16.3347 3.04394 15.956 2.66523 15.4999 2.40192C14.8038 2 13.8692 2 11.9999 2C10.1307 2 9.19608 2 8.49993 2.40192C8.04387 2.66523 7.66516 3.04394 7.40186 3.5" stroke="currentColor" stroke-width="1.5" stroke-linecap="round"/>
</svg>
