<svg width="24" height="24" viewBox="0 0 24 24" fill="none" xmlns="http://www.w3.org/2000/svg">
<path d="M6 9V8.7V8.7C6 8.0489 6 7.72336 6.0751 7.45711C6.26398 6.78738 6.78739 6.26398 7.45712 6.07509C7.72337 6 8.04891 6 8.70001 6H9.7H10M14 6H14.3H15.3C15.9511 6 16.2766 6 16.5429 6.07509C17.2126 6.26397 17.736 6.78739 17.9249 7.45712C18 7.72337 18 8.04891 18 8.7V8.7V9M18 15V15.3V15.3C18 15.9511 18 16.2766 17.9249 16.5429C17.736 17.2126 17.2126 17.736 16.5429 17.9249C16.2766 18 15.9511 18 15.3 18H14.3H14M9.8 18H9.5H8.70001C8.04891 18 7.72337 18 7.45712 17.9249C6.78739 17.736 6.26398 17.2126 6.0751 16.5429C6 16.2766 6 15.9511 6 15.3V15.3V15M6 12H18M10 22H14C16.8003 22 18.2004 22 19.27 21.455C20.2108 20.9757 20.9757 20.2108 21.455 19.27C22 18.2004 22 16.8003 22 14V10C22 7.19974 22 5.79961 21.455 4.73005C20.9757 3.78924 20.2108 3.02433 19.27 2.54497C18.2004 2 16.8003 2 14 2H10C7.19974 2 5.79961 2 4.73005 2.54497C3.78924 3.02433 3.02433 3.78924 2.54497 4.73005C2 5.79961 2 7.19974 2 10V14C2 16.8003 2 18.2004 2.54497 19.27C3.02433 20.2108 3.78924 20.9757 4.73005 21.455C5.79961 22 7.19974 22 10 22Z" stroke="currentColor" stroke-width="1.5" stroke-linecap="round" stroke-linejoin="round"/>
</svg>
