<svg width="24" height="24" viewBox="0 0 24 24" fill="none" xmlns="http://www.w3.org/2000/svg">
<path d="M2 2L4.37122 4.37122M21 21L18.6594 18.6594M18.6594 18.6594C17.6927 19.6035 16.4989 20.2005 14.6145 21.1428C13.5935 21.6534 12.6581 22 12 22C11.3419 22 10.4065 21.6534 9.38547 21.1428C6.81469 19.8572 5.52931 19.2144 4.3522 17.4561C4.26292 17.3228 4.12544 17.1003 4.0461 16.9608C3 15.1216 3 13.2079 3 9.38059C3 7.27465 3 6.22168 3.61728 5.24355C3.6655 5.16714 3.74279 5.0548 3.7969 4.98244C3.97589 4.74315 4.16335 4.54473 4.37122 4.37122M18.6594 18.6594L4.37122 4.37122M20.6964 15C21 13.6099 21 11.9147 21 9.38059C21 7.27465 21 6.22168 20.3827 5.24355C20.3345 5.16714 20.2572 5.0548 20.2031 4.98244C19.5103 4.05625 18.6907 3.74246 17.0514 3.11487C15.4795 2.51308 13.6542 2 12 2C10.7036 2 9.3022 2.31511 8 2.74108" stroke="currentColor" stroke-width="1.5" stroke-linecap="round" stroke-linejoin="round"/>
</svg>
