<svg width="24" height="24" viewBox="0 0 24 24" fill="none" xmlns="http://www.w3.org/2000/svg">
<path d="M17.5 18H18V18C20.2091 18 22 16.2091 22 14V10C22 7.19974 22 5.79961 21.455 4.73005C20.9757 3.78924 20.2108 3.02433 19.27 2.54497C18.2004 2 16.8003 2 14 2H10C7.19974 2 5.79961 2 4.73005 2.54497C3.78924 3.02433 3.02433 3.78924 2.54497 4.73005C2 5.79961 2 7.19974 2 10V14C2 16.2091 3.79086 18 6 18V18H6.5M13.9029 17.9029L13.6971 17.6971C13.103 17.103 12.806 16.806 12.4635 16.6947C12.1623 16.5968 11.8377 16.5968 11.5365 16.6947C11.194 16.806 10.897 17.103 10.3029 17.6971L10.0971 17.9029C8.81193 19.1881 8.16936 19.8306 8.12594 20.3823C8.08827 20.861 8.28203 21.3288 8.64715 21.6406C9.06794 22 9.97667 22 11.7941 22H12.2059C14.0233 22 14.9321 22 15.3529 21.6406C15.718 21.3288 15.9117 20.861 15.8741 20.3823C15.8306 19.8306 15.1881 19.1881 13.9029 17.9029Z" stroke="currentColor" stroke-width="1.5" stroke-linecap="round" stroke-linejoin="round"/>
</svg>
