<svg width="24" height="24" viewBox="0 0 24 24" fill="none" xmlns="http://www.w3.org/2000/svg">
<path d="M20 12V9.4C20 7.15979 20 6.03968 19.564 5.18404C19.1805 4.43139 18.5686 3.81947 17.816 3.43597C16.9603 3 15.8402 3 13.6 3H10.4C8.15979 3 7.03968 3 6.18404 3.43597C5.43139 3.81947 4.81947 4.43139 4.43597 5.18404C4 6.03968 4 7.15979 4 9.4V12M2 15V21M22 15V21M16 12V11.2C16 10.0799 16 9.51984 15.782 9.09202C15.5903 8.71569 15.2843 8.40973 14.908 8.21799C14.4802 8 13.9201 8 12.8 8H11.2C10.0799 8 9.51984 8 9.09202 8.21799C8.71569 8.40973 8.40973 8.71569 8.21799 9.09202C8 9.51984 8 10.0799 8 11.2V12M22 19V15.2C22 14.0799 22 13.5198 21.782 13.092C21.5903 12.7157 21.2843 12.4097 20.908 12.218C20.4802 12 19.9201 12 18.8 12H5.2C4.07989 12 3.51984 12 3.09202 12.218C2.71569 12.4097 2.40973 12.7157 2.21799 13.092C2 13.5198 2 14.0799 2 15.2V19H22Z" stroke="currentColor" stroke-width="1.5" stroke-linecap="round" stroke-linejoin="round"/>
</svg>
