<svg width="24" height="24" viewBox="0 0 24 24" fill="none" xmlns="http://www.w3.org/2000/svg">
<path d="M12 8H14.8C15.9201 8 16.4802 8 16.908 8.21799C17.2843 8.40973 17.5903 8.71569 17.782 9.09202C18 9.51984 18 10.0799 18 11.2V12M12 8V12M12 8H9.2C8.0799 8 7.51984 8 7.09202 8.21799C6.71569 8.40973 6.40973 8.71569 6.21799 9.09202C6 9.51984 6 10.0799 6 11.2V12M2 12H22M10.9777 17H13.0223C13.7402 17 14.0992 17 14.4161 17.1093C14.6963 17.206 14.9516 17.3637 15.1634 17.5712C15.4029 17.8057 15.5634 18.1268 15.8845 18.7689L16.1459 19.2918C16.4374 19.8749 16.5832 20.1664 16.7938 20.3856C17.0277 20.6291 17.3194 20.8093 17.6417 20.9096C17.932 21 18.258 21 18.9098 21V21C19.9265 21 20.4348 21 20.8303 20.8195C21.2684 20.6196 21.6196 20.2684 21.8195 19.8303C22 19.4348 22 18.9265 22 17.9098V9.4C22 7.15979 22 6.03968 21.564 5.18404C21.1805 4.43139 20.5686 3.81947 19.816 3.43597C18.9603 3 17.8402 3 15.6 3H8.4C6.15979 3 5.03968 3 4.18404 3.43597C3.43139 3.81947 2.81947 4.43139 2.43597 5.18404C2 6.03968 2 7.15979 2 9.4V17.9098C2 18.9265 2 19.4348 2.18049 19.8303C2.3804 20.2684 2.73163 20.6196 3.1697 20.8195C3.56523 21 4.07354 21 5.09017 21V21C5.74205 21 6.06799 21 6.35831 20.9096C6.68061 20.8093 6.97229 20.6291 7.20615 20.3856C7.41681 20.1664 7.56257 19.8749 7.8541 19.2918L8.11554 18.7689C8.4366 18.1268 8.59713 17.8057 8.83663 17.5712C9.04842 17.3637 9.30368 17.206 9.58393 17.1093C9.90084 17 10.2598 17 10.9777 17Z" stroke="currentColor" stroke-width="1.5" stroke-linecap="round" stroke-linejoin="round"/>
</svg>
