<svg width="24" height="24" viewBox="0 0 24 24" fill="none" xmlns="http://www.w3.org/2000/svg">
<path d="M6.73005 2.54497C7.79961 2 9.19974 2 12 2C14.8003 2 16.2004 2 17.27 2.54497C18.2108 3.02433 18.9757 3.78924 19.455 4.73005C20 5.79961 20 7.19974 20 10V14M2 4L4.19751 5.75801M22 20L20 18.4M20 18.4V22L19.1554 21.5777C15.6442 19.8221 13.8885 18.9443 12 18.9443C10.1115 18.9443 8.35582 19.8221 4.84458 21.5777L4 22V10C4 8.00348 4 6.7187 4.19751 5.75801M20 18.4L4.19751 5.75801" stroke="currentColor" stroke-width="1.5" stroke-linecap="round" stroke-linejoin="round"/>
</svg>
