<svg width="24" height="24" viewBox="0 0 24 24" fill="none" xmlns="http://www.w3.org/2000/svg">
<path d="M15.5 6C17.5744 7.0957 19 9.3709 19 12C19 14.6291 17.5744 16.9043 15.5 18M8.5 6C6.42559 7.0957 5 9.3709 5 12C5 14.6291 6.42559 16.9043 8.5 18M14.667 8.99997C15.4764 9.68414 16 10.7733 16 12C16 13.2267 15.4764 14.3158 14.667 15M9.33301 8.99997C8.52356 9.68414 8 10.7733 8 12C8 13.2267 8.52356 14.3158 9.33301 15M12.5 12C12.5 12.2761 12.2761 12.5 12 12.5C11.7239 12.5 11.5 12.2761 11.5 12M12.5 12C12.5 11.7238 12.2761 11.5 12 11.5C11.7239 11.5 11.5 11.7238 11.5 12M12.5 12H11.5M11.6 22H12.4C15.7603 22 17.4405 22 18.7239 21.346C19.8529 20.7708 20.7708 19.8529 21.346 18.7239C22 17.4405 22 15.7603 22 12.4V11.6C22 8.23969 22 6.55953 21.346 5.27606C20.7708 4.14708 19.8529 3.2292 18.7239 2.65396C17.4405 2 15.7603 2 12.4 2H11.6C8.23969 2 6.55953 2 5.27606 2.65396C4.14708 3.2292 3.2292 4.14708 2.65396 5.27606C2 6.55953 2 8.23969 2 11.6V12.4C2 15.7603 2 17.4405 2.65396 18.7239C3.2292 19.8529 4.14708 20.7708 5.27606 21.346C6.55953 22 8.23969 22 11.6 22Z" stroke="currentColor" stroke-width="1.5" stroke-linecap="round" stroke-linejoin="round"/>
</svg>
