<svg width="24" height="24" viewBox="0 0 24 24" fill="none" xmlns="http://www.w3.org/2000/svg">
<path d="M9.00001 2V6M13 2V4M4 9C4 9 7.5 11 12 11C16.5 11 20 9 20 9M12 22V22C13.5704 22 14.765 20.5899 14.5068 19.0408L14.3194 17.9163C14.1295 16.7773 14.7048 15.6476 15.7376 15.1312L17.8514 14.0743C19.1682 13.4159 20 12.07 20 10.5978V5.16808C20 3.4184 18.5816 2 16.8319 2H7.16808C5.4184 2 4 3.4184 4 5.16808V10.5978C4 12.07 4.83178 13.4159 6.14857 14.0743L8.26238 15.1312C9.29521 15.6476 9.87046 16.7773 9.68062 17.9163L9.4932 19.0408C9.23502 20.5899 10.4296 22 12 22Z" stroke="currentColor" stroke-width="1.5" stroke-linecap="round" stroke-linejoin="round"/>
</svg>
