<svg width="24" height="24" viewBox="0 0 24 24" fill="none" xmlns="http://www.w3.org/2000/svg">
<path d="M15.5 3H16V3C17.7712 3 19.3233 4.18549 19.7893 5.8943L21.0334 10.4561C21.1738 10.9708 21.244 11.2282 21.302 11.4846C21.6772 13.1435 21.6954 14.8632 21.3556 16.5297C21.3031 16.7873 21.2384 17.046 21.109 17.5636V17.5636C20.9548 18.1802 20.8778 18.4885 20.778 18.7547C20.1187 20.5137 18.5292 21.7548 16.6628 21.9678C16.3803 22 16.0625 22 15.427 22H8.57267C7.93722 22 7.61949 22 7.33705 21.9678C5.4706 21.7549 3.881 20.5137 3.22175 18.7547C3.12199 18.4885 3.04493 18.1802 2.89081 17.5637V17.5637C2.76143 17.0462 2.69674 16.7874 2.64422 16.5299C2.30433 14.8633 2.32263 13.1434 2.69792 11.4844C2.75591 11.228 2.82609 10.9707 2.96646 10.456L4.21064 5.89428C4.6767 4.18547 6.2288 3 8.00003 3V3H8.50003M2.50012 14H5.28738C5.91352 14 6.22659 14 6.51077 14.0863C6.76235 14.1627 6.9964 14.288 7.19952 14.4549C7.42896 14.6435 7.60262 14.904 7.94994 15.425L8.05 15.575C8.39732 16.096 8.57098 16.3565 8.80042 16.5451C9.00354 16.712 9.23759 16.8373 9.48917 16.9137C9.77334 17 10.0864 17 10.7126 17H13.2874C13.9135 17 14.2266 17 14.5108 16.9137C14.7624 16.8373 14.9964 16.712 15.1995 16.5451C15.429 16.3565 15.6026 16.096 15.9499 15.575L16.05 15.425C16.3973 14.904 16.571 14.6435 16.8004 14.4549C17.0035 14.288 17.2376 14.1627 17.4892 14.0863C17.7733 14 18.0864 14 18.7126 14H21.5001M12.0001 11L15.0001 8M12.0001 11L9.00012 8M12.0001 11V2" stroke="currentColor" stroke-width="1.5" stroke-linecap="round" stroke-linejoin="round"/>
</svg>
