<svg width="24" height="24" viewBox="0 0 24 24" fill="none" xmlns="http://www.w3.org/2000/svg">
<path d="M22 15L10.163 15C8.68692 15.0001 7.94886 15.0001 7.35491 14.7286C6.83149 14.4894 6.38793 14.1047 6.0771 13.6204C5.72439 13.0708 5.62001 12.3401 5.41126 10.8789L4.35355 3.47493C4.15068 2.05485 2.9345 1.00004 1.5 1V1L1 1.00006M11 20C11 21.1046 10.1046 22 9 22C7.89543 22 7 21.1046 7 20C7 18.8954 7.89543 18 9 18C10.1046 18 11 18.8954 11 20ZM21 20C21 21.1046 20.1046 22 19 22C17.8954 22 17 21.1046 17 20C17 18.8954 17.8954 18 19 18C20.1046 18 21 18.8954 21 20ZM14.8 15H15.2C16.8802 15 17.7202 15 18.362 14.673C18.9265 14.3854 19.3854 13.9265 19.673 13.362C20 12.7202 20 11.8802 20 10.2V9.8C20 8.11984 20 7.27976 19.673 6.63803C19.3854 6.07354 18.9265 5.6146 18.362 5.32698C17.7202 5 16.8802 5 15.2 5H14.8C13.1198 5 12.2798 5 11.638 5.32698C11.0735 5.6146 10.6146 6.07354 10.327 6.63803C10 7.27976 10 8.11984 10 9.8V10.2C10 11.8802 10 12.7202 10.327 13.362C10.6146 13.9265 11.0735 14.3854 11.638 14.673C12.2798 15 13.1198 15 14.8 15Z" stroke="currentColor" stroke-width="1.5" stroke-linecap="round" stroke-linejoin="round"/>
</svg>
