<svg width="24" height="24" viewBox="0 0 24 24" fill="none" xmlns="http://www.w3.org/2000/svg">
<path d="M7.25 11.5C7.6625 11.5 8 11.8375 8 12.25C8 12.6625 7.6625 13 7.25 13M7.25 11.5C6.8375 11.5 6.5 11.8375 6.5 12.25C6.5 12.6625 6.8375 13 7.25 13M7.25 11.5V13M11.75 11.5C12.1625 11.5 12.5 11.8375 12.5 12.25C12.5 12.6625 12.1625 13 11.75 13M11.75 11.5C11.3375 11.5 11 11.8375 11 12.25C11 12.6625 11.3375 13 11.75 13M11.75 11.5V13M16.75 11.5C17.1625 11.5 17.5 11.8375 17.5 12.25C17.5 12.6625 17.1625 13 16.75 13M16.75 11.5C16.3375 11.5 16 11.8375 16 12.25C16 12.6625 16.3375 13 16.75 13M16.75 11.5V13M11.6 22H12.4C15.7603 22 17.4405 22 18.7239 21.346C19.8529 20.7708 20.7708 19.8529 21.346 18.7239C22 17.4405 22 15.7603 22 12.4V11.6C22 8.23969 22 6.55953 21.346 5.27606C20.7708 4.14708 19.8529 3.2292 18.7239 2.65396C17.4405 2 15.7603 2 12.4 2H11.6C8.23969 2 6.55953 2 5.27606 2.65396C4.14708 3.2292 3.2292 4.14708 2.65396 5.27606C2 6.55953 2 8.23969 2 11.6V12.4C2 15.7603 2 17.4405 2.65396 18.7239C3.2292 19.8529 4.14708 20.7708 5.27606 21.346C6.55953 22 8.23969 22 11.6 22Z" stroke="currentColor" stroke-width="1.5" stroke-linecap="round" stroke-linejoin="round"/>
</svg>
