<svg width="24" height="24" viewBox="0 0 24 24" fill="none" xmlns="http://www.w3.org/2000/svg">
<path d="M5.50049 10.5L2.00049 7.9999L3.07849 6.92193C3.964 6.03644 4.40676 5.5937 4.9307 5.31387C5.39454 5.06614 5.90267 4.91229 6.42603 4.86114C7.01719 4.80336 7.63117 4.92617 8.85913 5.17177L10.5 5.49997M18.4999 13.5L18.8284 15.1408C19.0742 16.3689 19.1971 16.983 19.1394 17.5743C19.0883 18.0977 18.9344 18.6059 18.6867 19.0699C18.4068 19.5939 17.964 20.0367 17.0783 20.9224L16.0007 22L13.5007 18.5M7 16.9998L8.99985 15M17.0024 8.99951C17.0024 10.1041 16.107 10.9995 15.0024 10.9995C13.8979 10.9995 13.0024 10.1041 13.0024 8.99951C13.0024 7.89494 13.8979 6.99951 15.0024 6.99951C16.107 6.99951 17.0024 7.89494 17.0024 8.99951ZM17.1991 2H16.6503C15.6718 2 15.1826 2 14.7223 2.11053C14.3141 2.20853 13.9239 2.37016 13.566 2.5895C13.1623 2.83689 12.8164 3.18282 12.1246 3.87469L6.99969 9C5.90927 10.0905 5.36406 10.6358 5.07261 11.2239C4.5181 12.343 4.51812 13.6569 5.07268 14.776C5.36415 15.3642 5.90938 15.9094 6.99984 16.9998V16.9998C8.09038 18.0904 8.63565 18.6357 9.22386 18.9271C10.343 19.4817 11.6569 19.4817 12.7761 18.9271C13.3643 18.6356 13.9095 18.0903 15 16.9997L20.1248 11.8745C20.8165 11.1827 21.1624 10.8368 21.4098 10.4331C21.6291 10.0753 21.7907 9.6851 21.8886 9.27697C21.9991 8.81664 21.9991 8.32749 21.9991 7.34918V6.8C21.9991 5.11984 21.9991 4.27976 21.6722 3.63803C21.3845 3.07354 20.9256 2.6146 20.3611 2.32698C19.7194 2 18.8793 2 17.1991 2Z" stroke="currentColor" stroke-width="1.5" stroke-linecap="round" stroke-linejoin="round"/>
</svg>
