<svg width="24" height="24" viewBox="0 0 24 24" fill="none" xmlns="http://www.w3.org/2000/svg">
<path d="M6.00012 10.9995L3.92012 12.5595C3.21613 13.0875 2.86413 13.3515 2.61025 13.6861C2.38539 13.9824 2.21761 14.318 2.11546 14.6757C2.00012 15.0795 2.00012 15.5195 2.00012 16.3995L2.00012 19.9995L6.00012 18.9995M18.0001 10.9995L20.0801 12.5595C20.7841 13.0875 21.1361 13.3515 21.39 13.6861C21.6149 13.9824 21.7826 14.318 21.8848 14.6757C22.0001 15.0795 22.0001 15.5195 22.0001 16.3995L22.0001 19.9995L18.0001 18.9995M12.0001 21.9995L12.0001 18.9995M14.0001 11C14.0001 12.1046 13.1047 13 12.0001 13C10.8956 13 10.0001 12.1046 10.0001 11C10.0001 9.89543 10.8956 9 12.0001 9C13.1047 9 14.0001 9.89543 14.0001 11ZM8.73896 4.01959L8.05191 4.65575C7.29592 5.35574 6.91793 5.70573 6.64703 6.12222C6.40691 6.49137 6.22941 6.89765 6.12167 7.32465C6.00012 7.80638 6.00012 8.32153 6.00012 9.35182L6.00012 16C6.00012 17.8638 6.00012 18.7956 6.3046 19.5307C6.71058 20.5108 7.48928 21.2895 8.46939 21.6955C9.20447 22 10.1364 22 12.0001 22V22C13.8639 22 14.7958 22 15.5309 21.6955C16.511 21.2895 17.2897 20.5108 17.6956 19.5307C18.0001 18.7956 18.0001 17.8638 18.0001 16L18.0001 9.35182C18.0001 8.32153 18.0001 7.80638 17.8786 7.32465C17.7708 6.89765 17.5933 6.49137 17.3532 6.12222C17.0823 5.70573 16.7043 5.35574 15.9483 4.65575L15.2613 4.01959C14.1115 2.955 13.5366 2.4227 12.8832 2.22144C12.3078 2.04422 11.6924 2.04422 11.1171 2.22144C10.4636 2.4227 9.88872 2.955 8.73896 4.01959Z" stroke="currentColor" stroke-width="1.5" stroke-linecap="round" stroke-linejoin="round"/>
</svg>
