<svg width="24" height="24" viewBox="0 0 24 24" fill="none" xmlns="http://www.w3.org/2000/svg">
<path d="M16 5.00018C16 6.65704 17.3431 8.00018 19 8.00018C20.6569 8.00018 22 6.65704 22 5.00018C22 3.34333 20.6569 2.00018 19 2.00018C17.3431 2.00018 16 3.34333 16 5.00018ZM16 5.00018H9C6.79086 5.00018 5 6.79104 5 9.00018V9.00018M5 15.0002C3.34315 15.0002 2 13.657 2 12.0002C2 10.3433 3.34315 9.00018 5 9.00018M5 15.0002C6.65685 15.0002 8 13.657 8 12.0002C8 10.3433 6.65685 9.00018 5 9.00018M5 15.0002V15.0002C5 17.2093 6.79086 19.0002 9 19.0002H16M16 19.0002C16 20.657 17.3431 22.0002 19 22.0002C20.6569 22.0002 22 20.657 22 19.0002C22 17.3433 20.6569 16.0002 19 16.0002C17.3431 16.0002 16 17.3433 16 19.0002Z" stroke="currentColor" stroke-width="1.5" stroke-linecap="round" stroke-linejoin="round"/>
</svg>
