<svg width="24" height="24" viewBox="0 0 24 24" fill="none" xmlns="http://www.w3.org/2000/svg">
<path d="M1 1.00006L1.5 1V1C1.72586 1.00001 1.83878 1.00001 1.94018 1.00689C3.12785 1.08748 4.15552 1.86267 4.55926 2.98252C4.59373 3.07812 4.62476 3.1867 4.6868 3.40387L4.85714 4.00006M4.85714 4.00006L6.67378 10.3583C7.14917 12.0222 7.38687 12.8541 7.87213 13.4716C8.30044 14.0166 8.86305 14.441 9.50478 14.7031C10.2318 15.0001 11.0971 15.0001 12.8275 15.0001H15.1117C16.8624 15.0001 17.7377 15.0001 18.4706 14.6976C19.1174 14.4307 19.6829 13.9988 20.1106 13.445C20.5953 12.8175 20.8256 11.973 21.2862 10.284L21.3465 10.063C21.9086 8.00171 22.1897 6.97105 21.9513 6.15698C21.7425 5.44374 21.2763 4.8334 20.6432 4.44424C19.9205 4.00006 18.8522 4.00006 16.7156 4.00006H4.85714ZM12 20C12 21.1046 11.1046 22 10 22C8.89543 22 8 21.1046 8 20C8 18.8954 8.89543 18 10 18C11.1046 18 12 18.8954 12 20ZM20 20C20 21.1046 19.1046 22 18 22C16.8954 22 16 21.1046 16 20C16 18.8954 16.8954 18 18 18C19.1046 18 20 18.8954 20 20Z" stroke="currentColor" stroke-width="1.5" stroke-linecap="round" stroke-linejoin="round"/>
</svg>
