<svg width="24" height="24" viewBox="0 0 24 24" fill="none" xmlns="http://www.w3.org/2000/svg">
<path d="M19 5V2M19 5C20.6569 5 22 6.34315 22 8C22 9.65685 20.6569 11 19 11C17.3431 11 16 9.65685 16 8C16 6.34315 17.3431 5 19 5ZM12 22V19M12 19C10.3431 19 9 17.6569 9 16C9 14.3431 10.3431 13 12 13C13.6569 13 15 14.3431 15 16C15 17.6569 13.6569 19 12 19ZM5 5V2M5 5C6.65685 5 8 6.34315 8 8C8 9.65685 6.65685 11 5 11C3.34315 11 2 9.65685 2 8C2 6.34315 3.34315 5 5 5ZM19 22V14M12 10V2M5 22V14" stroke="currentColor" stroke-width="1.5" stroke-linecap="round"/>
</svg>
