<svg width="24" height="24" viewBox="0 0 24 24" fill="none" xmlns="http://www.w3.org/2000/svg">
<path d="M3.00006 3.00006L7.0841 7.0841M22.0001 22.0001L19.699 19.699M19.699 19.699C19.7794 20.1498 19.7728 20.49 19.663 20.7589C19.4265 21.3381 18.9326 21.7733 18.3283 21.935C17.5955 22.1311 16.4692 21.5679 14.2168 20.4417L13.5719 20.1193C12.9087 19.7877 12.5771 19.6219 12.2246 19.5821C12.0754 19.5652 11.9248 19.5652 11.7756 19.5821C11.423 19.6219 11.0914 19.7877 10.4282 20.1193L9.78337 20.4417C7.53089 21.568 6.40465 22.1311 5.67182 21.935C5.06747 21.7733 4.57361 21.3381 4.33713 20.7589C4.05038 20.0566 4.46728 18.8685 5.30107 16.4921C5.55697 15.7628 5.68492 15.3982 5.67879 15.0399C5.67363 14.7382 5.60025 14.4415 5.46416 14.1722C5.30257 13.8524 5.01938 13.5894 4.453 13.0635L4.31211 12.9326C2.51735 11.2661 1.61997 10.4328 1.56543 9.64347C1.52933 9.121 1.6996 8.60522 2.03966 8.20694C2.55343 7.60521 3.77054 7.46998 6.20476 7.19951C6.58573 7.15718 6.86242 7.12644 7.0841 7.0841M19.699 19.699L7.0841 7.0841M9.0001 5.00006C10.075 2.85284 10.6464 1.7699 11.4704 1.54359C11.8171 1.44836 12.183 1.44836 12.5298 1.54359C13.39 1.77985 13.9749 2.94966 15.1447 5.28927L15.1922 5.38438C15.5054 6.01061 15.6619 6.32373 15.8983 6.55674C16.0595 6.71561 16.2464 6.84597 16.4512 6.94228C16.7516 7.08353 17.0995 7.12219 17.7954 7.19951C20.2296 7.46998 21.4467 7.60521 21.9605 8.20694C22.3005 8.60522 22.4708 9.121 22.4347 9.64347C22.3801 10.4328 21.4828 11.2661 19.688 12.9326C19.2979 13.2949 18.9022 13.6512 18.5001 14.0001" stroke="currentColor" stroke-width="1.5" stroke-linecap="round" stroke-linejoin="round"/>
</svg>
