<svg width="24" height="24" viewBox="0 0 24 24" fill="none" xmlns="http://www.w3.org/2000/svg">
<path d="M10 2L11 1.99999L11.8 1.99999C15.7204 1.99999 17.6806 1.99999 19.1779 2.76295C20.4951 3.43406 21.5659 4.50493 22.237 5.82206C23 7.31944 23 9.27963 23 13.2L23 16M12.0001 12C12.0001 13.1046 11.1047 14 10.0001 14C8.89555 14 8.00012 13.1046 8.00012 12C8.00012 10.8954 8.89555 10 10.0001 10C11.1047 10 12.0001 10.8954 12.0001 12ZM13.6005 5L9.94407 5C8.86137 5 8.32002 5 7.81712 5.13306C7.37149 5.25096 6.94959 5.44501 6.57005 5.70663C6.14175 6.00186 5.78944 6.41289 5.08483 7.23493L4.57054 7.83493C3.30344 9.31323 2.66988 10.0524 2.42841 10.8813C2.21559 11.6119 2.21559 12.3881 2.42841 13.1187C2.66988 13.9476 3.30344 14.6868 4.57054 16.1651L5.08483 16.7651C5.78944 17.5871 6.14175 17.9981 6.57005 18.2934C6.94959 18.555 7.37149 18.749 7.81712 18.8669C8.32002 19 8.86137 19 9.94407 19L13.6005 19C15.8407 19 16.9608 19 17.8165 18.564C18.5691 18.1805 19.181 17.5686 19.5645 16.816C20.0005 15.9603 20.0005 14.8402 20.0005 12.6L20.0005 11.4C20.0005 9.15979 20.0005 8.03968 19.5645 7.18404C19.181 6.43139 18.5691 5.81947 17.8164 5.43597C16.9608 5 15.8407 5 13.6005 5Z" stroke="currentColor" stroke-width="1.5" stroke-linecap="round" stroke-linejoin="round"/>
</svg>
