<svg width="24" height="24" viewBox="0 0 24 24" fill="none" xmlns="http://www.w3.org/2000/svg">
<path d="M8 4.5V4.2C8 3.07989 8 2.51984 8.21799 2.09202C8.40973 1.71569 8.71569 1.40973 9.09202 1.21799C9.51984 1 10.0799 1 11.2 1H12.8C13.9201 1 14.4802 1 14.908 1.21799C15.2843 1.40973 15.5903 1.71569 15.782 2.09202C16 2.51984 16 3.07989 16 4.2V4.5M12 18C9.79086 18 8 16.2091 8 14M12 22V22C16.9706 22 21 17.9706 21 13V13C21 8.02944 16.9706 4 12 4V4C7.02944 4 3 8.02944 3 13V13C3 17.9706 7.02944 22 12 22Z" stroke="currentColor" stroke-width="1.5" stroke-linecap="round" stroke-linejoin="round"/>
</svg>
