<svg width="24" height="24" viewBox="0 0 24 24" fill="none" xmlns="http://www.w3.org/2000/svg">
<path d="M20.4697 21.5303C20.7626 21.8232 21.2374 21.8232 21.5303 21.5303C21.8232 21.2374 21.8232 20.7626 21.5303 20.4697L20.4697 21.5303ZM8 10.25C7.58579 10.25 7.25 10.5858 7.25 11C7.25 11.4142 7.58579 11.75 8 11.75V10.25ZM14 11.75C14.4142 11.75 14.75 11.4142 14.75 11C14.75 10.5858 14.4142 10.25 14 10.25V11.75ZM11 19.25C6.44365 19.25 2.75 15.5563 2.75 11H1.25C1.25 16.3848 5.61522 20.75 11 20.75V19.25ZM2.75 11C2.75 6.44365 6.44365 2.75 11 2.75V1.25C5.61522 1.25 1.25 5.61522 1.25 11H2.75ZM11 2.75C15.5563 2.75 19.25 6.44365 19.25 11H20.75C20.75 5.61522 16.3848 1.25 11 1.25V2.75ZM19.25 11C19.25 13.2784 18.3274 15.3399 16.8336 16.8336L17.8943 17.8943C19.6579 16.1307 20.75 13.6922 20.75 11H19.25ZM16.8336 16.8336C15.3399 18.3274 13.2784 19.25 11 19.25V20.75C13.6922 20.75 16.1307 19.6579 17.8943 17.8943L16.8336 16.8336ZM16.8336 17.8943L20.4697 21.5303L21.5303 20.4697L17.8943 16.8336L16.8336 17.8943ZM8 11.75H11V10.25H8V11.75ZM11 11.75H14V10.25H11V11.75Z" fill="currentColor"/>
</svg>
