<svg width="24" height="24" viewBox="0 0 24 24" fill="none" xmlns="http://www.w3.org/2000/svg">
<path d="M20 5V10M20.5 13C20.5 13.2761 20.2761 13.5 20 13.5C19.7239 13.5 19.5 13.2761 19.5 13M20.5 13C20.5 12.7239 20.2761 12.5 20 12.5C19.7239 12.5 19.5 12.7239 19.5 13M20.5 13H19.5M13 6C13 8.20914 11.2091 10 9 10C6.79086 10 5 8.20914 5 6C5 3.79086 6.79086 2 9 2C11.2091 2 13 3.79086 13 6ZM5.2 22H12.8C14.5673 22 16 20.5673 16 18.8V18.8C16 16.149 13.851 14 11.2 14H6.8C4.14903 14 2 16.149 2 18.8V18.8C2 20.5673 3.43269 22 5.2 22Z" stroke="currentColor" stroke-width="1.5" stroke-linecap="round" stroke-linejoin="round"/>
</svg>
