<svg width="24" height="24" viewBox="0 0 24 24" fill="none" xmlns="http://www.w3.org/2000/svg">
<path fill-rule="evenodd" clip-rule="evenodd" d="M3.98005 1.79497C5.04961 1.25 6.44974 1.25 9.25 1.25H14.75C17.5503 1.25 18.9504 1.25 20.02 1.79497C20.9608 2.27433 21.7257 3.03924 22.205 3.98005C22.75 5.04961 22.75 6.44974 22.75 9.25V14.75C22.75 17.5503 22.75 18.9504 22.205 20.02C21.7257 20.9608 20.9608 21.7257 20.02 22.205C18.9504 22.75 17.5503 22.75 14.75 22.75H9.25C6.44974 22.75 5.04961 22.75 3.98005 22.205C3.03924 21.7257 2.27433 20.9608 1.79497 20.02C1.25 18.9504 1.25 17.5503 1.25 14.75V9.25C1.25 6.44974 1.25 5.04961 1.79497 3.98005C2.27433 3.03924 3.03924 2.27433 3.98005 1.79497ZM12.75 4.4999C12.75 4.08569 12.4142 3.7499 12 3.7499C11.5858 3.7499 11.25 4.08569 11.25 4.4999V7.18923L10.5303 6.46957C10.2374 6.17667 9.76257 6.17667 9.46968 6.46956C9.17678 6.76246 9.17678 7.23733 9.46968 7.53022L11.4697 9.53023C11.6103 9.67088 11.8011 9.7499 12 9.7499C12.1989 9.7499 12.3897 9.67089 12.5303 9.53023L14.5303 7.53024C14.8232 7.23735 14.8232 6.76247 14.5303 6.46958C14.2374 6.17669 13.7626 6.17669 13.4697 6.46958L12.75 7.18924V4.4999ZM6 11.25C5.58579 11.25 5.25 11.5858 5.25 12C5.25 12.4142 5.58579 12.75 6 12.75H18C18.4142 12.75 18.75 12.4142 18.75 12C18.75 11.5858 18.4142 11.25 18 11.25H6ZM12.5303 14.4697C12.3897 14.329 12.1989 14.25 12 14.25C11.8011 14.25 11.6103 14.329 11.4697 14.4697L9.46968 16.4697C9.17678 16.7626 9.17678 17.2374 9.46968 17.5303C9.76257 17.8232 10.2374 17.8232 10.5303 17.5303L11.25 16.8107L11.25 19.5C11.25 19.9142 11.5858 20.25 12 20.25C12.4142 20.25 12.75 19.9142 12.75 19.5L12.75 16.8107L13.4697 17.5303C13.7626 17.8232 14.2374 17.8232 14.5303 17.5303C14.8232 17.2374 14.8232 16.7626 14.5303 16.4697L12.5303 14.4697Z" fill="#2F384C"/>
</svg>
