<svg width="24" height="24" viewBox="0 0 24 24" fill="none" xmlns="http://www.w3.org/2000/svg">
<path fill-rule="evenodd" clip-rule="evenodd" d="M3.98005 1.79497C5.04961 1.25 6.44974 1.25 9.25 1.25H14.75C17.5503 1.25 18.9504 1.25 20.02 1.79497C20.9608 2.27433 21.7257 3.03924 22.205 3.98005C22.75 5.04961 22.75 6.44974 22.75 9.25V14.75C22.75 17.5503 22.75 18.9504 22.205 20.02C21.7257 20.9608 20.9608 21.7257 20.02 22.205C18.9504 22.75 17.5503 22.75 14.75 22.75H9.25C6.44974 22.75 5.04961 22.75 3.98005 22.205C3.03924 21.7257 2.27433 20.9608 1.79497 20.02C1.25 18.9504 1.25 17.5503 1.25 14.75V9.25C1.25 6.44974 1.25 5.04961 1.79497 3.98005C2.27433 3.03924 3.03924 2.27433 3.98005 1.79497ZM7.99982 6.25C7.5856 6.25 7.24982 6.58579 7.24982 7C7.24982 7.41421 7.5856 7.75 7.99982 7.75H13.9998C14.414 7.75 14.7498 7.41421 14.7498 7C14.7498 6.58579 14.414 6.25 13.9998 6.25H7.99982ZM7.99982 11.25C7.5856 11.25 7.24982 11.5858 7.24982 12C7.24982 12.4142 7.5856 12.75 7.99982 12.75H15.9998C16.414 12.75 16.7498 12.4142 16.7498 12C16.7498 11.5858 16.414 11.25 15.9998 11.25H7.99982ZM7.99982 16.25C7.5856 16.25 7.24982 16.5858 7.24982 17C7.24982 17.4142 7.5856 17.75 7.99982 17.75H11.9998C12.414 17.75 12.7498 17.4142 12.7498 17C12.7498 16.5858 12.414 16.25 11.9998 16.25H7.99982Z" fill="#2F384C"/>
</svg>
