<svg width="24" height="24" viewBox="0 0 24 24" fill="none" xmlns="http://www.w3.org/2000/svg">
<path fill-rule="evenodd" clip-rule="evenodd" d="M3.98005 1.79497C5.04961 1.25 6.44974 1.25 9.25 1.25H14.75C17.5503 1.25 18.9504 1.25 20.02 1.79497C20.9608 2.27433 21.7257 3.03924 22.205 3.98005C22.75 5.04961 22.75 6.44974 22.75 9.25V14.75C22.75 17.5503 22.75 18.9504 22.205 20.02C21.7257 20.9608 20.9608 21.7257 20.02 22.205C18.9504 22.75 17.5503 22.75 14.75 22.75H9.25C6.44974 22.75 5.04961 22.75 3.98005 22.205C3.03924 21.7257 2.27433 20.9608 1.79497 20.02C1.25 18.9504 1.25 17.5503 1.25 14.75V9.25C1.25 6.44974 1.25 5.04961 1.79497 3.98005C2.27433 3.03924 3.03924 2.27433 3.98005 1.79497ZM6.75 7C6.75 6.58579 6.41421 6.25 6 6.25C5.58579 6.25 5.25 6.58579 5.25 7V17C5.25 17.4142 5.58579 17.75 6 17.75C6.41421 17.75 6.75 17.4142 6.75 17V7ZM18.75 7C18.75 6.58579 18.4142 6.25 18 6.25C17.5858 6.25 17.25 6.58579 17.25 7V17C17.25 17.4142 17.5858 17.75 18 17.75C18.4142 17.75 18.75 17.4142 18.75 17V7ZM10.5303 11.0303C10.8232 10.7374 10.8232 10.2626 10.5303 9.96966C10.2374 9.67676 9.76257 9.67676 9.46968 9.96966L7.96967 11.4697C7.67677 11.7626 7.67677 12.2374 7.96967 12.5303L9.46968 14.0303C9.76257 14.3232 10.2374 14.3232 10.5303 14.0303C10.8232 13.7375 10.8232 13.2626 10.5303 12.9697L10.3107 12.75H13.6893L13.4697 12.9697C13.1768 13.2626 13.1768 13.7374 13.4697 14.0303C13.7626 14.3232 14.2374 14.3232 14.5303 14.0303L16.0303 12.5303C16.3232 12.2374 16.3232 11.7626 16.0303 11.4697L14.5303 9.96967C14.2374 9.67678 13.7626 9.67678 13.4697 9.96967C13.1768 10.2626 13.1768 10.7374 13.4697 11.0303L13.6893 11.25H10.3107L10.5303 11.0303Z" fill="#2F384C"/>
</svg>
