<svg width="24" height="24" viewBox="0 0 24 24" fill="none" xmlns="http://www.w3.org/2000/svg">
<path fill-rule="evenodd" clip-rule="evenodd" d="M3.98005 1.79497C5.04961 1.25 6.44974 1.25 9.25 1.25H14.75C17.5503 1.25 18.9504 1.25 20.02 1.79497C20.9608 2.27433 21.7257 3.03924 22.205 3.98005C22.75 5.04961 22.75 6.44974 22.75 9.25V14.75C22.75 17.5503 22.75 18.9504 22.205 20.02C21.7257 20.9608 20.9608 21.7257 20.02 22.205C18.9504 22.75 17.5503 22.75 14.75 22.75H9.25C6.44974 22.75 5.04961 22.75 3.98005 22.205C3.03924 21.7257 2.27433 20.9608 1.79497 20.02C1.25 18.9504 1.25 17.5503 1.25 14.75V9.25C1.25 6.44974 1.25 5.04961 1.79497 3.98005C2.27433 3.03924 3.03924 2.27433 3.98005 1.79497ZM17.162 10.8984C17.0146 11.0459 16.8064 11.1179 16.6006 11.0841C15.3224 10.8742 14.5004 10.4694 13.9559 9.89382C13.4287 9.33672 13.0878 8.54414 12.9072 7.40472C12.8747 7.19929 12.9471 6.99207 13.0942 6.845C14.1467 5.79247 15.8532 5.79247 16.9057 6.845L17.162 7.10135C18.2106 8.14988 18.2106 9.84989 17.162 10.8984ZM8.57618 11.363L11.5696 8.36956C11.8137 9.38511 12.2208 10.2425 12.8663 10.9248C13.5648 11.6629 14.487 12.1393 15.6408 12.4196L12.6368 15.4236L12.6368 15.4236C12.1703 15.8902 11.937 16.1235 11.6731 16.3131C11.4389 16.4815 11.1871 16.6241 10.9222 16.7383C10.6238 16.867 10.3037 16.947 9.66361 17.107L9.66359 17.1071L7.52137 17.6426C7.00939 17.7706 6.7534 17.8346 6.57498 17.7647C6.41926 17.7037 6.29606 17.5805 6.23508 17.4248C6.16521 17.2464 6.22921 16.9904 6.3572 16.4784L6.89276 14.3362C7.05279 13.6961 7.1328 13.376 7.26147 13.0776C7.37571 12.8127 7.51827 12.5609 7.68666 12.3267C7.87634 12.0628 8.10962 11.8295 8.57618 11.363Z" fill="#2F384C"/>
</svg>
