<svg width="24" height="24" viewBox="0 0 24 24" fill="none" xmlns="http://www.w3.org/2000/svg">
<path fill-rule="evenodd" clip-rule="evenodd" d="M19.2212 2.36441C18.4518 1.98311 17.5485 1.9831 16.7791 2.36439C16.3719 2.56617 16.0157 2.9229 15.5556 3.38371L15.4698 3.46964L14.4771 4.46232L14.4624 4.47709L12.4697 6.46974C12.1768 6.76263 12.1768 7.2375 12.4697 7.5304C12.7626 7.82329 13.2374 7.82329 13.5303 7.5304L14.5092 6.55156C14.9843 7.92681 16.0732 9.01578 17.4485 9.49083L16.4697 10.4697C16.1768 10.7625 16.1768 11.2374 16.4697 11.5303C16.7626 11.8232 17.2374 11.8232 17.5303 11.5303L19.5297 9.53091L19.5309 9.52972L20.5304 8.53025L20.6163 8.44442C21.0771 7.98437 21.4339 7.62823 21.6356 7.22105C22.0169 6.45166 22.0169 5.54832 21.6357 4.77891C21.4339 4.37172 21.0772 4.01558 20.6164 3.55551L20.5304 3.46969L20.4446 3.38377C19.9846 2.92295 19.6284 2.56621 19.2212 2.36441ZM18.7028 8.23658C17.1451 8.09534 15.9047 6.855 15.7634 5.29733L16.5305 4.53031C17.1185 3.94226 17.2891 3.78572 17.4451 3.70841C17.7948 3.5351 18.2054 3.5351 18.5552 3.70842C18.7112 3.78573 18.8817 3.94228 19.4698 4.53034C20.0578 5.11838 20.2143 5.28894 20.2916 5.44494C20.4649 5.79467 20.4649 6.20528 20.2916 6.555C20.2143 6.711 20.0578 6.88156 19.4697 7.46959L18.7028 8.23658ZM4.53034 2.46966C4.23745 2.17676 3.76258 2.17676 3.46968 2.46966C3.17679 2.76255 3.17679 3.23742 3.46968 3.53032L9.43938 9.50001L5.83991 13.0994L5.79168 13.1477L5.79167 13.1477C5.32831 13.6109 5.02953 13.9096 4.78877 14.2548C4.57549 14.5606 4.39896 14.8905 4.26282 15.2376C4.10913 15.6294 4.02633 16.0437 3.89791 16.6862L3.88455 16.7531L3.26458 19.8529C3.2154 20.0988 3.29236 20.353 3.46968 20.5303C3.647 20.7076 3.9012 20.7846 4.1471 20.7354L7.24696 20.1154L7.31383 20.1021L7.31386 20.1021C7.95635 19.9737 8.37063 19.8909 8.76244 19.7372C9.10952 19.601 9.43937 19.4245 9.74518 19.2112C10.0904 18.9705 10.3891 18.6717 10.8523 18.2083L10.8523 18.2083L10.9005 18.1601L14.5 14.5606L20.4697 20.5303C20.7626 20.8232 21.2374 20.8232 21.5303 20.5303C21.8232 20.2374 21.8232 19.7626 21.5303 19.4697L15.0303 12.9697L11.0304 8.96968L4.53034 2.46966Z" fill="#2F384C"/>
</svg>
