<svg width="24" height="24" viewBox="0 0 24 24" fill="none" xmlns="http://www.w3.org/2000/svg">
<path fill-rule="evenodd" clip-rule="evenodd" d="M18.618 1.86514C19.0747 2.01352 19.4707 2.40955 20.2627 3.2016L20.7979 3.73673C21.5899 4.52877 21.9859 4.92479 22.1342 5.38144C22.2647 5.78312 22.2647 6.21581 22.1342 6.61749C21.9858 7.07415 21.5898 7.47016 20.7978 8.26218L19.8352 9.2248C19.3204 9.20149 18.9606 9.15679 18.6411 9.07118C16.8294 8.58573 15.4143 7.1706 14.9288 5.35887C14.8431 5.03913 14.7984 4.67905 14.7751 4.16364L15.7372 3.20156C16.5293 2.40952 16.9253 2.0135 17.382 1.86512C17.7837 1.73461 18.2164 1.73462 18.618 1.86514ZM13.424 5.51474L5.67919 13.2595C5.16989 13.7688 4.91524 14.0234 4.71289 14.3136C4.53329 14.5711 4.38463 14.8489 4.26998 15.1411C4.14082 15.4704 4.07019 15.8236 3.92894 16.5299L3.32621 19.5435C3.23178 20.0156 3.18457 20.2517 3.25423 20.4201C3.31513 20.5673 3.43207 20.6842 3.57928 20.7451C3.74765 20.8148 3.98371 20.7675 4.45584 20.6731L7.46949 20.0704C8.17576 19.9291 8.52889 19.8585 8.85819 19.7294C9.15047 19.6147 9.42824 19.466 9.68576 19.2864C9.97589 19.0841 10.2305 18.8295 10.7398 18.3202L18.4843 10.5757C18.4056 10.5589 18.3286 10.5404 18.2529 10.5201C15.9235 9.89592 14.1041 8.07647 13.4799 5.7471C13.4595 5.67104 13.441 5.59371 13.424 5.51474Z" fill="#2F384C"/>
</svg>
