<svg width="24" height="24" viewBox="0 0 24 24" fill="none" xmlns="http://www.w3.org/2000/svg">
<path d="M3 21H21M13 3L21 3M13 9L21 9M3 15H21M5.4 9H6.6C7.44008 9 7.86012 9 8.18099 8.83651C8.46323 8.6927 8.6927 8.46323 8.83651 8.18099C9 7.86012 9 7.44008 9 6.6V5.4C9 4.55992 9 4.13988 8.83651 3.81902C8.6927 3.53677 8.46323 3.3073 8.18099 3.16349C7.86012 3 7.44008 3 6.6 3H5.4C4.55992 3 4.13988 3 3.81901 3.16349C3.53677 3.3073 3.3073 3.53677 3.16349 3.81902C3 4.13988 3 4.55992 3 5.4V6.6C3 7.44008 3 7.86012 3.16349 8.18099C3.3073 8.46323 3.53677 8.6927 3.81901 8.83651C4.13988 9 4.55992 9 5.4 9Z" stroke="#2F384C" stroke-width="1.5" stroke-linecap="round" stroke-linejoin="round"/>
</svg>
