<svg width="24" height="24" viewBox="0 0 24 24" fill="none" xmlns="http://www.w3.org/2000/svg">
<path fill-rule="evenodd" clip-rule="evenodd" d="M3.98005 1.79497C5.04961 1.25 6.44974 1.25 9.25 1.25L14.75 1.25C17.5503 1.25 18.9504 1.25 20.02 1.79497C20.9608 2.27434 21.7257 3.03924 22.205 3.98005C22.75 5.04961 22.75 6.44974 22.75 9.25L22.75 14.75L22.75 14.75C22.75 17.5503 22.75 18.9504 22.205 20.02C21.7257 20.9608 20.9608 21.7257 20.02 22.205C18.9504 22.75 17.5503 22.75 14.75 22.75L9.25 22.75C6.44974 22.75 5.04961 22.75 3.98005 22.205C3.03924 21.7257 2.27433 20.9608 1.79497 20.02C1.25 18.9504 1.25 17.5503 1.25 14.75L1.25 9.25C1.25 6.44974 1.25 5.04961 1.79497 3.98005C2.27433 3.03924 3.03924 2.27434 3.98005 1.79497ZM6.0001 5.24995C5.58589 5.24995 5.2501 5.58574 5.2501 5.99995C5.2501 6.41416 5.58589 6.74995 6.0001 6.74995L7.2501 6.74995L7.2501 9.99995C7.2501 10.4142 7.58589 10.75 8.0001 10.75C8.41431 10.75 8.7501 10.4142 8.7501 9.99995L8.7501 6.74995L10.0001 6.74995C10.4143 6.74995 10.7501 6.41416 10.7501 5.99995C10.7501 5.58574 10.4143 5.24995 10.0001 5.24995L8.0001 5.24995L6.0001 5.24995ZM14.0001 5.25004C13.5859 5.25004 13.2501 5.58582 13.2501 6.00003C13.2501 6.41425 13.5859 6.75004 14.0001 6.75004L18.0001 6.75004C18.4143 6.75004 18.7501 6.41425 18.7501 6.00004C18.7501 5.58582 18.4143 5.25004 18.0001 5.25004L14.0001 5.25004ZM14.0001 9.25004C13.5859 9.25004 13.2501 9.58582 13.2501 10C13.2501 10.4142 13.5859 10.75 14.0001 10.75L18.0001 10.75C18.4143 10.75 18.7501 10.4143 18.7501 10C18.7501 9.58582 18.4143 9.25004 18.0001 9.25004L14.0001 9.25004ZM6.00011 13.25C5.5859 13.25 5.25011 13.5858 5.25011 14C5.25011 14.4142 5.5859 14.75 6.00011 14.75L18.0001 14.75C18.4143 14.75 18.7501 14.4142 18.7501 14C18.7501 13.5858 18.4143 13.25 18.0001 13.25L6.00011 13.25ZM6.00011 17.25C5.5859 17.25 5.25011 17.5858 5.25011 18C5.25011 18.4142 5.5859 18.75 6.00011 18.75L18.0001 18.75C18.4143 18.75 18.7501 18.4143 18.7501 18C18.7501 17.5858 18.4143 17.25 18.0001 17.25L6.00011 17.25Z" fill="#2F384C"/>
</svg>
