<svg width="24" height="24" viewBox="0 0 24 24" fill="none" xmlns="http://www.w3.org/2000/svg">
<path fill-rule="evenodd" clip-rule="evenodd" d="M3.98005 1.79497C5.04961 1.25 6.44974 1.25 9.25 1.25L14.75 1.25C17.5503 1.25 18.9504 1.25 20.02 1.79497C20.9608 2.27434 21.7257 3.03924 22.205 3.98005C22.75 5.04961 22.75 6.44974 22.75 9.25L22.75 14.75L22.75 14.75C22.75 17.5503 22.75 18.9504 22.205 20.02C21.7257 20.9608 20.9608 21.7257 20.02 22.205C18.9504 22.75 17.5503 22.75 14.75 22.75L9.25 22.75C6.44974 22.75 5.04961 22.75 3.98005 22.205C3.03924 21.7257 2.27433 20.9608 1.79497 20.02C1.25 18.9504 1.25 17.5503 1.25 14.75L1.25 9.25C1.25 6.44974 1.25 5.04961 1.79497 3.98005C2.27433 3.03924 3.03924 2.27434 3.98005 1.79497ZM6.00009 5.25004C5.58588 5.25004 5.25009 5.58583 5.25009 6.00004C5.25009 6.41425 5.58588 6.75004 6.00009 6.75004L18.0001 6.75004C18.4143 6.75004 18.7501 6.41425 18.7501 6.00004C18.7501 5.58583 18.4143 5.25004 18.0001 5.25004L6.00009 5.25004ZM8.53041 10.5303C8.8233 10.2374 8.8233 9.76255 8.53041 9.46966C8.23752 9.17677 7.76264 9.17677 7.46975 9.46966L5.46975 11.4697C5.17686 11.7626 5.17686 12.2374 5.46975 12.5303L7.46975 14.5303C7.76264 14.8232 8.23752 14.8232 8.53041 14.5303C8.8233 14.2374 8.8233 13.7626 8.53041 13.4697L7.06074 12L8.53041 10.5303ZM12.0001 9.25003C11.5859 9.25003 11.2501 9.58582 11.2501 10C11.2501 10.4142 11.5859 10.75 12.0001 10.75L18.0001 10.75C18.4143 10.75 18.7501 10.4142 18.7501 10C18.7501 9.58582 18.4143 9.25004 18.0001 9.25004L12.0001 9.25003ZM12.0001 13.25C11.5859 13.25 11.2501 13.5858 11.2501 14C11.2501 14.4142 11.5859 14.75 12.0001 14.75L18.0001 14.75C18.4143 14.75 18.7501 14.4142 18.7501 14C18.7501 13.5858 18.4143 13.25 18.0001 13.25L12.0001 13.25ZM6.00009 17.25C5.58588 17.25 5.25009 17.5858 5.25009 18C5.25009 18.4142 5.58588 18.75 6.00009 18.75L18.0001 18.75C18.4143 18.75 18.7501 18.4143 18.7501 18C18.7501 17.5858 18.4143 17.25 18.0001 17.25L6.00009 17.25Z" fill="#2F384C"/>
</svg>
