<svg width="24" height="24" viewBox="0 0 24 24" fill="none" xmlns="http://www.w3.org/2000/svg">
<path fill-rule="evenodd" clip-rule="evenodd" d="M3.98005 1.79497C5.04961 1.25 6.44974 1.25 9.25 1.25H14.75C17.5503 1.25 18.9504 1.25 20.02 1.79497C20.9608 2.27433 21.7257 3.03924 22.205 3.98005C22.75 5.04961 22.75 6.44974 22.75 9.25V14.75C22.75 17.5503 22.75 18.9504 22.205 20.02C21.7257 20.9608 20.9608 21.7257 20.02 22.205C18.9504 22.75 17.5503 22.75 14.75 22.75H9.25C6.44974 22.75 5.04961 22.75 3.98005 22.205C3.03924 21.7257 2.27433 20.9608 1.79497 20.02C1.25 18.9504 1.25 17.5503 1.25 14.75V9.25C1.25 6.44974 1.25 5.04961 1.79497 3.98005C2.27433 3.03924 3.03924 2.27433 3.98005 1.79497ZM8.53036 5.46967C8.23747 5.17677 7.76259 5.17677 7.4697 5.46967L5.4697 7.46967C5.17681 7.76256 5.17681 8.23743 5.4697 8.53033C5.76259 8.82322 6.23747 8.82322 6.53036 8.53033L7.25003 7.81066V16.1893L6.53036 15.4697C6.23747 15.1768 5.76259 15.1768 5.4697 15.4697C5.17681 15.7626 5.17681 16.2374 5.4697 16.5303L7.4697 18.5303C7.76259 18.8232 8.23747 18.8232 8.53036 18.5303L10.5304 16.5303C10.8233 16.2374 10.8233 15.7626 10.5304 15.4697C10.2375 15.1768 9.76259 15.1768 9.4697 15.4697L8.75003 16.1893V7.81066L9.4697 8.53033C9.76259 8.82322 10.2375 8.82322 10.5304 8.53033C10.8233 8.23743 10.8233 7.76256 10.5304 7.46967L8.53036 5.46967ZM13 6.25C12.5858 6.25 12.25 6.58578 12.25 7C12.25 7.41421 12.5858 7.75 13 7.75H18C18.4142 7.75 18.75 7.41421 18.75 7C18.75 6.58578 18.4142 6.25 18 6.25H13ZM13 11.25C12.5858 11.25 12.25 11.5858 12.25 12C12.25 12.4142 12.5858 12.75 13 12.75H18C18.4142 12.75 18.75 12.4142 18.75 12C18.75 11.5858 18.4142 11.25 18 11.25H13ZM13 16.25C12.5858 16.25 12.25 16.5858 12.25 17C12.25 17.4142 12.5858 17.75 13 17.75L18 17.75C18.4142 17.75 18.75 17.4142 18.75 17C18.75 16.5858 18.4142 16.25 18 16.25L13 16.25Z" fill="#2F384C"/>
</svg>
