<svg width="24" height="24" viewBox="0 0 24 24" fill="none" xmlns="http://www.w3.org/2000/svg">
<path fill-rule="evenodd" clip-rule="evenodd" d="M3.98005 1.79497C5.04961 1.25 6.44974 1.25 9.25 1.25L14.75 1.25C17.5503 1.25 18.9504 1.25 20.02 1.79497C20.9608 2.27434 21.7257 3.03924 22.205 3.98005C22.75 5.04961 22.75 6.44974 22.75 9.25L22.75 14.75L22.75 14.75C22.75 17.5503 22.75 18.9504 22.205 20.02C21.7257 20.9608 20.9608 21.7257 20.02 22.205C18.9504 22.75 17.5503 22.75 14.75 22.75L9.25 22.75C6.44974 22.75 5.04961 22.75 3.98005 22.205C3.03924 21.7257 2.27433 20.9608 1.79497 20.02C1.25 18.9504 1.25 17.5503 1.25 14.75L1.25 9.25C1.25 6.44974 1.25 5.04961 1.79497 3.98005C2.27433 3.03924 3.03924 2.27434 3.98005 1.79497ZM9.53035 6.5303C9.82325 6.23741 9.82325 5.76254 9.53035 5.46965C9.23746 5.17675 8.76259 5.17675 8.46969 5.46964L7.00002 6.93931L6.53035 6.46964C6.23746 6.17675 5.76259 6.17675 5.46969 6.46964C5.1768 6.76254 5.1768 7.23741 5.46969 7.53031L6.46969 8.53031C6.61035 8.67096 6.80111 8.74998 7.00002 8.74998C7.19894 8.74998 7.3897 8.67096 7.53035 8.53031L9.53035 6.5303ZM12 6.24998C11.5858 6.24998 11.25 6.58576 11.25 6.99998C11.25 7.41419 11.5858 7.74998 12 7.74998L18 7.74998C18.4142 7.74998 18.75 7.41419 18.75 6.99998C18.75 6.58576 18.4142 6.24998 18 6.24998L12 6.24998ZM9.53035 11.5303C9.82325 11.2374 9.82325 10.7625 9.53035 10.4696C9.23746 10.1768 8.76259 10.1768 8.46969 10.4696L7.00002 11.9393L6.53035 11.4696C6.23746 11.1768 5.76259 11.1768 5.46969 11.4696C5.1768 11.7625 5.1768 12.2374 5.46969 12.5303L6.46969 13.5303C6.76259 13.8232 7.23746 13.8232 7.53035 13.5303L9.53035 11.5303ZM18 11.25L12 11.25C11.5858 11.25 11.25 11.5858 11.25 12C11.25 12.4142 11.5858 12.75 12 12.75L18 12.75C18.4142 12.75 18.75 12.4142 18.75 12C18.75 11.5858 18.4142 11.25 18 11.25ZM9.53035 16.5303C9.82325 16.2374 9.82325 15.7625 9.53035 15.4696C9.23746 15.1768 8.76259 15.1768 8.46969 15.4696L7.00002 16.9393L6.53035 16.4696C6.23746 16.1768 5.76259 16.1768 5.46969 16.4696C5.1768 16.7625 5.1768 17.2374 5.46969 17.5303L6.46969 18.5303C6.76259 18.8232 7.23746 18.8232 7.53035 18.5303L9.53035 16.5303ZM12 17.75L18 17.75C18.4142 17.75 18.75 17.4142 18.75 17C18.75 16.5858 18.4142 16.25 18 16.25L12 16.25C11.5858 16.25 11.25 16.5858 11.25 17C11.25 17.4142 11.5858 17.75 12 17.75Z" fill="#2F384C"/>
</svg>
