<svg width="24" height="24" viewBox="0 0 24 24" fill="none" xmlns="http://www.w3.org/2000/svg">
<path fill-rule="evenodd" clip-rule="evenodd" d="M3.98005 1.79497C5.04961 1.25 6.44974 1.25 9.25 1.25L14.75 1.25C17.5503 1.25 18.9504 1.25 20.02 1.79497C20.9608 2.27434 21.7257 3.03924 22.205 3.98005C22.75 5.04961 22.75 6.44974 22.75 9.25L22.75 14.75L22.75 14.75C22.75 17.5503 22.75 18.9504 22.205 20.02C21.7257 20.9608 20.9608 21.7257 20.02 22.205C18.9504 22.75 17.5503 22.75 14.75 22.75L9.25 22.75C6.44974 22.75 5.04961 22.75 3.98005 22.205C3.03924 21.7257 2.27433 20.9608 1.79497 20.02C1.25 18.9504 1.25 17.5503 1.25 14.75L1.25 9.25C1.25 6.44974 1.25 5.04961 1.79497 3.98005C2.27433 3.03924 3.03924 2.27434 3.98005 1.79497ZM6.5 5.75C5.80964 5.75 5.25 6.30965 5.25 7C5.25 7.69036 5.80964 8.25 6.5 8.25C7.19036 8.25 7.75 7.69036 7.75 7C7.75 6.30965 7.19036 5.75 6.5 5.75ZM10 6.25C9.58579 6.25 9.25 6.58579 9.25 7C9.25 7.41422 9.58579 7.75 10 7.75L18 7.75C18.4142 7.75 18.75 7.41422 18.75 7C18.75 6.58579 18.4142 6.25 18 6.25L10 6.25ZM6.5 10.75C5.80964 10.75 5.25 11.3096 5.25 12C5.25 12.6904 5.80964 13.25 6.5 13.25C7.19036 13.25 7.75 12.6904 7.75 12C7.75 11.3096 7.19036 10.75 6.5 10.75ZM10 11.25C9.58579 11.25 9.25 11.5858 9.25 12C9.25 12.4142 9.58579 12.75 10 12.75L18 12.75C18.4142 12.75 18.75 12.4142 18.75 12C18.75 11.5858 18.4142 11.25 18 11.25L10 11.25ZM6.5 15.75C5.80964 15.75 5.25 16.3096 5.25 17C5.25 17.6904 5.80964 18.25 6.5 18.25C7.19036 18.25 7.75 17.6904 7.75 17C7.75 16.3096 7.19036 15.75 6.5 15.75ZM10 16.25C9.58579 16.25 9.25 16.5858 9.25 17C9.25 17.4142 9.58579 17.75 10 17.75L18 17.75C18.4142 17.75 18.75 17.4142 18.75 17C18.75 16.5858 18.4142 16.25 18 16.25L10 16.25Z" fill="#2F384C"/>
</svg>
