<svg width="24" height="24" viewBox="0 0 24 24" fill="none" xmlns="http://www.w3.org/2000/svg">
<path fill-rule="evenodd" clip-rule="evenodd" d="M3.98005 1.79497C5.04961 1.25 6.44974 1.25 9.25 1.25L14.75 1.25C17.5503 1.25 18.9504 1.25 20.02 1.79497C20.9608 2.27434 21.7257 3.03924 22.205 3.98005C22.75 5.04961 22.75 6.44974 22.75 9.25L22.75 14.75L22.75 14.75C22.75 17.5503 22.75 18.9504 22.205 20.02C21.7257 20.9608 20.9608 21.7257 20.02 22.205C18.9504 22.75 17.5503 22.75 14.75 22.75L9.25 22.75C6.44974 22.75 5.04961 22.75 3.98005 22.205C3.03924 21.7257 2.27433 20.9608 1.79497 20.02C1.25 18.9504 1.25 17.5503 1.25 14.75L1.25 9.25C1.25 6.44974 1.25 5.04961 1.79497 3.98005C2.27433 3.03924 3.03924 2.27434 3.98005 1.79497ZM6.5304 5.46983C6.23751 5.17693 5.76264 5.17693 5.46974 5.46983C5.17685 5.76272 5.17685 6.23759 5.46974 6.53049L5.93941 7.00016L5.46974 7.46983C5.17685 7.76272 5.17685 8.23759 5.46974 8.53049C5.76264 8.82338 6.23751 8.82338 6.5304 8.53049L7.00007 8.06082L7.46974 8.53049C7.76264 8.82338 8.23751 8.82338 8.5304 8.53049C8.8233 8.23759 8.8233 7.76272 8.5304 7.46983L8.06073 7.00016L8.5304 6.53049C8.8233 6.23759 8.8233 5.76272 8.5304 5.46983C8.23751 5.17693 7.76264 5.17693 7.46974 5.46983L7.00007 5.9395L6.5304 5.46983ZM11.0001 7.75016L18.0001 7.75016C18.4143 7.75016 18.7501 7.41437 18.7501 7.00016C18.7501 6.58594 18.4143 6.25016 18.0001 6.25016L11.0001 6.25016C10.5859 6.25016 10.2501 6.58594 10.2501 7.00016C10.2501 7.41437 10.5859 7.75016 11.0001 7.75016ZM6.5304 10.4698C6.23751 10.1769 5.76264 10.1769 5.46974 10.4698C5.17685 10.7627 5.17685 11.2376 5.46974 11.5305L5.93941 12.0002L5.46974 12.4698C5.17685 12.7627 5.17685 13.2376 5.46974 13.5305C5.76264 13.8234 6.23751 13.8234 6.5304 13.5305L7.00007 13.0608L7.46974 13.5305C7.76264 13.8234 8.23751 13.8234 8.5304 13.5305C8.8233 13.2376 8.8233 12.7627 8.5304 12.4698L8.06073 12.0002L8.5304 11.5305C8.8233 11.2376 8.8233 10.7627 8.5304 10.4698C8.23751 10.1769 7.76264 10.1769 7.46974 10.4698L7.00007 10.9395L6.5304 10.4698ZM11.0001 11.2502C10.5859 11.2502 10.2501 11.5859 10.2501 12.0002C10.2501 12.4144 10.5859 12.7502 11.0001 12.7502L18.0001 12.7502C18.4143 12.7502 18.7501 12.4144 18.7501 12.0002C18.7501 11.5859 18.4143 11.2502 18.0001 11.2502L11.0001 11.2502ZM6.5304 15.4698C6.23751 15.1769 5.76264 15.1769 5.46974 15.4698C5.17685 15.7627 5.17685 16.2376 5.46974 16.5305L5.93941 17.0002L5.46974 17.4698C5.17685 17.7627 5.17685 18.2376 5.46974 18.5305C5.76264 18.8234 6.23751 18.8234 6.5304 18.5305L7.00007 18.0608L7.46974 18.5305C7.76264 18.8234 8.23751 18.8234 8.5304 18.5305C8.8233 18.2376 8.8233 17.7627 8.5304 17.4698L8.06073 17.0002L8.5304 16.5305C8.8233 16.2376 8.8233 15.7627 8.5304 15.4698C8.23751 15.1769 7.76264 15.1769 7.46974 15.4698L7.00007 15.9395L6.5304 15.4698ZM11.0001 16.2502C10.5859 16.2502 10.2501 16.5859 10.2501 17.0002C10.2501 17.4144 10.5859 17.7502 11.0001 17.7502L18.0001 17.7502C18.4143 17.7502 18.7501 17.4144 18.7501 17.0002C18.7501 16.5859 18.4143 16.2502 18.0001 16.2502L11.0001 16.2502Z" fill="#2F384C"/>
</svg>
