<svg width="24" height="24" viewBox="0 0 24 24" fill="none" xmlns="http://www.w3.org/2000/svg">
<path fill-rule="evenodd" clip-rule="evenodd" d="M2.35899 1.79601C2.25 2.00992 2.25 2.28995 2.25 2.85V2.95C2.25 4.63016 2.25 5.47024 2.57698 6.11197C2.8646 6.67646 3.32354 7.1354 3.88803 7.42302C4.52976 7.75 5.36984 7.75 7.05 7.75H16.95C18.6302 7.75 19.4702 7.75 20.112 7.42302C20.6765 7.1354 21.1354 6.67646 21.423 6.11197C21.75 5.47024 21.75 4.63016 21.75 2.95V2.85C21.75 2.28995 21.75 2.00992 21.641 1.79601C21.5451 1.60785 21.3922 1.45487 21.204 1.35899C20.9901 1.25 20.7101 1.25 20.15 1.25H3.85C3.28995 1.25 3.00992 1.25 2.79601 1.35899C2.60785 1.45487 2.45487 1.60785 2.35899 1.79601ZM3.88803 16.577C4.52976 16.25 5.36984 16.25 7.05 16.25H16.95C18.6302 16.25 19.4702 16.25 20.112 16.577C20.6765 16.8646 21.1354 17.3235 21.423 17.888C21.75 18.5298 21.75 19.3698 21.75 21.05V21.15C21.75 21.7101 21.75 21.9901 21.641 22.204C21.5451 22.3922 21.3922 22.5451 21.204 22.641C20.9901 22.75 20.7101 22.75 20.15 22.75H3.85C3.28995 22.75 3.00992 22.75 2.79601 22.641C2.60785 22.5451 2.45487 22.3922 2.35899 22.204C2.25 21.9901 2.25 21.7101 2.25 21.15V21.05C2.25 19.3698 2.25 18.5298 2.57698 17.888C2.8646 17.3235 3.32354 16.8646 3.88803 16.577ZM3.5 11.25C3.08579 11.25 2.75 11.5858 2.75 12C2.75 12.4142 3.08579 12.75 3.5 12.75H4.5C4.91421 12.75 5.25 12.4142 5.25 12C5.25 11.5858 4.91421 11.25 4.5 11.25H3.5ZM7.5 11.25C7.08579 11.25 6.75 11.5858 6.75 12C6.75 12.4142 7.08579 12.75 7.5 12.75H8.5C8.91421 12.75 9.25 12.4142 9.25 12C9.25 11.5858 8.91421 11.25 8.5 11.25H7.5ZM11.5 11.25C11.0858 11.25 10.75 11.5858 10.75 12C10.75 12.4142 11.0858 12.75 11.5 12.75H12.5C12.9142 12.75 13.25 12.4142 13.25 12C13.25 11.5858 12.9142 11.25 12.5 11.25H11.5ZM15.5 11.25C15.0858 11.25 14.75 11.5858 14.75 12C14.75 12.4142 15.0858 12.75 15.5 12.75H16.5C16.9142 12.75 17.25 12.4142 17.25 12C17.25 11.5858 16.9142 11.25 16.5 11.25H15.5ZM19.5 11.25C19.0858 11.25 18.75 11.5858 18.75 12C18.75 12.4142 19.0858 12.75 19.5 12.75H20.5C20.9142 12.75 21.25 12.4142 21.25 12C21.25 11.5858 20.9142 11.25 20.5 11.25H19.5Z" fill="#2F384C"/>
</svg>
