<svg width="24" height="24" viewBox="0 0 24 24" fill="none" xmlns="http://www.w3.org/2000/svg">
<path fill-rule="evenodd" clip-rule="evenodd" d="M3.98005 1.79497C5.04961 1.25 6.44974 1.25 9.25 1.25H14.75C17.5503 1.25 18.9504 1.25 20.02 1.79497C20.9608 2.27433 21.7257 3.03924 22.205 3.98005C22.75 5.04961 22.75 6.44974 22.75 9.25V14.75C22.75 17.5503 22.75 18.9504 22.205 20.02C21.7257 20.9608 20.9608 21.7257 20.02 22.205C18.9504 22.75 17.5503 22.75 14.75 22.75H9.25C6.44974 22.75 5.04961 22.75 3.98005 22.205C3.03924 21.7257 2.27433 20.9608 1.79497 20.02C1.25 18.9504 1.25 17.5503 1.25 14.75V9.25C1.25 6.44974 1.25 5.04961 1.79497 3.98005C2.27433 3.03924 3.03924 2.27433 3.98005 1.79497ZM8.75 9C8.75 7.75736 9.75736 6.75 11 6.75C12.2426 6.75 13.25 7.75736 13.25 9V13.5C13.25 13.9142 12.9142 14.25 12.5 14.25C12.0858 14.25 11.75 13.9142 11.75 13.5V9C11.75 8.58579 11.4142 8.25 11 8.25C10.5858 8.25 10.25 8.58579 10.25 9V13.5C10.25 14.7426 11.2574 15.75 12.5 15.75C13.7426 15.75 14.75 14.7426 14.75 13.5V9C14.75 6.92893 13.0711 5.25 11 5.25C8.92893 5.25 7.25 6.92893 7.25 9V13.5C7.25 16.3995 9.6005 18.75 12.5 18.75C15.3995 18.75 17.75 16.3995 17.75 13.5V8C17.75 7.58579 17.4142 7.25 17 7.25C16.5858 7.25 16.25 7.58579 16.25 8V13.5C16.25 15.5711 14.5711 17.25 12.5 17.25C10.4289 17.25 8.75 15.5711 8.75 13.5V9Z" fill="#2F384C"/>
</svg>
