<svg width="24" height="24" viewBox="0 0 24 24" fill="none" xmlns="http://www.w3.org/2000/svg">
<path fill-rule="evenodd" clip-rule="evenodd" d="M3.98005 1.79497C5.04961 1.25 6.44974 1.25 9.25 1.25H14.75C17.5503 1.25 18.9504 1.25 20.02 1.79497C20.9608 2.27433 21.7257 3.03924 22.205 3.98005C22.75 5.04961 22.75 6.44974 22.75 9.25V14.75C22.75 17.5503 22.75 18.9504 22.205 20.02C21.7257 20.9608 20.9608 21.7257 20.02 22.205C18.9504 22.75 17.5503 22.75 14.75 22.75H9.25C6.44974 22.75 5.04961 22.75 3.98005 22.205C3.03924 21.7257 2.27433 20.9608 1.79497 20.02C1.25 18.9504 1.25 17.5503 1.25 14.75V9.25C1.25 6.44974 1.25 5.04961 1.79497 3.98005C2.27433 3.03924 3.03924 2.27433 3.98005 1.79497ZM11.2387 6.82198C12.2114 5.84923 13.7886 5.84923 14.7613 6.82198C15.7087 7.76937 15.737 9.29643 14.8253 10.2782L11.6756 13.6703C11.2956 14.0794 10.652 14.0913 10.2572 13.6965C9.87251 13.3118 9.87251 12.6882 10.2572 12.3035L13.5303 9.03033C13.8232 8.73744 13.8232 8.26256 13.5303 7.96967C13.2374 7.67678 12.7626 7.67678 12.4697 7.96967L9.19653 11.2428C8.22606 12.2133 8.22606 13.7867 9.19653 14.7572C10.1925 15.7532 11.8163 15.7231 12.7747 14.6909L15.9245 11.2989C17.3852 9.72587 17.3399 7.27922 15.822 5.76132C14.2634 4.20278 11.7366 4.20278 10.178 5.76132L6.96967 8.96967C4.74378 11.1956 4.74378 14.8044 6.96967 17.0303C9.19556 19.2562 12.8044 19.2562 15.0303 17.0303L19.5303 12.5303C19.8232 12.2374 19.8232 11.7626 19.5303 11.4697C19.2374 11.1768 18.7626 11.1768 18.4697 11.4697L13.9697 15.9697C12.3296 17.6098 9.67043 17.6098 8.03033 15.9697C6.39023 14.3296 6.39023 11.6704 8.03033 10.0303L11.2387 6.82198Z" fill="#2F384C"/>
</svg>
