<svg width="24" height="24" viewBox="0 0 24 24" fill="none" xmlns="http://www.w3.org/2000/svg">
<g clip-path="url(#clip0_2546_11903)">
<path fill-rule="evenodd" clip-rule="evenodd" d="M11.25 2.56742C11.25 1.70532 11.25 1.27427 11.0907 1.10185C10.953 0.952685 10.7491 0.883336 10.5489 0.917558C10.3175 0.957113 10.0547 1.29877 9.52909 1.9821L4.25007 8.84482C3.7145 9.54106 3.44671 9.88918 3.26185 10.2256C2.32597 11.9288 2.46178 14.02 3.61009 15.5879C3.83691 15.8976 4.14747 16.2081 4.7686 16.8292V16.8292C5.01351 17.0742 5.13596 17.1966 5.26359 17.3045C5.89825 17.8411 6.6843 18.1667 7.5125 18.2361C7.67906 18.25 7.85224 18.25 8.19859 18.25H15.8014C16.1478 18.25 16.321 18.25 16.4875 18.2361C17.3157 18.1667 18.1018 17.8411 18.7364 17.3045C18.8641 17.1966 18.9865 17.0742 19.2314 16.8292V16.8292C19.8525 16.2081 20.1631 15.8976 20.3899 15.5879C21.5382 14.02 21.674 11.9288 20.7382 10.2256C20.5533 9.88918 20.2855 9.54106 19.7499 8.84482L14.4709 1.9821C13.9453 1.29877 13.6825 0.957113 13.4511 0.917558C13.251 0.883336 13.0471 0.952685 12.9093 1.10185C12.75 1.27427 12.75 1.70532 12.75 2.56742V6.99999C12.75 7.4142 12.4142 7.74999 12 7.74999C11.5858 7.74999 11.25 7.4142 11.25 6.99999V2.56742ZM14 12C14 13.1046 13.1046 14 12 14C10.8954 14 10 13.1046 10 12C10 10.8954 10.8954 9.99999 12 9.99999C13.1046 9.99999 14 10.8954 14 12Z" fill="#2F384C"/>
<path d="M5.25001 21C5.25001 20.0335 6.03351 19.25 7.00001 19.25H17C17.9665 19.25 18.75 20.0335 18.75 21V21C18.75 21.9665 17.9665 22.75 17 22.75H7.00001C6.03351 22.75 5.25001 21.9665 5.25001 21V21Z" fill="#2F384C"/>
</g>
<defs>
<clipPath id="clip0_2546_11903">
<rect width="24" height="24" fill="white"/>
</clipPath>
</defs>
</svg>
