<svg width="24" height="24" viewBox="0 0 24 24" fill="none" xmlns="http://www.w3.org/2000/svg">
<path d="M14.8 2.75C15.3725 2.75 15.7567 2.75058 16.0526 2.77476C16.3397 2.79822 16.477 2.8401 16.5675 2.88624C16.8027 3.00608 16.994 3.19731 17.1138 3.43251C17.16 3.52307 17.2018 3.66036 17.2253 3.94748C17.2495 4.24336 17.25 4.62757 17.25 5.2V7.25003L12 7.25C11.5858 7.25 11.25 7.58579 11.25 8C11.25 8.41422 11.5858 8.75 12 8.75H17C17.9485 8.75 18.6096 8.75072 19.1223 8.79718C19.6246 8.84271 19.9101 8.92737 20.125 9.05144C20.4671 9.24892 20.7511 9.53296 20.9486 9.875C21.0727 10.0899 21.1573 10.3755 21.2029 10.8778C21.2493 11.3904 21.25 12.0516 21.25 13V14C21.25 14.9783 21.2436 15.3203 21.1734 15.5823C21.0805 15.9289 20.9084 16.2414 20.6771 16.5C20.401 16.8087 20.4274 17.2828 20.7361 17.559C21.0448 17.8351 21.5189 17.8088 21.7951 17.5C22.1805 17.0692 22.4676 16.548 22.6223 15.9706C22.7505 15.4919 22.7503 14.9338 22.7501 14.1159L22.75 12.9642C22.7501 12.06 22.7501 11.3307 22.6967 10.7424C22.6418 10.1361 22.5255 9.60625 22.2476 9.125C21.9185 8.55493 21.4451 8.08154 20.875 7.75241C20.3938 7.47456 19.864 7.35826 19.2577 7.3033C19.0989 7.28892 18.93 7.27841 18.75 7.27075V5.16955C18.7501 4.6354 18.7501 4.18956 18.7203 3.82533C18.6893 3.44545 18.6222 3.08879 18.4503 2.75153C18.1867 2.23408 17.766 1.81339 17.2485 1.54973C16.9113 1.37789 16.5546 1.31078 16.1747 1.27974C15.8105 1.24998 15.3647 1.24999 14.8305 1.25H8.00005C7.58584 1.25 7.25005 1.58579 7.25005 2C7.25005 2.41422 7.58584 2.75 8.00005 2.75H14.8Z" fill="#2F384C"/>
<path fill-rule="evenodd" clip-rule="evenodd" d="M1.46972 2.53033C1.17683 2.23744 1.17682 1.76256 1.46972 1.46967C1.76261 1.17678 2.23748 1.17678 2.53038 1.46967L22.5304 21.4697C22.8233 21.7626 22.8233 22.2374 22.5304 22.5303C22.4938 22.5669 22.4543 22.599 22.4127 22.6264C22.1216 22.8186 21.726 22.7866 21.4697 22.5303L18.7407 19.8013C18.7363 19.9342 18.7298 20.0586 18.7203 20.1747C18.6893 20.5546 18.6222 20.9112 18.4503 21.2485C18.1867 21.7659 17.766 22.1866 17.2485 22.4503C16.9113 22.6221 16.5546 22.6892 16.1747 22.7203C15.8105 22.75 15.3646 22.75 14.8305 22.75H8.97479C8.53033 22.75 8.15929 22.75 7.85468 22.7292C7.53758 22.7076 7.23806 22.661 6.94767 22.5407C6.27384 22.2616 5.73849 21.7262 5.45938 21.0524C5.33909 20.762 5.29245 20.4625 5.27082 20.1454C5.25003 19.8408 5.25004 19.4697 5.25005 19.0253V18.9747C5.25004 18.5303 5.25003 18.1592 5.27082 17.8546C5.29245 17.5375 5.33909 17.238 5.45938 16.9476C5.73849 16.2738 6.27384 15.7384 6.94767 15.4593C7.23806 15.339 7.53758 15.2924 7.85468 15.2708C8.15929 15.25 8.53033 15.25 8.97479 15.25H14.1894L12.9395 14.0001L8.94711 14.0001C8.52703 14 8.11776 14 7.7696 14.0238C7.38886 14.0497 6.93741 14.1107 6.46932 14.3046C5.48921 14.7105 4.71051 15.4892 4.30454 16.4693C4.11065 16.9374 4.0497 17.3889 4.02372 17.7696C4.0063 18.0249 4.00168 18.3131 4.00047 18.6143C2.72029 18.2603 1.72198 17.255 1.37783 15.9706C1.24957 15.4919 1.24975 14.9338 1.25002 14.1158L1.25005 12.9642C1.25004 12.06 1.25003 11.3307 1.30335 10.7424C1.35831 10.1361 1.4746 9.60625 1.75245 9.125C2.08159 8.55493 2.55498 8.08154 3.12505 7.75241C3.6063 7.47456 4.1361 7.35826 4.74245 7.3033C5.15281 7.26611 5.63177 7.25487 6.19086 7.25147L1.46972 2.53033ZM5.00005 10.25C4.58584 10.25 4.25005 10.5858 4.25005 11C4.25005 11.4142 4.58584 11.75 5.00005 11.75H6.00005C6.41426 11.75 6.75005 11.4142 6.75005 11C6.75005 10.5858 6.41426 10.25 6.00005 10.25H5.00005Z" fill="#2F384C"/>
</svg>
