<svg width="24" height="24" viewBox="0 0 24 24" fill="none" xmlns="http://www.w3.org/2000/svg">
<path fill-rule="evenodd" clip-rule="evenodd" d="M9.25006 1.25C7.84993 1.25 7.14986 1.25 6.61509 1.52248C6.14468 1.76217 5.76223 2.14462 5.52255 2.61502C5.25006 3.1498 5.25006 3.84987 5.25006 5.25V6.00011H18.7501V5.25C18.7501 3.84987 18.7501 3.1498 18.4776 2.61502C18.2379 2.14462 17.8554 1.76217 17.385 1.52248C16.8503 1.25 16.1502 1.25 14.7501 1.25H9.25006ZM6.85 7.25C4.88982 7.25 3.90972 7.25 3.16103 7.63148C2.50247 7.96703 1.96703 8.50247 1.63148 9.16103C1.25 9.90972 1.25 10.8898 1.25 12.85V16C1.25 17.5188 2.48122 18.75 4 18.75V18.75V18.75C4 17.5873 4 17.0059 4.13679 16.5311C4.47004 15.3743 5.37435 14.47 6.53108 14.1368C7.00589 14 7.58726 14 8.75 14H15.25C16.4127 14 16.9941 14 17.4689 14.1368C18.6257 14.47 19.53 15.3743 19.8632 16.5311C20 17.0059 20 17.5873 20 18.75V18.75V18.75C21.5188 18.75 22.75 17.5188 22.75 16V12.85C22.75 10.8898 22.75 9.90972 22.3685 9.16103C22.033 8.50247 21.4975 7.96703 20.839 7.63148C20.0903 7.25 19.1102 7.25 17.15 7.25H6.85ZM4 11C4 11.4142 4.33579 11.75 4.75 11.75H6.25C6.66422 11.75 7 11.4142 7 11V11C7 10.5858 6.66422 10.25 6.25 10.25H4.75C4.33579 10.25 4 10.5858 4 11V11ZM9.00006 15.25C7.8352 15.25 7.25278 15.25 6.79335 15.4403C6.18078 15.694 5.69409 16.1807 5.44036 16.7933C5.25006 17.2527 5.25006 17.8351 5.25006 19V19C5.25006 20.1649 5.25006 20.7473 5.44036 21.2067C5.69409 21.8193 6.18078 22.306 6.79335 22.5597C7.25278 22.75 7.8352 22.75 9.00006 22.75H15.0001C16.1649 22.75 16.7473 22.75 17.2068 22.5597C17.8193 22.306 18.306 21.8193 18.5598 21.2067C18.7501 20.7473 18.7501 20.1649 18.7501 19V19C18.7501 17.8351 18.7501 17.2527 18.5598 16.7933C18.306 16.1807 17.8193 15.694 17.2068 15.4403C16.7473 15.25 16.1649 15.25 15.0001 15.25H9.00006Z" fill="#2F384C"/>
</svg>
