<svg width="24" height="24" viewBox="0 0 24 24" fill="none" xmlns="http://www.w3.org/2000/svg">
<path fill-rule="evenodd" clip-rule="evenodd" d="M6.53034 4.53033C6.82323 4.23744 6.82323 3.76256 6.53034 3.46967C6.23745 3.17678 5.76257 3.17678 5.46968 3.46967L4.28146 4.65789L4.20861 4.73073C3.24021 5.69897 2.66254 6.27655 2.24469 6.95842C1.8746 7.56235 1.60187 8.22078 1.43651 8.90952C1.24983 9.68714 1.24989 10.504 1.25001 11.8734L1.25001 11.9765L1.25001 15.1102L1.25001 15.1696L1.25001 15.2L1.25001 16V16.8L1.25001 16.8304C1.25 17.3646 1.24999 17.8104 1.27975 18.1747C1.31079 18.5546 1.3779 18.9112 1.54974 19.2485C1.81339 19.7659 2.23409 20.1866 2.75154 20.4503C3.0888 20.6221 3.44546 20.6892 3.82534 20.7203C4.18957 20.75 4.63541 20.75 5.16956 20.75H5.20001H6.80001H6.83046C7.36461 20.75 7.81045 20.75 8.17468 20.7203C8.55457 20.6892 8.91122 20.6221 9.24849 20.4503C9.76593 20.1866 10.1866 19.7659 10.4503 19.2485C10.6221 18.9112 10.6892 18.5546 10.7203 18.1747C10.75 17.8105 10.75 17.3646 10.75 16.8305V16.8305V16.8V15.2V15.1695V15.1695C10.75 14.6354 10.75 14.1896 10.7203 13.8253C10.6892 13.4454 10.6221 13.0888 10.4503 12.7515C10.1866 12.2341 9.76593 11.8134 9.24849 11.5497C8.91122 11.3779 8.55457 11.3108 8.17468 11.2797C7.81045 11.25 7.3646 11.25 6.83044 11.25H6.80001H5.20001H5.16958C4.63543 11.25 4.18958 11.25 3.82534 11.2797C3.44546 11.3108 3.0888 11.3779 2.75154 11.5497L2.75029 11.5504C2.75233 10.3476 2.76887 9.78534 2.89507 9.25969C3.02368 8.724 3.2358 8.21189 3.52365 7.74216C3.83753 7.22996 4.27916 6.78151 5.34212 5.71855L6.53034 4.53033ZM18.5303 4.53033C18.8232 4.23744 18.8232 3.76256 18.5303 3.46967C18.2374 3.17678 17.7626 3.17678 17.4697 3.46967L16.2815 4.65789L16.2086 4.73074C15.2402 5.69898 14.6625 6.27655 14.2447 6.95842C13.8746 7.56235 13.6019 8.22078 13.4365 8.90952C13.2498 9.68714 13.2499 10.504 13.25 11.8734V11.8734L13.25 11.9765V15.1178V15.1695V15.2V16V16.8V16.8305V16.8305C13.25 17.3646 13.25 17.8104 13.2798 18.1747C13.3108 18.5546 13.3779 18.9112 13.5497 19.2485C13.8134 19.7659 14.2341 20.1866 14.7515 20.4503C15.0888 20.6221 15.4455 20.6892 15.8253 20.7203C16.1896 20.75 16.6354 20.75 17.1696 20.75H17.2H18.8H18.8305C19.3646 20.75 19.8105 20.75 20.1747 20.7203C20.5546 20.6892 20.9112 20.6221 21.2485 20.4503C21.7659 20.1866 22.1866 19.7659 22.4503 19.2485C22.6221 18.9112 22.6892 18.5546 22.7203 18.1747C22.75 17.8104 22.75 17.3646 22.75 16.8305V16.8V15.2V15.1695C22.75 14.6354 22.75 14.1896 22.7203 13.8253C22.6892 13.4454 22.6221 13.0888 22.4503 12.7515C22.1866 12.2341 21.7659 11.8134 21.2485 11.5497C20.9112 11.3779 20.5546 11.3108 20.1747 11.2797C19.8104 11.25 19.3646 11.25 18.8304 11.25H18.8H17.2H17.1696C16.6354 11.25 16.1896 11.25 15.8253 11.2797C15.4455 11.3108 15.0888 11.3779 14.7515 11.5497L14.7503 11.5504C14.7523 10.3476 14.7689 9.78534 14.8951 9.25969C15.0237 8.724 15.2358 8.21189 15.5237 7.74216C15.8375 7.22996 16.2792 6.78151 17.3421 5.71855L18.5303 4.53033Z" fill="#2F384C"/>
</svg>
