<svg width="24" height="24" viewBox="0 0 24 24" fill="none" xmlns="http://www.w3.org/2000/svg">
<path fill-rule="evenodd" clip-rule="evenodd" d="M3.98005 1.79497C5.04961 1.25 6.44974 1.25 9.25 1.25H14.75C17.5503 1.25 18.9504 1.25 20.02 1.79497C20.9608 2.27433 21.7257 3.03924 22.205 3.98005C22.75 5.04961 22.75 6.44974 22.75 9.25V14.75C22.75 17.5503 22.75 18.9504 22.205 20.02C21.7257 20.9608 20.9608 21.7257 20.02 22.205C18.9504 22.75 17.5503 22.75 14.75 22.75H9.25C6.44974 22.75 5.04961 22.75 3.98005 22.205C3.03924 21.7257 2.27433 20.9608 1.79497 20.02C1.25 18.9504 1.25 17.5503 1.25 14.75V9.25C1.25 6.44974 1.25 5.04961 1.79497 3.98005C2.27433 3.03924 3.03924 2.27433 3.98005 1.79497ZM6 6.25C5.58579 6.25 5.25 6.58579 5.25 7C5.25 7.41421 5.58579 7.75 6 7.75H9.25V17C9.25 17.4142 9.58579 17.75 10 17.75C10.4142 17.75 10.75 17.4142 10.75 17V7.75H14C14.4142 7.75 14.75 7.41421 14.75 7C14.75 6.58579 14.4142 6.25 14 6.25H10H6ZM14 12.25C13.5858 12.25 13.25 12.5858 13.25 13C13.25 13.4142 13.5858 13.75 14 13.75H15.25V17C15.25 17.4142 15.5858 17.75 16 17.75C16.4142 17.75 16.75 17.4142 16.75 17V13.75H18C18.4142 13.75 18.75 13.4142 18.75 13C18.75 12.5858 18.4142 12.25 18 12.25H16H14Z" fill="#2F384C"/>
</svg>
