<svg width="24" height="24" viewBox="0 0 24 24" fill="none" xmlns="http://www.w3.org/2000/svg">
<path fill-rule="evenodd" clip-rule="evenodd" d="M3.98005 1.79497C5.04961 1.25 6.44974 1.25 9.25 1.25H14.75C17.5503 1.25 18.9504 1.25 20.02 1.79497C20.9608 2.27433 21.7257 3.03924 22.205 3.98005C22.75 5.04961 22.75 6.44974 22.75 9.25V14.75C22.75 17.5503 22.75 18.9504 22.205 20.02C21.7257 20.9608 20.9608 21.7257 20.02 22.205C18.9504 22.75 17.5503 22.75 14.75 22.75H9.25C6.44974 22.75 5.04961 22.75 3.98005 22.205C3.03924 21.7257 2.27433 20.9608 1.79497 20.02C1.25 18.9504 1.25 17.5503 1.25 14.75V9.25C1.25 6.44974 1.25 5.04961 1.79497 3.98005C2.27433 3.03924 3.03924 2.27433 3.98005 1.79497ZM10.0001 5.25H13.9825C13.9941 5.24973 14.0057 5.24973 14.0173 5.25H17.0001C17.4143 5.25 17.7501 5.58578 17.7501 6C17.7501 6.41421 17.4143 6.75 17.0001 6.75H14.5406L11.0406 17.25H14.0001C14.4143 17.25 14.7501 17.5858 14.7501 18C14.7501 18.4142 14.4143 18.75 14.0001 18.75L10.0175 18.75C10.006 18.7503 9.99438 18.7503 9.98276 18.75H7.00006C6.58585 18.75 6.25006 18.4142 6.25006 18C6.25006 17.5858 6.58585 17.25 7.00006 17.25H9.45947L12.9595 6.75H10.0001C9.58585 6.75 9.25006 6.41421 9.25006 6C9.25006 5.58578 9.58585 5.25 10.0001 5.25Z" fill="#2F384C"/>
</svg>
