<svg width="24" height="24" viewBox="0 0 24 24" fill="none" xmlns="http://www.w3.org/2000/svg">
<path fill-rule="evenodd" clip-rule="evenodd" d="M3.98005 1.79497C5.04961 1.25 6.44974 1.25 9.25 1.25H14.75C17.5503 1.25 18.9504 1.25 20.02 1.79497C20.9608 2.27433 21.7257 3.03924 22.205 3.98005C22.75 5.04961 22.75 6.44974 22.75 9.25V14.75C22.75 17.5503 22.75 18.9504 22.205 20.02C21.7257 20.9608 20.9608 21.7257 20.02 22.205C18.9504 22.75 17.5503 22.75 14.75 22.75H9.25C6.44974 22.75 5.04961 22.75 3.98005 22.205C3.03924 21.7257 2.27433 20.9608 1.79497 20.02C1.25 18.9504 1.25 17.5503 1.25 14.75V9.25C1.25 6.44974 1.25 5.04961 1.79497 3.98005C2.27433 3.03924 3.03924 2.27433 3.98005 1.79497ZM8.74194 5.25L8.72135 5.25C8.48663 5.24999 8.27752 5.24998 8.10279 5.26076C7.91709 5.27221 7.72136 5.29783 7.52276 5.37138C6.98943 5.56891 6.56891 5.98943 6.37138 6.52275C6.29783 6.72136 6.27221 6.91709 6.26076 7.10279C6.24998 7.27752 6.24999 7.48663 6.25 7.72135L6.25 7.74194V12V16.08L6.25 16.1075C6.24998 16.42 6.24997 16.6983 6.26884 16.9292C6.28898 17.1757 6.33429 17.4336 6.46254 17.6853C6.64949 18.0522 6.9478 18.3505 7.31472 18.5375C7.56642 18.6657 7.82429 18.711 8.07077 18.7312C8.30172 18.75 8.57996 18.75 8.89239 18.75H8.89248H8.92H15C17.0711 18.75 18.75 17.0711 18.75 15C18.75 13.2438 17.5428 11.7696 15.9129 11.3619C16.4363 10.7171 16.75 9.8952 16.75 9C16.75 6.92893 15.0711 5.25 13 5.25H8.74194ZM7.75 12.75H13H15C16.2426 12.75 17.25 13.7574 17.25 15C17.25 16.2426 16.2426 17.25 15 17.25H8.92C8.57159 17.25 8.35539 17.2494 8.19292 17.2361C8.04022 17.2237 8.00122 17.2038 7.99581 17.201L7.9957 17.201C7.91103 17.1578 7.84219 17.089 7.79905 17.0043L7.79899 17.0042C7.79623 16.9988 7.77633 16.9598 7.76386 16.8071C7.75058 16.6446 7.75 16.4284 7.75 16.08V12.75ZM13 11.25H7.75V7.74194C7.75 7.48035 7.75033 7.31807 7.75791 7.19514C7.76511 7.07854 7.77678 7.04705 7.778 7.04375L7.77801 7.04371C7.82359 6.92064 7.92064 6.82359 8.04371 6.77801L8.04375 6.778C8.04705 6.77677 8.07854 6.76511 8.19514 6.75791C8.31807 6.75033 8.48035 6.75 8.74194 6.75H13C14.2426 6.75 15.25 7.75736 15.25 9C15.25 10.2426 14.2426 11.25 13 11.25Z" fill="#2F384C"/>
</svg>
