<svg width="24" height="24" viewBox="0 0 24 24" fill="none" xmlns="http://www.w3.org/2000/svg">
<path fill-rule="evenodd" clip-rule="evenodd" d="M3.98005 1.79497C5.04961 1.25 6.44974 1.25 9.25 1.25H14.75C17.5503 1.25 18.9504 1.25 20.02 1.79497C20.9608 2.27433 21.7257 3.03924 22.205 3.98005C22.75 5.04961 22.75 6.44974 22.75 9.25V14.75C22.75 17.5503 22.75 18.9504 22.205 20.02C21.7257 20.9608 20.9608 21.7257 20.02 22.205C18.9504 22.75 17.5503 22.75 14.75 22.75H9.25C6.44974 22.75 5.04961 22.75 3.98005 22.205C3.03924 21.7257 2.27433 20.9608 1.79497 20.02C1.25 18.9504 1.25 17.5503 1.25 14.75V9.25C1.25 6.44974 1.25 5.04961 1.79497 3.98005C2.27433 3.03924 3.03924 2.27433 3.98005 1.79497ZM16 6.75C16.1618 6.75 16.2581 6.75018 16.3305 6.75348C16.376 6.75556 16.3956 6.75838 16.4005 6.75918C16.4848 6.78268 16.5506 6.84856 16.5741 6.93286C16.5749 6.9377 16.5778 6.95733 16.5799 7.00287C16.5832 7.07521 16.5833 7.17154 16.5833 7.33333V8C16.5833 8.41421 16.9191 8.75 17.3333 8.75C17.7475 8.75 18.0833 8.41421 18.0833 8V7.33333L18.0834 7.26922V7.2692C18.0839 7.02663 18.0844 6.7736 18.0237 6.54707C17.8619 5.94316 17.3902 5.47145 16.7863 5.30963C16.5597 5.24893 16.3067 5.24943 16.0641 5.24991L16 5.25H12H9.99999C9.58578 5.25 9.24999 5.58579 9.24999 6C9.24999 6.41421 9.58578 6.75 9.99999 6.75H11.25V8.5C11.25 8.91421 11.5858 9.25 12 9.25C12.4142 9.25 12.75 8.91421 12.75 8.5V6.75H16ZM6.53017 5.46967C6.23727 5.17678 5.7624 5.17678 5.46951 5.46967C5.17661 5.76256 5.17661 6.23744 5.46951 6.53033L11.25 12.3108V17.25H9.33333C8.91912 17.25 8.58333 17.5858 8.58333 18C8.58333 18.4142 8.91912 18.75 9.33333 18.75H12H14.6667C15.0809 18.75 15.4167 18.4142 15.4167 18C15.4167 17.5858 15.0809 17.25 14.6667 17.25H12.75V13.8108L17.4695 18.5303C17.7624 18.8232 18.2373 18.8232 18.5302 18.5303C18.8231 18.2374 18.8231 17.7626 18.5302 17.4697L12.5396 11.4791C12.5335 11.4728 12.5272 11.4665 12.5209 11.4604L6.53017 5.46967Z" fill="#2F384C"/>
</svg>
