<svg width="24" height="24" viewBox="0 0 24 24" fill="none" xmlns="http://www.w3.org/2000/svg">
<path fill-rule="evenodd" clip-rule="evenodd" d="M3.98005 1.79497C5.04961 1.25 6.44974 1.25 9.25 1.25H14.75C17.5503 1.25 18.9504 1.25 20.02 1.79497C20.9608 2.27433 21.7257 3.03924 22.205 3.98005C22.75 5.04961 22.75 6.44974 22.75 9.25V14.75C22.75 17.5503 22.75 18.9504 22.205 20.02C21.7257 20.9608 20.9608 21.7257 20.02 22.205C18.9504 22.75 17.5503 22.75 14.75 22.75H9.25C6.44974 22.75 5.04961 22.75 3.98005 22.205C3.03924 21.7257 2.27433 20.9608 1.79497 20.02C1.25 18.9504 1.25 17.5503 1.25 14.75V9.25C1.25 6.44974 1.25 5.04961 1.79497 3.98005C2.27433 3.03924 3.03924 2.27433 3.98005 1.79497ZM8.75003 6C8.75003 5.58578 8.41424 5.25 8.00003 5.25C7.58582 5.25 7.25003 5.58578 7.25003 6V11C7.25003 13.6234 9.37668 15.75 12 15.75C14.6234 15.75 16.75 13.6234 16.75 11V6C16.75 5.58578 16.4142 5.25 16 5.25C15.5858 5.25 15.25 5.58578 15.25 6V11C15.25 12.7949 13.795 14.25 12 14.25C10.2051 14.25 8.75003 12.7949 8.75003 11V6ZM8.00003 17.25C7.58582 17.25 7.25003 17.5858 7.25003 18C7.25003 18.4142 7.58582 18.75 8.00003 18.75H16C16.4142 18.75 16.75 18.4142 16.75 18C16.75 17.5858 16.4142 17.25 16 17.25H8.00003Z" fill="#2F384C"/>
</svg>
