<svg width="24" height="24" viewBox="0 0 24 24" fill="none" xmlns="http://www.w3.org/2000/svg">
<path fill-rule="evenodd" clip-rule="evenodd" d="M8.75 1C8.75 0.585786 8.41421 0.25 8 0.25C7.58579 0.25 7.25 0.585786 7.25 1V1.30757C6.07336 1.37941 5.23858 1.54091 4.52606 1.90396C3.39708 2.4792 2.4792 3.39708 1.90396 4.52606C1.25 5.80953 1.25 7.48969 1.25 10.85V13.15C1.25 16.5103 1.25 18.1905 1.90396 19.4739C2.4792 20.6029 3.39708 21.5208 4.52606 22.096C5.80953 22.75 7.48969 22.75 10.85 22.75H13.15C16.5103 22.75 18.1905 22.75 19.4739 22.096C20.6029 21.5208 21.5208 20.6029 22.096 19.4739C22.75 18.1905 22.75 16.5103 22.75 13.15V10.85C22.75 7.48969 22.75 5.80953 22.096 4.52606C21.5208 3.39708 20.6029 2.4792 19.4739 1.90396C18.7614 1.54091 17.9266 1.37941 16.75 1.30757V1C16.75 0.585786 16.4142 0.25 16 0.25C15.5858 0.25 15.25 0.585786 15.25 1V1.25839C14.6311 1.25 13.9366 1.25 13.15 1.25H10.85C10.0634 1.25 9.36891 1.25 8.75 1.25839V1ZM8.25 9C8.25 8.58579 8.58579 8.25 9 8.25H15C15.2744 8.25 15.5268 8.3998 15.6583 8.64061C15.7898 8.88141 15.7792 9.17479 15.6309 9.40557L11.1309 16.4056C10.9069 16.754 10.4429 16.8549 10.0944 16.6309C9.746 16.4069 9.64513 15.9429 9.86912 15.5944L13.6263 9.75H9C8.58579 9.75 8.25 9.41421 8.25 9Z" fill="#2F384C"/>
</svg>
