<svg width="24" height="24" viewBox="0 0 24 24" fill="none" xmlns="http://www.w3.org/2000/svg">
<path fill-rule="evenodd" clip-rule="evenodd" d="M4.53033 1.53033C4.82322 1.23744 4.82322 0.762563 4.53033 0.46967C4.23744 0.176777 3.76256 0.176777 3.46967 0.46967L0.46967 3.46967C0.176777 3.76256 0.176777 4.23744 0.46967 4.53033C0.762563 4.82322 1.23744 4.82322 1.53033 4.53033L4.53033 1.53033ZM20.5303 0.46967C20.2374 0.176777 19.7626 0.176777 19.4697 0.46967C19.1768 0.762563 19.1768 1.23744 19.4697 1.53033L22.4697 4.53033C22.7626 4.82322 23.2374 4.82322 23.5303 4.53033C23.8232 4.23744 23.8232 3.76256 23.5303 3.46967L20.5303 0.46967ZM12 1.25C6.06294 1.25 1.25 6.06294 1.25 12C1.25 17.9371 6.06294 22.75 12 22.75C17.9371 22.75 22.75 17.9371 22.75 12C22.75 6.06294 17.9371 1.25 12 1.25ZM8.46967 8.46967C8.76256 8.17678 9.23744 8.17678 9.53033 8.46967L12 10.9393L14.4697 8.46967C14.7626 8.17678 15.2374 8.17678 15.5303 8.46967C15.8232 8.76256 15.8232 9.23744 15.5303 9.53033L13.0607 12L15.5303 14.4697C15.8232 14.7626 15.8232 15.2374 15.5303 15.5303C15.2374 15.8232 14.7626 15.8232 14.4697 15.5303L12 13.0607L9.53033 15.5303C9.23744 15.8232 8.76256 15.8232 8.46967 15.5303C8.17678 15.2374 8.17678 14.7626 8.46967 14.4697L10.9393 12L8.46967 9.53033C8.17678 9.23744 8.17678 8.76256 8.46967 8.46967Z" fill="#2F384C"/>
</svg>
