<svg width="24" height="24" viewBox="0 0 24 24" fill="none" xmlns="http://www.w3.org/2000/svg">
<path fill-rule="evenodd" clip-rule="evenodd" d="M20.5303 0.46967C20.2374 0.176777 19.7626 0.176777 19.4697 0.46967C19.1768 0.762563 19.1768 1.23744 19.4697 1.53033L22.4697 4.53033C22.7626 4.82322 23.2374 4.82322 23.5303 4.53033C23.8232 4.23744 23.8232 3.76256 23.5303 3.46967L20.5303 0.46967ZM3.21857 1.46564C2.92663 1.17812 2.45798 1.17812 2.16604 1.46564L0.473734 3.1323C0.178613 3.42295 0.174988 3.89781 0.465637 4.19293C0.756286 4.48805 1.23115 4.49168 1.52627 4.20103L2.69231 3.05266L4.61645 4.94765C2.95234 6.83377 1.94231 9.30039 1.94231 12C1.94231 17.9478 6.83496 22.75 12.8462 22.75C15.5857 22.75 18.0918 21.753 20.0081 20.1061L22.4737 22.5344C22.7689 22.825 23.2437 22.8214 23.5344 22.5263C23.825 22.2311 23.8214 21.7563 23.5263 21.4656L20.5523 18.5367L6.19257 4.39457L3.21857 1.46564ZM8.66303 3.71311C9.9218 3.09703 11.3416 2.75 12.8462 2.75C18.0506 2.75 22.25 6.90212 22.25 12C22.25 13.4762 21.899 14.8698 21.275 16.1066C21.0884 16.4764 21.2369 16.9274 21.6067 17.114C21.9765 17.3006 22.4275 17.1521 22.6141 16.7823C23.3412 15.3414 23.75 13.7168 23.75 12C23.75 6.05218 18.8573 1.25 12.8462 1.25C11.1086 1.25 9.46375 1.6512 8.00363 2.36582C7.63159 2.54791 7.4776 2.99712 7.65969 3.36917C7.84178 3.74121 8.29099 3.8952 8.66303 3.71311Z" fill="#2F384C"/>
</svg>
