<svg width="24" height="24" viewBox="0 0 24 24" fill="none" xmlns="http://www.w3.org/2000/svg">
<path fill-rule="evenodd" clip-rule="evenodd" d="M4.52606 1.90396C5.80953 1.25 7.48968 1.25 10.85 1.25L13.15 1.25C16.5103 1.25 18.1905 1.25 19.4739 1.90396C20.6029 2.4792 21.5208 3.39709 22.096 4.52606C22.75 5.80953 22.75 7.48969 22.75 10.85L22.75 13.15L22.75 13.15C22.75 16.5103 22.75 18.1905 22.096 19.4739C21.5208 20.6029 20.6029 21.5208 19.4739 22.096C18.1905 22.75 16.5103 22.75 13.15 22.75L10.85 22.75L10.85 22.75C7.48967 22.75 5.80952 22.75 4.52606 22.096C3.39708 21.5208 2.4792 20.6029 1.90396 19.4739C1.25 18.1905 1.25 16.5103 1.25 13.15L1.25 10.85C1.25 7.48969 1.25 5.80953 1.90396 4.52606C2.4792 3.39709 3.39708 2.4792 4.52606 1.90396ZM6.75022 12C6.75022 9.10053 9.10073 6.75003 12.0002 6.75003C14.8997 6.75003 17.2502 9.10053 17.2502 12C17.2502 14.8995 14.8997 17.25 12.0002 17.25L8.97458 17.25C8.56036 17.25 8.22458 17.5858 8.22458 18C8.22458 18.4142 8.56036 18.75 8.97458 18.75L12.0002 18.75C15.7281 18.75 18.7502 15.7279 18.7502 12C18.7502 8.2721 15.7281 5.25003 12.0002 5.25003C8.2723 5.25003 5.25022 8.2721 5.25022 12C5.25022 12.4142 5.58601 12.75 6.00022 12.75C6.41444 12.75 6.75022 12.4142 6.75022 12ZM12.7502 11C12.7502 10.5858 12.4144 10.25 12.0002 10.25C11.586 10.25 11.2502 10.5858 11.2502 11L11.2502 13C11.2502 13.4142 11.586 13.75 12.0002 13.75C12.4144 13.75 12.7502 13.4142 12.7502 13L12.7502 11ZM6.00022 14.25C5.58601 14.25 5.25022 14.5858 5.25022 15C5.25022 15.4142 5.58601 15.75 6.00022 15.75L9.00022 15.75C9.41444 15.75 9.75022 15.4142 9.75022 15C9.75022 14.5858 9.41444 14.25 9.00022 14.25L6.00022 14.25Z" fill="#2F384C"/>
</svg>
