<svg width="24" height="24" viewBox="0 0 24 24" fill="none" xmlns="http://www.w3.org/2000/svg">
<g clip-path="url(#clip0_2546_11417)">
<path d="M12 1.25C8.39609 1.25 6.59414 1.25 5.74423 1.77977C4.37436 2.63364 3.76612 4.31362 4.27185 5.84655C4.58562 6.79763 5.96992 7.95121 8.73852 10.2584L9.40399 10.8129C9.86375 11.1961 10.0936 11.3876 10.1881 11.612C10.2925 11.8601 10.2925 12.1399 10.1881 12.388C10.0936 12.6124 9.86375 12.8039 9.40399 13.1871L8.73852 13.7416C5.96992 16.0488 4.58562 17.2024 4.27185 18.1535C3.76612 19.6864 4.37436 21.3664 5.74423 22.2202C6.59414 22.75 8.39609 22.75 12 22.75V22.75C15.6039 22.75 17.4059 22.75 18.2558 22.2202C19.6256 21.3664 20.2339 19.6864 19.7282 18.1535C19.4144 17.2024 18.0301 16.0488 15.2615 13.7416L14.596 13.1871C14.1363 12.8039 13.9064 12.6124 13.8119 12.388C13.7075 12.1399 13.7075 11.8601 13.8119 11.612C13.9064 11.3876 14.1363 11.1961 14.596 10.8129L15.2615 10.2584C18.0301 7.95121 19.4144 6.79763 19.7282 5.84655C20.2339 4.31362 19.6256 2.63364 18.2558 1.77977C17.4059 1.25 15.6039 1.25 12 1.25V1.25Z" fill="#2F384C"/>
</g>
<defs>
<clipPath id="clip0_2546_11417">
<rect width="24" height="24" fill="white"/>
</clipPath>
</defs>
</svg>
