<svg width="24" height="24" viewBox="0 0 24 24" fill="none" xmlns="http://www.w3.org/2000/svg">
<path fill-rule="evenodd" clip-rule="evenodd" d="M7.24994 2.25C7.70111 1.04698 8.85118 0.25 10.136 0.25H13.864C15.1488 0.25 16.2988 1.04699 16.7499 2.25C18.959 2.25 20.7498 4.04078 20.7498 6.24982V14.75C20.7498 17.5503 20.7498 18.9504 20.2048 20.02C19.7254 20.9608 18.9605 21.7257 18.0197 22.205C16.9501 22.75 15.55 22.75 12.7498 22.75H11.2498C8.44949 22.75 7.04936 22.75 5.9798 22.205C5.03899 21.7257 4.27409 20.9608 3.79472 20.02C3.24976 18.9504 3.24976 17.5503 3.24976 14.75V6.25018C3.24976 4.04094 5.0407 2.25 7.24994 2.25ZM8.74994 3C8.74994 3.69036 9.30958 4.25 9.99994 4.25H13.9999C14.6903 4.25 15.2499 3.69036 15.2499 3C15.2499 2.30964 14.6903 1.75 13.9999 1.75H9.99994C9.30958 1.75 8.74994 2.30964 8.74994 3ZM12.75 10.5C12.75 10.0858 12.4142 9.75 12 9.75C11.5858 9.75 11.25 10.0858 11.25 10.5V12.25H9.5C9.08579 12.25 8.75 12.5858 8.75 13C8.75 13.4142 9.08579 13.75 9.5 13.75H11.25V15.5C11.25 15.9142 11.5858 16.25 12 16.25C12.4142 16.25 12.75 15.9142 12.75 15.5V13.75H14.5C14.9142 13.75 15.25 13.4142 15.25 13C15.25 12.5858 14.9142 12.25 14.5 12.25H12.75V10.5Z" fill="#2F384C"/>
</svg>
