<svg width="24" height="24" viewBox="0 0 24 24" fill="none" xmlns="http://www.w3.org/2000/svg">
<path fill-rule="evenodd" clip-rule="evenodd" d="M7.24945 2.25C7.70062 1.04698 8.8507 0.25 10.1355 0.25H13.8635C15.1483 0.25 16.2984 1.04699 16.7495 2.25C18.9585 2.25 20.7493 4.04078 20.7493 6.24982V14.75C20.7493 17.5503 20.7493 18.9504 20.2043 20.02C19.7249 20.9608 18.96 21.7257 18.0192 22.205C16.9497 22.75 15.5495 22.75 12.7493 22.75H11.2493C8.44901 22.75 7.04887 22.75 5.97932 22.205C5.0385 21.7257 4.2736 20.9608 3.79423 20.02C3.24927 18.9504 3.24927 17.5503 3.24927 14.75V6.25018C3.24927 4.04094 5.04021 2.25 7.24945 2.25ZM8.74945 3C8.74945 3.69036 9.30909 4.25 9.99945 4.25H13.9995C14.6898 4.25 15.2495 3.69036 15.2495 3C15.2495 2.30964 14.6898 1.75 13.9995 1.75H9.99945C9.30909 1.75 8.74945 2.30964 8.74945 3ZM8.99951 10.25C8.5853 10.25 8.24951 10.5858 8.24951 11C8.24951 11.4142 8.5853 11.75 8.99951 11.75H14.9995C15.4137 11.75 15.7495 11.4142 15.7495 11C15.7495 10.5858 15.4137 10.25 14.9995 10.25H8.99951ZM8.99951 14.25C8.5853 14.25 8.24951 14.5858 8.24951 15C8.24951 15.4142 8.5853 15.75 8.99951 15.75H12.9995C13.4137 15.75 13.7495 15.4142 13.7495 15C13.7495 14.5858 13.4137 14.25 12.9995 14.25H8.99951Z" fill="#2F384C"/>
</svg>
