<svg width="24" height="24" viewBox="0 0 24 24" fill="none" xmlns="http://www.w3.org/2000/svg">
<path fill-rule="evenodd" clip-rule="evenodd" d="M7.24994 2.25C7.70111 1.04698 8.85118 0.25 10.136 0.25H13.864C15.1488 0.25 16.2988 1.04699 16.7499 2.25C18.959 2.25 20.7498 4.04078 20.7498 6.24982V14.75C20.7498 17.5503 20.7498 18.9504 20.2048 20.02C19.7254 20.9608 18.9605 21.7257 18.0197 22.205C16.9501 22.75 15.55 22.75 12.7498 22.75H11.2498C8.44949 22.75 7.04936 22.75 5.9798 22.205C5.03899 21.7257 4.27409 20.9608 3.79472 20.02C3.24976 18.9504 3.24976 17.5503 3.24976 14.75V6.25018C3.24976 4.04094 5.0407 2.25 7.24994 2.25ZM8.74994 3C8.74994 3.69036 9.30958 4.25 9.99994 4.25H13.9999C14.6903 4.25 15.2499 3.69036 15.2499 3C15.2499 2.30964 14.6903 1.75 13.9999 1.75H9.99994C9.30958 1.75 8.74994 2.30964 8.74994 3ZM10.5301 10.4697C10.2372 10.1768 9.76232 10.1768 9.46943 10.4697C9.17653 10.7626 9.17653 11.2374 9.46943 11.5303L10.9391 13L9.46943 14.4697C9.17653 14.7626 9.17653 15.2374 9.46943 15.5303C9.76232 15.8232 10.2372 15.8232 10.5301 15.5303L11.9998 14.0607L13.4694 15.5303C13.7623 15.8232 14.2372 15.8232 14.5301 15.5303C14.823 15.2374 14.823 14.7626 14.5301 14.4697L13.0604 13L14.5301 11.5303C14.823 11.2374 14.823 10.7626 14.5301 10.4697C14.2372 10.1768 13.7623 10.1768 13.4694 10.4697L11.9998 11.9393L10.5301 10.4697Z" fill="#2F384C"/>
</svg>
