<svg width="24" height="24" viewBox="0 0 24 24" fill="none" xmlns="http://www.w3.org/2000/svg">
<path fill-rule="evenodd" clip-rule="evenodd" d="M7.24969 2.25C7.70086 1.04698 8.85094 0.25 10.1358 0.25H13.8638C15.1486 0.25 16.2986 1.04699 16.7497 2.25C18.9587 2.25 20.7495 4.04078 20.7495 6.24982V14.75C20.7495 17.5503 20.7495 18.9504 20.2045 20.02C19.7252 20.9608 18.9603 21.7257 18.0195 22.205C16.9499 22.75 15.5498 22.75 12.7495 22.75H11.2495C8.44925 22.75 7.04912 22.75 5.97956 22.205C5.03875 21.7257 4.27385 20.9608 3.79448 20.02C3.24951 18.9504 3.24951 17.5503 3.24951 14.75V6.25018C3.24951 4.04094 5.04045 2.25 7.24969 2.25ZM8.74969 3C8.74969 3.69036 9.30934 4.25 9.99969 4.25H13.9997C14.6901 4.25 15.2497 3.69036 15.2497 3C15.2497 2.30964 14.6901 1.75 13.9997 1.75H9.99969C9.30934 1.75 8.74969 2.30964 8.74969 3ZM15.5303 11.5303C15.8232 11.2374 15.8232 10.7626 15.5303 10.4697C15.2374 10.1768 14.7626 10.1768 14.4697 10.4697L11 13.9393L10.0303 12.9697C9.73744 12.6768 9.26256 12.6768 8.96967 12.9697C8.67678 13.2626 8.67678 13.7374 8.96967 14.0303L10.4697 15.5303C10.6103 15.671 10.8011 15.75 11 15.75C11.1989 15.75 11.3897 15.671 11.5303 15.5303L15.5303 11.5303Z" fill="#2F384C"/>
</svg>
