<svg width="24" height="24" viewBox="0 0 24 24" fill="none" xmlns="http://www.w3.org/2000/svg">
<path fill-rule="evenodd" clip-rule="evenodd" d="M13.25 3.95001V1.25H11.25C8.44974 1.25 7.04961 1.25 5.98005 1.79497C5.03924 2.27433 4.27433 3.03924 3.79497 3.98005C3.25 5.04961 3.25 6.44974 3.25 9.25V11.25H2C1.58579 11.25 1.25 11.5858 1.25 12C1.25 12.4142 1.58579 12.75 2 12.75H22C22.4142 12.75 22.75 12.4142 22.75 12C22.75 11.5858 22.4142 11.25 22 11.25H20.75V8.75001H18.05C16.3698 8.75001 15.5298 8.75001 14.888 8.42303C14.3235 8.13541 13.8646 7.67647 13.577 7.11198C13.25 6.47025 13.25 5.63017 13.25 3.95001ZM14.75 4.05001V1.25C15.109 1.25 15.4533 1.39261 15.7071 1.64645L20.3535 6.29288C20.6074 6.54673 20.75 6.89102 20.75 7.25001H17.95C16.8299 7.25001 16.2698 7.25001 15.842 7.03203C15.4657 6.84028 15.1597 6.53432 14.968 6.15799C14.75 5.73017 14.75 5.17012 14.75 4.05001ZM4.75 16C4.75 15.5858 4.41421 15.25 4 15.25C3.58579 15.25 3.25 15.5858 3.25 16V16.5L3.25 16.5404C3.24998 16.9663 3.24997 17.2256 3.26773 17.4511C3.48964 20.2708 5.7292 22.5104 8.54886 22.7323C8.77444 22.75 9.03374 22.75 9.45961 22.75L9.5 22.75H14.5L14.5404 22.75C14.9663 22.75 15.2256 22.75 15.4511 22.7323C18.2708 22.5104 20.5104 20.2708 20.7323 17.4511C20.75 17.2256 20.75 16.9663 20.75 16.5405V16.5405V16.5V16C20.75 15.5858 20.4142 15.25 20 15.25C19.5858 15.25 19.25 15.5858 19.25 16V16.5C19.25 16.9786 19.2494 17.1744 19.2369 17.3335C19.0729 19.4176 17.4175 21.0729 15.3335 21.2369C15.1744 21.2494 14.9786 21.25 14.5 21.25H9.5C9.02143 21.25 8.82561 21.2494 8.66655 21.2369C6.58245 21.0729 4.92712 19.4176 4.7631 17.3335C4.75058 17.1744 4.75 16.9786 4.75 16.5V16Z" fill="#2F384C"/>
</svg>
