<svg width="24" height="24" viewBox="0 0 24 24" fill="none" xmlns="http://www.w3.org/2000/svg">
<path fill-rule="evenodd" clip-rule="evenodd" d="M2.88803 1.57698C3.52976 1.25 4.36984 1.25 6.05 1.25H8.78024C9.58187 1.25 9.98268 1.25 10.3446 1.34146C10.9426 1.49262 11.4795 1.82444 11.8821 2.29174C12.1258 2.57451 12.305 2.933 12.6635 3.65C12.9025 4.128 13.022 4.36699 13.1845 4.55551C13.4529 4.86704 13.8108 5.08825 14.2095 5.18902C14.4508 5.25 14.718 5.25 15.2524 5.25H16.35C18.5902 5.25 19.7103 5.25 20.566 5.68597C21.3186 6.06947 21.9305 6.68139 22.314 7.43404C22.75 8.28968 22.75 9.40979 22.75 11.65V16.35C22.75 18.5902 22.75 19.7103 22.314 20.566C21.9305 21.3186 21.3186 21.9305 20.566 22.314C19.7103 22.75 18.5902 22.75 16.35 22.75H7.65C5.40979 22.75 4.28969 22.75 3.43404 22.314C2.68139 21.9305 2.06947 21.3186 1.68597 20.566C1.25 19.7103 1.25 18.5902 1.25 16.35V6.05C1.25 4.36984 1.25 3.52976 1.57698 2.88803C1.8646 2.32354 2.32354 1.8646 2.88803 1.57698ZM7.75 14C7.75 12.7574 8.75736 11.75 10 11.75C11.065 11.75 11.9589 12.4907 12.1912 13.4859C12.2465 13.7231 12.4137 13.9187 12.6395 14.0103C12.8652 14.102 13.1214 14.0782 13.3265 13.9467C13.5205 13.8222 13.7506 13.75 14 13.75C14.6904 13.75 15.25 14.3096 15.25 15C15.25 15.6904 14.6904 16.25 14 16.25H10C8.75736 16.25 7.75 15.2426 7.75 14ZM10 10.25C7.92893 10.25 6.25 11.9289 6.25 14C6.25 16.0711 7.92893 17.75 10 17.75H14C15.5188 17.75 16.75 16.5188 16.75 15C16.75 13.4812 15.5188 12.25 14 12.25C13.7786 12.25 13.563 12.2763 13.3563 12.3259C12.7413 11.0953 11.47 10.25 10 10.25Z" fill="#2F384C"/>
</svg>
