<svg width="24" height="24" viewBox="0 0 24 24" fill="none" xmlns="http://www.w3.org/2000/svg">
<path fill-rule="evenodd" clip-rule="evenodd" d="M2.88803 1.57698C3.52976 1.25 4.36984 1.25 6.05 1.25H8.78024C9.58187 1.25 9.98268 1.25 10.3446 1.34146C10.9426 1.49262 11.4795 1.82444 11.8821 2.29174C12.1258 2.57451 12.305 2.933 12.6635 3.65C12.9025 4.128 13.022 4.36699 13.1845 4.55551C13.4529 4.86704 13.8108 5.08825 14.2095 5.18902C14.4508 5.25 14.718 5.25 15.2524 5.25H16.35C18.5902 5.25 19.7103 5.25 20.566 5.68597C21.3186 6.06947 21.9305 6.68139 22.314 7.43404C22.75 8.28968 22.75 9.40979 22.75 11.65V16.35C22.75 18.5902 22.75 19.7103 22.314 20.566C21.9305 21.3186 21.3186 21.9305 20.566 22.314C19.7103 22.75 18.5902 22.75 16.35 22.75H7.65C5.40979 22.75 4.28969 22.75 3.43404 22.314C2.68139 21.9305 2.06947 21.3186 1.68597 20.566C1.25 19.7103 1.25 18.5902 1.25 16.35V6.05C1.25 4.36984 1.25 3.52976 1.57698 2.88803C1.8646 2.32354 2.32354 1.8646 2.88803 1.57698ZM13.0303 12.0303C13.5659 11.4948 14.4341 11.4948 14.9697 12.0303C15.5052 12.5659 15.5052 13.4341 14.9697 13.9697L12.4697 16.4697C12.2103 16.7291 11.7897 16.7291 11.5303 16.4697L9.03033 13.9697C8.4948 13.4341 8.4948 12.5659 9.03033 12.0303C9.56586 11.4948 10.4341 11.4948 10.9697 12.0303L11.4697 12.5303C11.7626 12.8232 12.2374 12.8232 12.5303 12.5303L13.0303 12.0303ZM16.0303 10.9697C14.9191 9.8584 13.1235 9.84844 12 10.9398C10.8765 9.84844 9.08094 9.8584 7.96967 10.9697C6.84835 12.091 6.84835 13.909 7.96967 15.0303L10.4697 17.5303C11.3148 18.3755 12.6852 18.3755 13.5303 17.5303L16.0303 15.0303C17.1517 13.909 17.1517 12.091 16.0303 10.9697Z" fill="#2F384C"/>
</svg>
