<svg width="24" height="24" viewBox="0 0 24 24" fill="none" xmlns="http://www.w3.org/2000/svg">
<path fill-rule="evenodd" clip-rule="evenodd" d="M2.88803 1.57698C3.52976 1.25 4.36984 1.25 6.05 1.25H8.78024C9.58187 1.25 9.98268 1.25 10.3446 1.34146C10.9426 1.49262 11.4795 1.82444 11.8821 2.29174C12.1258 2.57451 12.305 2.933 12.6635 3.65C12.9025 4.128 13.022 4.36699 13.1845 4.55551C13.4529 4.86704 13.8108 5.08825 14.2095 5.18902C14.4508 5.25 14.718 5.25 15.2524 5.25H16.35C18.5902 5.25 19.7103 5.25 20.566 5.68597C21.3186 6.06947 21.9305 6.68139 22.314 7.43404C22.75 8.28968 22.75 9.40979 22.75 11.65V16.35C22.75 18.5902 22.75 19.7103 22.314 20.566C21.9305 21.3186 21.3186 21.9305 20.566 22.314C19.7103 22.75 18.5902 22.75 16.35 22.75H7.65C5.40979 22.75 4.28969 22.75 3.43404 22.314C2.68139 21.9305 2.06947 21.3186 1.68597 20.566C1.25 19.7103 1.25 18.5902 1.25 16.35V6.05C1.25 4.36984 1.25 3.52976 1.57698 2.88803C1.8646 2.32354 2.32354 1.8646 2.88803 1.57698ZM12.75 11C12.75 10.5858 12.4142 10.25 12 10.25C11.5858 10.25 11.25 10.5858 11.25 11V15.1893L10.0303 13.9697C9.73744 13.6768 9.26256 13.6768 8.96967 13.9697C8.67678 14.2626 8.67678 14.7374 8.96967 15.0303L11.4697 17.5303C11.7626 17.8232 12.2374 17.8232 12.5303 17.5303L15.0303 15.0303C15.3232 14.7374 15.3232 14.2626 15.0303 13.9697C14.7374 13.6768 14.2626 13.6768 13.9697 13.9697L12.75 15.1893V11Z" fill="#2F384C"/>
</svg>
