<svg width="24" height="24" viewBox="0 0 24 24" fill="none" xmlns="http://www.w3.org/2000/svg">
<path d="M8.75 1C8.75 0.585786 8.41421 0.25 8 0.25C7.58579 0.25 7.25 0.585786 7.25 1V3C7.25 3.41421 7.58579 3.75 8 3.75C8.41421 3.75 8.75 3.41421 8.75 3V1Z" fill="#2F384C"/>
<path d="M12.75 1C12.75 0.585786 12.4142 0.25 12 0.25C11.5858 0.25 11.25 0.585786 11.25 1V3C11.25 3.41421 11.5858 3.75 12 3.75C12.4142 3.75 12.75 3.41421 12.75 3V1Z" fill="#2F384C"/>
<path d="M16.75 1C16.75 0.585786 16.4142 0.25 16 0.25C15.5858 0.25 15.25 0.585786 15.25 1V3C15.25 3.41421 15.5858 3.75 16 3.75C16.4142 3.75 16.75 3.41421 16.75 3V1Z" fill="#2F384C"/>
<path d="M1.25 6.49989C1.25 3.60039 3.6005 1.24989 6.5 1.24989V1.24989V2.99989C6.5 3.82832 7.17157 4.49989 8 4.49989C8.82843 4.49989 9.5 3.82832 9.5 2.99989V1.74989C9.5 1.47375 9.72386 1.24989 10 1.24989V1.24989C10.2761 1.24989 10.5 1.47375 10.5 1.74989V2.99989C10.5 3.82832 11.1716 4.49989 12 4.49989C12.8284 4.49989 13.5 3.82832 13.5 2.99989V1.74989C13.5 1.47375 13.7239 1.24989 14 1.24989V1.24989C14.2761 1.24989 14.5 1.47375 14.5 1.74989V2.99989C14.5 3.82832 15.1716 4.49989 16 4.49989C16.8284 4.49989 17.5 3.82832 17.5 2.99989V1.24989V1.24989C20.3995 1.24989 22.75 3.60039 22.75 6.49989V13.1499C22.75 16.5102 22.75 18.1904 22.096 19.4738C21.5208 20.6028 20.6029 21.5207 19.4739 22.0959C18.1905 22.7499 16.5103 22.7499 13.15 22.7499H10.85C7.48969 22.7499 5.80953 22.7499 4.52606 22.0959C3.39708 21.5207 2.4792 20.6028 1.90396 19.4738C1.25 18.1904 1.25 16.5102 1.25 13.1499V6.49989Z" fill="#2F384C"/>
</svg>
