<svg width="24" height="24" viewBox="0 0 24 24" fill="none" xmlns="http://www.w3.org/2000/svg">
<path fill-rule="evenodd" clip-rule="evenodd" d="M4.52606 1.90396C5.80953 1.25 7.48969 1.25 10.85 1.25H13.15C16.5103 1.25 18.1905 1.25 19.4739 1.90396C20.6029 2.4792 21.5208 3.39708 22.096 4.52606C22.75 5.80953 22.75 7.48969 22.75 10.85V15.1716C22.75 15.1983 22.75 15.2244 22.75 15.25H19.2H19.1695H19.1695C18.6354 15.25 18.1896 15.25 17.8253 15.2797C17.4454 15.3108 17.0888 15.3779 16.7515 15.5497C16.2341 15.8134 15.8134 16.2341 15.5497 16.7515C15.3779 17.0888 15.3108 17.4454 15.2797 17.8253C15.25 18.1896 15.25 18.6354 15.25 19.1696V19.2V22.75C15.2244 22.75 15.1983 22.75 15.1716 22.75H10.85C7.48968 22.75 5.80953 22.75 4.52606 22.096C3.39708 21.5208 2.4792 20.6029 1.90396 19.4739C1.25 18.1905 1.25 16.5103 1.25 13.15V10.85C1.25 7.48968 1.25 5.80953 1.90396 4.52606C2.4792 3.39708 3.39708 2.4792 4.52606 1.90396ZM16.75 22.6783C17.7964 22.5151 18.7829 22.0775 19.6079 21.4075C19.8487 21.212 20.0759 20.9848 20.5303 20.5304L20.5303 20.5303L20.5304 20.5303C20.9848 20.0759 21.212 19.8487 21.4075 19.6079C22.0775 18.7829 22.5151 17.7964 22.6783 16.75H19.2C18.6276 16.75 18.2434 16.7506 17.9475 16.7748C17.6604 16.7982 17.5231 16.8401 17.4325 16.8862C17.1973 17.0061 17.0061 17.1973 16.8862 17.4325C16.8401 17.5231 16.7982 17.6604 16.7748 17.9475C16.7506 18.2434 16.75 18.6276 16.75 19.2V22.6783Z" fill="#2F384C"/>
</svg>
