<svg fill="none" xmlns="http://www.w3.org/2000/svg" viewBox="0 0 24 24"><g clip-path="url(#a)"><path fill="#000" d="M0 0h24v24H0z"/><path fill-rule="evenodd" clip-rule="evenodd" d="m18.7 7.6.4-1-1-1.1c-.7-.6-2-.3-2-.3l-1.5-1.6H9.5L8 5.2s-1.3-.3-1.9.3L5 6.6l.4 1L4.9 9l1.6 6.3c.4 1.4.6 2 1.6 2.6l3 2q.4.4 1 .5l1-.4 3-2.1c1-.7 1.2-1.2 1.5-2.6L19.2 9z" fill="url(#b)"/><path fill-rule="evenodd" clip-rule="evenodd" d="M15.7 6.3s1.9 2.3 1.9 2.8q0 .6-.5.9l-1.4 1.5q-.3.1-.2.7c.1.4.4.9 0 1.4q-.3.8-1 .8l-1.2-.6c-.2-.2-1-.8-1-1 0-.3.8-.8 1-1 .1 0 .8-.4.8-.6l-.2-.6q-.5-.7-.5-1.2c0-.4.7-.6 1.1-.7l1.4-.6h-.3c-.3-.1-1.2-.2-1.6-.1l-1.1.4v.4l.3 2q0 .4-.2.6l-1 .1-.9-.1q-.3-.2-.2-.6l.4-2v-.4L10 8c-.4-.1-1.3 0-1.6 0q-.4 0-.2.1l1.3.6q.9.1 1.1.7l-.5 1.2-.2.6c0 .2.7.6.9.7.1 0 1 .6 1 .8s-.8 1-1 1.1l-1.3.6q-.6 0-1-.8-.3-.8 0-1.4t-.2-.7L7 10q-.4-.3-.5-1c0-.4 2-2.7 2-2.7l1.7.3 1.1-.3.8-.2.7.2 1 .3zm-1.4 8.8v.3c-.2 0-1.6 1.1-1.8 1.3l-.4.3q-.3 0-.5-.3L9.8 15l1-.6 1.3-.4 1.2.4z" fill="#fff"/><mask id="c" style="mask-type:alpha" maskUnits="userSpaceOnUse" x="6" y="3" width="13" height="4"><path d="m16.1 5.2-1.5-1.6H9.5L8 5.2s-1.3-.3-1.9.3c0 0 1.7-.2 2.3.8l1.8.3 1.1-.3.8-.2.7.2 1 .3 2-.3c.5-1 2.2-.8 2.2-.8-.6-.6-1.9-.3-1.9-.3" fill="#fff"/></mask><g mask="url(#c)"><path d="m16.1 5.2-1.5-1.6H9.5L8 5.2s-1.3-.3-1.9.3c0 0 1.7-.2 2.3.8l1.8.3 1.1-.3.8-.2.7.2 1 .3 2-.3c.5-1 2.2-.8 2.2-.8-.6-.6-1.9-.3-1.9-.3" fill="url(#d)"/></g></g><defs><linearGradient id="b" x1="4.9" y1="12.1" x2="19.2" y2="12.1" gradientUnits="userSpaceOnUse"><stop stop-color="#F50"/><stop offset=".4" stop-color="#F50"/><stop offset=".6" stop-color="#FF2000"/><stop offset="1" stop-color="#FF2000"/></linearGradient><linearGradient id="d" x1="6.4" y1="5.1" x2="18" y2="5.1" gradientUnits="userSpaceOnUse"><stop stop-color="#FF452A"/><stop offset="1" stop-color="#FF2000"/></linearGradient><clipPath id="a"><rect width="24" height="24" rx="12" fill="#fff"/></clipPath></defs></svg>