<svg width="24" height="24" viewBox="0 0 24 24" fill="none" xmlns="http://www.w3.org/2000/svg">
<g clip-path="url(#clip0_1_695)">
<path d="M18.5454 0H5.45454C2.44209 0 0 2.44209 0 5.45454V18.5454C0 21.5579 2.44209 24 5.45454 24H18.5454C21.5579 24 24 21.5579 24 18.5454V5.45454C24 2.44209 21.5579 0 18.5454 0Z" fill="url(#paint0_linear_1_695)"/>
<path d="M18.5454 0H5.45454C2.44209 0 0 2.44209 0 5.45454V18.5454C0 21.5579 2.44209 24 5.45454 24H18.5454C21.5579 24 24 21.5579 24 18.5454V5.45454C24 2.44209 21.5579 0 18.5454 0Z" fill="url(#paint1_radial_1_695)"/>
<path d="M18.5454 0H5.45454C2.44209 0 0 2.44209 0 5.45454V18.5454C0 21.5579 2.44209 24 5.45454 24H18.5454C21.5579 24 24 21.5579 24 18.5454V5.45454C24 2.44209 21.5579 0 18.5454 0Z" fill="url(#paint2_radial_1_695)"/>
<path d="M18.5454 0H5.45454C2.44209 0 0 2.44209 0 5.45454V18.5454C0 21.5579 2.44209 24 5.45454 24H18.5454C21.5579 24 24 21.5579 24 18.5454V5.45454C24 2.44209 21.5579 0 18.5454 0Z" fill="url(#paint3_radial_1_695)"/>
<path d="M9.85836 18.4351V12.8681L15.2674 18.4351H18.2768V18.2902L12.0548 11.9498L17.798 5.9347V5.86367H14.7691L9.85836 11.1792V5.86367H7.41968V18.4351H9.85836Z" fill="white"/>
</g>
<defs>
<linearGradient id="paint0_linear_1_695" x1="12" y1="0" x2="12" y2="24" gradientUnits="userSpaceOnUse">
<stop stop-color="#1FD1FF"/>
<stop offset="1" stop-color="#1BB8FF"/>
</linearGradient>
<radialGradient id="paint1_radial_1_695" cx="0" cy="0" r="1" gradientUnits="userSpaceOnUse" gradientTransform="translate(1.14642 23.0906) rotate(-45.1556) scale(38.4884 39.0642)">
<stop stop-color="#232DE3"/>
<stop offset="1" stop-color="#232DE3" stop-opacity="0"/>
</radialGradient>
<radialGradient id="paint2_radial_1_695" cx="0" cy="0" r="1" gradientUnits="userSpaceOnUse" gradientTransform="translate(22.7074 23.863) rotate(-138.45) scale(24.065 36.6923)">
<stop stop-color="#8B4DFF"/>
<stop offset="1" stop-color="#8B4DFF" stop-opacity="0"/>
</radialGradient>
<radialGradient id="paint3_radial_1_695" cx="0" cy="0" r="1" gradientUnits="userSpaceOnUse" gradientTransform="translate(11.8001 0.177999) rotate(90) scale(18.922 45.9099)">
<stop stop-color="#24D5FF"/>
<stop offset="1" stop-color="#1BB8FF" stop-opacity="0"/>
</radialGradient>
<clipPath id="clip0_1_695">
<rect width="24" height="24" rx="12" fill="white"/>
</clipPath>
</defs>
</svg>
