<svg fill="none" xmlns="http://www.w3.org/2000/svg" viewBox="0 0 24 24"><path d="M23.5 12.2c0 3.7-4.5 5.2-10.2 5.2S3 16 3 12.2s4.6-6.8 10.3-6.8c5.6 0 10.2 3 10.2 6.8" fill="#4BAF74"/><path d="M22.5 4a3.6 3.6 0 0 0-6.4-2.2 13 13 0 0 0-5.6 0 3.6 3.6 0 0 0-5.9 4q-.5 1-.5 2c0 3.4 4.1 6.2 9.2 6.2s9.2-2.8 9.2-6.3q0-1-.5-1.9.5-.8.5-1.8" fill="#4BC174"/><path d="M7.4 6a2.2 2.2 0 1 0 0-4.4 2.2 2.2 0 1 0 0 4.4m11.7 0a2.2 2.2 0 1 0 0-4.4q-2 .2-2.2 2.2c0 1.2 1 2.2 2.2 2.2" fill="#EEE"/><path d="M6.2 17.2q.9 0 .8-.9c-.2-1.6-1-5.2-4.6-7.3-4.8-2.9-1 7-1 7l-1 .5q-.4.5.2.7zm14.3 0q-.6 0-.7-.9A10 10 0 0 1 23.9 9c4.4-2.9 1 7 1 7l.8.5q.4.5-.1.7z" fill="#4BC174"/><path d="M7.4 4.2q.4 0 .4-.4t-.4-.4-.4.4.4.4m11.6 0q.5 0 .5-.4t-.4-.4-.4.4.4.4" fill="#0D0D0D"/></svg>