<svg width="24" height="24" viewBox="0 0 24 24" fill="none" xmlns="http://www.w3.org/2000/svg">
<g clip-path="url(#clip0_627_198)">
<mask id="mask0_627_198" style="mask-type:luminance" maskUnits="userSpaceOnUse" x="0" y="0" width="24" height="24">
<path d="M19.68 0H4.32C1.93413 0 0 1.93413 0 4.32V19.68C0 22.0659 1.93413 24 4.32 24H19.68C22.0659 24 24 22.0659 24 19.68V4.32C24 1.93413 22.0659 0 19.68 0Z" fill="white"/>
</mask>
<g mask="url(#mask0_627_198)">
<mask id="mask1_627_198" style="mask-type:luminance" maskUnits="userSpaceOnUse" x="0" y="0" width="24" height="16">
<path d="M23.5166 0.536652H0.476562V15.8967H23.5166V0.536652Z" fill="white"/>
</mask>
<g mask="url(#mask1_627_198)">
<path d="M21.2357 11.1376C21.2357 14.5204 17.2122 15.8951 12.2165 15.8951C7.22073 15.8951 3.13867 14.5204 3.13867 11.1376C3.13867 7.75486 7.19145 5.01755 12.1871 5.01755C17.1829 5.01755 21.2357 7.76082 21.2357 11.1376Z" fill="#4BAF74"/>
<path d="M20.3176 3.77274C20.3176 1.9917 18.9003 0.545349 17.155 0.545349C16.1711 0.545349 15.2926 1.00555 14.7128 1.72275C13.9222 1.54345 13.0788 1.44185 12.2062 1.44185C11.3335 1.44185 10.4902 1.53747 9.69952 1.72275C9.11386 1.00555 8.23537 0.545349 7.2573 0.545349C5.51204 0.545349 4.09473 1.9917 4.09473 3.77274C4.09473 4.35846 4.24701 4.90232 4.51054 5.37448C4.2587 5.92433 4.124 6.51005 4.124 7.11965C4.124 10.2574 7.74341 12.7975 12.2062 12.7975C16.6689 12.7975 20.2883 10.2574 20.2883 7.11965C20.2883 6.51005 20.1536 5.92433 19.9018 5.37448C20.1653 4.90232 20.3176 4.35846 20.3176 3.77274Z" fill="#32DA6D"/>
<path d="M7.00301 5.56818C8.0704 5.56818 8.93568 4.68516 8.93568 3.59589C8.93568 2.50662 8.0704 1.6236 7.00301 1.6236C5.93562 1.6236 5.07031 2.50662 5.07031 3.59589C5.07031 4.68516 5.93562 5.56818 7.00301 5.56818Z" fill="white"/>
<path d="M17.3155 5.56818C18.3829 5.56818 19.2482 4.68516 19.2482 3.59589C19.2482 2.50662 18.3829 1.6236 17.3155 1.6236C16.2481 1.6236 15.3828 2.50662 15.3828 3.59589C15.3828 4.68516 16.2481 5.56818 17.3155 5.56818Z" fill="white"/>
<path d="M5.9708 15.6626C6.38662 15.6626 6.7146 15.2921 6.66773 14.8737C6.49788 13.3915 5.77752 10.182 2.60908 8.25158C-1.60769 5.68161 1.73059 14.5271 1.73059 14.5271L0.857949 15.0411C0.565119 15.2144 0.688106 15.6626 1.02194 15.6626H5.9708Z" fill="#32DA6D"/>
<path d="M18.5533 15.6626C18.1785 15.6626 17.8857 15.2921 17.9267 14.8737C18.0731 13.3975 18.729 10.182 21.5871 8.25158C25.3998 5.68161 22.3836 14.5271 22.3836 14.5271L23.1742 15.0411C23.4378 15.2144 23.3265 15.6626 23.0278 15.6626H18.5533Z" fill="#32DA6D"/>
<path d="M7.00571 3.94399C7.19977 3.94399 7.35709 3.78344 7.35709 3.58539C7.35709 3.38734 7.19977 3.22679 7.00571 3.22679C6.81162 3.22679 6.6543 3.38734 6.6543 3.58539C6.6543 3.78344 6.81162 3.94399 7.00571 3.94399Z" fill="#0D0D0D"/>
<path d="M17.3084 3.94399C17.5025 3.94399 17.6598 3.78344 17.6598 3.58539C17.6598 3.38734 17.5025 3.22679 17.3084 3.22679C17.1144 3.22679 16.957 3.38734 16.957 3.58539C16.957 3.78344 17.1144 3.94399 17.3084 3.94399Z" fill="#0D0D0D"/>
</g>
<path d="M24 17.4708H0V26.713H24V17.4708Z" fill="#AC4BFF"/>
</g>
</g>
<defs>
<clipPath id="clip0_627_198">
<rect width="24" height="24" fill="white"/>
</clipPath>
</defs>
</svg>
