<svg width="24" height="24" viewBox="0 0 24 24" fill="none" xmlns="http://www.w3.org/2000/svg">
<g clip-path="url(#clip0_332_236)">
<circle cx="12" cy="12" r="64" fill="#8697FF"/>
<path d="M20.3515 12.9747C21.0165 11.3969 17.7288 6.98869 14.5879 5.15214C12.6081 3.7294 10.5451 3.92486 10.1273 4.54955C9.21038 5.92051 13.1635 7.08217 15.8073 8.43777C15.239 8.69991 14.7034 9.17034 14.3885 9.77197C13.4029 8.62916 11.2396 7.64504 8.70115 8.43777C6.99057 8.97197 5.56894 10.2314 5.01949 12.1335C4.88598 12.0705 4.73816 12.0355 4.58265 12.0355C3.98795 12.0355 3.50586 12.5475 3.50586 13.1791C3.50586 13.8107 3.98795 14.3226 4.58265 14.3226C4.69288 14.3226 5.03753 14.2442 5.03753 14.2442L10.5451 14.2865C8.3425 17.9975 6.60183 18.54 6.60183 19.1829C6.60183 19.8258 8.26736 19.6516 8.8927 19.412C11.8864 18.2647 15.1018 14.6894 15.6535 13.6602C17.9706 13.9672 19.9178 14.0035 20.3515 12.9747Z" fill="url(#paint0_linear_332_236)"/>
<path fill-rule="evenodd" clip-rule="evenodd" d="M15.8065 8.43794C15.929 8.38668 15.9096 8.19465 15.876 8.04371C15.7986 7.69676 14.4642 6.29731 13.2111 5.6705C11.5037 4.81644 10.2464 4.8604 10.0605 5.25398C10.4083 6.0111 12.0208 6.72193 13.7049 7.46433C14.4234 7.78106 15.1546 8.10368 15.8065 8.43794Z" fill="url(#paint1_linear_332_236)"/>
<path fill-rule="evenodd" clip-rule="evenodd" d="M13.6407 16.0576C13.2953 15.9174 12.9053 15.7889 12.4618 15.6722C12.9346 14.7736 13.0338 13.4433 12.5873 12.6023C11.9605 11.4219 11.1738 10.7936 9.34567 10.7936C8.34016 10.7936 5.63295 11.1533 5.58489 13.5535C5.57984 13.8053 5.58476 14.0361 5.60193 14.2483L10.5455 14.2864C9.87904 15.4093 9.25486 16.2421 8.7084 16.8753C9.36452 17.0539 9.90595 17.2038 10.403 17.3414C10.8747 17.472 11.3064 17.5915 11.7582 17.7139C12.4399 17.1865 13.0807 16.6114 13.6407 16.0576Z" fill="url(#paint2_linear_332_236)"/>
<path d="M4.95326 14.0018C5.15521 15.8251 6.13088 16.5397 8.12458 16.7511C10.1183 16.9626 11.2619 16.8207 12.7844 16.9678C14.056 17.0907 15.1914 17.7789 15.6126 17.5411C15.9917 17.327 15.7796 16.5538 15.2724 16.0577C14.6149 15.4145 13.7049 14.9674 12.1037 14.8088C12.4228 13.8809 12.3334 12.5799 11.8378 11.872C11.1212 10.8485 9.79856 10.3858 8.12458 10.588C6.37564 10.7992 4.69981 11.7137 4.95326 14.0018Z" fill="url(#paint3_linear_332_236)"/>
</g>
<defs>
<linearGradient id="paint0_linear_332_236" x1="8.50196" y1="11.5775" x2="20.3079" y2="14.7298" gradientUnits="userSpaceOnUse">
<stop stop-color="white"/>
<stop offset="1" stop-color="white"/>
</linearGradient>
<linearGradient id="paint1_linear_332_236" x1="18.2364" y1="11.3411" x2="9.2807" y2="2.88797" gradientUnits="userSpaceOnUse">
<stop stop-color="#8697FF"/>
<stop offset="1" stop-color="#8697FF" stop-opacity="0"/>
</linearGradient>
<linearGradient id="paint2_linear_332_236" x1="13.8756" y1="16.3708" x2="5.5265" y2="11.8511" gradientUnits="userSpaceOnUse">
<stop stop-color="#8697FF"/>
<stop offset="1" stop-color="#8697FF" stop-opacity="0"/>
</linearGradient>
<linearGradient id="paint3_linear_332_236" x1="9.20057" y1="11.4847" x2="15.098" y2="18.5403" gradientUnits="userSpaceOnUse">
<stop stop-color="white"/>
<stop offset="0.983895" stop-color="#D1D8FF"/>
</linearGradient>
<clipPath id="clip0_332_236">
<rect width="24" height="24" rx="12" fill="white"/>
</clipPath>
</defs>
</svg>
