<svg width="24" height="24" viewBox="0 0 24 24" fill="none" xmlns="http://www.w3.org/2000/svg">
<path d="M5.19824 8.48103L12.059 6.24072V21.75C7.15842 19.6819 5.19824 15.7185 5.19824 13.4785V8.48103Z" fill="#0500FF"/>
<path d="M18.9204 8.48103L12.0596 6.24072V21.75C16.9602 19.6819 18.9204 15.7185 18.9204 13.4785V8.48103Z" fill="url(#paint0_linear_332_274)"/>
<path d="M7.89972 2.51434H8.85704V3.05072C9.17088 2.56857 9.53181 2.51434 10.0604 2.51434V3.46252H9.81963C9.18637 3.46252 8.88307 3.76061 8.88307 4.3509V5.35857H7.89941V2.51434H7.89972Z" fill="#0500FF"/>
<path d="M13.2557 5.35827H12.272V5.08714C12.0573 5.33658 11.7646 5.44472 11.4036 5.44472C10.7183 5.44472 10.3311 5.03849 10.3311 4.29079V2.51404H11.3147V4.06893C11.3147 4.42093 11.4873 4.62668 11.78 4.62668C12.0728 4.62668 12.272 4.4262 12.272 4.08504V2.51404H13.2557V5.35827Z" fill="#0500FF"/>
<path d="M13.4961 4.48042H14.4172C14.4593 4.68617 14.6003 4.77263 14.9401 4.77263C15.2174 4.77263 15.3797 4.70786 15.3797 4.58857C15.3797 4.49623 15.3011 4.43673 15.0764 4.38809L14.3335 4.22014C13.8366 4.10673 13.5853 3.81949 13.5853 3.35872C13.5853 2.7517 14.0299 2.4375 14.893 2.4375C15.7562 2.4375 16.18 2.74364 16.2534 3.39931H15.3379C15.3224 3.2261 15.1443 3.12013 14.8515 3.12013C14.6164 3.12013 14.4646 3.19573 14.4646 3.30976C14.4646 3.40706 14.5637 3.48298 14.7629 3.53225L15.5424 3.72188C16.0548 3.84614 16.3011 4.10642 16.3011 4.52907C16.3011 5.1144 15.7937 5.46114 14.9308 5.46114C14.068 5.46114 13.4973 5.08744 13.4973 4.48042H13.4964H13.4961Z" fill="#0500FF"/>
<path d="M18.9205 3.399V2.51434H16.4932V3.39931H17.2175V5.35826H18.1959V3.39869H18.9205V3.399Z" fill="#0500FF"/>
<path d="M7.6266 3.399V2.51434H5.19922V3.39931H5.92356V5.35826H6.90195V3.39869H7.62629L7.6266 3.399Z" fill="#0500FF"/>
<defs>
<linearGradient id="paint0_linear_332_274" x1="17.1123" y1="5.15961" x2="11.8858" y2="21.5285" gradientUnits="userSpaceOnUse">
<stop offset="0.02" stop-color="#0000FF"/>
<stop offset="0.08" stop-color="#0094FF"/>
<stop offset="0.16" stop-color="#48FF91"/>
<stop offset="0.42" stop-color="#0094FF"/>
<stop offset="0.68" stop-color="#0038FF"/>
<stop offset="0.9" stop-color="#0500FF"/>
</linearGradient>
</defs>
</svg>
