<svg width="24" height="24" viewBox="0 0 24 24" fill="none" xmlns="http://www.w3.org/2000/svg">
<path d="M16 12.6289C17.8367 13.203 19.7058 14.1848 21.488 15.6338C21.6448 15.7613 21.7232 15.825 21.8261 15.939C22.3403 16.5078 22.4734 17.4956 22.1282 18.1803C22.059 18.3174 21.9777 18.4313 21.8151 18.659V18.659C21.6074 18.9496 21.5036 19.095 21.3963 19.2049C20.8186 19.7963 19.9367 19.9713 19.177 19.6454C19.0358 19.5849 18.8843 19.4902 18.5814 19.3009L17.8434 18.8396C17.3506 18.5316 17.1042 18.3776 16.9178 18.172C16.7527 17.9898 16.6226 17.7788 16.534 17.5494C16.434 17.2905 16.407 17.0012 16.3532 16.4226L16 12.6289ZM16 12.6289C14.6323 12.2014 13.2826 12 12 12C10.7174 12 9.36767 12.2014 8 12.6289M8 12.6289C6.16329 13.203 4.29423 14.1847 2.51202 15.6337C2.35523 15.7612 2.27684 15.8249 2.17386 15.9389C1.65975 16.5078 1.52664 17.4955 1.87182 18.1802C1.94097 18.3174 2.02228 18.4312 2.18492 18.6589V18.6589C2.39257 18.9496 2.49639 19.0949 2.60376 19.2049C3.18137 19.7963 4.06329 19.9713 4.82299 19.6454C4.96422 19.5849 5.11569 19.4902 5.41862 19.3009L6.15662 18.8396C6.64938 18.5316 6.89577 18.3776 7.08219 18.172C7.24731 17.9898 7.37743 17.7788 7.46602 17.5494C7.56605 17.2905 7.59298 17.0012 7.64684 16.4226L8 12.6289ZM7 4L9.73726 6.73726C10.5293 7.52929 10.9253 7.92531 11.382 8.07369C11.7837 8.2042 12.2163 8.2042 12.618 8.07369C13.0747 7.92531 13.4707 7.52929 14.2627 6.73726L16.5 4.5M7 4V8M7 4H11" stroke="currentColor" stroke-width="1.5" stroke-linecap="round" stroke-linejoin="round"/>
</svg>
