<svg width="24" height="24" viewBox="0 0 24 24" fill="none" xmlns="http://www.w3.org/2000/svg">
<path d="M15.9995 5.62891C17.8362 6.203 19.7053 7.18476 21.4875 8.63381C21.6443 8.76127 21.7227 8.825 21.8257 8.93895C22.3398 9.50785 22.4729 10.4956 22.1277 11.1803C22.0585 11.3174 21.9772 11.4313 21.8146 11.659V11.659C21.607 11.9496 21.5031 12.095 21.3958 12.2049C20.8182 12.7963 19.9362 12.9713 19.1765 12.6454C19.0353 12.5849 18.8838 12.4902 18.5809 12.3009L17.8429 11.8396C17.3501 11.5316 17.1037 11.3776 16.9173 11.172C16.7522 10.9898 16.6221 10.7788 16.5335 10.5494C16.4335 10.2905 16.4065 10.0012 16.3527 9.42263L15.9995 5.62891ZM15.9995 5.62891C14.6318 5.20143 13.2821 5 11.9995 5C10.7169 5 9.36718 5.20143 7.99951 5.62891M7.99951 5.62891C6.1628 6.20298 4.29374 7.18473 2.51153 8.63373C2.35474 8.76121 2.27635 8.82494 2.17337 8.9389C1.65926 9.50778 1.52615 10.4955 1.87133 11.1802C1.94048 11.3174 2.0218 11.4312 2.18444 11.6589V11.6589C2.39208 11.9496 2.4959 12.0949 2.60327 12.2049C3.18088 12.7963 4.0628 12.9713 4.82251 12.6454C4.96373 12.5849 5.1152 12.4902 5.41814 12.3009L6.15613 11.8396C6.64889 11.5316 6.89528 11.3776 7.0817 11.172C7.24682 10.9898 7.37694 10.7788 7.46554 10.5494C7.56556 10.2905 7.59249 10.0012 7.64635 9.42263L7.99951 5.62891ZM12 12V20M12 20L9 17M12 20L15 17" stroke="currentColor" stroke-width="1.5" stroke-linecap="round" stroke-linejoin="round"/>
</svg>
