<svg width="24" height="24" viewBox="0 0 24 24" fill="none" xmlns="http://www.w3.org/2000/svg">
<path d="M16 7.62891C17.8073 8.1938 19.6459 9.15342 21.4023 10.5646C21.7855 10.8724 21.9771 11.0263 22.1454 11.274C22.4274 11.6892 22.5517 12.3238 22.4471 12.8147C22.3848 13.1075 22.242 13.3644 21.9565 13.8783V13.8783C21.5547 14.6015 21.3539 14.9631 21.0924 15.1922C20.6154 15.6102 19.9684 15.7771 19.3487 15.6421C19.0091 15.5682 18.6583 15.3489 17.9568 14.9105L17.7951 14.8094C17.3651 14.5407 17.1502 14.4063 16.9817 14.2332C16.7701 14.0158 16.6108 13.7531 16.5157 13.465C16.44 13.2356 16.4202 12.9829 16.3805 12.4774L16 7.62891ZM16 7.62891C14.6323 7.20143 13.2826 7 12 7C10.7174 7 9.36767 7.20143 8 7.62891M8 7.62891C6.1927 8.19379 4.35408 9.15339 2.59771 10.5645C2.21451 10.8723 2.02291 11.0263 1.85464 11.2739C1.57259 11.6891 1.44828 12.3237 1.55285 12.8146C1.61523 13.1074 1.75798 13.3644 2.04348 13.8783V13.8783C2.44526 14.6015 2.64616 14.9631 2.90757 15.1922C3.38459 15.6102 4.03159 15.7771 4.6513 15.6421C4.99092 15.5682 5.3417 15.3489 6.04327 14.9104L6.20489 14.8094C6.63485 14.5407 6.84983 14.4063 7.01829 14.2333C7.22989 14.0158 7.38925 13.7531 7.48431 13.465C7.55999 13.2356 7.57982 12.9829 7.61949 12.4774L8 7.62891Z" stroke="currentColor" stroke-width="1.5" stroke-linecap="round" stroke-linejoin="round"/>
</svg>
