<svg width="24" height="24" viewBox="0 0 24 24" fill="none" xmlns="http://www.w3.org/2000/svg">
<path fill-rule="evenodd" clip-rule="evenodd" d="M3.55893 9.53106C3.76319 4.9413 7.4446 1.25 12 1.25C15.8601 1.25 19.095 3.90344 20.1145 7.50352C22.268 8.52279 23.75 10.7563 23.75 13.3333C23.75 16.8559 20.9727 19.75 17.5 19.75H16.0784L16.4142 19.4142C16.9862 18.8422 17.1573 17.982 16.8478 17.2346C16.5382 16.4873 15.8089 16 15 16H13.8284L14.4142 15.4142C15.1953 14.6332 15.1953 13.3668 14.4142 12.5858C13.6332 11.8047 12.3668 11.8047 11.5858 12.5858L7.58579 16.5858C7.0138 17.1578 6.84268 18.018 7.15225 18.7654C7.32931 19.1928 7.64368 19.5352 8.03173 19.75H5.4C2.53479 19.75 0.25 17.3633 0.25 14.4667C0.25 12.225 1.61442 10.2944 3.55893 9.53106ZM13.5303 14.5303C13.8232 14.2374 13.8232 13.7626 13.5303 13.4697C13.2374 13.1768 12.7626 13.1768 12.4697 13.4697L8.46967 17.4697C8.25517 17.6842 8.191 18.0068 8.30709 18.287C8.42318 18.5673 8.69665 18.75 9 18.75H13.1893L10.4697 21.4697C10.1768 21.7626 10.1768 22.2374 10.4697 22.5303C10.7626 22.8232 11.2374 22.8232 11.5303 22.5303L15.5303 18.5303C15.7448 18.3158 15.809 17.9932 15.6929 17.713C15.5768 17.4327 15.3033 17.25 15 17.25H10.8107L13.5303 14.5303Z" fill="#2F384C"/>
</svg>
