<svg width="24" height="24" viewBox="0 0 24 24" fill="none" xmlns="http://www.w3.org/2000/svg">
<path fill-rule="evenodd" clip-rule="evenodd" d="M23.75 13.3333C23.75 13.2874 23.7495 13.2416 23.7486 13.1959C23.7495 13.1511 23.75 13.1063 23.75 13.0613C23.75 10.5298 22.2594 8.34734 20.1107 7.35337C19.0843 3.82884 15.8445 1.25 12 1.25C7.46613 1.25 3.77223 4.83655 3.55966 9.33328C1.62275 10.0781 0.25 11.9625 0.25 14.1674C0.25 14.217 0.250693 14.2663 0.252071 14.3155C0.250693 14.3658 0.25 14.4161 0.25 14.4667C0.25 17.3633 2.53479 19.75 5.4 19.75H6.93853C6.30828 18.9647 6.35737 17.8142 7.08579 17.0858C7.86684 16.3047 9.13317 16.3047 9.91421 17.0858L10 17.1716V13C10 11.8954 10.8954 11 12 11C13.1046 11 14 11.8954 14 13V17.1716L14.0858 17.0858C14.8668 16.3047 16.1332 16.3047 16.9142 17.0858C17.6426 17.8142 17.6917 18.9647 17.0615 19.75H17.5C20.9727 19.75 23.75 16.8559 23.75 13.3333ZM12.75 13C12.75 12.5858 12.4142 12.25 12 12.25C11.5858 12.25 11.25 12.5858 11.25 13V20.1893L9.03033 17.9697C8.73744 17.6768 8.26256 17.6768 7.96967 17.9697C7.67678 18.2626 7.67678 18.7374 7.96967 19.0303L11.4697 22.5303C11.7626 22.8232 12.2374 22.8232 12.5303 22.5303L16.0303 19.0303C16.3232 18.7374 16.3232 18.2626 16.0303 17.9697C15.7374 17.6768 15.2626 17.6768 14.9697 17.9697L12.75 20.1893V13Z" fill="#2F384C"/>
</svg>
