<svg width="24" height="24" viewBox="0 0 24 24" fill="none" xmlns="http://www.w3.org/2000/svg">
<path fill-rule="evenodd" clip-rule="evenodd" d="M12.5303 1.46967C12.2374 1.17678 11.7626 1.17678 11.4697 1.46967L8.46967 4.46967C8.17678 4.76256 8.17678 5.23744 8.46967 5.53033C8.76256 5.82322 9.23744 5.82322 9.53033 5.53033L11.25 3.81066V9C11.25 9.41421 11.5858 9.75 12 9.75C12.4142 9.75 12.75 9.41421 12.75 9V3.81066L14.4697 5.53033C14.7626 5.82322 15.2374 5.82322 15.5303 5.53033C15.8232 5.23744 15.8232 4.76256 15.5303 4.46967L12.5303 1.46967ZM20.6014 10.4588C20.8943 10.1659 20.8943 9.69105 20.6014 9.39815C20.3085 9.10526 19.8337 9.10526 19.5408 9.39815L17.4194 11.5195C17.1265 11.8124 17.1265 12.2872 17.4194 12.5801C17.7123 12.873 18.1872 12.873 18.4801 12.5801L20.6014 10.4588ZM4.45929 9.39838C4.16639 9.10549 3.69152 9.10549 3.39862 9.39838C3.10573 9.69127 3.10573 10.1661 3.39862 10.459L5.51995 12.5804C5.81284 12.8733 6.28771 12.8733 6.58061 12.5804C6.8735 12.2875 6.8735 11.8126 6.58061 11.5197L4.45929 9.39838ZM2 17.25H6.29847C6.66598 14.4287 9.07855 12.25 12 12.25C14.9214 12.25 17.334 14.4287 17.7015 17.25H22C22.4142 17.25 22.75 17.5858 22.75 18C22.75 18.4142 22.4142 18.75 22 18.75H17H7H2C1.58579 18.75 1.25 18.4142 1.25 18C1.25 17.5858 1.58579 17.25 2 17.25ZM6 21.25C5.58579 21.25 5.25 21.5858 5.25 22C5.25 22.4142 5.58579 22.75 6 22.75H18C18.4142 22.75 18.75 22.4142 18.75 22C18.75 21.5858 18.4142 21.25 18 21.25H6Z" fill="#2F384C"/>
</svg>
