<svg width="24" height="24" viewBox="0 0 24 24" fill="none" xmlns="http://www.w3.org/2000/svg">
<path d="M22 3V21M6.8 17H13.2C14.8802 17 15.7202 17 16.362 16.673C16.9265 16.3854 17.3854 15.9265 17.673 15.362C18 14.7202 18 13.8802 18 12.2V11.8C18 10.1198 18 9.27976 17.673 8.63803C17.3854 8.07354 16.9265 7.6146 16.362 7.32698C15.7202 7 14.8802 7 13.2 7H6.8C5.11984 7 4.27976 7 3.63803 7.32698C3.07354 7.6146 2.6146 8.07354 2.32698 8.63803C2 9.27976 2 10.1198 2 11.8V12.2C2 13.8802 2 14.7202 2.32698 15.362C2.6146 15.9265 3.07354 16.3854 3.63803 16.673C4.27976 17 5.11984 17 6.8 17Z" stroke="currentColor" stroke-width="1.5" stroke-linecap="round" stroke-linejoin="round"/>
</svg>
