<svg width="24" height="24" viewBox="0 0 24 24" fill="none" xmlns="http://www.w3.org/2000/svg">
<path d="M3 22H21M11.8 18H12.2C13.8802 18 14.7202 18 15.362 17.673C15.9265 17.3854 16.3854 16.9265 16.673 16.362C17 15.7202 17 14.8802 17 13.2V6.8C17 5.11984 17 4.27976 16.673 3.63803C16.3854 3.07354 15.9265 2.6146 15.362 2.32698C14.7202 2 13.8802 2 12.2 2H11.8C10.1198 2 9.27976 2 8.63803 2.32698C8.07354 2.6146 7.6146 3.07354 7.32698 3.63803C7 4.27976 7 5.11984 7 6.8V13.2C7 14.8802 7 15.7202 7.32698 16.362C7.6146 16.9265 8.07354 17.3854 8.63803 17.673C9.27976 18 10.1198 18 11.8 18Z" stroke="currentColor" stroke-width="1.5" stroke-linecap="round" stroke-linejoin="round"/>
</svg>
