<svg width="24" height="24" viewBox="0 0 24 24" fill="none" xmlns="http://www.w3.org/2000/svg">
<path d="M2 3L2 21M10.8 17H17.2C18.8802 17 19.7202 17 20.362 16.673C20.9265 16.3854 21.3854 15.9265 21.673 15.362C22 14.7202 22 13.8802 22 12.2V11.8C22 10.1198 22 9.27976 21.673 8.63803C21.3854 8.07354 20.9265 7.6146 20.362 7.32698C19.7202 7 18.8802 7 17.2 7H10.8C9.11984 7 8.27976 7 7.63803 7.32698C7.07354 7.6146 6.6146 8.07354 6.32698 8.63803C6 9.27976 6 10.1198 6 11.8V12.2C6 13.8802 6 14.7202 6.32698 15.362C6.6146 15.9265 7.07354 16.3854 7.63803 16.673C8.27976 17 9.11984 17 10.8 17Z" stroke="currentColor" stroke-width="1.5" stroke-linecap="round" stroke-linejoin="round"/>
</svg>
