<svg width="24" height="24" viewBox="0 0 24 24" fill="none" xmlns="http://www.w3.org/2000/svg">
<path d="M5 12C5 15.866 8.13401 19 12 19L11 17.5M19 12C19 8.13401 15.866 5 12 5L13 6.5M14.5 14.5H11.6C11.0399 14.5 10.7599 14.5 10.546 14.391C10.3578 14.2951 10.2049 14.1422 10.109 13.954C10 13.7401 10 13.4601 10 12.9V10M14.5 14.5V15.5M14.5 14.5H15.5M10 10V9M10 10H9M12 10H12.9C13.4601 10 13.7401 10 13.954 10.109C14.1422 10.2049 14.2951 10.3578 14.391 10.546C14.5 10.7599 14.5 11.0399 14.5 11.6V12.5M10 22H14C16.8003 22 18.2004 22 19.27 21.455C20.2108 20.9757 20.9757 20.2108 21.455 19.27C22 18.2004 22 16.8003 22 14V10C22 7.19974 22 5.79961 21.455 4.73005C20.9757 3.78924 20.2108 3.02433 19.27 2.54497C18.2004 2 16.8003 2 14 2H10C7.19974 2 5.79961 2 4.73005 2.54497C3.78924 3.02433 3.02433 3.78924 2.54497 4.73005C2 5.79961 2 7.19974 2 10V14C2 16.8003 2 18.2004 2.54497 19.27C3.02433 20.2108 3.78924 20.9757 4.73005 21.455C5.79961 22 7.19974 22 10 22Z" stroke="currentColor" stroke-width="1.5" stroke-linecap="round" stroke-linejoin="round"/>
</svg>
