<svg width="24" height="24" viewBox="0 0 24 24" fill="none" xmlns="http://www.w3.org/2000/svg">
<path d="M2 5.2C2 4.07989 2 3.51984 2.21799 3.09202C2.40973 2.71569 2.71569 2.40973 3.09202 2.21799C3.51984 2 4.07989 2 5.2 2H6.8C7.92011 2 8.48016 2 8.90798 2.21799C9.28431 2.40973 9.59027 2.71569 9.78201 3.09202C10 3.51984 10 4.07989 10 5.2V8.8C10 9.92011 10 10.4802 9.78201 10.908C9.59027 11.2843 9.28431 11.5903 8.90798 11.782C8.48016 12 7.92011 12 6.8 12H5.2C4.07989 12 3.51984 12 3.09202 11.782C2.71569 11.5903 2.40973 11.2843 2.21799 10.908C2 10.4802 2 9.92011 2 8.8V5.2Z" stroke="currentColor" stroke-width="1.5" stroke-linecap="round" stroke-linejoin="round"/>
<path d="M2 19C2 18.0681 2 17.6022 2.15224 17.2346C2.35523 16.7446 2.74458 16.3552 3.23463 16.1522C3.60218 16 4.06812 16 5 16H7C7.93188 16 8.39782 16 8.76537 16.1522C9.25542 16.3552 9.64477 16.7446 9.84776 17.2346C10 17.6022 10 18.0681 10 19V19C10 19.9319 10 20.3978 9.84776 20.7654C9.64477 21.2554 9.25542 21.6448 8.76537 21.8478C8.39782 22 7.93188 22 7 22H5C4.06812 22 3.60218 22 3.23463 21.8478C2.74458 21.6448 2.35523 21.2554 2.15224 20.7654C2 20.3978 2 19.9319 2 19V19Z" stroke="currentColor" stroke-width="1.5" stroke-linecap="round" stroke-linejoin="round"/>
<path d="M14 5C14 4.06812 14 3.60218 14.1522 3.23463C14.3552 2.74458 14.7446 2.35523 15.2346 2.15224C15.6022 2 16.0681 2 17 2H19C19.9319 2 20.3978 2 20.7654 2.15224C21.2554 2.35523 21.6448 2.74458 21.8478 3.23463C22 3.60218 22 4.06812 22 5V5C22 5.93188 22 6.39782 21.8478 6.76537C21.6448 7.25542 21.2554 7.64477 20.7654 7.84776C20.3978 8 19.9319 8 19 8H17C16.0681 8 15.6022 8 15.2346 7.84776C14.7446 7.64477 14.3552 7.25542 14.1522 6.76537C14 6.39782 14 5.93188 14 5V5Z" stroke="currentColor" stroke-width="1.5" stroke-linecap="round" stroke-linejoin="round"/>
<path d="M14 15.2C14 14.0799 14 13.5198 14.218 13.092C14.4097 12.7157 14.7157 12.4097 15.092 12.218C15.5198 12 16.0799 12 17.2 12H18.8C19.9201 12 20.4802 12 20.908 12.218C21.2843 12.4097 21.5903 12.7157 21.782 13.092C22 13.5198 22 14.0799 22 15.2V18.8C22 19.9201 22 20.4802 21.782 20.908C21.5903 21.2843 21.2843 21.5903 20.908 21.782C20.4802 22 19.9201 22 18.8 22H17.2C16.0799 22 15.5198 22 15.092 21.782C14.7157 21.5903 14.4097 21.2843 14.218 20.908C14 20.4802 14 19.9201 14 18.8V15.2Z" stroke="currentColor" stroke-width="1.5" stroke-linecap="round" stroke-linejoin="round"/>
</svg>
