<svg width="24" height="24" viewBox="0 0 24 24" fill="none" xmlns="http://www.w3.org/2000/svg">
<path d="M2 5.2C2 4.07989 2 3.51984 2.21799 3.09202C2.40973 2.71569 2.71569 2.40973 3.09202 2.21799C3.51984 2 4.07989 2 5.2 2H18.8C19.9201 2 20.4802 2 20.908 2.21799C21.2843 2.40973 21.5903 2.71569 21.782 3.09202C22 3.51984 22 4.07989 22 5.2V6.8C22 7.92011 22 8.48016 21.782 8.90798C21.5903 9.28431 21.2843 9.59027 20.908 9.78201C20.4802 10 19.9201 10 18.8 10H5.2C4.0799 10 3.51984 10 3.09202 9.78201C2.71569 9.59027 2.40973 9.28431 2.21799 8.90798C2 8.48016 2 7.92011 2 6.8V5.2Z" stroke="currentColor" stroke-width="1.5" stroke-linecap="round" stroke-linejoin="round"/>
<path d="M2 17.2C2 16.0799 2 15.5198 2.21799 15.092C2.40973 14.7157 2.71569 14.4097 3.09202 14.218C3.51984 14 4.0799 14 5.2 14H10.8C11.9201 14 12.4802 14 12.908 14.218C13.2843 14.4097 13.5903 14.7157 13.782 15.092C14 15.5198 14 16.0799 14 17.2V18.8C14 19.9201 14 20.4802 13.782 20.908C13.5903 21.2843 13.2843 21.5903 12.908 21.782C12.4802 22 11.9201 22 10.8 22H5.2C4.07989 22 3.51984 22 3.09202 21.782C2.71569 21.5903 2.40973 21.2843 2.21799 20.908C2 20.4802 2 19.9201 2 18.8V17.2Z" stroke="currentColor" stroke-width="1.5" stroke-linecap="round" stroke-linejoin="round"/>
</svg>
