<svg width="24" height="24" viewBox="0 0 24 24" fill="none" xmlns="http://www.w3.org/2000/svg">
<path d="M2 5.2C2 4.0799 2 3.51984 2.21799 3.09202C2.40973 2.71569 2.71569 2.40973 3.09202 2.21799C3.51984 2 4.07989 2 5.2 2H6.8C7.92011 2 8.48016 2 8.90798 2.21799C9.28431 2.40973 9.59027 2.71569 9.78201 3.09202C10 3.51984 10 4.07989 10 5.2V18.8C10 19.9201 10 20.4802 9.78201 20.908C9.59027 21.2843 9.28431 21.5903 8.90798 21.782C8.48016 22 7.92011 22 6.8 22H5.2C4.07989 22 3.51984 22 3.09202 21.782C2.71569 21.5903 2.40973 21.2843 2.21799 20.908C2 20.4802 2 19.9201 2 18.8V5.2Z" stroke="currentColor" stroke-width="1.5" stroke-linecap="round" stroke-linejoin="round"/>
<path d="M14 5.2C14 4.07989 14 3.51984 14.218 3.09202C14.4097 2.71569 14.7157 2.40973 15.092 2.21799C15.5198 2 16.0799 2 17.2 2H18.8C19.9201 2 20.4802 2 20.908 2.21799C21.2843 2.40973 21.5903 2.71569 21.782 3.09202C22 3.51984 22 4.0799 22 5.2V10.8C22 11.9201 22 12.4802 21.782 12.908C21.5903 13.2843 21.2843 13.5903 20.908 13.782C20.4802 14 19.9201 14 18.8 14H17.2C16.0799 14 15.5198 14 15.092 13.782C14.7157 13.5903 14.4097 13.2843 14.218 12.908C14 12.4802 14 11.9201 14 10.8V5.2Z" stroke="currentColor" stroke-width="1.5" stroke-linecap="round" stroke-linejoin="round"/>
</svg>
