<svg width="24" height="24" viewBox="0 0 24 24" fill="none" xmlns="http://www.w3.org/2000/svg">
<path d="M18 6V18M22 9V15M6.8 21H9.2C10.8802 21 11.7202 21 12.362 20.673C12.9265 20.3854 13.3854 19.9265 13.673 19.362C14 18.7202 14 17.8802 14 16.2V7.8C14 6.11984 14 5.27976 13.673 4.63803C13.3854 4.07354 12.9265 3.6146 12.362 3.32698C11.7202 3 10.8802 3 9.2 3H6.8C5.11984 3 4.27976 3 3.63803 3.32698C3.07354 3.6146 2.6146 4.07354 2.32698 4.63803C2 5.27976 2 6.11984 2 7.8V16.2C2 17.8802 2 18.7202 2.32698 19.362C2.6146 19.9265 3.07354 20.3854 3.63803 20.673C4.27976 21 5.11984 21 6.8 21Z" stroke="currentColor" stroke-width="1.5" stroke-linecap="round" stroke-linejoin="round"/>
</svg>
