<svg width="24" height="24" viewBox="0 0 24 24" fill="none" xmlns="http://www.w3.org/2000/svg">
<path d="M6 18H18M9 22H15M7.8 14H16.2C17.8802 14 18.7202 14 19.362 13.673C19.9265 13.3854 20.3854 12.9265 20.673 12.362C21 11.7202 21 10.8802 21 9.2V6.8C21 5.11984 21 4.27976 20.673 3.63803C20.3854 3.07354 19.9265 2.6146 19.362 2.32698C18.7202 2 17.8802 2 16.2 2H7.8C6.11984 2 5.27976 2 4.63803 2.32698C4.07354 2.6146 3.6146 3.07354 3.32698 3.63803C3 4.27976 3 5.11984 3 6.8V9.2C3 10.8802 3 11.7202 3.32698 12.362C3.6146 12.9265 4.07354 13.3854 4.63803 13.673C5.27976 14 6.11984 14 7.8 14Z" stroke="currentColor" stroke-width="1.5" stroke-linecap="round" stroke-linejoin="round"/>
</svg>
