<svg width="24" height="24" viewBox="0 0 24 24" fill="none" xmlns="http://www.w3.org/2000/svg">
<path fill-rule="evenodd" clip-rule="evenodd" d="M2.80077 5.11877C2.75423 5.041 2.75028 5.00297 2.75001 4.99951C2.75053 4.98136 2.77952 4.78313 3.27382 4.46008C3.73485 4.15877 4.43927 3.86072 5.34425 3.5992C7.14439 3.079 9.57288 2.75 12 2.75C14.4271 2.75 16.8556 3.079 18.6557 3.5992C19.5607 3.86072 20.2652 4.15877 20.7262 4.46008C21.2254 4.78636 21.25 4.98532 21.25 5C21.25 5.04093 21.2177 5.21121 20.9394 5.4885C20.6742 5.7527 20.2539 6.04214 19.6813 6.3109C18.5402 6.8465 16.9005 7.25 15 7.25C14.5858 7.25 14.25 7.58579 14.25 8V22C14.25 22.4142 14.5858 22.75 15 22.75C17.0854 22.75 18.9438 22.3603 20.3078 21.7464C20.9882 21.4403 21.5761 21.0646 22.005 20.6259C22.432 20.1892 22.75 19.6364 22.75 19V5C22.75 4.18625 22.1459 3.596 21.5468 3.20445C20.9095 2.78793 20.0459 2.43954 19.0722 2.15816C17.115 1.59257 14.5434 1.25 12 1.25C9.45656 1.25 6.88505 1.59257 4.92783 2.15816C3.95413 2.43954 3.09053 2.78793 2.45321 3.20445C1.85411 3.596 1.25 4.18625 1.25 5V19C1.25 19.7129 1.71355 20.2792 2.19174 20.6777C2.6937 21.096 3.36343 21.459 4.09103 21.7567C5.54759 22.3525 7.39376 22.75 9 22.75C9.41421 22.75 9.75 22.4142 9.75 22V8C9.75 7.58579 9.41421 7.25 9 7.25C7.36042 7.25 5.71439 6.85087 4.49358 6.30513C3.88177 6.03164 3.40851 5.7354 3.10163 5.46085C2.9489 5.32422 2.85399 5.20769 2.80077 5.11877Z" fill="#2F384C"/>
</svg>
