<svg width="24" height="24" viewBox="0 0 24 24" fill="none" xmlns="http://www.w3.org/2000/svg">
<g clip-path="url(#clip0_2546_11488)">
<path d="M15.5778 4.47842C14.4262 2.17538 13.8505 1.02386 13.0714 0.654343C12.3933 0.332776 11.6067 0.332776 10.9287 0.654343C10.1496 1.02386 9.57386 2.17538 8.42234 4.47842L3.42695 14.4692C1.55385 18.2154 0.617304 20.0885 0.931059 21.0607C1.20188 21.8998 1.89475 22.5342 2.75447 22.7303C3.75046 22.9574 5.53399 21.8598 9.10105 19.6647L9.90366 19.1708C10.6648 18.7024 11.0454 18.4681 11.4529 18.3768C11.8132 18.2959 12.1869 18.2959 12.5472 18.3768C12.9547 18.4681 13.3353 18.7024 14.0964 19.1708L14.899 19.6647C18.4661 21.8598 20.2496 22.9574 21.2456 22.7303C22.1053 22.5342 22.7982 21.8998 23.069 21.0607C23.3828 20.0885 22.4462 18.2154 20.5731 14.4692L15.5778 4.47842Z" fill="#2F384C"/>
</g>
<defs>
<clipPath id="clip0_2546_11488">
<rect width="24" height="24" fill="white"/>
</clipPath>
</defs>
</svg>
