<svg width="24" height="24" viewBox="0 0 24 24" fill="none" xmlns="http://www.w3.org/2000/svg">
<path d="M1.25 5.77729C1.25 5.43176 1.25 5.259 1.30122 5.10519C1.34652 4.96912 1.42057 4.84439 1.51832 4.73946C1.62883 4.62085 1.7805 4.53812 2.08384 4.37266L4.88384 2.84539C5.66319 2.42029 6.05287 2.20774 6.3714 2.24669C6.64936 2.28069 6.90033 2.42967 7.06327 2.65741C7.25 2.91839 7.25 3.36227 7.25 4.25002V19.0408C7.25 19.3864 7.25 19.5591 7.19878 19.713C7.15348 19.849 7.07943 19.9737 6.98168 20.0787C6.87117 20.1973 6.7195 20.28 6.41616 20.4455L3.61616 21.9728C2.83681 22.3979 2.44713 22.6104 2.1286 22.5714C1.85064 22.5375 1.59967 22.3885 1.43673 22.1607C1.25 21.8997 1.25 21.4559 1.25 20.5681V5.77729Z" fill="#2F384C"/>
<path d="M15.25 20.1202C15.25 20.9178 15.25 21.3166 15.0822 21.5684C14.9355 21.7886 14.7075 21.9417 14.4481 21.9941C14.1515 22.0541 13.7824 21.9031 13.0442 21.6011L9.74419 20.2511C9.38503 20.1042 9.20546 20.0307 9.07345 19.9094C8.95681 19.8023 8.86729 19.6689 8.81226 19.5204C8.75 19.3523 8.75 19.1583 8.75 18.7702V3.87972C8.75 3.08215 8.75 2.68337 8.9178 2.43152C9.06452 2.21131 9.29254 2.05823 9.5519 2.00582C9.84854 1.94587 10.2176 2.09686 10.9558 2.39884L14.2558 3.74884C14.615 3.89577 14.7945 3.96923 14.9265 4.09051C15.0432 4.19767 15.1327 4.33102 15.1877 4.47956C15.25 4.64765 15.25 4.84167 15.25 5.22972V20.1202Z" fill="#2F384C"/>
<path d="M16.75 19.7499C16.75 20.6377 16.75 21.0816 16.9367 21.3425C17.0997 21.5703 17.3506 21.7193 17.6286 21.7533C17.9471 21.7922 18.3368 21.5797 19.1162 21.1546L21.9162 19.6273C22.2195 19.4618 22.3712 19.3791 22.4817 19.2605C22.5794 19.1556 22.6535 19.0308 22.6988 18.8948C22.75 18.741 22.75 18.5682 22.75 18.2227V3.43184C22.75 2.54409 22.75 2.10021 22.5633 1.83923C22.4003 1.61149 22.1494 1.4625 21.8714 1.42851C21.5529 1.38955 21.1632 1.6021 20.3838 2.02721L17.5838 3.55448C17.2805 3.71994 17.1288 3.80267 17.0183 3.92128C16.9206 4.02621 16.8465 4.15094 16.8012 4.287C16.75 4.44082 16.75 4.61358 16.75 4.95911V19.7499Z" fill="#2F384C"/>
</svg>
