<svg width="24" height="24" viewBox="0 0 24 24" fill="none" xmlns="http://www.w3.org/2000/svg">
<path fill-rule="evenodd" clip-rule="evenodd" d="M12.748 11.9444C15.1546 11.5834 17 9.50722 17 7C17 4.23858 14.7614 2 12 2C9.23858 2 7 4.23858 7 7C7 9.50722 8.84541 11.5834 11.252 11.9444C11.2507 11.9628 11.25 11.9813 11.25 12V18C11.25 18.4142 11.5858 18.75 12 18.75C12.4142 18.75 12.75 18.4142 12.75 18V12C12.75 11.9813 12.7493 11.9628 12.748 11.9444ZM7.15391 14.734C7.55931 14.649 7.81904 14.2515 7.73404 13.8461C7.64903 13.4407 7.25148 13.181 6.84609 13.266C5.13419 13.6249 3.7643 14.1901 2.80491 14.9359C1.83474 15.6901 1.25 16.6632 1.25 17.7807C1.25 18.6211 1.65685 19.3562 2.25617 19.954C2.85259 20.549 3.67771 21.0503 4.63737 21.4552C6.55971 22.2663 9.16326 22.75 12 22.75C14.8367 22.75 17.4403 22.2663 19.3626 21.4552C20.3223 21.0503 21.1474 20.549 21.7438 19.954C22.3431 19.3562 22.75 18.6211 22.75 17.7807C22.75 16.6632 22.1653 15.6901 21.1951 14.9359C20.2357 14.1901 18.8658 13.6249 17.1539 13.266C16.7485 13.181 16.351 13.4407 16.266 13.8461C16.181 14.2515 16.4407 14.649 16.8461 14.734C18.4269 15.0655 19.557 15.5624 20.2744 16.1201C20.9811 16.6695 21.25 17.2416 21.25 17.7807C21.25 18.1054 21.0972 18.4803 20.6845 18.8921C20.2688 19.3067 19.6295 19.7146 18.7795 20.0732C17.0826 20.7892 14.6861 21.25 12 21.25C9.31389 21.25 6.91744 20.7892 5.22049 20.0732C4.37051 19.7146 3.73117 19.3067 3.31553 18.8921C2.90279 18.4803 2.75 18.1054 2.75 17.7807C2.75 17.2416 3.01891 16.6695 3.72556 16.1201C4.443 15.5624 5.57311 15.0655 7.15391 14.734Z" fill="#2F384C"/>
</svg>
