<svg width="24" height="24" viewBox="0 0 24 24" fill="none" xmlns="http://www.w3.org/2000/svg">
<path fill-rule="evenodd" clip-rule="evenodd" d="M2.25 10.5C2.25 5.03039 6.64344 1.25 12 1.25C17.3566 1.25 21.75 5.03039 21.75 10.5C21.75 14.6709 19.8844 17.7331 17.7656 19.739C16.7091 20.7393 15.5844 21.4828 14.5831 21.9791C13.6066 22.4631 12.6707 22.7498 12 22.7498C11.3293 22.7498 10.3934 22.4631 9.41692 21.9791C8.41559 21.4828 7.29094 20.7393 6.23437 19.739C4.1156 17.7331 2.25 14.6709 2.25 10.5ZM16.5303 9.53033C16.8232 9.23744 16.8232 8.76256 16.5303 8.46967C16.2374 8.17678 15.7626 8.17678 15.4697 8.46967L11 12.9393L9.53033 11.4697C9.23744 11.1768 8.76256 11.1768 8.46967 11.4697C8.17678 11.7626 8.17678 12.2374 8.46967 12.5303L10.4697 14.5303C10.7626 14.8232 11.2374 14.8232 11.5303 14.5303L16.5303 9.53033Z" fill="#2F384C"/>
</svg>
