<svg width="24" height="24" viewBox="0 0 24 24" fill="none" xmlns="http://www.w3.org/2000/svg">
<path fill-rule="evenodd" clip-rule="evenodd" d="M15.1817 1.2724C14.9577 1.21639 14.7203 1.26672 14.5383 1.40885C14.3562 1.55098 14.2498 1.76906 14.2498 2.00001V14V22C14.2498 22.4142 14.5856 22.75 14.9998 22.75C15.4141 22.75 15.7498 22.4142 15.7498 22V14.4635L17.5663 13.5553L17.6633 13.5069C18.2103 13.2339 18.6399 13.0196 18.9645 12.6882C19.2497 12.397 19.4666 12.046 19.5995 11.6606C19.7508 11.2221 19.7504 10.742 19.7499 10.1307L19.7498 10.0223V5.49849L19.7499 5.36131C19.7507 4.60383 19.7513 4.01073 19.5352 3.49637C19.3458 3.04554 19.0396 2.65337 18.6481 2.36028C18.2015 2.02588 17.626 1.8826 16.891 1.69961L16.7579 1.66643L15.1817 1.2724ZM4.74984 2.00001C4.74984 1.58579 4.41406 1.25001 3.99984 1.25001C3.58563 1.25001 3.24984 1.58579 3.24984 2.00001V7.28742L3.2498 7.38119C3.24941 7.91549 3.2491 8.33556 3.36851 8.72875C3.47356 9.07467 3.64579 9.39648 3.87534 9.67578C4.13626 9.99323 4.48595 10.226 4.93073 10.522L5.00878 10.574L6.24984 11.4014V22C6.24984 22.4142 6.58563 22.75 6.99984 22.75C7.41406 22.75 7.74984 22.4142 7.74984 22V11.4014L8.99091 10.574L9.06897 10.522C9.51374 10.226 9.86343 9.99323 10.1243 9.67578C10.3539 9.39648 10.5261 9.07467 10.6312 8.72875C10.7506 8.33556 10.7503 7.91549 10.7499 7.3812V7.38119L10.7498 7.28742V2.00001C10.7498 1.58579 10.4141 1.25001 9.99984 1.25001C9.58563 1.25001 9.24984 1.58579 9.24984 2.00001V7.28742C9.24984 7.96026 9.2422 8.14042 9.19591 8.29287C9.14816 8.45011 9.06987 8.59639 8.96553 8.72334C8.86436 8.84643 8.7187 8.95272 8.15886 9.32594L7.74984 9.59862V2.00001C7.74984 1.58579 7.41406 1.25001 6.99984 1.25001C6.58563 1.25001 6.24984 1.58579 6.24984 2.00001V9.59862L5.84083 9.32594C5.28099 8.95272 5.13533 8.84643 5.03416 8.72334C4.92982 8.59639 4.85153 8.45011 4.80378 8.29287C4.75748 8.14042 4.74984 7.96026 4.74984 7.28742V2.00001Z" fill="#2F384C"/>
</svg>
