<svg width="24" height="24" viewBox="0 0 24 24" fill="none" xmlns="http://www.w3.org/2000/svg">
<path fill-rule="evenodd" clip-rule="evenodd" d="M4.75009 2C4.75009 1.58579 4.4143 1.25 4.00009 1.25C3.58588 1.25 3.25009 1.58579 3.25009 2V7.28741L3.25004 7.38118C3.24965 7.91548 3.24935 8.33556 3.36875 8.72874C3.47381 9.07466 3.64604 9.39648 3.87559 9.67577C4.1365 9.99322 4.48619 10.226 4.93097 10.522L5.00902 10.574L6.25009 11.4014V22C6.25009 22.4142 6.58588 22.75 7.00009 22.75C7.4143 22.75 7.75009 22.4142 7.75009 22V11.4014L8.99116 10.574L9.06921 10.522C9.51399 10.226 9.86368 9.99322 10.1246 9.67577C10.3541 9.39648 10.5264 9.07466 10.6314 8.72874C10.7508 8.33556 10.7505 7.91549 10.7501 7.38119V7.38118L10.7501 7.28741V2C10.7501 1.58579 10.4143 1.25 10.0001 1.25C9.58588 1.25 9.25009 1.58579 9.25009 2V7.28741C9.25009 7.96025 9.24245 8.14041 9.19615 8.29286C9.1484 8.4501 9.07011 8.59638 8.96577 8.72333C8.8646 8.84642 8.71894 8.95271 8.1591 9.32594L7.75009 9.59861V2C7.75009 1.58579 7.4143 1.25 7.00009 1.25C6.58588 1.25 6.25009 1.58579 6.25009 2V9.59861L5.84107 9.32594C5.28124 8.95271 5.13557 8.84642 5.03441 8.72333C4.93007 8.59638 4.85178 8.4501 4.80403 8.29286C4.75773 8.14041 4.75009 7.96025 4.75009 7.28741V2ZM17.7501 2C17.7501 1.58579 17.4143 1.25 17.0001 1.25C16.5859 1.25 16.2501 1.58579 16.2501 2V13.3392C15.4339 13.5317 14.6697 14.0212 14.0776 14.663C13.2975 15.5084 12.7501 16.6851 12.7501 18C12.7501 19.3149 13.2975 20.4916 14.0776 21.337C14.8484 22.1725 15.9109 22.75 17.0001 22.75C18.0892 22.75 19.1518 22.1725 19.9226 21.337C20.7027 20.4916 21.2501 19.3149 21.2501 18C21.2501 16.6851 20.7027 15.5084 19.9226 14.663C19.3305 14.0212 18.5663 13.5317 17.7501 13.3392V2Z" fill="#2F384C"/>
</svg>
