<svg width="24" height="24" viewBox="0 0 24 24" fill="none" xmlns="http://www.w3.org/2000/svg">
<path fill-rule="evenodd" clip-rule="evenodd" d="M9.0559 3.94412C8.14666 3.03488 7.03408 2.41204 5.86379 2.27721C4.66903 2.13957 3.47935 2.52061 2.5 3.49997C1.52064 4.47932 1.13958 5.669 1.27721 6.86375C1.41202 8.03404 2.03484 9.14662 2.94408 10.0559C3.85333 10.9651 4.96593 11.588 6.13623 11.7228C7.10684 11.8346 8.07411 11.6041 8.92798 10.9886L9.93937 12L8.46969 13.4697L1.4697 20.4697C1.1768 20.7626 1.1768 21.2374 1.4697 21.5303C1.76259 21.8232 2.23746 21.8232 2.53036 21.5303L9.53035 14.5303L11 13.0607L16.1697 18.2303L19.4697 21.5303C19.7626 21.8232 20.2375 21.8232 20.5304 21.5303C20.8232 21.2374 20.8232 20.7626 20.5304 20.4697L17.2304 17.1697L11.7304 11.6697L11.5304 11.4697L9.98864 9.92795C10.6041 9.07409 10.8346 8.10684 10.7228 7.13624C10.588 5.96595 9.96514 4.85336 9.0559 3.94412ZM20.5304 2.46967C20.2375 2.17678 19.7626 2.17678 19.4697 2.46967L12.4697 9.46967C12.1768 9.76256 12.1768 10.2374 12.4697 10.5303L15.4697 13.5303C15.7626 13.8232 16.2375 13.8232 16.5304 13.5303L21.2676 8.79307L21.2892 8.77153C21.6669 8.39384 21.9821 8.07859 22.2186 7.80001C22.4653 7.50944 22.67 7.20979 22.787 6.8498C22.9665 6.29748 22.9665 5.70252 22.787 5.1502C22.67 4.79021 22.4653 4.49056 22.2186 4.2C21.9821 3.92143 21.6669 3.6062 21.2892 3.22855L21.2892 3.22847L21.2676 3.20693L20.5304 2.46967Z" fill="#2F384C"/>
</svg>
