<svg width="24" height="24" viewBox="0 0 24 24" fill="none" xmlns="http://www.w3.org/2000/svg">
<path d="M15.7458 1C15.7458 0.791558 15.659 0.592517 15.5064 0.450618C15.3537 0.308719 15.1488 0.236764 14.9409 0.252011C13.743 0.339876 12.3902 0.977003 11.587 1.77131C10.7002 2.63928 10.1561 3.78079 10.2633 5.05538C10.2944 5.42456 10.5904 5.71574 10.96 5.74077C12.3343 5.83381 13.5537 5.22079 14.5118 4.25096L14.5197 4.24287C15.1895 3.54419 15.5066 2.8434 15.647 2.23734C15.7641 1.73164 15.7528 1.29185 15.7474 1.0825C15.7465 1.04882 15.7458 1.02106 15.7458 1Z" fill="#2F384C"/>
<path d="M14.9742 6.26346C14.0522 6.18938 13.1353 6.4366 12.4385 6.6629C12.2605 6.72073 12.0914 6.77915 11.9376 6.8326L11.8816 6.85206C11.7483 6.89845 11.6298 6.93966 11.5206 6.97567C11.3957 7.01681 11.298 7.04609 11.2214 7.06473C11.1628 7.07898 11.1336 7.08266 11.1262 7.0836C11.1251 7.08374 11.1245 7.08382 11.1243 7.08386C11.0823 7.0829 10.9654 7.06425 10.7309 6.99362C10.5716 6.94566 10.4018 6.88804 10.2087 6.82249C10.1239 6.79371 10.0346 6.76339 9.93971 6.7317C9.36386 6.53937 8.60615 6.30224 7.89362 6.30224L7.88067 6.30236C6.51329 6.32596 5.10206 6.84468 4.02882 7.89421C2.94555 8.95354 2.25 10.5109 2.25 12.5238C2.25 13.6752 2.43361 14.8739 2.89153 16.1142C3.18966 16.9339 3.8489 18.3041 4.70982 19.4737C5.14106 20.0595 5.64441 20.6248 6.20376 21.044C6.75595 21.4579 7.42317 21.7738 8.16373 21.7486C8.79447 21.7454 9.34264 21.54 9.78208 21.3753C9.82185 21.3604 9.86075 21.3458 9.89871 21.3317C10.3832 21.1523 10.8211 21.0081 11.383 21.0081C11.9173 21.0081 12.3181 21.1481 12.7985 21.3299L12.8698 21.3569C13.3294 21.5316 13.9007 21.7487 14.617 21.7487C15.3458 21.7487 16 21.4539 16.5501 21.0548C17.1002 20.6558 17.5869 20.1238 18 19.5702C18.8239 18.4661 19.4333 17.1696 19.7111 16.3415C19.8328 15.9786 19.6617 15.5822 19.314 15.4219C17.0393 14.3731 17.107 12.4527 17.1115 12.3243L17.1117 12.3181C17.1117 11.6829 17.2605 11.1639 17.5367 10.7175C17.8166 10.2651 18.2522 9.84772 18.8824 9.46005C19.0604 9.35052 19.1846 9.17167 19.2251 8.96661C19.2656 8.76155 19.2187 8.54888 19.0957 8.37989C18.1302 7.05334 16.7143 6.4 14.9742 6.26346Z" fill="#2F384C"/>
</svg>
