<svg width="24" height="24" viewBox="0 0 24 24" fill="none" xmlns="http://www.w3.org/2000/svg">
<path fill-rule="evenodd" clip-rule="evenodd" d="M4.25305 1.84946C5.42957 1.25 6.96971 1.25 10.05 1.25H13.95C17.0303 1.25 18.5704 1.25 19.7469 1.84946C20.7818 2.37677 21.6232 3.21816 22.1505 4.25305C22.75 5.42957 22.75 6.96971 22.75 10.05V13.95C22.75 17.0303 22.75 18.5704 22.1505 19.7469C21.6232 20.7818 20.7818 21.6232 19.7469 22.1505C18.5704 22.75 17.0303 22.75 13.95 22.75H10.05C6.96971 22.75 5.42957 22.75 4.25305 22.1505C3.21816 21.6232 2.37677 20.7818 1.84946 19.7469C1.25 18.5704 1.25 17.0303 1.25 13.95V10.05C1.25 6.96971 1.25 5.42957 1.84946 4.25305C2.37677 3.21816 3.21816 2.37677 4.25305 1.84946ZM13.8431 6.38587C14.0562 6.03069 13.9411 5.56999 13.5859 5.35688C13.2307 5.14377 12.77 5.25894 12.5569 5.61413L12 6.54226L11.4431 5.61413C11.23 5.25894 10.7693 5.14377 10.4141 5.35688C10.0589 5.56999 9.94377 6.03069 10.1569 6.38587L11.1254 8L7.9122 13.3553H6C5.58579 13.3553 5.25 13.691 5.25 14.1053C5.25 14.5195 5.58579 14.8553 6 14.8553H8.33684H13C13.4142 14.8553 13.75 14.5195 13.75 14.1053C13.75 13.691 13.4142 13.3553 13 13.3553H9.66149L12.6431 8.38587L13.8431 6.38587ZM14.1431 10.1141C13.93 9.75894 13.4693 9.64377 13.1141 9.85688C12.7589 10.07 12.6438 10.5307 12.8569 10.8859L15.02 14.4911L16.7569 17.3859C16.97 17.7411 17.4307 17.8562 17.7859 17.6431C18.1411 17.43 18.2562 16.9693 18.0431 16.6141L16.9878 14.8553H18C18.4142 14.8553 18.75 14.5195 18.75 14.1053C18.75 13.691 18.4142 13.3553 18 13.3553H16.0878L14.1431 10.1141ZM7.84312 16.3859C8.05623 16.0307 7.94106 15.57 7.58587 15.3569C7.23069 15.1438 6.76999 15.2589 6.55688 15.6141L5.95688 16.6141C5.74377 16.9693 5.85894 17.43 6.21413 17.6431C6.56931 17.8562 7.03001 17.7411 7.24312 17.3859L7.84312 16.3859Z" fill="#2F384C"/>
</svg>
