<svg width="24" height="24" viewBox="0 0 24 24" fill="none" xmlns="http://www.w3.org/2000/svg">
<path d="M3.3598 3.91417C3.39516 3.7142 3.41285 3.61422 3.55038 3.49756C3.6472 3.41544 3.85885 3.36323 3.98275 3.39089C4.15876 3.43019 4.24472 3.54122 4.41665 3.76329L10.4143 11.5102C10.5499 11.6855 10.6178 11.7731 10.6438 11.8697C10.6669 11.955 10.6669 12.0449 10.6438 12.1302C10.6178 12.2269 10.5499 12.3145 10.4143 12.4897L4.41665 20.2367C4.24472 20.4587 4.15876 20.5698 3.98275 20.6091C3.85885 20.6367 3.6472 20.5845 3.55038 20.5024C3.41285 20.3857 3.39516 20.2858 3.3598 20.0858C3.33369 19.9382 3.31507 19.7867 3.30094 19.6327C3.24998 19.0773 3.24999 18.366 3.25 17.4878V6.51212C3.24999 5.63394 3.24998 4.92266 3.30094 4.36727C3.31507 4.21327 3.33369 4.0618 3.3598 3.91417Z" fill="#2F384C"/>
<path d="M5.71484 1.7337C5.65656 1.73977 5.62742 1.74281 5.55334 1.77648C5.35425 1.86696 5.21606 2.19014 5.28819 2.39659C5.31503 2.47342 5.35003 2.51863 5.42004 2.60905L11.1094 9.95775C11.3248 10.236 11.4325 10.3751 11.5636 10.4252C11.6784 10.469 11.8054 10.469 11.9203 10.4252C12.0514 10.3751 12.1591 10.236 12.3745 9.95775L14.4744 7.24539C14.6678 6.99558 14.7645 6.87068 14.7837 6.74138C14.8006 6.62785 14.7778 6.51199 14.7194 6.41323C14.6528 6.30074 14.5161 6.2216 14.2427 6.06331L9.14614 3.1127C8.38613 2.67268 7.77059 2.3163 7.2644 2.08212C6.75453 1.84624 6.24389 1.67854 5.71484 1.7337V1.7337Z" fill="#2F384C"/>
<path d="M16.9498 7.63058C16.7353 7.50641 16.628 7.44433 16.5191 7.43408C16.423 7.42505 16.3265 7.44399 16.2409 7.48861C16.1439 7.53924 16.0681 7.63722 15.9163 7.83318L13.0696 11.5102C12.9339 11.6855 12.8661 11.7731 12.84 11.8697C12.817 11.955 12.817 12.0449 12.84 12.1302C12.8661 12.2269 12.9339 12.3145 13.0696 12.4897L15.9163 16.1668C16.0681 16.3627 16.1439 16.4607 16.2409 16.5113C16.3265 16.556 16.423 16.5749 16.5191 16.5659C16.628 16.5556 16.7353 16.4935 16.9498 16.3694L18.6252 15.3994C19.3825 14.961 19.9959 14.6058 20.4496 14.2845C20.9068 13.9606 21.3054 13.6023 21.5211 13.1173C21.8373 12.406 21.8373 11.594 21.5211 10.8827C21.3054 10.3977 20.9068 10.0393 20.4496 9.7155C19.9959 9.39411 19.3824 9.03896 18.6252 8.60057L16.9498 7.63058Z" fill="#2F384C"/>
<path d="M14.2427 17.9366C14.5161 17.7784 14.6528 17.6992 14.7194 17.5867C14.7778 17.488 14.8006 17.3721 14.7837 17.2586C14.7645 17.1293 14.6678 17.0044 14.4744 16.7546L12.3745 14.0422C12.1591 13.764 12.0514 13.6248 11.9203 13.5748C11.8054 13.5309 11.6784 13.5309 11.5636 13.5748C11.4325 13.6248 11.3248 13.764 11.1094 14.0422L5.42004 21.3909C5.35003 21.4813 5.31503 21.5265 5.28819 21.6034C5.21606 21.8098 5.35425 22.133 5.55333 22.2235C5.62742 22.2571 5.65656 22.2602 5.71484 22.2663V22.2663C6.24389 22.3214 6.75453 22.1537 7.2644 21.9178C7.77061 21.6836 8.38618 21.3273 9.14622 20.8872L14.2427 17.9366Z" fill="#2F384C"/>
</svg>
