<svg width="24" height="24" viewBox="0 0 24 24" fill="none" xmlns="http://www.w3.org/2000/svg">
<path fill-rule="evenodd" clip-rule="evenodd" d="M4.25305 1.84946C5.42957 1.25 6.96971 1.25 10.05 1.25H13.95C17.0303 1.25 18.5704 1.25 19.7469 1.84946C20.7818 2.37677 21.6232 3.21816 22.1505 4.25305C22.75 5.42957 22.75 6.96971 22.75 10.05V13.95C22.75 17.0303 22.75 18.5704 22.1505 19.7469C21.6232 20.7818 20.7818 21.6232 19.7469 22.1505C18.5704 22.75 17.0303 22.75 13.95 22.75H10.05C6.96971 22.75 5.42957 22.75 4.25305 22.1505C3.21816 21.6232 2.37677 20.7818 1.84946 19.7469C1.25 18.5704 1.25 17.0303 1.25 13.95V10.05C1.25 6.96971 1.25 5.42957 1.84946 4.25305C2.37677 3.21816 3.21816 2.37677 4.25305 1.84946ZM7 7.25C6.58579 7.25 6.25 7.58579 6.25 8V13V16C6.25 16.4142 6.58579 16.75 7 16.75C7.41421 16.75 7.75 16.4142 7.75 16V13.75H9.5C11.2949 13.75 12.75 12.2949 12.75 10.5C12.75 8.70507 11.2949 7.25 9.5 7.25H7ZM9.5 12.25H7.75V8.75H9.5C10.4665 8.75 11.25 9.5335 11.25 10.5C11.25 11.4665 10.4665 12.25 9.5 12.25ZM15.1945 12.1699C15.1945 11.9829 15.371 11.75 15.6923 11.75H16.4826C16.7012 11.75 16.9018 11.8319 17.0426 11.9638C17.3448 12.2471 17.8194 12.2318 18.1027 11.9296C18.386 11.6275 18.3707 11.1528 18.0685 10.8695C17.6401 10.4679 17.0689 10.25 16.4826 10.25H15.6923C14.6353 10.25 13.6945 11.0647 13.6945 12.1699C13.6945 13.0854 14.3544 13.8325 15.2185 14.0351L16.8836 14.4253C17.1305 14.4832 17.25 14.6719 17.25 14.8301C17.25 15.0171 17.0734 15.25 16.7521 15.25H15.4382C15.0881 15.25 14.7955 15.0645 14.6618 14.8137C14.4668 14.4482 14.0125 14.31 13.6471 14.5049C13.2816 14.6998 13.1433 15.1541 13.3382 15.5196C13.7492 16.2902 14.5702 16.75 15.4382 16.75H16.7521C17.8092 16.75 18.75 15.9353 18.75 14.8301C18.75 13.9146 18.0901 13.1675 17.2259 12.9649L15.5608 12.5747C15.3139 12.5168 15.1945 12.3281 15.1945 12.1699Z" fill="#2F384C"/>
</svg>
