<svg width="24" height="24" viewBox="0 0 24 24" fill="none" xmlns="http://www.w3.org/2000/svg">
<path fill-rule="evenodd" clip-rule="evenodd" d="M1.25 12C1.25 6.06294 6.06294 1.25 12 1.25C17.9371 1.25 22.75 6.06294 22.75 12C22.75 17.9371 17.9371 22.75 12 22.75C10.8981 22.75 9.8349 22.5842 8.83402 22.2762L10.2917 16.7164C13.8451 18.2362 18.25 15.7304 18.25 11.5C18.25 8.27186 15.4271 5.69446 11.9999 5.69446C10.0375 5.69446 8.20047 6.54931 7.02501 7.93568C5.83515 9.33904 5.33652 11.2778 6.07 13.3392C6.20886 13.7295 6.63778 13.9333 7.02803 13.7944C7.41827 13.6555 7.62207 13.2266 7.48321 12.8364C6.94009 11.31 7.30316 9.92709 8.16913 8.90573C9.04951 7.86738 10.4624 7.19446 11.9999 7.19446C14.7084 7.19446 16.75 9.20593 16.75 11.5C16.75 14.6623 13.3356 16.5593 10.6763 15.2425L11.7261 11.188C11.8299 10.787 11.589 10.3778 11.188 10.2739C10.787 10.1701 10.3778 10.411 10.2739 10.812L9.08208 15.4155L9.0815 15.4177L7.4262 21.7313C3.77635 20.0128 1.25 16.3014 1.25 12Z" fill="#2F384C"/>
</svg>
