<svg width="24" height="24" viewBox="0 0 24 24" fill="none" xmlns="http://www.w3.org/2000/svg">
<path fill-rule="evenodd" clip-rule="evenodd" d="M1.25 12C1.25 6.06294 6.06294 1.25 12 1.25C17.9371 1.25 22.75 6.06294 22.75 12C22.75 17.9371 17.9371 22.75 12 22.75C6.06294 22.75 1.25 17.9371 1.25 12ZM10 6.25C9.58579 6.25 9.25 6.58579 9.25 7V13V17C9.25 17.4142 9.58579 17.75 10 17.75C10.4142 17.75 10.75 17.4142 10.75 17V13.75H13C15.0711 13.75 16.75 12.0711 16.75 10C16.75 7.92893 15.0711 6.25 13 6.25H10ZM13 12.25H10.75V7.75H13C14.2426 7.75 15.25 8.75736 15.25 10C15.25 11.2426 14.2426 12.25 13 12.25Z" fill="#2F384C"/>
</svg>
