<svg width="24" height="24" viewBox="0 0 24 24" fill="none" xmlns="http://www.w3.org/2000/svg">
<path fill-rule="evenodd" clip-rule="evenodd" d="M10.9934 2.25H8.02501C7.14501 2.25 6.70501 2.25 6.30116 2.36534C5.94348 2.46749 5.60791 2.63527 5.31158 2.86013C4.977 3.114 4.713 3.466 4.18501 4.17L2.86974 5.92369C2.03743 7.03344 1.62127 7.58832 1.47662 8.19299C1.47201 8.21225 1.4676 8.23155 1.46338 8.25088C1.47552 8.2503 1.48774 8.25 1.50002 8.25H7.56478L10.9934 2.25ZM1.51993 9.75C1.52557 9.76887 1.5314 9.7877 1.53742 9.80649C1.72716 10.3986 2.1839 10.9205 3.09738 11.9645L9.59176 19.3867C10.3394 20.2411 10.7509 20.7114 11.1843 20.9245L7.45946 9.75H1.51993ZM12.8158 20.9245C13.2492 20.7113 13.6607 20.241 14.4083 19.3867L20.9026 11.9645L20.9027 11.9645C21.8161 10.9205 22.2729 10.3986 22.4626 9.80649C22.4686 9.7877 22.4744 9.76887 22.4801 9.75H16.5406L12.8158 20.9245ZM22.5366 8.25088C22.5324 8.23155 22.528 8.21225 22.5234 8.19299C22.3787 7.58832 21.9626 7.03344 21.1303 5.92368L19.815 4.17L19.815 4.16999C19.287 3.466 19.023 3.114 18.6884 2.86013C18.3921 2.63527 18.0565 2.46749 17.6989 2.36534C17.295 2.25 16.855 2.25 15.975 2.25H13.0067L16.4353 8.25H22.5C22.5123 8.25 22.5245 8.25029 22.5366 8.25088ZM12 18.6283L9.04059 9.75H14.9595L12 18.6283ZM12 3.51167L9.29241 8.25H14.7076L12 3.51167Z" fill="#2F384C"/>
</svg>
