<svg width="24" height="24" viewBox="0 0 24 24" fill="none" xmlns="http://www.w3.org/2000/svg">
<path d="M8 3V19M16 5V21M10.8165 19.8795L13.1835 20.8478C14.2182 21.2711 14.7356 21.4827 15.2674 21.548C15.7385 21.6057 16.2162 21.5792 16.678 21.4696C17.1993 21.3458 17.69 21.0782 18.6714 20.5428L20.7492 19.4095C21.2043 19.1613 21.4318 19.0372 21.5975 18.8593C21.7442 18.7019 21.8552 18.5148 21.9232 18.3107C22 18.08 22 17.8208 22 17.3026V4.96479C22 3.98827 22 3.5 21.7946 3.21292C21.6154 2.96241 21.3393 2.79853 21.0335 2.76113C20.6832 2.71828 20.2545 2.95209 19.3972 3.4197L18.6714 3.81557C17.69 4.3509 17.1993 4.61856 16.678 4.74229C16.2162 4.85191 15.7385 4.87846 15.2674 4.82068C14.7356 4.75547 14.2182 4.54383 13.1835 4.12054L10.8165 3.15219C9.78175 2.7289 9.2644 2.51726 8.73262 2.45204C8.26148 2.39427 7.78382 2.42081 7.32198 2.53043C6.80069 2.65417 6.30998 2.92183 5.32855 3.45716L3.25076 4.5905C2.79575 4.83868 2.56824 4.96278 2.40248 5.1407C2.25585 5.2981 2.14479 5.48519 2.07683 5.68928C2 5.92 2 6.17915 2 6.69745V19.0352C2 20.0117 2 20.5 2.2054 20.7871C2.38464 21.0376 2.66071 21.2015 2.96646 21.2389C3.31685 21.2817 3.74549 21.0479 4.60278 20.5803L5.32855 20.1844C6.30998 19.6491 6.80069 19.3814 7.32198 19.2577C7.78382 19.1481 8.26148 19.1215 8.73262 19.1793C9.2644 19.2445 9.78175 19.4562 10.8165 19.8795Z" stroke="currentColor" stroke-width="1.5" stroke-linecap="round" stroke-linejoin="round"/>
</svg>
