<svg width="24" height="24" viewBox="0 0 24 24" fill="none" xmlns="http://www.w3.org/2000/svg">
<path d="M2 2L5.00853 5.00853M22 22L18.1962 18.1962M18.1962 18.1962C16.012 20.7683 13.162 21.9998 12 21.9998C10 21.9998 3 18.3518 3 10.5C3 8.33373 3.75084 6.44902 5.00853 5.00853M18.1962 18.1962L5.00853 5.00853M7.62481 3C8.91725 2.35486 10.4079 2 12 2C17 2 21 5.5 21 10.5C21 12.1938 20.6743 13.6919 20.1433 15M12 8C13.6569 8 15 9.34315 15 11" stroke="currentColor" stroke-width="1.5" stroke-linecap="round" stroke-linejoin="round"/>
</svg>
