<svg width="24" height="24" viewBox="0 0 24 24" fill="none" xmlns="http://www.w3.org/2000/svg">
<path fill-rule="evenodd" clip-rule="evenodd" d="M8.59318 1.38814C9.16862 1.24998 9.7801 1.24998 11.003 1.24998H12.997C14.2199 1.24998 14.8314 1.24998 15.4068 1.38814C15.917 1.51062 16.4047 1.71264 16.8521 1.98678C17.3567 2.29599 17.789 2.72837 18.6538 3.59313L20.4069 5.34618C21.2716 6.21094 21.704 6.64332 22.0132 7.1479C22.2873 7.59526 22.4894 8.08298 22.6118 8.59317C22.75 9.1686 22.75 9.78008 22.75 11.003V12.9969C22.75 14.2199 22.75 14.8314 22.6118 15.4068C22.4894 15.917 22.2873 16.4047 22.0132 16.8521C21.704 17.3567 21.2716 17.789 20.4069 18.6538L18.6538 20.4068C17.789 21.2716 17.3567 21.704 16.8521 22.0132C16.4047 22.2873 15.917 22.4894 15.4068 22.6118C14.8314 22.75 14.2199 22.75 12.997 22.75H11.003C9.7801 22.75 9.16862 22.75 8.59318 22.6118C8.083 22.4894 7.59528 22.2873 7.14791 22.0132C6.64333 21.704 6.21095 21.2716 5.34619 20.4068L3.59315 18.6538C2.72839 17.789 2.29601 17.3567 1.9868 16.8521C1.71266 16.4047 1.51063 15.917 1.38815 15.4068C1.25 14.8314 1.25 14.2199 1.25 12.9969V11.003C1.25 9.78008 1.25 9.1686 1.38815 8.59317C1.51063 8.08298 1.71266 7.59526 1.9868 7.1479C2.29601 6.64332 2.72839 6.21094 3.59315 5.34618L5.34619 3.59313L5.3462 3.59313C6.21095 2.72837 6.64333 2.29599 7.14791 1.98678C7.59528 1.71264 8.083 1.51062 8.59318 1.38814ZM12.75 7C12.75 6.58579 12.4142 6.25 12 6.25C11.5858 6.25 11.25 6.58579 11.25 7V13C11.25 13.4142 11.5858 13.75 12 13.75C12.4142 13.75 12.75 13.4142 12.75 13V7ZM12 15.25C11.3097 15.25 10.75 15.8096 10.75 16.5C10.75 17.1904 11.3097 17.75 12 17.75C12.6904 17.75 13.25 17.1904 13.25 16.5C13.25 15.8096 12.6904 15.25 12 15.25Z" fill="#2F384C"/>
</svg>
