<svg width="24" height="24" viewBox="0 0 24 24" fill="none" xmlns="http://www.w3.org/2000/svg">
<path fill-rule="evenodd" clip-rule="evenodd" d="M5.24988 8C5.24988 4.27207 8.27196 1.25 11.9999 1.25C15.7278 1.25 18.7499 4.27208 18.7499 8V10.0692C18.7499 10.7747 19.0141 11.4546 19.4905 11.9749L20.8912 13.5049C22.1162 14.843 21.6207 16.9935 19.9337 17.6606C14.8365 19.6763 9.16325 19.6763 4.06609 17.6606C2.37905 16.9935 1.88357 14.843 3.10859 13.5049L4.50931 11.9749C4.98567 11.4546 5.24988 10.7747 5.24988 10.0692V8ZM12 23.0002C10.1679 23.0002 8.62347 21.7684 8.14966 20.0879C10.6973 20.5299 13.3027 20.5299 15.8503 20.0879C15.3765 21.7684 13.8321 23.0002 12 23.0002ZM12.75 8C12.75 7.58579 12.4142 7.25 12 7.25C11.5858 7.25 11.25 7.58579 11.25 8V10.25H9C8.58579 10.25 8.25 10.5858 8.25 11C8.25 11.4142 8.58579 11.75 9 11.75H11.25V14C11.25 14.4142 11.5858 14.75 12 14.75C12.4142 14.75 12.75 14.4142 12.75 14V11.75H15C15.4142 11.75 15.75 11.4142 15.75 11C15.75 10.5858 15.4142 10.25 15 10.25H12.75V8Z" fill="#2F384C"/>
</svg>
