<svg width="24" height="24" viewBox="0 0 24 24" fill="none" xmlns="http://www.w3.org/2000/svg">
<path fill-rule="evenodd" clip-rule="evenodd" d="M5.24976 8C5.24976 4.27207 8.27184 1.25 11.9998 1.25C15.7277 1.25 18.7498 4.27208 18.7498 8V10.0692C18.7498 10.7747 19.014 11.4546 19.4903 11.9749L20.8911 13.5049C22.1161 14.843 21.6206 16.9935 19.9335 17.6606C14.8364 19.6763 9.16312 19.6763 4.06597 17.6606C2.37893 16.9935 1.88345 14.843 3.10847 13.5049L4.50918 11.9749C4.98555 11.4546 5.24976 10.7747 5.24976 10.0692V8ZM11.9999 23.0002C10.1678 23.0002 8.62334 21.7684 8.14954 20.0879C10.6972 20.5299 13.3026 20.5299 15.8502 20.0879C15.3764 21.7684 13.832 23.0002 11.9999 23.0002ZM8.99988 10.25C8.58567 10.25 8.24988 10.5858 8.24988 11C8.24988 11.4142 8.58567 11.75 8.99988 11.75H14.9999C15.4141 11.75 15.7499 11.4142 15.7499 11C15.7499 10.5858 15.4141 10.25 14.9999 10.25H8.99988Z" fill="#2F384C"/>
</svg>
