<svg width="24" height="24" viewBox="0 0 24 24" fill="none" xmlns="http://www.w3.org/2000/svg">
<path fill-rule="evenodd" clip-rule="evenodd" d="M5.24976 8C5.24976 4.27207 8.27184 1.25 11.9998 1.25C15.7277 1.25 18.7498 4.27208 18.7498 8V10.0692C18.7498 10.7747 19.014 11.4546 19.4903 11.9749L20.8911 13.5049C22.1161 14.843 21.6206 16.9935 19.9335 17.6606C14.8364 19.6763 9.16312 19.6763 4.06597 17.6606C2.37893 16.9935 1.88345 14.843 3.10847 13.5049L4.50918 11.9749C4.98555 11.4546 5.24976 10.7747 5.24976 10.0692V8ZM11.9999 23.0002C10.1678 23.0002 8.62334 21.7684 8.14954 20.0879C10.6972 20.5299 13.3026 20.5299 15.8502 20.0879C15.3764 21.7684 13.832 23.0002 11.9999 23.0002ZM15.0303 11.0303C15.3232 10.7374 15.3232 10.2626 15.0303 9.96967C14.7374 9.67678 14.2626 9.67678 13.9697 9.96967L11 12.9393L10.0303 11.9697C9.73744 11.6768 9.26256 11.6768 8.96967 11.9697C8.67678 12.2626 8.67678 12.7374 8.96967 13.0303L10.4697 14.5303C10.7626 14.8232 11.2374 14.8232 11.5303 14.5303L15.0303 11.0303Z" fill="#2F384C"/>
</svg>
