<svg width="24" height="24" viewBox="0 0 24 24" fill="none" xmlns="http://www.w3.org/2000/svg">
<path fill-rule="evenodd" clip-rule="evenodd" d="M8.59318 1.38815C9.16862 1.25 9.7801 1.25 11.003 1.25H12.997C14.2199 1.25 14.8314 1.25 15.4068 1.38815C15.917 1.51063 16.4047 1.71266 16.8521 1.9868C17.3567 2.29601 17.789 2.72838 18.6538 3.59314L18.6538 3.59315L20.4069 5.34619L20.4069 5.34621C21.2716 6.21096 21.704 6.64333 22.0132 7.14791C22.2873 7.59528 22.4894 8.083 22.6118 8.59318C22.75 9.16862 22.75 9.7801 22.75 11.003V12.997C22.75 14.2199 22.75 14.8314 22.6118 15.4068C22.4894 15.917 22.2873 16.4047 22.0132 16.8521C21.704 17.3567 21.2716 17.789 20.4069 18.6538L20.4069 18.6538L18.6538 20.4069L18.6538 20.4069C17.789 21.2716 17.3567 21.704 16.8521 22.0132C16.4047 22.2873 15.917 22.4894 15.4068 22.6118C14.8314 22.75 14.2199 22.75 12.997 22.75H11.003C9.7801 22.75 9.16862 22.75 8.59318 22.6118C8.083 22.4894 7.59528 22.2873 7.14791 22.0132C6.64334 21.704 6.21096 21.2716 5.34622 20.4069L5.34619 20.4069L3.59315 18.6538L3.59313 18.6538C2.72838 17.789 2.29601 17.3567 1.9868 16.8521C1.71266 16.4047 1.51063 15.917 1.38815 15.4068C1.25 14.8314 1.25 14.2199 1.25 12.997V11.003C1.25 9.7801 1.25 9.16862 1.38815 8.59318C1.51063 8.083 1.71266 7.59528 1.9868 7.14791C2.29601 6.64333 2.72839 6.21095 3.59315 5.34619L5.34619 3.59315L5.3462 3.59314C6.21095 2.72839 6.64333 2.29601 7.14791 1.9868C7.59528 1.71266 8.083 1.51063 8.59318 1.38815ZM9.53033 8.46967C9.23744 8.17678 8.76256 8.17678 8.46967 8.46967C8.17678 8.76256 8.17678 9.23744 8.46967 9.53033L10.9393 12L8.46967 14.4697C8.17678 14.7626 8.17678 15.2374 8.46967 15.5303C8.76256 15.8232 9.23744 15.8232 9.53033 15.5303L12 13.0607L14.4697 15.5303C14.7626 15.8232 15.2374 15.8232 15.5303 15.5303C15.8232 15.2374 15.8232 14.7626 15.5303 14.4697L13.0607 12L15.5303 9.53033C15.8232 9.23744 15.8232 8.76256 15.5303 8.46967C15.2374 8.17678 14.7626 8.17678 14.4697 8.46967L12 10.9393L9.53033 8.46967Z" fill="#2F384C"/>
</svg>
