<svg width="24" height="24" viewBox="0 0 24 24" fill="none" xmlns="http://www.w3.org/2000/svg">
<path d="M9.25 2.25C6.44974 2.25 5.04961 2.25 3.98005 2.79497C3.03924 3.27433 2.27433 4.03924 1.79497 4.98005C1.25 6.04961 1.25 7.44974 1.25 10.25V14.75C1.25 17.5503 1.25 18.9504 1.79497 20.02C2.27433 20.9608 3.03924 21.7257 3.98005 22.205C5.04961 22.75 6.44974 22.75 9.25 22.75H13.75C16.5503 22.75 17.9504 22.75 19.02 22.205C19.9608 21.7257 20.7257 20.9608 21.205 20.02C21.75 18.9504 21.75 17.5503 21.75 14.75V12.5357C21.75 12.2701 21.75 12.1373 21.7249 12.0275C21.6395 11.653 21.347 11.3605 20.9725 11.2751C20.8627 11.25 20.7299 11.25 20.4643 11.25V11.25C18.8707 11.25 18.074 11.25 17.4149 11.0996C15.1679 10.5867 13.4133 8.8321 12.9004 6.58513C12.75 5.92604 12.75 5.12926 12.75 3.53571V3.53571C12.75 3.27012 12.75 3.13733 12.7249 3.02748C12.6395 2.65298 12.347 2.36055 11.9725 2.27507C11.8627 2.25 11.7299 2.25 11.4643 2.25H9.25Z" fill="#2F384C"/>
<path d="M19 1.25C16.9289 1.25 15.25 2.92893 15.25 5C15.25 7.07107 16.9289 8.75 19 8.75C21.0711 8.75 22.75 7.07107 22.75 5C22.75 2.92893 21.0711 1.25 19 1.25Z" fill="#2F384C"/>
</svg>
