<svg width="24" height="24" viewBox="0 0 24 24" fill="none" xmlns="http://www.w3.org/2000/svg">
<path d="M22.5 1.5L20.5355 3.46447M2 22L4.62103 19.379M20.5355 3.46447C20.2585 3.18742 19.9489 2.94294 19.6125 2.7368C18.4101 2 16.7734 2 13.5 2H11C7.25027 2 5.3754 2 4.06107 2.95491C3.6366 3.26331 3.26331 3.6366 2.95491 4.06107C2 5.3754 2 7.25027 2 11C2 14.7497 2 16.6246 2.95491 17.9389C3.26331 18.3634 3.6366 18.7367 4.06107 19.0451C4.23667 19.1727 4.42228 19.2832 4.62103 19.379M20.5355 3.46447L4.62103 19.379M21.9353 7C21.9353 7 22 13.0251 22 16V19.1708C22 20.1969 22 20.71 21.8373 21.0302C21.5642 21.5676 20.996 21.8893 20.3947 21.847C20.0363 21.8218 19.5964 21.5578 18.7165 21.0299C18.1917 20.715 17.9293 20.5576 17.6542 20.4347C17.1972 20.2306 16.7122 20.0963 16.2154 20.0362C15.9163 20 15.6103 20 14.9983 20C12.8327 20 10.6655 20.026 8.5 20" stroke="currentColor" stroke-width="1.5" stroke-linecap="round" stroke-linejoin="round"/>
</svg>
