<svg width="24" height="24" viewBox="0 0 24 24" fill="none" xmlns="http://www.w3.org/2000/svg">
<path d="M8 12C8 12.2761 7.77614 12.5 7.5 12.5C7.22386 12.5 7 12.2761 7 12M8 12C8 11.7239 7.77614 11.5 7.5 11.5C7.22386 11.5 7 11.7239 7 12M8 12H7M12.5 12C12.5 12.2761 12.2761 12.5 12 12.5C11.7239 12.5 11.5 12.2761 11.5 12M12.5 12C12.5 11.7239 12.2761 11.5 12 11.5C11.7239 11.5 11.5 11.7239 11.5 12M12.5 12H11.5M17 12C17 12.2761 16.7761 12.5 16.5 12.5C16.2239 12.5 16 12.2761 16 12M17 12C17 11.7239 16.7761 11.5 16.5 11.5C16.2239 11.5 16 11.7239 16 12M17 12H16M22 12C22 17.5228 17.5228 22 12 22C10.8606 22 9.88354 21.8377 8.97627 21.5132C8.11879 21.2065 7.69003 21.0531 7.52552 21.0144C6.0076 20.6574 5.3779 21.6977 4.06965 21.9157C3.42708 22.0228 2.85534 21.4967 2.90866 20.8475C2.95529 20.2798 3.34789 19.7429 3.50454 19.1977C3.83022 18.0644 3.38829 17.2052 2.9214 16.1973C2.33015 14.921 2 13.499 2 12C2 6.47715 6.47715 2 12 2C17.5228 2 22 6.47715 22 12Z" stroke="currentColor" stroke-width="1.5" stroke-linecap="round" stroke-linejoin="round"/>
</svg>
