<svg width="24" height="24" viewBox="0 0 24 24" fill="none" xmlns="http://www.w3.org/2000/svg">
<path d="M2 2L4.92893 4.92893M22 22L19.0711 19.0711M19.0711 19.0711C17.2614 20.8807 14.7614 22 12 22C10.8606 22 9.88354 21.8377 8.97627 21.5132C8.11879 21.2065 7.69003 21.0531 7.52552 21.0144C6.0076 20.6574 5.3779 21.6977 4.06965 21.9157C3.42708 22.0228 2.85534 21.4967 2.90866 20.8475C2.95529 20.2798 3.34789 19.7429 3.50454 19.1977C3.83022 18.0644 3.38829 17.2052 2.9214 16.1973C2.33015 14.921 2 13.499 2 12C2 9.23858 3.11929 6.73858 4.92893 4.92893M19.0711 19.0711L4.92893 4.92893M8 2.83209C9.22492 2.2969 10.5778 2 12 2C17.5228 2 22 6.47715 22 12C22 13.4222 21.7031 14.7751 21.1679 16" stroke="currentColor" stroke-width="1.5" stroke-linecap="round" stroke-linejoin="round"/>
</svg>
