<svg width="24" height="24" viewBox="0 0 24 24" fill="none" xmlns="http://www.w3.org/2000/svg">
<path d="M3 3L5.43173 5.43173M20 20L16.4375 16.4375M16.4375 16.4375C16.3955 16.4731 16.3539 16.5079 16.3129 16.5418C15.5354 17.1853 15 18.1175 15 19.1268V19.1268C15 20.7136 13.7136 22 12.1268 22H11.8877C10.2929 22 9 20.7071 9 19.1123V19.1123C9 18.1102 8.47633 17.1838 7.70778 16.5408C6.2263 15.3013 4 12.9482 4 10C4 8.30167 4.52921 6.72694 5.43173 5.43173M16.4375 16.4375L5.43173 5.43173M7.5 3.38468C8.78211 2.51085 10.3314 2 12 2C16.4183 2 20 5.58172 20 10C20 11.5251 19.4257 12.8779 18.6664 14M9 18C9 18 10 18.5 12 18.5C14 18.5 15 18 15 18" stroke="currentColor" stroke-width="1.5" stroke-linecap="round" stroke-linejoin="round"/>
</svg>
