<svg width="24" height="24" viewBox="0 0 24 24" fill="none" xmlns="http://www.w3.org/2000/svg">
<path d="M7 14L10 17M19.0001 9.00001L21.0001 7.00001C21.5454 6.45476 21.818 6.18213 21.9637 5.88804C22.241 5.32849 22.241 4.67154 21.9637 4.11198C21.818 3.81789 21.5454 3.54527 21.0001 3.00001V3.00001C20.4549 2.45476 20.1823 2.18213 19.8882 2.03639C19.3286 1.75911 18.6717 1.75911 18.1121 2.03639C17.818 2.18213 17.5454 2.45475 17.0001 3.00001L15.0001 5.00001M14.5255 19.4745L17.4745 16.5255C19.0586 14.9414 19.8506 14.1494 20.1474 13.2361C20.4084 12.4327 20.4084 11.5673 20.1474 10.7639C19.8506 9.85062 19.0586 9.05859 17.4745 7.47452L16.5255 6.52548C14.9414 4.94142 14.1494 4.14938 13.2361 3.85263C12.4327 3.5916 11.5673 3.5916 10.7639 3.85263C9.85062 4.14938 9.05858 4.94142 7.47451 6.52549L4.52548 9.47452C2.94142 11.0586 2.14938 11.8506 1.85263 12.7639C1.5916 13.5673 1.5916 14.4327 1.85263 15.2361C2.14938 16.1494 2.94141 16.9414 4.52548 18.5255L5.47452 19.4745C7.05858 21.0586 7.85062 21.8506 8.76393 22.1474C9.56731 22.4084 10.4327 22.4084 11.2361 22.1474C12.1494 21.8506 12.9414 21.0586 14.5255 19.4745Z" stroke="currentColor" stroke-width="1.5" stroke-linecap="round"/>
</svg>
