<svg width="24" height="24" viewBox="0 0 24 24" fill="none" xmlns="http://www.w3.org/2000/svg">
<path d="M19 13V9C19 5.13401 15.866 2 12 2V2C8.13401 2 5 5.13401 5 9V13M22 19V16C22 15.0681 22 14.6022 21.8478 14.2346C21.6448 13.7446 21.2554 13.3552 20.7654 13.1522C20.3978 13 19.9319 13 19 13V13C18.0681 13 17.6022 13 17.2346 13.1522C16.7446 13.3552 16.3552 13.7446 16.1522 14.2346C16 14.6022 16 15.0681 16 16V19C16 19.9319 16 20.3978 16.1522 20.7654C16.3552 21.2554 16.7446 21.6448 17.2346 21.8478C17.6022 22 18.0681 22 19 22V22C19.9319 22 20.3978 22 20.7654 21.8478C21.2554 21.6448 21.6448 21.2554 21.8478 20.7654C22 20.3978 22 19.9319 22 19ZM5 22V22C5.93188 22 6.39782 22 6.76537 21.8478C7.25542 21.6448 7.64477 21.2554 7.84776 20.7654C8 20.3978 8 19.9319 8 19V16C8 15.0681 8 14.6022 7.84776 14.2346C7.64477 13.7446 7.25542 13.3552 6.76537 13.1522C6.39782 13 5.93188 13 5 13V13C4.06812 13 3.60218 13 3.23463 13.1522C2.74458 13.3552 2.35523 13.7446 2.15224 14.2346C2 14.6022 2 15.0681 2 16V19C2 19.9319 2 20.3978 2.15224 20.7654C2.35523 21.2554 2.74458 21.6448 3.23463 21.8478C3.60218 22 4.06812 22 5 22Z" stroke="currentColor" stroke-width="1.5" stroke-linecap="round" stroke-linejoin="round"/>
</svg>
