<svg width="24" height="24" viewBox="0 0 24 24" fill="none" xmlns="http://www.w3.org/2000/svg">
<path d="M8.99979 9V11M14.9998 7V11M11.9998 7V11M5.85402 5.77492L6.75356 4.69547C7.48535 3.81732 7.85125 3.37825 8.28474 3.04333C8.86682 2.59362 9.54094 2.27788 10.2591 2.11861C10.7939 2 11.3654 2 12.5085 2V2C14.83 2 15.9908 2 16.9069 2.37798C18.1371 2.88559 19.1142 3.86269 19.6218 5.09292C19.9998 6.009 19.9998 7.16976 19.9998 9.49127V14C19.9998 16.8003 19.9998 18.2004 19.4548 19.27C18.9755 20.2108 18.2105 20.9757 17.2697 21.455C16.2002 22 14.8 22 11.9998 22V22C9.19952 22 7.79939 22 6.72983 21.455C5.78902 20.9757 5.02412 20.2108 4.54475 19.27C3.99979 18.2004 3.99979 16.8003 3.99979 14V10.8964C3.99979 9.82367 3.99979 9.2873 4.10799 8.77567C4.20398 8.3218 4.36267 7.88351 4.57948 7.47339C4.8239 7.01107 5.16727 6.59902 5.85402 5.77492Z" stroke="currentColor" stroke-width="1.5" stroke-linecap="round" stroke-linejoin="round"/>
</svg>
