<svg width="24" height="24" viewBox="0 0 24 24" fill="none" xmlns="http://www.w3.org/2000/svg">
<path d="M8 7V2M16 7V2M12 10.5L10 14.5H14L12 18.5M12 22V22C9.20435 22 7.80653 22 6.7039 21.5433C5.23373 20.9343 4.06569 19.7663 3.45672 18.2961C3 17.1935 3 15.7956 3 13V13C3 11.1362 3 10.2044 3.30448 9.46927C3.71046 8.48915 4.48915 7.71046 5.46927 7.30448C6.20435 7 7.13623 7 9 7H15C16.8638 7 17.7956 7 18.5307 7.30448C19.5108 7.71046 20.2895 8.48915 20.6955 9.46927C21 10.2044 21 11.1362 21 13V13C21 15.7956 21 17.1935 20.5433 18.2961C19.9343 19.7663 18.7663 20.9343 17.2961 21.5433C16.1935 22 14.7956 22 12 22Z" stroke="currentColor" stroke-width="1.5" stroke-linecap="round" stroke-linejoin="round"/>
</svg>
