<svg width="24" height="24" viewBox="0 0 24 24" fill="none" xmlns="http://www.w3.org/2000/svg">
<path d="M3 22.25V2.25M12.5 20.75C12.7761 20.75 13 20.9739 13 21.25C13 21.5261 12.7761 21.75 12.5 21.75M12.5 20.75C12.2239 20.75 12 20.9739 12 21.25C12 21.5261 12.2239 21.75 12.5 21.75M12.5 20.75V21.75M12.5 2.75C12.7761 2.75 13 2.97386 13 3.25C13 3.52614 12.7761 3.75 12.5 3.75M12.5 2.75C12.2239 2.75 12 2.97386 12 3.25C12 3.52614 12.2239 3.75 12.5 3.75M12.5 2.75V3.75M12.5 16.25C12.7761 16.25 13 16.4739 13 16.75C13 17.0261 12.7761 17.25 12.5 17.25M12.5 16.25C12.2239 16.25 12 16.4739 12 16.75C12 17.0261 12.2239 17.25 12.5 17.25M12.5 16.25V17.25M12.5 7.25C12.7761 7.25 13 7.47386 13 7.75C13 8.02614 12.7761 8.25 12.5 8.25M12.5 7.25C12.2239 7.25 12 7.47386 12 7.75C12 8.02614 12.2239 8.25 12.5 8.25M12.5 7.25V8.25M12.5 11.75C12.7761 11.75 13 11.9739 13 12.25C13 12.5261 12.7761 12.75 12.5 12.75M12.5 11.75C12.2239 11.75 12 11.9739 12 12.25C12 12.5261 12.2239 12.75 12.5 12.75M12.5 11.75V12.75M17 20.75C17.2761 20.75 17.5 20.9739 17.5 21.25C17.5 21.5261 17.2761 21.75 17 21.75M17 20.75C16.7239 20.75 16.5 20.9739 16.5 21.25C16.5 21.5261 16.7239 21.75 17 21.75M17 20.75V21.75M17 2.75C17.2761 2.75 17.5 2.97386 17.5 3.25C17.5 3.52614 17.2761 3.75 17 3.75M17 2.75C16.7239 2.75 16.5 2.97386 16.5 3.25C16.5 3.52614 16.7239 3.75 17 3.75M17 2.75V3.75M17 11.75C17.2761 11.75 17.5 11.9739 17.5 12.25C17.5 12.5261 17.2761 12.75 17 12.75M17 11.75C16.7239 11.75 16.5 11.9739 16.5 12.25C16.5 12.5261 16.7239 12.75 17 12.75M17 11.75V12.75M8 20.75C8.27614 20.75 8.5 20.9739 8.5 21.25C8.5 21.5261 8.27614 21.75 8 21.75M8 20.75C7.72386 20.75 7.5 20.9739 7.5 21.25C7.5 21.5261 7.72386 21.75 8 21.75M8 20.75V21.75M8 2.75C8.27614 2.75 8.5 2.97386 8.5 3.25C8.5 3.52614 8.27614 3.75 8 3.75M8 2.75C7.72386 2.75 7.5 2.97386 7.5 3.25C7.5 3.52614 7.72386 3.75 8 3.75M8 2.75V3.75M8 11.75C8.27614 11.75 8.5 11.9739 8.5 12.25C8.5 12.5261 8.27614 12.75 8 12.75M8 11.75C7.72386 11.75 7.5 11.9739 7.5 12.25C7.5 12.5261 7.72386 12.75 8 12.75M8 11.75V12.75M21 20.75C21.2761 20.75 21.5 20.9739 21.5 21.25C21.5 21.5261 21.2761 21.75 21 21.75M21 20.75C20.7239 20.75 20.5 20.9739 20.5 21.25C20.5 21.5261 20.7239 21.75 21 21.75M21 20.75V21.75M21 2.75C21.2761 2.75 21.5 2.97386 21.5 3.25C21.5 3.52614 21.2761 3.75 21 3.75M21 2.75C20.7239 2.75 20.5 2.97386 20.5 3.25C20.5 3.52614 20.7239 3.75 21 3.75M21 2.75V3.75M21 16.25C21.2761 16.25 21.5 16.4739 21.5 16.75C21.5 17.0261 21.2761 17.25 21 17.25M21 16.25C20.7239 16.25 20.5 16.4739 20.5 16.75C20.5 17.0261 20.7239 17.25 21 17.25M21 16.25V17.25M21 7.25C21.2761 7.25 21.5 7.47386 21.5 7.75C21.5 8.02614 21.2761 8.25 21 8.25M21 7.25C20.7239 7.25 20.5 7.47386 20.5 7.75C20.5 8.02614 20.7239 8.25 21 8.25M21 7.25V8.25M21 11.75C21.2761 11.75 21.5 11.9739 21.5 12.25C21.5 12.5261 21.2761 12.75 21 12.75M21 11.75C20.7239 11.75 20.5 11.9739 20.5 12.25C20.5 12.5261 20.7239 12.75 21 12.75M21 11.75V12.75" stroke="currentColor" stroke-width="1.5" stroke-linecap="round" stroke-linejoin="round"/>
</svg>
