<svg width="24" height="24" viewBox="0 0 24 24" fill="none" xmlns="http://www.w3.org/2000/svg">
<path d="M21 22.25V2.25M11.5 20.75C11.2239 20.75 11 20.9739 11 21.25C11 21.5261 11.2239 21.75 11.5 21.75M11.5 20.75C11.7761 20.75 12 20.9739 12 21.25C12 21.5261 11.7761 21.75 11.5 21.75M11.5 20.75V21.75M11.5 2.75C11.2239 2.75 11 2.97386 11 3.25C11 3.52614 11.2239 3.75 11.5 3.75M11.5 2.75C11.7761 2.75 12 2.97386 12 3.25C12 3.52614 11.7761 3.75 11.5 3.75M11.5 2.75V3.75M11.5 16.25C11.2239 16.25 11 16.4739 11 16.75C11 17.0261 11.2239 17.25 11.5 17.25M11.5 16.25C11.7761 16.25 12 16.4739 12 16.75C12 17.0261 11.7761 17.25 11.5 17.25M11.5 16.25V17.25M11.5 7.25C11.2239 7.25 11 7.47386 11 7.75C11 8.02614 11.2239 8.25 11.5 8.25M11.5 7.25C11.7761 7.25 12 7.47386 12 7.75C12 8.02614 11.7761 8.25 11.5 8.25M11.5 7.25V8.25M11.5 11.75C11.2239 11.75 11 11.9739 11 12.25C11 12.5261 11.2239 12.75 11.5 12.75M11.5 11.75C11.7761 11.75 12 11.9739 12 12.25C12 12.5261 11.7761 12.75 11.5 12.75M11.5 11.75V12.75M7 20.75C6.72386 20.75 6.5 20.9739 6.5 21.25C6.5 21.5261 6.72386 21.75 7 21.75M7 20.75C7.27614 20.75 7.5 20.9739 7.5 21.25C7.5 21.5261 7.27614 21.75 7 21.75M7 20.75V21.75M7 2.75C6.72386 2.75 6.5 2.97386 6.5 3.25C6.5 3.52614 6.72386 3.75 7 3.75M7 2.75C7.27614 2.75 7.5 2.97386 7.5 3.25C7.5 3.52614 7.27614 3.75 7 3.75M7 2.75V3.75M7 11.75C6.72386 11.75 6.5 11.9739 6.5 12.25C6.5 12.5261 6.72386 12.75 7 12.75M7 11.75C7.27614 11.75 7.5 11.9739 7.5 12.25C7.5 12.5261 7.27614 12.75 7 12.75M7 11.75V12.75M16 20.75C15.7239 20.75 15.5 20.9739 15.5 21.25C15.5 21.5261 15.7239 21.75 16 21.75M16 20.75C16.2761 20.75 16.5 20.9739 16.5 21.25C16.5 21.5261 16.2761 21.75 16 21.75M16 20.75V21.75M16 2.75C15.7239 2.75 15.5 2.97386 15.5 3.25C15.5 3.52614 15.7239 3.75 16 3.75M16 2.75C16.2761 2.75 16.5 2.97386 16.5 3.25C16.5 3.52614 16.2761 3.75 16 3.75M16 2.75V3.75M16 11.75C15.7239 11.75 15.5 11.9739 15.5 12.25C15.5 12.5261 15.7239 12.75 16 12.75M16 11.75C16.2761 11.75 16.5 11.9739 16.5 12.25C16.5 12.5261 16.2761 12.75 16 12.75M16 11.75V12.75M3 20.75C2.72386 20.75 2.5 20.9739 2.5 21.25C2.5 21.5261 2.72386 21.75 3 21.75M3 20.75C3.27614 20.75 3.5 20.9739 3.5 21.25C3.5 21.5261 3.27614 21.75 3 21.75M3 20.75V21.75M3 2.75C2.72386 2.75 2.5 2.97386 2.5 3.25C2.5 3.52614 2.72386 3.75 3 3.75M3 2.75C3.27614 2.75 3.5 2.97386 3.5 3.25C3.5 3.52614 3.27614 3.75 3 3.75M3 2.75V3.75M3 16.25C2.72386 16.25 2.5 16.4739 2.5 16.75C2.5 17.0261 2.72386 17.25 3 17.25M3 16.25C3.27614 16.25 3.5 16.4739 3.5 16.75C3.5 17.0261 3.27614 17.25 3 17.25M3 16.25V17.25M3 7.25C2.72386 7.25 2.5 7.47386 2.5 7.75C2.5 8.02614 2.72386 8.25 3 8.25M3 7.25C3.27614 7.25 3.5 7.47386 3.5 7.75C3.5 8.02614 3.27614 8.25 3 8.25M3 7.25V8.25M3 11.75C2.72386 11.75 2.5 11.9739 2.5 12.25C2.5 12.5261 2.72386 12.75 3 12.75M3 11.75C3.27614 11.75 3.5 11.9739 3.5 12.25C3.5 12.5261 3.27614 12.75 3 12.75M3 11.75V12.75" stroke="currentColor" stroke-width="1.5" stroke-linecap="round" stroke-linejoin="round"/>
</svg>
