<svg width="24" height="24" viewBox="0 0 24 24" fill="none" xmlns="http://www.w3.org/2000/svg">
<path d="M2 12H22M3.5 3C3.5 3.27614 3.27614 3.5 3 3.5C2.72386 3.5 2.5 3.27614 2.5 3M3.5 3C3.5 2.72386 3.27614 2.5 3 2.5C2.72386 2.5 2.5 2.72386 2.5 3M3.5 3H2.5M8 3C8 3.27614 7.77614 3.5 7.5 3.5C7.22386 3.5 7 3.27614 7 3M8 3C8 2.72386 7.77614 2.5 7.5 2.5C7.22386 2.5 7 2.72386 7 3M8 3H7M17 3C17 3.27614 16.7761 3.5 16.5 3.5C16.2239 3.5 16 3.27614 16 3M17 3C17 2.72386 16.7761 2.5 16.5 2.5C16.2239 2.5 16 2.72386 16 3M17 3H16M21.5 3C21.5 3.27614 21.2761 3.5 21 3.5C20.7239 3.5 20.5 3.27614 20.5 3M21.5 3C21.5 2.72386 21.2761 2.5 21 2.5C20.7239 2.5 20.5 2.72386 20.5 3M21.5 3H20.5M21.5 7.5C21.5 7.77614 21.2761 8 21 8C20.7239 8 20.5 7.77614 20.5 7.5M21.5 7.5C21.5 7.22386 21.2761 7 21 7C20.7239 7 20.5 7.22386 20.5 7.5M21.5 7.5H20.5M3.5 7.5C3.5 7.77614 3.27614 8 3 8C2.72386 8 2.5 7.77614 2.5 7.5M3.5 7.5C3.5 7.22386 3.27614 7 3 7C2.72386 7 2.5 7.22386 2.5 7.5M3.5 7.5H2.5M3.5 16.5C3.5 16.7761 3.27614 17 3 17C2.72386 17 2.5 16.7761 2.5 16.5M3.5 16.5C3.5 16.2239 3.27614 16 3 16C2.72386 16 2.5 16.2239 2.5 16.5M3.5 16.5H2.5M3.5 21C3.5 21.2761 3.27614 21.5 3 21.5C2.72386 21.5 2.5 21.2761 2.5 21M3.5 21C3.5 20.7239 3.27614 20.5 3 20.5C2.72386 20.5 2.5 20.7239 2.5 21M3.5 21H2.5M21.5 16.5C21.5 16.7761 21.2761 17 21 17C20.7239 17 20.5 16.7761 20.5 16.5M21.5 16.5C21.5 16.2239 21.2761 16 21 16C20.7239 16 20.5 16.2239 20.5 16.5M21.5 16.5H20.5M21.5 21C21.5 21.2761 21.2761 21.5 21 21.5C20.7239 21.5 20.5 21.2761 20.5 21M21.5 21C21.5 20.7239 21.2761 20.5 21 20.5C20.7239 20.5 20.5 20.7239 20.5 21M21.5 21H20.5M8 21C8 21.2761 7.77614 21.5 7.5 21.5C7.22386 21.5 7 21.2761 7 21M8 21C8 20.7239 7.77614 20.5 7.5 20.5C7.22386 20.5 7 20.7239 7 21M8 21H7M17 21C17 21.2761 16.7761 21.5 16.5 21.5C16.2239 21.5 16 21.2761 16 21M17 21C17 20.7239 16.7761 20.5 16.5 20.5C16.2239 20.5 16 20.7239 16 21M17 21H16M12.5 3C12.5 3.27614 12.2761 3.5 12 3.5C11.7239 3.5 11.5 3.27614 11.5 3M12.5 3C12.5 2.72386 12.2761 2.5 12 2.5C11.7239 2.5 11.5 2.72386 11.5 3M12.5 3H11.5M12.5 21C12.5 21.2761 12.2761 21.5 12 21.5C11.7239 21.5 11.5 21.2761 11.5 21M12.5 21C12.5 20.7239 12.2761 20.5 12 20.5C11.7239 20.5 11.5 20.7239 11.5 21M12.5 21H11.5M12.5 7.5C12.5 7.77614 12.2761 8 12 8C11.7239 8 11.5 7.77614 11.5 7.5M12.5 7.5C12.5 7.22386 12.2761 7 12 7C11.7239 7 11.5 7.22386 11.5 7.5M12.5 7.5H11.5M12.5 16.5C12.5 16.7761 12.2761 17 12 17C11.7239 17 11.5 16.7761 11.5 16.5M12.5 16.5C12.5 16.2239 12.2761 16 12 16C11.7239 16 11.5 16.2239 11.5 16.5M12.5 16.5H11.5" stroke="currentColor" stroke-width="1.5" stroke-linecap="round" stroke-linejoin="round"/>
</svg>
