<svg width="24" height="24" viewBox="0 0 24 24" fill="none" xmlns="http://www.w3.org/2000/svg">
<path d="M3.50024 5.50014L5.00024 4.00014M5.00024 4.00014L6.50024 2.50014M5.00024 4.00014L3.50024 2.50014M5.00024 4.00014L6.50024 5.50014M3.50024 13.5001L5.00024 12.0001M5.00024 12.0001L6.50024 10.5001M5.00024 12.0001L3.50024 10.5001M5.00024 12.0001L6.50024 13.5001M3.50024 21.5001L5.00024 20.0001M5.00024 20.0001L6.50024 18.5001M5.00024 20.0001L3.50024 18.5001M5.00024 20.0001L6.50024 21.5001M11.0002 20.0001L22.0002 20.0001M11.0002 12.0001L22.0002 12.0001M11.0002 4.00014H22.0002" stroke="currentColor" stroke-width="1.5" stroke-linecap="round" stroke-linejoin="round"/>
</svg>
