<svg width="24" height="24" viewBox="0 0 24 24" fill="none" xmlns="http://www.w3.org/2000/svg">
<path d="M9.00024 20.0002H22.0002M9.00024 12.0002L22.0002 12.0002M9.00024 4.0002H22.0002M3.50024 4.0002C3.50024 4.27634 3.27639 4.5002 3.00024 4.5002C2.7241 4.5002 2.50024 4.27634 2.50024 4.0002M3.50024 4.0002C3.50024 3.72406 3.27639 3.5002 3.00024 3.5002C2.7241 3.5002 2.50024 3.72406 2.50024 4.0002M3.50024 4.0002H2.50024M3.50024 12.0002C3.50024 12.2763 3.27639 12.5002 3.00024 12.5002C2.7241 12.5002 2.50024 12.2763 2.50024 12.0002M3.50024 12.0002C3.50024 11.7241 3.27639 11.5002 3.00024 11.5002C2.7241 11.5002 2.50024 11.7241 2.50024 12.0002M3.50024 12.0002H2.50024M3.50024 20.0002C3.50024 20.2763 3.27639 20.5002 3.00024 20.5002C2.7241 20.5002 2.50024 20.2763 2.50024 20.0002M3.50024 20.0002C3.50024 19.7241 3.27639 19.5002 3.00024 19.5002C2.7241 19.5002 2.50024 19.7241 2.50024 20.0002M3.50024 20.0002H2.50024" stroke="currentColor" stroke-width="1.5" stroke-linecap="round" stroke-linejoin="round"/>
</svg>
