<svg width="24" height="24" viewBox="0 0 24 24" fill="none" xmlns="http://www.w3.org/2000/svg">
<path d="M11.0002 20.0001L22.0002 20.0001M11.0002 12.0001L22.0002 12.0001M11.0002 4.00008H22.0002M3.60024 22.0001H4.40024C4.9603 22.0001 5.24032 22.0001 5.45423 21.8911C5.6424 21.7952 5.79538 21.6422 5.89125 21.4541C6.00024 21.2402 6.00024 20.9601 6.00024 20.4001V19.6001C6.00024 19.04 6.00024 18.76 5.89125 18.5461C5.79538 18.3579 5.6424 18.2049 5.45423 18.1091C5.24032 18.0001 4.9603 18.0001 4.40024 18.0001H3.60024C3.04019 18.0001 2.76017 18.0001 2.54625 18.1091C2.35809 18.2049 2.20511 18.3579 2.10924 18.5461C2.00024 18.76 2.00024 19.04 2.00024 19.6001V20.4001C2.00024 20.9601 2.00024 21.2402 2.10924 21.4541C2.20511 21.6422 2.35809 21.7952 2.54625 21.8911C2.76017 22.0001 3.04019 22.0001 3.60024 22.0001ZM3.60024 14.0001H4.40024C4.9603 14.0001 5.24032 14.0001 5.45423 13.8911C5.6424 13.7952 5.79538 13.6422 5.89125 13.4541C6.00024 13.2402 6.00024 12.9601 6.00024 12.4001V11.6001C6.00024 11.04 6.00024 10.76 5.89125 10.5461C5.79538 10.3579 5.6424 10.2049 5.45423 10.1091C5.24032 10.0001 4.9603 10.0001 4.40024 10.0001H3.60024C3.04019 10.0001 2.76017 10.0001 2.54625 10.1091C2.35809 10.2049 2.20511 10.3579 2.10924 10.5461C2.00024 10.76 2.00024 11.04 2.00024 11.6001V12.4001C2.00024 12.9601 2.00024 13.2402 2.10924 13.4541C2.20511 13.6422 2.35809 13.7952 2.54625 13.8911C2.76017 14.0001 3.04019 14.0001 3.60024 14.0001ZM3.60024 6.00008H4.40024C4.9603 6.00008 5.24032 6.00008 5.45423 5.89108C5.6424 5.79521 5.79538 5.64223 5.89125 5.45407C6.00024 5.24016 6.00024 4.96013 6.00024 4.40008V3.60008C6.00024 3.04002 6.00024 2.76 5.89125 2.54609C5.79538 2.35792 5.6424 2.20494 5.45423 2.10907C5.24032 2.00008 4.9603 2.00008 4.40024 2.00008H3.60024C3.04019 2.00008 2.76017 2.00008 2.54625 2.10907C2.35809 2.20494 2.20511 2.35792 2.10924 2.54609C2.00024 2.76 2.00024 3.04002 2.00024 3.60008V4.40008C2.00024 4.96013 2.00024 5.24016 2.10924 5.45407C2.20511 5.64223 2.35809 5.79521 2.54625 5.89108C2.76017 6.00008 3.04019 6.00008 3.60024 6.00008Z" stroke="currentColor" stroke-width="1.5" stroke-linecap="round" stroke-linejoin="round"/>
</svg>
