<svg width="24" height="24" viewBox="0 0 24 24" fill="none" xmlns="http://www.w3.org/2000/svg">
<path d="M2 11.0001C7.17468 7.70716 12.5 19.5002 17 15L18.5 13.5M18 19.5555C18 18.4157 18.6041 17.4548 19.1482 16.8204C19.3248 16.6146 19.4131 16.5116 19.662 16.4223C19.8229 16.3645 20.177 16.3645 20.3379 16.4222C20.5868 16.5116 20.6751 16.6145 20.8517 16.8204C21.3959 17.4548 22 18.4157 22 19.5555C22 22.8148 18 22.8148 18 19.5555ZM14.5255 17.4745L17.4745 14.5255C19.0586 12.9414 19.8506 12.1494 20.1474 11.2361C20.4084 10.4327 20.4084 9.56731 20.1474 8.76393C19.8506 7.85062 19.0586 7.05859 17.4745 5.47452L16.5255 4.52548C14.9414 2.94142 14.1494 2.14938 13.2361 1.85263C12.4327 1.5916 11.5673 1.5916 10.7639 1.85263C9.85062 2.14938 9.05858 2.94142 7.47451 4.52549L4.52548 7.47452C2.94142 9.05858 2.14938 9.85062 1.85263 10.7639C1.5916 11.5673 1.5916 12.4327 1.85263 13.2361C2.14938 14.1494 2.94141 14.9414 4.52548 16.5255L5.47452 17.4745C7.05858 19.0586 7.85062 19.8506 8.76393 20.1474C9.56731 20.4084 10.4327 20.4084 11.2361 20.1474C12.1494 19.8506 12.9414 19.0586 14.5255 17.4745Z" stroke="currentColor" stroke-width="1.5" stroke-linecap="round" stroke-linejoin="round"/>
</svg>
