<svg width="24" height="24" viewBox="0 0 24 24" fill="none" xmlns="http://www.w3.org/2000/svg">
<path d="M17 8V13.5M16.1427 16.1427L18 18M16.1427 16.1427C15.3247 17.2682 13.9978 18 12.5 18C10.0147 18 8 15.9853 8 13.5V9C8 8.69691 8.04495 8.40432 8.12854 8.12854M16.1427 16.1427L13.9357 13.9357M13.9357 13.9357C13.7491 14.5517 13.1769 15 12.5 15C11.6716 15 11 14.3284 11 13.5V12.25V11M13.9357 13.9357L11 11M11 11L8.12854 8.12854M6 6L8.12854 8.12854M10 6.17071C10.3128 6.06015 10.6494 6 11 6C12.6569 6 14 7.34315 14 9V10.5M10 22H14C16.8003 22 18.2004 22 19.27 21.455C20.2108 20.9757 20.9757 20.2108 21.455 19.27C22 18.2004 22 16.8003 22 14V10C22 7.19974 22 5.79961 21.455 4.73005C20.9757 3.78924 20.2108 3.02433 19.27 2.54497C18.2004 2 16.8003 2 14 2H10C7.19974 2 5.79961 2 4.73005 2.54497C3.78924 3.02433 3.02433 3.78924 2.54497 4.73005C2 5.79961 2 7.19974 2 10V14C2 16.8003 2 18.2004 2.54497 19.27C3.02433 20.2108 3.78924 20.9757 4.73005 21.455C5.79961 22 7.19974 22 10 22Z" stroke="currentColor" stroke-width="1.5" stroke-linecap="round" stroke-linejoin="round"/>
</svg>
