<svg width="24" height="24" viewBox="0 0 24 24" fill="none" xmlns="http://www.w3.org/2000/svg">
<path d="M8 19L5.97354 16.9735C4.56608 15.5661 3.86235 14.8624 3.55863 14.0382C3.29101 13.3119 3.23982 12.5237 3.41126 11.769C3.60583 10.9124 4.21263 10.1236 5.42623 8.5459L9.4636 3.29732C10.3267 2.17534 10.7582 1.61435 11.2842 1.41274C11.745 1.23608 12.255 1.23608 12.7158 1.41274C13.2418 1.61435 13.6733 2.17534 14.5364 3.29732L18.5738 8.5459C19.7874 10.1236 20.3942 10.9124 20.5887 11.769C20.7602 12.5237 20.709 13.3119 20.4414 14.0382C20.1376 14.8624 19.4339 15.5661 18.0265 16.9735L16 19M12 2V7M14 12C14 13.1046 13.1046 14 12 14C10.8954 14 10 13.1046 10 12C10 10.8954 10.8954 10 12 10C13.1046 10 14 10.8954 14 12ZM7.5 22H16.5C17.3284 22 18 21.3284 18 20.5V20.5C18 19.6716 17.3284 19 16.5 19H7.5C6.67157 19 6 19.6716 6 20.5V20.5C6 21.3284 6.67157 22 7.5 22Z" stroke="currentColor" stroke-width="1.5" stroke-linecap="round" stroke-linejoin="round"/>
</svg>
