<svg width="24" height="24" viewBox="0 0 24 24" fill="none" xmlns="http://www.w3.org/2000/svg">
<path d="M2 16V11.9765C2 10.5089 2 9.77513 2.16578 9.08461C2.31276 8.47239 2.55519 7.88712 2.88416 7.35029C3.25521 6.74479 3.77407 6.22593 4.81178 5.18822L6 4M14 16V11.9765C14 10.5089 14 9.77513 14.1658 9.08461C14.3128 8.47239 14.5552 7.88712 14.8842 7.35029C15.2552 6.74479 15.7741 6.22593 16.8118 5.18822L18 4M18.8 20H17.2C16.0799 20 15.5198 20 15.092 19.782C14.7157 19.5903 14.4097 19.2843 14.218 18.908C14 18.4802 14 17.9201 14 16.8V15.2C14 14.0799 14 13.5198 14.218 13.092C14.4097 12.7157 14.7157 12.4097 15.092 12.218C15.5198 12 16.0799 12 17.2 12H18.8C19.9201 12 20.4802 12 20.908 12.218C21.2843 12.4097 21.5903 12.7157 21.782 13.092C22 13.5198 22 14.0799 22 15.2V16.8C22 17.9201 22 18.4802 21.782 18.908C21.5903 19.2843 21.2843 19.5903 20.908 19.782C20.4802 20 19.9201 20 18.8 20ZM6.8 12H5.2C4.07989 12 3.51984 12 3.09202 12.218C2.71569 12.4097 2.40973 12.7157 2.21799 13.092C2 13.5198 2 14.0799 2 15.2V16.8C2 17.9201 2 18.4802 2.21799 18.908C2.40973 19.2843 2.71569 19.5903 3.09202 19.782C3.51984 20 4.07989 20 5.2 20H6.8C7.92011 20 8.48016 20 8.90798 19.782C9.28431 19.5903 9.59027 19.2843 9.78201 18.908C10 18.4802 10 17.9201 10 16.8V15.2C10 14.0799 10 13.5198 9.78201 13.092C9.59027 12.7157 9.28431 12.4097 8.90798 12.218C8.48016 12 7.92011 12 6.8 12Z" stroke="currentColor" stroke-width="1.5" stroke-linecap="round" stroke-linejoin="round"/>
</svg>
