<svg width="24" height="24" viewBox="0 0 24 24" fill="none" xmlns="http://www.w3.org/2000/svg">
<path d="M11 20L9 18M14 17L10.5 13.5M20 11L16.5 7.5M17 14L15 12M11.8941 19.6059L19.6059 11.8941C20.7939 10.7061 21.388 10.112 21.6105 9.42705C21.8063 8.82452 21.8063 8.17548 21.6105 7.57295C21.388 6.88796 20.7939 6.29394 19.6059 5.10589L18.8941 4.39411C17.7061 3.20606 17.112 2.61204 16.4271 2.38947C15.8245 2.1937 15.1755 2.1937 14.5729 2.38947C13.888 2.61204 13.2939 3.20606 12.1059 4.39411L4.39411 12.1059C3.20606 13.2939 2.61204 13.888 2.38947 14.5729C2.1937 15.1755 2.1937 15.8245 2.38947 16.4271C2.61204 17.112 3.20606 17.7061 4.39411 18.8941L5.10589 19.6059C6.29394 20.7939 6.88796 21.388 7.57295 21.6105C8.17548 21.8063 8.82452 21.8063 9.42705 21.6105C10.112 21.388 10.7061 20.7939 11.8941 19.6059Z" stroke="currentColor" stroke-width="1.5" stroke-linecap="round" stroke-linejoin="round"/>
</svg>
