<svg width="24" height="24" viewBox="0 0 24 24" fill="none" xmlns="http://www.w3.org/2000/svg">
<path d="M8.5 9.50006L6 12.0001L8.5 14.5001M15.5 9.49996L18 12.0001L15.5 14.5001M13 7.00006L11 17.0001M10 22.0001H14C16.8003 22.0001 18.2004 22.0001 19.27 21.4551C20.2108 20.9757 20.9757 20.2108 21.455 19.27C22 18.2005 22 16.8003 22 14.0001V10.0001C22 7.1998 22 5.79967 21.455 4.73011C20.9757 3.7893 20.2108 3.0244 19.27 2.54503C18.2004 2.00006 16.8003 2.00006 14 2.00006H10C7.19974 2.00006 5.79961 2.00006 4.73005 2.54503C3.78924 3.0244 3.02433 3.7893 2.54497 4.73011C2 5.79967 2 7.1998 2 10.0001V14.0001C2 16.8003 2 18.2005 2.54497 19.27C3.02433 20.2108 3.78924 20.9757 4.73005 21.4551C5.79961 22.0001 7.19974 22.0001 10 22.0001Z" stroke="currentColor" stroke-width="1.5" stroke-linecap="round" stroke-linejoin="round"/>
</svg>
