<svg width="24" height="24" viewBox="0 0 24 24" fill="none" xmlns="http://www.w3.org/2000/svg">
<path d="M12 9V15M12 9H9M12 9H15M4 6C5.10457 6 6 5.10457 6 4M4 6C2.89543 6 2 5.10457 2 4C2 2.89543 2.89543 2 4 2C5.10457 2 6 2.89543 6 4M4 6V18M6 4H18M18 4C18 5.10457 18.8954 6 20 6M18 4C18 2.89543 18.8954 2 20 2C21.1046 2 22 2.89543 22 4C22 5.10457 21.1046 6 20 6M20 18C18.8954 18 18 18.8954 18 20M20 18C21.1046 18 22 18.8954 22 20C22 21.1046 21.1046 22 20 22C18.8954 22 18 21.1046 18 20M20 18V6M18 20H6M6 20C6 21.1046 5.10457 22 4 22C2.89543 22 2 21.1046 2 20C2 18.8954 2.89543 18 4 18M6 20C6 18.8954 5.10457 18 4 18" stroke="currentColor" stroke-width="1.5" stroke-linecap="round" stroke-linejoin="round"/>
</svg>
