<svg width="24" height="24" viewBox="0 0 24 24" fill="none" xmlns="http://www.w3.org/2000/svg">
<path d="M12.7406 12H11.2591H6M12.7406 12C14.377 12 15.7035 13.3431 15.7035 15C15.7035 16.6569 14.377 18 12.7406 18H11.2591C9.62268 18 8.29612 16.6569 8.29612 15M12.7406 12H18M15.7035 9C15.7035 7.34315 14.377 6 12.7406 6H11.2591C9.62268 6 8.29612 7.34315 8.29612 9C8.29612 9.25897 8.32853 9.51029 8.38946 9.75M10 22H14C16.8003 22 18.2004 22 19.27 21.455C20.2108 20.9757 20.9757 20.2108 21.455 19.27C22 18.2004 22 16.8003 22 14V10C22 7.19974 22 5.79961 21.455 4.73005C20.9757 3.78924 20.2108 3.02433 19.27 2.54497C18.2004 2 16.8003 2 14 2H10C7.19974 2 5.79961 2 4.73005 2.54497C3.78924 3.02433 3.02433 3.78924 2.54497 4.73005C2 5.79961 2 7.19974 2 10V14C2 16.8003 2 18.2004 2.54497 19.27C3.02433 20.2108 3.78924 20.9757 4.73005 21.455C5.79961 22 7.19974 22 10 22Z" stroke="currentColor" stroke-width="1.5" stroke-linecap="round" stroke-linejoin="round"/>
</svg>
