<svg width="24" height="24" viewBox="0 0 24 24" fill="none" xmlns="http://www.w3.org/2000/svg">
<path d="M5.25012 7.99975C5.25013 4.27183 8.2722 1.24976 12.0001 1.24976C15.728 1.24975 18.7501 4.27183 18.7501 7.99975C18.7501 11.7277 15.728 14.7498 12.0001 14.7498C8.2722 14.7498 5.25012 11.7277 5.25012 7.99975Z" fill="#2F384C"/>
<path d="M4.31565 10.2318C2.46867 11.448 1.25012 13.5512 1.25012 15.9391C1.25012 19.6934 4.26511 22.7497 8.00012 22.7497C11.7351 22.7497 14.7501 19.6934 14.7501 15.9391C14.7501 15.7981 14.7459 15.6581 14.7375 15.5192C13.8835 15.8301 12.9616 15.9997 12.0001 15.9997C8.35652 15.9997 5.28183 13.5639 4.31565 10.2318Z" fill="#2F384C"/>
<path d="M19.6765 10.2595C19.0851 12.2716 17.7242 13.9544 15.9341 14.9672C15.9777 15.3052 16.0001 15.6498 16.0001 15.9997C16.0001 18.4796 14.8718 20.6959 13.1005 22.1633C13.9529 22.5402 14.8969 22.7497 15.8893 22.7497C19.6726 22.7497 22.7501 19.7063 22.7501 15.9391C22.7501 13.5646 21.5269 11.4778 19.6765 10.2595Z" fill="#2F384C"/>
</svg>
