<svg width="24" height="24" viewBox="0 0 24 24" fill="none" xmlns="http://www.w3.org/2000/svg">
<path d="M13.25 5C13.25 2.92893 14.9289 1.25 17 1.25C19.071 1.25 20.75 2.92893 20.75 5C20.75 7.07107 19.071 8.75 17 8.75C14.9289 8.75 13.25 7.07107 13.25 5Z" fill="#2F384C"/>
<path d="M11.6917 10.8003C10.7959 9.40671 10.348 8.70994 9.77841 8.46928C9.28075 8.259 8.71919 8.259 8.22153 8.46928C7.65197 8.70994 7.20405 9.40671 6.3082 10.8003L3.38056 15.3544C1.83199 17.7633 1.0577 18.9677 1.12884 19.9637C1.19084 20.8317 1.62667 21.63 2.32328 22.1515C3.12265 22.75 4.55451 22.75 7.41821 22.75H16.5817C19.4454 22.75 20.8773 22.75 21.6767 22.1515C22.3733 21.63 22.8091 20.8317 22.8711 19.9637C22.9422 18.9677 22.168 17.7633 20.6194 15.3544L19.5 13.6131C19.22 13.1775 19.08 12.9597 18.9496 12.8226C18.1612 11.9931 16.8388 11.9931 16.0504 12.8226C15.92 12.9597 15.78 13.1775 15.5 13.6131V13.6131C15.36 13.8308 15.29 13.9397 15.2248 14.0083C14.8306 14.423 14.1694 14.423 13.7752 14.0083C13.71 13.9397 13.64 13.8308 13.5 13.6131L11.6917 10.8003Z" fill="#2F384C"/>
</svg>
