<svg width="24" height="24" viewBox="0 0 24 24" fill="none" xmlns="http://www.w3.org/2000/svg">
<path d="M9 15L12 12M12 12L15 9M12 12L9 9M12 12L15 15M3.87452 17.8745L6.12548 20.1255C6.81729 20.8173 7.16319 21.1632 7.56686 21.4106C7.92475 21.6299 8.31493 21.7915 8.72307 21.8895C9.18342 22 9.6726 22 10.651 22H13.349C14.3274 22 14.8166 22 15.2769 21.8895C15.6851 21.7915 16.0753 21.6299 16.4331 21.4106C16.8368 21.1632 17.1827 20.8173 17.8745 20.1255L20.1255 17.8745C20.8173 17.1827 21.1632 16.8368 21.4106 16.4331C21.6299 16.0753 21.7915 15.6851 21.8895 15.2769C22 14.8166 22 14.3274 22 13.349V10.651C22 9.6726 22 9.18342 21.8895 8.72307C21.7915 8.31493 21.6299 7.92475 21.4106 7.56686C21.1632 7.16319 20.8173 6.81729 20.1255 6.12548L17.8745 3.87452C17.1827 3.18271 16.8368 2.83681 16.4331 2.58944C16.0753 2.37012 15.6851 2.20851 15.2769 2.11052C14.8166 2 14.3274 2 13.349 2H10.651C9.6726 2 9.18342 2 8.72307 2.11052C8.31493 2.20851 7.92475 2.37012 7.56686 2.58944C7.16319 2.83681 6.81729 3.18271 6.12548 3.87452L3.87452 6.12548C3.18271 6.81729 2.83681 7.16319 2.58944 7.56686C2.37012 7.92475 2.20851 8.31493 2.11052 8.72307C2 9.18342 2 9.6726 2 10.651V13.349C2 14.3274 2 14.8166 2.11052 15.2769C2.20851 15.6851 2.37012 16.0753 2.58944 16.4331C2.83681 16.8368 3.18271 17.1827 3.87452 17.8745Z" stroke="currentColor" stroke-width="1.5" stroke-linecap="round" stroke-linejoin="round"/>
</svg>
