<svg width="24" height="24" viewBox="0 0 24 24" fill="none" xmlns="http://www.w3.org/2000/svg">
<path d="M12.0001 6.25C10.6391 6.25 9.214 6.46371 7.77635 6.91306C5.61848 7.58752 3.71683 8.72204 1.99932 10.1222C1.70865 10.3591 1.56332 10.4776 1.40555 10.6692C0.843792 11.3512 0.69279 12.4773 1.05501 13.2833C1.15674 13.5097 1.29607 13.7047 1.57472 14.0948V14.0948C1.91019 14.5645 2.07792 14.7993 2.25934 14.9691C2.9544 15.6198 3.95867 15.8191 4.84954 15.4833C5.08208 15.3957 5.32679 15.2427 5.81622 14.9369L5.96603 14.8432C6.52007 14.4969 6.79708 14.3238 7.03227 14.1201C7.65063 13.5844 8.08986 12.872 8.29075 12.0789C8.36716 11.7773 8.39744 11.4521 8.458 10.8015L8.49918 10.3591C8.5668 9.6327 8.60061 9.26949 8.78195 8.92146C8.94628 8.60607 9.30577 8.24427 9.6201 8.07792C9.96695 7.89435 10.2525 7.86591 10.8236 7.80905C11.2219 7.76938 11.6146 7.75 12.0001 7.75C12.3856 7.75 12.7783 7.76938 13.1766 7.80905C13.7477 7.86591 14.0332 7.89435 14.3801 8.07792C14.6944 8.24427 15.0539 8.60608 15.2182 8.92146C15.3996 9.26949 15.4334 9.6327 15.501 10.3591L15.5422 10.8015C15.6028 11.4521 15.633 11.7773 15.7094 12.079C15.9103 12.872 16.3496 13.5844 16.9679 14.1201C17.2031 14.3238 17.4801 14.4969 18.0342 14.8432L18.184 14.9369C18.6734 15.2428 18.9181 15.3957 19.1506 15.4833C20.0415 15.8191 21.0458 15.6198 21.7409 14.9691C21.9223 14.7993 22.09 14.5645 22.4255 14.0949V14.0949C22.7041 13.7048 22.8434 13.5097 22.9452 13.2834C23.3074 12.4774 23.1564 11.3513 22.5946 10.6692C22.4369 10.4777 22.2916 10.3592 22.0009 10.1222C20.2834 8.72208 18.3817 7.58753 16.2238 6.91306C14.7862 6.46371 13.3611 6.25 12.0001 6.25Z" fill="#2F384C"/>
</svg>
