<svg width="24" height="24" viewBox="0 0 24 24" fill="none" xmlns="http://www.w3.org/2000/svg">
<path fill-rule="evenodd" clip-rule="evenodd" d="M2.73229 1.50156C3.24991 1.24988 3.86279 1.24988 5.08853 1.24988C6.08418 1.24988 6.58201 1.24988 7.00244 1.4057C7.48759 1.58551 7.90499 1.91141 8.19709 2.33846C8.45023 2.70854 8.57098 3.19151 8.81246 4.15743L8.81246 4.15744L9.02766 5.01824L9.02766 5.01824C9.31811 6.18006 9.46334 6.76098 9.44146 7.33106C9.42209 7.83591 9.30725 8.33251 9.10302 8.79461C8.87239 9.31643 8.48688 9.7746 7.71584 10.691L7.2217 11.2782L7.2217 11.2782C6.68711 11.9136 6.41982 12.2312 6.3023 12.6416C6.20905 12.9672 6.20972 13.4232 6.30392 13.7485C6.42265 14.1586 6.64769 14.4244 7.09777 14.9562C7.63215 15.5875 8.21146 16.1765 8.83324 16.7209C9.33989 17.1645 9.59321 17.3863 9.98771 17.5129C10.301 17.6134 10.7429 17.6303 11.063 17.554C11.466 17.4578 11.7872 17.2173 12.4298 16.7362L13.4 16.0097L13.4 16.0097C14.2949 15.3396 14.7424 15.0046 15.2406 14.8077C15.6821 14.6332 16.1511 14.5387 16.6256 14.5285C17.1613 14.5171 17.7036 14.6527 18.7882 14.9238L19.8424 15.1874C20.8084 15.4289 21.2913 15.5496 21.6614 15.8028C22.0885 16.0949 22.4144 16.5123 22.5942 16.9974C22.75 17.4179 22.75 17.9157 22.75 18.9113C22.75 20.1366 22.75 20.7493 22.4981 21.267C22.2292 21.82 21.6472 22.3359 21.0659 22.5366C20.5216 22.7245 19.9877 22.66 18.9199 22.531C15.8754 22.163 12.9309 21.293 10.2624 19.6372C7.73479 18.0688 5.66357 15.9504 4.14703 13.3811C2.6247 10.802 1.81716 7.98603 1.4675 5.08002C1.33892 4.01139 1.27463 3.47708 1.46268 2.93309C1.6636 2.35186 2.17922 1.77048 2.73229 1.50156ZM16 2.25002C15.5857 2.25002 15.25 2.58581 15.25 3.00002C15.25 3.41424 15.5857 3.75002 16 3.75002H19.1893L14.4696 8.46969C14.1767 8.76259 14.1767 9.23746 14.4696 9.53035C14.7625 9.82325 15.2374 9.82325 15.5303 9.53035L20.25 4.81068V8.00002C20.25 8.41424 20.5857 8.75002 21 8.75002C21.4142 8.75002 21.75 8.41424 21.75 8.00002V3.00002C21.75 2.58581 21.4142 2.25002 21 2.25002H16Z" fill="#2F384C"/>
</svg>
