<svg width="24" height="24" viewBox="0 0 24 24" fill="none" xmlns="http://www.w3.org/2000/svg">
<path fill-rule="evenodd" clip-rule="evenodd" d="M7.00004 3.25C6.58583 3.25 6.25004 3.58579 6.25004 4V8C6.25004 8.41421 6.58583 8.75 7.00004 8.75C7.41426 8.75 7.75004 8.41421 7.75004 8V5.81066L9.20697 7.26759L9.22849 7.28911L9.22852 7.28914C9.6062 7.66683 9.92145 7.98209 10.2 8.2186C10.4906 8.46527 10.7903 8.67001 11.1502 8.78698C11.7026 8.96644 12.2975 8.96644 12.8498 8.78698C13.2098 8.67001 13.5095 8.46527 13.8 8.2186C14.0786 7.98208 14.3939 7.66681 14.7716 7.28909L14.7931 7.26759L17.0304 5.03033C17.3233 4.73744 17.3233 4.26256 17.0304 3.96967C16.7375 3.67678 16.2626 3.67678 15.9697 3.96967L13.7325 6.20693C13.3277 6.6117 13.0556 6.88296 12.8293 7.07509C12.6097 7.26153 12.483 7.32899 12.3863 7.36039C12.1353 7.44197 11.8648 7.44197 11.6138 7.36039C11.5171 7.32899 11.3904 7.26153 11.1708 7.07509C10.9445 6.88297 10.6724 6.6117 10.2676 6.20693L8.8107 4.75H11C11.4143 4.75 11.75 4.41421 11.75 4C11.75 3.58579 11.4143 3.25 11 3.25H7.00004ZM7.77623 11.9131C9.21388 11.4637 10.639 11.25 12 11.25C13.361 11.25 14.7861 11.4637 16.2237 11.9131C18.3816 12.5875 20.2833 13.7221 22.0008 15.1222L22.0008 15.1223C22.2914 15.3592 22.4368 15.4777 22.5945 15.6692C23.1563 16.3513 23.3073 17.4774 22.945 18.2834C22.8433 18.5097 22.704 18.7048 22.4254 19.0949L22.4253 19.0949C22.0899 19.5645 21.9222 19.7993 21.7407 19.9691C21.0457 20.6198 20.0414 20.8191 19.1505 20.4833C18.918 20.3957 18.6733 20.2428 18.1839 19.9369L18.034 19.8432C17.48 19.4969 17.203 19.3238 16.9678 19.1201C16.3494 18.5844 15.9102 17.872 15.7093 17.079C15.6329 16.7773 15.6026 16.4521 15.5421 15.8015L15.5421 15.8015L15.5009 15.3591V15.3591C15.4333 14.6327 15.3995 14.2695 15.2181 13.9215C15.0538 13.6061 14.6943 13.2443 14.38 13.0779C14.0331 12.8943 13.7476 12.8659 13.1765 12.809C12.7781 12.7694 12.3855 12.75 12 12.75C11.6145 12.75 11.2218 12.7694 10.8235 12.809C10.2524 12.8659 9.96684 12.8943 9.61998 13.0779C9.30566 13.2443 8.94616 13.6061 8.78184 13.9215C8.6005 14.2695 8.56668 14.6327 8.49906 15.3591L8.45788 15.8015C8.39732 16.4521 8.36704 16.7773 8.29063 17.0789C8.08974 17.872 7.65051 18.5844 7.03215 19.1201C6.79696 19.3238 6.51995 19.4969 5.96592 19.8432L5.8161 19.9369C5.32667 20.2427 5.08196 20.3957 4.84943 20.4833C3.95855 20.8191 2.95428 20.6198 2.25922 19.9691C2.0778 19.7993 1.91007 19.5645 1.5746 19.0948C1.29595 18.7047 1.15662 18.5097 1.05489 18.2833C0.692672 17.4773 0.843674 16.3512 1.40544 15.6692C1.5632 15.4776 1.70854 15.3591 1.9992 15.1222C3.71671 13.722 5.61836 12.5875 7.77623 11.9131Z" fill="#2F384C"/>
</svg>
