<svg width="24" height="24" viewBox="0 0 24 24" fill="none" xmlns="http://www.w3.org/2000/svg">
<path d="M4 1.25C2.48122 1.25 1.25 2.48122 1.25 4C1.25 5.51878 2.48122 6.75 4 6.75C5.51878 6.75 6.75 5.51878 6.75 4C6.75 2.48122 5.51878 1.25 4 1.25Z" fill="#2F384C"/>
<path d="M4 9.25C2.48122 9.25 1.25 10.4812 1.25 12C1.25 13.5188 2.48122 14.75 4 14.75C5.51878 14.75 6.75 13.5188 6.75 12C6.75 10.4812 5.51878 9.25 4 9.25Z" fill="#2F384C"/>
<path d="M9.25 4C9.25 2.48122 10.4812 1.25 12 1.25C13.5188 1.25 14.75 2.48122 14.75 4C14.75 5.51878 13.5188 6.75 12 6.75C10.4812 6.75 9.25 5.51878 9.25 4Z" fill="#2F384C"/>
<path d="M12 9.25C10.4812 9.25 9.25 10.4812 9.25 12C9.25 13.5188 10.4812 14.75 12 14.75C13.5188 14.75 14.75 13.5188 14.75 12C14.75 10.4812 13.5188 9.25 12 9.25Z" fill="#2F384C"/>
<path d="M9.25 20C9.25 18.4812 10.4812 17.25 12 17.25C13.5188 17.25 14.75 18.4812 14.75 20C14.75 21.5188 13.5188 22.75 12 22.75C10.4812 22.75 9.25 21.5188 9.25 20Z" fill="#2F384C"/>
<path d="M20 1.25C18.4812 1.25 17.25 2.48122 17.25 4C17.25 5.51878 18.4812 6.75 20 6.75C21.5188 6.75 22.75 5.51878 22.75 4C22.75 2.48122 21.5188 1.25 20 1.25Z" fill="#2F384C"/>
<path d="M17.25 12C17.25 10.4812 18.4812 9.25 20 9.25C21.5188 9.25 22.75 10.4812 22.75 12C22.75 13.5188 21.5188 14.75 20 14.75C18.4812 14.75 17.25 13.5188 17.25 12Z" fill="#2F384C"/>
</svg>
