<svg width="24" height="24" viewBox="0 0 24 24" fill="none" xmlns="http://www.w3.org/2000/svg">
<path fill-rule="evenodd" clip-rule="evenodd" d="M9 1.25C6.37665 1.25 4.25 3.37665 4.25 6C4.25 8.62335 6.37665 10.75 9 10.75C11.6234 10.75 13.75 8.62335 13.75 6C13.75 3.37665 11.6234 1.25 9 1.25ZM1.25 18.95C1.25 15.802 3.80198 13.25 6.95 13.25H11.05C14.198 13.25 16.75 15.802 16.75 18.95C16.75 21.0487 15.0487 22.75 12.95 22.75H5.05C2.95132 22.75 1.25 21.0487 1.25 18.95ZM18 6.25C17.5858 6.25 17.25 6.58579 17.25 7C17.25 7.41421 17.5858 7.75 18 7.75H20.1893L16.4697 11.4697C16.1768 11.7626 16.1768 12.2374 16.4697 12.5303C16.7626 12.8232 17.2374 12.8232 17.5303 12.5303L21.25 8.81066V11C21.25 11.4142 21.5858 11.75 22 11.75C22.4142 11.75 22.75 11.4142 22.75 11V7C22.75 6.58579 22.4142 6.25 22 6.25H18Z" fill="#2F384C"/>
</svg>
