<svg width="24" height="24" viewBox="0 0 24 24" fill="none" xmlns="http://www.w3.org/2000/svg">
<path fill-rule="evenodd" clip-rule="evenodd" d="M9 1.25C6.37665 1.25 4.25 3.37665 4.25 6C4.25 8.62335 6.37665 10.75 9 10.75C11.6234 10.75 13.75 8.62335 13.75 6C13.75 3.37665 11.6234 1.25 9 1.25ZM1.25 18.95C1.25 15.802 3.80198 13.25 6.95 13.25H11.05C14.198 13.25 16.75 15.802 16.75 18.95C16.75 21.0487 15.0487 22.75 12.95 22.75H5.05C2.95132 22.75 1.25 21.0487 1.25 18.95ZM20.75 5C20.75 4.58579 20.4142 4.25 20 4.25C19.5858 4.25 19.25 4.58579 19.25 5V10C19.25 10.4142 19.5858 10.75 20 10.75C20.4142 10.75 20.75 10.4142 20.75 10V5ZM20 11.75C19.3096 11.75 18.75 12.3096 18.75 13C18.75 13.6904 19.3096 14.25 20 14.25C20.6904 14.25 21.25 13.6904 21.25 13C21.25 12.3096 20.6904 11.75 20 11.75Z" fill="#2F384C"/>
</svg>
