<svg width="24" height="24" viewBox="0 0 24 24" fill="none" xmlns="http://www.w3.org/2000/svg">
<path fill-rule="evenodd" clip-rule="evenodd" d="M9 1.25C6.37665 1.25 4.25 3.37665 4.25 6C4.25 8.62335 6.37665 10.75 9 10.75C11.6234 10.75 13.75 8.62335 13.75 6C13.75 3.37665 11.6234 1.25 9 1.25ZM1.25 18.95C1.25 15.802 3.80198 13.25 6.95 13.25H11.05C14.198 13.25 16.75 15.802 16.75 18.95C16.75 21.0487 15.0487 22.75 12.95 22.75H5.05C2.95132 22.75 1.25 21.0487 1.25 18.95ZM20.75 7C20.75 6.58579 20.4142 6.25 20 6.25C19.5858 6.25 19.25 6.58579 19.25 7V11.1893L17.5303 9.46967C17.2374 9.17678 16.7626 9.17678 16.4697 9.46967C16.1768 9.76256 16.1768 10.2374 16.4697 10.5303L19.4697 13.5303C19.7626 13.8232 20.2374 13.8232 20.5303 13.5303L23.5303 10.5303C23.8232 10.2374 23.8232 9.76256 23.5303 9.46967C23.2374 9.17678 22.7626 9.17678 22.4697 9.46967L20.75 11.1893V7Z" fill="#2F384C"/>
</svg>
