<svg width="24" height="24" viewBox="0 0 24 24" fill="none" xmlns="http://www.w3.org/2000/svg">
<path fill-rule="evenodd" clip-rule="evenodd" d="M9 1.25C6.37665 1.25 4.25 3.37665 4.25 6C4.25 8.62335 6.37665 10.75 9 10.75C11.6234 10.75 13.75 8.62335 13.75 6C13.75 3.37665 11.6234 1.25 9 1.25ZM1.25 18.95C1.25 15.802 3.80198 13.25 6.95 13.25H11.05C14.198 13.25 16.75 15.802 16.75 18.95C16.75 21.0487 15.0487 22.75 12.95 22.75H5.05C2.95132 22.75 1.25 21.0487 1.25 18.95ZM22.5303 7.53033C22.8232 7.23744 22.8232 6.76256 22.5303 6.46967C22.2374 6.17678 21.7626 6.17678 21.4697 6.46967L17.75 10.1893V8C17.75 7.58579 17.4142 7.25 17 7.25C16.5858 7.25 16.25 7.58579 16.25 8V12C16.25 12.4142 16.5858 12.75 17 12.75H21C21.4142 12.75 21.75 12.4142 21.75 12C21.75 11.5858 21.4142 11.25 21 11.25H18.8107L22.5303 7.53033Z" fill="#2F384C"/>
</svg>
