<svg width="24" height="24" viewBox="0 0 24 24" fill="none" xmlns="http://www.w3.org/2000/svg">
<path d="M14 8.14286L17.0696 6.16956C18.6755 5.13718 19.4785 4.62099 20.1425 4.66841C20.7211 4.70974 21.2534 5.0003 21.601 5.46471C22 5.99762 22 6.95219 22 8.86133V15.1387C22 17.0478 22 18.0024 21.601 18.5353C21.2534 18.9997 20.7211 19.2903 20.1425 19.3316C19.4785 19.379 18.6755 18.8628 17.0696 17.8304L14 15.8571M4.1872 14.6918L9.06958 17.8304C10.6755 18.8628 11.4785 19.379 12.1425 19.3316C12.7211 19.2903 13.2534 18.9997 13.601 18.5353C14 18.0024 14 17.0478 14 15.1387V8.86133C14 6.95219 14 5.99762 13.601 5.46471C13.2534 5.0003 12.7211 4.70974 12.1425 4.66841C11.4785 4.62099 10.6755 5.13718 9.06957 6.16956L4.1872 9.30823C2.79366 10.2041 2.09688 10.652 1.85622 11.2216C1.64595 11.7192 1.64595 12.2808 1.85622 12.7784C2.09688 13.348 2.79366 13.7959 4.1872 14.6918Z" stroke="currentColor" stroke-width="1.5" stroke-linecap="round" stroke-linejoin="round"/>
</svg>
