<svg width="24" height="24" viewBox="0 0 24 24" fill="none" xmlns="http://www.w3.org/2000/svg">
<path d="M10 8.14286L6.93042 6.16956C5.3245 5.13718 4.52153 4.62099 3.85752 4.66841C3.27885 4.70974 2.74665 5.0003 2.39897 5.46471C2 5.99762 2 6.95219 2 8.86133V15.1387C2 17.0478 2 18.0024 2.39897 18.5353C2.74665 18.9997 3.27885 19.2903 3.85752 19.3316C4.52153 19.379 5.3245 18.8628 6.93042 17.8304L10 15.8571M19.8128 14.6918L14.9304 17.8304C13.3245 18.8628 12.5215 19.379 11.8575 19.3316C11.2789 19.2903 10.7466 18.9997 10.399 18.5353C10 18.0024 10 17.0478 10 15.1387V8.86133C10 6.95219 10 5.99762 10.399 5.46471C10.7466 5.0003 11.2789 4.70974 11.8575 4.66841C12.5215 4.62099 13.3245 5.13718 14.9304 6.16956L19.8128 9.30823C21.2063 10.2041 21.9031 10.652 22.1438 11.2216C22.3541 11.7192 22.3541 12.2808 22.1438 12.7784C21.9031 13.348 21.2063 13.7959 19.8128 14.6918Z" stroke="currentColor" stroke-width="1.5" stroke-linecap="round" stroke-linejoin="round"/>
</svg>
