<svg width="24" height="24" viewBox="0 0 24 24" fill="none" xmlns="http://www.w3.org/2000/svg">
<path d="M12 22C17.5228 22 22 17.5228 22 12C22 6.47715 17.5228 2 12 2C6.47715 2 2 6.47715 2 12C2 17.5228 6.47715 22 12 22ZM12 22H22M6.5 12C6.5 12.2761 6.27614 12.5 6 12.5C5.72386 12.5 5.5 12.2761 5.5 12M6.5 12C6.5 11.7239 6.27614 11.5 6 11.5C5.72386 11.5 5.5 11.7239 5.5 12M6.5 12H5.5M18.5 12C18.5 12.2761 18.2761 12.5 18 12.5C17.7239 12.5 17.5 12.2761 17.5 12M18.5 12C18.5 11.7239 18.2761 11.5 18 11.5C17.7239 11.5 17.5 11.7239 17.5 12M18.5 12H17.5M12.5 6C12.5 6.27614 12.2761 6.5 12 6.5C11.7239 6.5 11.5 6.27614 11.5 6M12.5 6C12.5 5.72386 12.2761 5.5 12 5.5C11.7239 5.5 11.5 5.72386 11.5 6M12.5 6H11.5M12.5 18C12.5 18.2761 12.2761 18.5 12 18.5C11.7239 18.5 11.5 18.2761 11.5 18M12.5 18C12.5 17.7239 12.2761 17.5 12 17.5C11.7239 17.5 11.5 17.7239 11.5 18M12.5 18H11.5M14 12C14 13.1046 13.1046 14 12 14C10.8954 14 10 13.1046 10 12C10 10.8954 10.8954 10 12 10C13.1046 10 14 10.8954 14 12Z" stroke="currentColor" stroke-width="1.5" stroke-linecap="round" stroke-linejoin="round"/>
</svg>
