<svg width="24" height="24" viewBox="0 0 24 24" fill="none" xmlns="http://www.w3.org/2000/svg">
<path d="M10 6V7.6C10 8.44008 10 8.86012 9.83651 9.18099C9.6927 9.46323 9.46323 9.6927 9.18099 9.83651C8.86012 10 8.44008 10 7.6 10H6M10 18V16.4C10 15.5599 10 15.1399 9.83651 14.819C9.6927 14.5368 9.46323 14.3073 9.18099 14.1635C8.86012 14 8.44008 14 7.6 14H6M14 6V7.6C14 8.44008 14 8.86012 14.1635 9.18099C14.3073 9.46323 14.5368 9.6927 14.819 9.83651C15.1399 10 15.5599 10 16.4 10H18M14 18V16.4C14 15.5599 14 15.1399 14.1635 14.819C14.3073 14.5368 14.5368 14.3073 14.819 14.1635C15.1399 14 15.5599 14 16.4 14H18M10 22H14C16.8003 22 18.2004 22 19.27 21.455C20.2108 20.9757 20.9757 20.2108 21.455 19.27C22 18.2004 22 16.8003 22 14V10C22 7.19974 22 5.79961 21.455 4.73005C20.9757 3.78924 20.2108 3.02433 19.27 2.54497C18.2004 2 16.8003 2 14 2H10C7.19974 2 5.79961 2 4.73005 2.54497C3.78924 3.02433 3.02433 3.78924 2.54497 4.73005C2 5.79961 2 7.19974 2 10V14C2 16.8003 2 18.2004 2.54497 19.27C3.02433 20.2108 3.78924 20.9757 4.73005 21.455C5.79961 22 7.19974 22 10 22Z" stroke="currentColor" stroke-width="1.5" stroke-linecap="round" stroke-linejoin="round"/>
</svg>
