<svg width="24" height="24" viewBox="0 0 24 24" fill="none" xmlns="http://www.w3.org/2000/svg">
<path d="M9 19V11M9 19C9 20.6569 7.65685 22 6 22C4.34315 22 3 20.6569 3 19C3 17.3431 4.34315 16 6 16C7.65685 16 9 17.3431 9 19ZM9 11V6.72437C9 6.04545 9 5.70599 9.11953 5.42478C9.22497 5.17671 9.39532 4.96163 9.61265 4.80217C9.85901 4.62141 10.1894 4.54366 10.8503 4.38816L18.0503 2.69405C19.0574 2.45708 19.561 2.33859 19.9568 2.46516C20.3039 2.57612 20.5986 2.80959 20.7861 3.12197C21 3.47831 21 3.99562 21 5.03025V6.12614C21 6.79614 21 7.13114 20.8829 7.40985C20.7796 7.65575 20.6126 7.86966 20.3991 8.02953C20.1571 8.21073 19.8321 8.29198 19.1821 8.45448L9 11Z" stroke="currentColor" stroke-width="1.5" stroke-linecap="round" stroke-linejoin="round"/>
</svg>
