<svg width="24" height="24" viewBox="0 0 24 24" fill="none" xmlns="http://www.w3.org/2000/svg">
<path d="M2.83209 8C3.14405 7.28599 3.53698 6.61546 3.99927 6M2.83209 16C3.14405 16.714 3.53698 17.3845 3.99927 18M8 21.1679C7.28562 20.8558 6.61475 20.4626 5.99902 20M8 2.83209C7.28599 3.14405 6.61546 3.53698 6 3.99927M2.04938 11C2.01672 11.3289 2 11.6625 2 12C2 12.3375 2.01672 12.6711 2.04938 13M11 21.9506C11.3289 21.9833 11.6625 22 12 22C17.5228 22 22 17.5228 22 12C22 6.47715 17.5228 2 12 2C11.6625 2 11.3289 2.01672 11 2.04938M15.0015 12.6656L11.2438 15.1708C10.8397 15.4402 10.6377 15.5749 10.4702 15.5649C10.3243 15.5561 10.1894 15.484 10.1012 15.3674C10 15.2336 10 14.9908 10 14.5052V9.49481C10 9.00923 10 8.76644 10.1012 8.63261C10.1894 8.51601 10.3243 8.44386 10.4702 8.43515C10.6377 8.42515 10.8397 8.55982 11.2438 8.82917L15.0015 11.3344C15.3354 11.5569 15.5023 11.6682 15.5605 11.8085C15.6113 11.9311 15.6113 12.0689 15.5605 12.1915C15.5023 12.3318 15.3354 12.4431 15.0015 12.6656Z" stroke="currentColor" stroke-width="1.5" stroke-linecap="round" stroke-linejoin="round"/>
</svg>
