<svg width="24" height="24" viewBox="0 0 24 24" fill="none" xmlns="http://www.w3.org/2000/svg">
<path d="M9 11.4C9 10.5599 9 10.1399 9.16349 9.81901C9.3073 9.53677 9.53677 9.3073 9.81901 9.16349C10.1399 9 10.5599 9 11.4 9H12.6C13.4401 9 13.8601 9 14.181 9.16349C14.4632 9.3073 14.6927 9.53677 14.8365 9.81901C15 10.1399 15 10.5599 15 11.4V12.6C15 13.4401 15 13.8601 14.8365 14.181C14.6927 14.4632 14.4632 14.6927 14.181 14.8365C13.8601 15 13.4401 15 12.6 15H11.4C10.5599 15 10.1399 15 9.81901 14.8365C9.53677 14.6927 9.3073 14.4632 9.16349 14.181C9 13.8601 9 13.4401 9 12.6V11.4Z" stroke="currentColor" stroke-width="1.5" stroke-linecap="round" stroke-linejoin="round"/>
<path d="M22 12C22 17.5228 17.5228 22 12 22C6.47715 22 2 17.5228 2 12C2 6.47715 6.47715 2 12 2C17.5228 2 22 6.47715 22 12Z" stroke="currentColor" stroke-width="1.5" stroke-linecap="round" stroke-linejoin="round"/>
</svg>
