<svg width="24" height="24" viewBox="0 0 24 24" fill="none" xmlns="http://www.w3.org/2000/svg">
<path d="M8 1L8.16 1.12C9.53703 2.15278 10.2256 2.66916 10.9817 2.86822C11.6492 3.04393 12.3508 3.04393 13.0183 2.86822C13.7744 2.66916 14.463 2.15278 15.84 1.12L16 1M8 20L7 22M16 20L17 22M12.5 16C12.5 16.2761 12.2761 16.5 12 16.5C11.7239 16.5 11.5 16.2761 11.5 16M12.5 16C12.5 15.7239 12.2761 15.5 12 15.5C11.7239 15.5 11.5 15.7239 11.5 16M12.5 16H11.5M8.4 20H15.6C17.8402 20 18.9603 20 19.816 19.564C20.5686 19.1805 21.1805 18.5686 21.564 17.816C22 16.9603 22 15.8402 22 13.6V10.4C22 8.15979 22 7.03968 21.564 6.18404C21.1805 5.43139 20.5686 4.81947 19.816 4.43597C18.9603 4 17.8402 4 15.6 4H8.4C6.15979 4 5.03968 4 4.18404 4.43597C3.43139 4.81947 2.81947 5.43139 2.43597 6.18404C2 7.03968 2 8.15979 2 10.4V13.6C2 15.8402 2 16.9603 2.43597 17.816C2.81947 18.5686 3.43139 19.1805 4.18404 19.564C5.03968 20 6.15979 20 8.4 20Z" stroke="currentColor" stroke-width="1.5" stroke-linecap="round" stroke-linejoin="round"/>
</svg>
