<svg width="24" height="24" viewBox="0 0 24 24" fill="none" xmlns="http://www.w3.org/2000/svg">
<path d="M5 19V19C5 20.6569 6.34315 22 8 22H16C17.6569 22 19 20.6569 19 19V19M5 5V5C5 3.34315 6.34315 2 8 2H16C17.6569 2 19 3.34315 19 5V5M14.0031 13.3313L12.4875 14.3417C11.6795 14.8804 11.2754 15.1497 10.9404 15.1297C10.6485 15.1123 10.3789 14.968 10.2025 14.7348C10 14.4671 10 13.9815 10 13.0104V10.9896C10 10.0185 10 9.53288 10.2025 9.26521C10.3789 9.03202 10.6485 8.88772 10.9404 8.87029C11.2754 8.85029 11.6795 9.11964 12.4875 9.65835L14.0031 10.6687C14.6708 11.1138 15.0046 11.3364 15.1209 11.6169C15.2227 11.8622 15.2227 12.1378 15.1209 12.3831C15.0046 12.6636 14.6708 12.8862 14.0031 13.3313ZM8.4 19H15.6C17.8402 19 18.9603 19 19.816 18.564C20.5686 18.1805 21.1805 17.5686 21.564 16.816C22 15.9603 22 14.8402 22 12.6V11.4C22 9.15979 22 8.03968 21.564 7.18404C21.1805 6.43139 20.5686 5.81947 19.816 5.43597C18.9603 5 17.8402 5 15.6 5H8.4C6.15979 5 5.03968 5 4.18404 5.43597C3.43139 5.81947 2.81947 6.43139 2.43597 7.18404C2 8.03968 2 9.15979 2 11.4V12.6C2 14.8402 2 15.9603 2.43597 16.816C2.81947 17.5686 3.43139 18.1805 4.18404 18.564C5.03968 19 6.15979 19 8.4 19Z" stroke="currentColor" stroke-width="1.5" stroke-linecap="round" stroke-linejoin="round"/>
</svg>
