<svg width="24" height="24" viewBox="0 0 24 24" fill="none" xmlns="http://www.w3.org/2000/svg">
<path d="M6 5H18M8 2H16M14.0031 16.3313L12.4875 17.3417C11.6795 17.8804 11.2754 18.1497 10.9404 18.1297C10.6485 18.1123 10.3789 17.968 10.2025 17.7348C10 17.4671 10 16.9815 10 16.0104V13.9896C10 13.0185 10 12.5329 10.2025 12.2652C10.3789 12.032 10.6485 11.8877 10.9404 11.8703C11.2754 11.8503 11.6795 12.1196 12.4875 12.6583L14.0031 13.6687C14.6708 14.1138 15.0046 14.3364 15.1209 14.6169C15.2227 14.8622 15.2227 15.1378 15.1209 15.3831C15.0046 15.6636 14.6708 15.8862 14.0031 16.3313ZM8.4 22H15.6C17.8402 22 18.9603 22 19.816 21.564C20.5686 21.1805 21.1805 20.5686 21.564 19.816C22 18.9603 22 17.8402 22 15.6V14.4C22 12.1598 22 11.0397 21.564 10.184C21.1805 9.43139 20.5686 8.81947 19.816 8.43597C18.9603 8 17.8402 8 15.6 8H8.4C6.15979 8 5.03968 8 4.18404 8.43597C3.43139 8.81947 2.81947 9.43139 2.43597 10.184C2 11.0397 2 12.1598 2 14.4V15.6C2 17.8402 2 18.9603 2.43597 19.816C2.81947 20.5686 3.43139 21.1805 4.18404 21.564C5.03968 22 6.15979 22 8.4 22Z" stroke="currentColor" stroke-width="1.5" stroke-linecap="round" stroke-linejoin="round"/>
</svg>
