<svg width="24" height="24" viewBox="0 0 24 24" fill="none" xmlns="http://www.w3.org/2000/svg">
<path d="M13.5 4H8.4C6.15979 4 5.03968 4 4.18404 4.43597C3.43139 4.81947 2.81947 5.43139 2.43597 6.18404C2 7.03968 2 8.15979 2 10.4V15.6C2 17.8402 2 18.9603 2.43597 19.816C2.81947 20.5686 3.43139 21.1805 4.18404 21.564C5.03968 22 6.15979 22 8.4 22H13.6C15.8402 22 16.9603 22 17.816 21.564C18.5686 21.1805 19.1805 20.5686 19.564 19.816C20 18.9603 20 17.8402 20 15.6V10.5M20 1V4M20 4V7M20 4H17M20 4H23M13.0031 14.3313L11.4875 15.3417C10.6795 15.8804 10.2754 16.1497 9.9404 16.1297C9.64852 16.1123 9.37889 15.968 9.20249 15.7348C9 15.4671 9 14.9815 9 14.0104V11.9896C9 11.0185 9 10.5329 9.20249 10.2652C9.37889 10.032 9.64852 9.88772 9.9404 9.87029C10.2754 9.85029 10.6795 10.1196 11.4875 10.6583L13.0031 11.6687C13.6708 12.1138 14.0046 12.3364 14.1209 12.6169C14.2227 12.8622 14.2227 13.1378 14.1209 13.3831C14.0046 13.6636 13.6708 13.8862 13.0031 14.3313Z" stroke="currentColor" stroke-width="1.5" stroke-linecap="round" stroke-linejoin="round"/>
</svg>
