<svg width="24" height="24" viewBox="0 0 24 24" fill="none" xmlns="http://www.w3.org/2000/svg">
<path d="M5 12.8V11.2C5 10.0799 5 9.51984 5.21799 9.09202C5.40973 8.71569 5.71569 8.40973 6.09202 8.21799C6.51984 8 7.0799 8 8.2 8H9.49167C9.91814 8 10.1314 8 10.3291 7.95971C10.7111 7.88185 11.062 7.69405 11.3386 7.41939C11.4818 7.27726 11.6001 7.09984 11.8367 6.745C13.0339 4.9492 13.6325 4.05131 14.1114 3.81378C15.0579 3.34443 16.2061 3.69209 16.7332 4.60759C17 5.07091 17 6.15005 17 8.30832V15.6917C17 17.8499 17 18.9291 16.7332 19.3924C16.2061 20.3079 15.0579 20.6556 14.1114 20.1862C13.6325 19.9487 13.0339 19.0508 11.8367 17.255C11.6001 16.9002 11.4818 16.7227 11.3386 16.5806C11.062 16.306 10.7111 16.1181 10.3291 16.0403C10.1314 16 9.91814 16 9.49167 16H8.2C7.0799 16 6.51984 16 6.09202 15.782C5.71569 15.5903 5.40973 15.2843 5.21799 14.908C5 14.4802 5 13.9201 5 12.8Z" stroke="currentColor" stroke-width="1.5" stroke-linecap="round" stroke-linejoin="round"/>
</svg>
