<svg width="24" height="24" viewBox="0 0 24 24" fill="none" xmlns="http://www.w3.org/2000/svg">
<path d="M7 16.2456C8.3696 17.3435 10.1081 18.0002 12 18.0002C13.6983 18.0002 15.2731 17.471 16.5683 16.5685M7 16.2456C5.17107 14.7795 4 12.5266 4 10.0002C4 8.30188 4.52921 6.72715 5.43173 5.43194M7 16.2456C7 18.0234 3.66801 19.4975 5.48649 21.3871C6.07658 22.0002 7.31796 22.0002 9.80074 22.0002H14.1993C16.682 22.0002 17.9234 22.0002 18.5135 21.3871C19.4758 20.3871 18.8888 19.221 18.2257 18.2259M18.2257 18.2259L22 22.0002M18.2257 18.2259L16.5683 16.5685M16.5683 16.5685L5.43173 5.43194M18.9297 14.0002C19.6104 12.8235 20 11.4574 20 10.0002C20 5.58194 16.4183 2.00021 12 2.00021C10.5429 2.00021 9.17669 2.38979 8 3.07047M5.43173 5.43194L2 2.00021M12 8.00021C13.1046 8.00021 14 8.89564 14 10.0002" stroke="currentColor" stroke-width="1.5" stroke-linecap="round" stroke-linejoin="round"/>
</svg>
