<svg width="24" height="24" viewBox="0 0 24 24" fill="none" xmlns="http://www.w3.org/2000/svg">
<path d="M11.9999 1.25012C9.92887 1.25012 8.24994 2.92905 8.24994 5.00012C8.24994 6.81434 9.53826 8.32766 11.2499 8.67511L11.2499 21.2118C7.84482 20.8618 5.13822 18.1552 4.78826 14.7501H6.99994C7.41415 14.7501 7.74994 14.4143 7.74994 14.0001C7.74994 13.5859 7.41415 13.2501 6.99994 13.2501L3.99994 13.2501C3.58573 13.2501 3.24994 13.5859 3.24994 14.0001C3.24994 18.8326 7.16745 22.7501 11.9999 22.7501C16.8324 22.7501 20.7499 18.8326 20.7499 14.0001C20.7499 13.5859 20.4142 13.2501 19.9999 13.2501H16.9999C16.5857 13.2501 16.2499 13.5859 16.2499 14.0001C16.2499 14.4143 16.5857 14.7501 16.9999 14.7501H19.2116C18.8617 18.1552 16.1551 20.8618 12.7499 21.2118L12.7499 8.67511C14.4616 8.32766 15.7499 6.81434 15.7499 5.00012C15.7499 2.92905 14.071 1.25012 11.9999 1.25012Z" fill="#2F384C"/>
</svg>
