<svg width="24" height="24" viewBox="0 0 24 24" fill="none" xmlns="http://www.w3.org/2000/svg">
<path d="M6.34317 6.34325C4.96667 7.71975 3.79232 9.19765 2.86604 10.689C2.64002 10.198 2.44695 9.71269 2.28846 9.23722C1.4925 6.84935 1.50369 4.4651 2.98436 2.98443C4.46502 1.50377 6.84927 1.49258 9.23714 2.28853C9.71261 2.44702 10.1979 2.64009 10.6889 2.86612C9.19758 3.7924 7.71967 4.96675 6.34317 6.34325Z" fill="#2F384C"/>
<path d="M17.6569 17.657C16.2804 19.0334 14.8025 20.2078 13.3112 21.1341C13.8022 21.36 14.2874 21.5531 14.7628 21.7116C17.1507 22.5075 19.5349 22.4963 21.0156 21.0157C22.4962 19.535 22.5074 17.1507 21.7115 14.7629C21.553 14.2875 21.36 13.8022 21.134 13.3112C20.2077 14.8026 19.0334 16.2805 17.6569 17.657Z" fill="#2F384C"/>
<path fill-rule="evenodd" clip-rule="evenodd" d="M14.7628 2.2886C17.1507 1.49265 19.5349 1.50384 21.0156 2.9845C22.4963 4.46517 22.5075 6.84942 21.7115 9.23728C20.8997 11.6727 19.1806 14.3655 16.773 16.7731C14.3653 19.1807 11.6726 20.8998 9.23717 21.7116C6.8493 22.5076 4.46505 22.4964 2.98439 21.0157C1.50372 19.5351 1.49253 17.1508 2.28849 14.7629C3.1003 12.3275 4.8194 9.63477 7.22703 7.22714C9.63465 4.81952 12.3274 3.10042 14.7628 2.2886ZM12 14.0001C13.1045 14.0001 14 13.1047 14 12.0001C14 10.8955 13.1045 10.0001 12 10.0001C10.8954 10.0001 9.99997 10.8955 9.99997 12.0001C9.99997 13.1047 10.8954 14.0001 12 14.0001Z" fill="#2F384C"/>
</svg>
