<svg width="24" height="24" viewBox="0 0 24 24" fill="none" xmlns="http://www.w3.org/2000/svg">
<path d="M3.25006 10.0002C3.25006 5.16769 7.16757 1.25018 12.0001 1.25018C16.8326 1.25018 20.7501 5.16769 20.7501 10.0002C20.7501 14.8327 16.8326 18.7502 12.0001 18.7502C7.16757 18.7502 3.25006 14.8327 3.25006 10.0002Z" fill="#2F384C"/>
<path d="M5.73639 19.2577C5.81424 18.8295 5.85317 18.6154 5.9538 18.5079C6.04803 18.4073 6.15385 18.358 6.2915 18.3505C6.43851 18.3424 6.6438 18.4595 7.0544 18.6936C8.51292 19.5251 10.201 20.0002 12.0001 20.0002C13.7991 20.0002 15.4872 19.5251 16.9457 18.6936C17.3563 18.4595 17.5616 18.3424 17.7086 18.3505C17.8463 18.358 17.9521 18.4073 18.0463 18.508C18.1469 18.6154 18.1859 18.8295 18.2637 19.2577L18.7252 21.796C18.7937 22.1728 18.828 22.3611 18.7711 22.4975C18.7214 22.6169 18.6273 22.7123 18.5087 22.7638C18.3732 22.8227 18.1843 22.7912 17.8066 22.7283L16.0854 22.4414C14.4976 22.1768 13.7528 22.0535 13.0067 22.0041C12.3364 21.9598 11.6638 21.9598 10.9934 22.0041C10.2473 22.0535 9.50249 22.1768 7.91475 22.4414L6.19349 22.7283C5.81579 22.7912 5.62694 22.8227 5.49139 22.7638C5.37278 22.7123 5.27873 22.6169 5.22898 22.4975C5.17213 22.3611 5.20638 22.1728 5.27488 21.796L5.73639 19.2577Z" fill="#2F384C"/>
</svg>
