<svg width="24" height="24" viewBox="0 0 24 24" fill="none" xmlns="http://www.w3.org/2000/svg">
<path d="M1.25001 0.250014C0.835794 0.250006 0.5 0.585794 0.5 1.00001V1.00001C0.5 1.41422 0.835779 1.75001 1.24999 1.75001L2.02602 1.75002C2.78544 1.75004 3.4293 2.30846 3.5367 3.06025L4.04793 6.63889C4.07244 6.81041 4.08469 6.89618 4.11747 6.965C4.17735 7.09073 4.28695 7.18578 4.41988 7.22728C4.49265 7.25 4.57928 7.25 4.75255 7.25H5.108C5.39431 7.25 5.61424 6.99642 5.57375 6.71299L5.02279 2.85629C4.80916 1.36085 3.52843 0.250056 2.0178 0.250028L1.25001 0.250014Z" fill="#2F384C"/>
<path d="M9.81043 6.19702C9.69193 6.55252 9.63267 6.73028 9.6682 6.87177C9.6993 6.99562 9.77661 7.10288 9.88427 7.17155C10.0073 7.25 10.1946 7.25 10.5694 7.25H21.4306C21.8054 7.25 21.9927 7.25 22.1157 7.17155C22.2234 7.10288 22.3007 6.99562 22.3318 6.87177C22.3673 6.73028 22.3081 6.55253 22.1896 6.19702L21.9764 5.5576C21.474 4.05015 21.2227 3.29643 20.7658 2.73233C20.3176 2.17898 19.7298 1.75532 19.0631 1.50509C18.3834 1.25001 17.5889 1.25002 16 1.25003V1.25003C14.411 1.25004 13.6165 1.25005 12.9369 1.50513C12.2702 1.75536 11.6824 2.17902 11.2342 2.73236C10.7773 3.29645 10.5261 4.05016 10.0236 5.55758L9.81043 6.19702Z" fill="#2F384C"/>
<path d="M22.52 9.66314C22.565 9.34816 22.5875 9.19068 22.5398 9.0683C22.4979 8.96088 22.4201 8.87123 22.3197 8.81456C22.2053 8.75 22.0462 8.75 21.7281 8.75H5.27193C4.95376 8.75 4.79467 8.75 4.68028 8.81456C4.57986 8.87123 4.50211 8.96088 4.46021 9.0683C4.41247 9.19068 4.43497 9.34816 4.47997 9.66314L4.56454 10.2552C4.84288 12.2035 4.98205 13.1777 5.45233 13.9105C5.86676 14.5563 6.45818 15.0692 7.15606 15.3881C7.948 15.7501 8.93207 15.7501 10.9002 15.7501H16.0998C18.0679 15.7501 19.052 15.7501 19.8439 15.3881C20.5418 15.0692 21.1332 14.5563 21.5477 13.9105C22.0179 13.1777 22.1571 12.2035 22.4355 10.2551L22.52 9.66314Z" fill="#2F384C"/>
<path d="M6.25 20C6.25 18.4812 7.48122 17.25 9 17.25C10.5188 17.25 11.75 18.4812 11.75 20C11.75 21.5188 10.5188 22.75 9 22.75C7.48122 22.75 6.25 21.5188 6.25 20Z" fill="#2F384C"/>
<path d="M16.25 20C16.25 18.4812 17.4812 17.25 19 17.25C20.5188 17.25 21.75 18.4812 21.75 20C21.75 21.5188 20.5188 22.75 19 22.75C17.4812 22.75 16.25 21.5188 16.25 20Z" fill="#2F384C"/>
</svg>
