<svg width="24" height="24" viewBox="0 0 24 24" fill="none" xmlns="http://www.w3.org/2000/svg">
<path fill-rule="evenodd" clip-rule="evenodd" d="M4.52606 1.90396C5.80953 1.25 7.48968 1.25 10.85 1.25L13.15 1.25C16.5103 1.25 18.1905 1.25 19.4739 1.90396C20.6029 2.4792 21.5208 3.39709 22.096 4.52606C22.75 5.80953 22.75 7.48969 22.75 10.85L22.75 13.15C22.75 16.5103 22.75 18.1905 22.096 19.4739C21.5208 20.6029 20.6029 21.5208 19.4739 22.096C18.1905 22.75 16.5103 22.75 13.15 22.75L10.85 22.75C7.48968 22.75 5.80953 22.75 4.52605 22.096C3.39708 21.5208 2.4792 20.6029 1.90396 19.4739C1.25 18.1905 1.25 16.5103 1.25 13.15L1.25 10.85C1.25 7.48969 1.25 5.80953 1.90396 4.52606C2.4792 3.39709 3.39708 2.4792 4.52606 1.90396ZM7.74999 8C7.74999 7.58579 7.4142 7.25 6.99999 7.25C6.58578 7.25 6.24999 7.58579 6.24999 8L6.24999 16C6.24999 16.4142 6.58578 16.75 6.99999 16.75C7.4142 16.75 7.74999 16.4142 7.74999 16L7.74999 8ZM17.75 9C17.75 8.58579 17.4142 8.25 17 8.25C16.5858 8.25 16.25 8.58579 16.25 9L16.25 16C16.25 16.4142 16.5858 16.75 17 16.75C17.4142 16.75 17.75 16.4142 17.75 16L17.75 9ZM12.75 11C12.75 10.5858 12.4142 10.25 12 10.25C11.5858 10.25 11.25 10.5858 11.25 11L11.25 16C11.25 16.4142 11.5858 16.75 12 16.75C12.4142 16.75 12.75 16.4142 12.75 16L12.75 11Z" fill="#2F384C"/>
</svg>
