<svg width="24" height="24" viewBox="0 0 24 24" fill="none" xmlns="http://www.w3.org/2000/svg">
<path d="M1.25 8.65C1.25 6.40979 1.25 5.28968 1.68597 4.43404C2.06947 3.68139 2.68139 3.06947 3.43404 2.68597C4.28968 2.25 5.40979 2.25 7.65 2.25H16.35C18.5902 2.25 19.7103 2.25 20.566 2.68597C21.3186 3.06947 21.9305 3.68139 22.314 4.43404C22.75 5.28968 22.75 6.40979 22.75 8.65V10.45C22.75 10.73 22.75 10.87 22.6955 10.977C22.6476 11.0711 22.5711 11.1476 22.477 11.1955C22.37 11.25 22.23 11.25 21.95 11.25H19.8C19.52 11.25 19.38 11.25 19.273 11.1955C19.1789 11.1476 19.1024 11.0711 19.0545 10.977C19 10.87 19 10.73 19 10.45V10C19 9.06812 19 8.60218 18.8478 8.23463C18.6448 7.74458 18.2554 7.35523 17.7654 7.15224C17.3978 7 16.9319 7 16 7V7C15.0681 7 14.6022 7 14.2346 7.15224C13.7446 7.35523 13.3552 7.74458 13.1522 8.23463C13 8.60218 13 9.06812 13 10V10.45C13 10.73 13 10.87 12.9455 10.977C12.8976 11.0711 12.8211 11.1476 12.727 11.1955C12.62 11.25 12.48 11.25 12.2 11.25H11.8C11.52 11.25 11.38 11.25 11.273 11.1955C11.1789 11.1476 11.1024 11.0711 11.0545 10.977C11 10.87 11 10.73 11 10.45V10C11 9.06812 11 8.60218 10.8478 8.23463C10.6448 7.74458 10.2554 7.35523 9.76537 7.15224C9.39782 7 8.93188 7 8 7V7C7.06812 7 6.60218 7 6.23463 7.15224C5.74458 7.35523 5.35523 7.74458 5.15224 8.23463C5 8.60218 5 9.06812 5 10V10.45C5 10.73 5 10.87 4.9455 10.977C4.89757 11.0711 4.82108 11.1476 4.727 11.1955C4.62004 11.25 4.48003 11.25 4.2 11.25H2.05C1.76997 11.25 1.62996 11.25 1.523 11.1955C1.42892 11.1476 1.35243 11.0711 1.3045 10.977C1.25 10.87 1.25 10.73 1.25 10.45V8.65Z" fill="#2F384C"/>
<path d="M1.25 13.05C1.25 12.77 1.25 12.63 1.3045 12.523C1.35243 12.4289 1.42892 12.3524 1.523 12.3045C1.62996 12.25 1.76997 12.25 2.05 12.25H21.95C22.23 12.25 22.37 12.25 22.477 12.3045C22.5711 12.3524 22.6476 12.4289 22.6955 12.523C22.75 12.63 22.75 12.77 22.75 13.05V18.55C22.75 19.6701 22.75 20.2302 22.532 20.658C22.3403 21.0343 22.0343 21.3403 21.658 21.532C21.2302 21.75 20.6701 21.75 19.55 21.75H18.5142C17.7963 21.75 17.4373 21.75 17.1204 21.6407C16.8402 21.544 16.5849 21.3863 16.3731 21.1788C16.1336 20.9443 15.9731 20.6232 15.652 19.9811L15.4209 19.5189C15.0999 18.8768 14.9393 18.5557 14.6998 18.3212C14.4881 18.1137 14.2328 17.956 13.9525 17.8593C13.6356 17.75 13.2767 17.75 12.5588 17.75H11.4412C10.7233 17.75 10.3644 17.75 10.0475 17.8593C9.7672 17.956 9.51195 18.1137 9.30016 18.3212C9.06066 18.5557 8.90013 18.8768 8.57907 19.5189L8.34798 19.9811C8.02692 20.6232 7.86639 20.9443 7.6269 21.1788C7.41511 21.3863 7.15985 21.544 6.8796 21.6407C6.56269 21.75 6.20373 21.75 5.48582 21.75H4.45C3.3299 21.75 2.76984 21.75 2.34202 21.532C1.96569 21.3403 1.65973 21.0343 1.46799 20.658C1.25 20.2302 1.25 19.6701 1.25 18.55V13.05Z" fill="#2F384C"/>
</svg>
