<svg width="24" height="24" viewBox="0 0 24 24" fill="none" xmlns="http://www.w3.org/2000/svg">
<path d="M9.65 2.25C7.40979 2.25 6.28968 2.25 5.43404 2.68597C4.68139 3.06947 4.06947 3.68139 3.68597 4.43404C3.25 5.28968 3.25 6.40979 3.25 8.65V10.45C3.25 10.73 3.25 10.87 3.3045 10.977C3.35243 11.0711 3.42892 11.1476 3.523 11.1955C3.62996 11.25 3.76997 11.25 4.05 11.25H7.2C7.48003 11.25 7.62004 11.25 7.727 11.1955C7.82108 11.1476 7.89757 11.0711 7.9455 10.977C8 10.87 8 10.73 8 10.45V10.2C8 9.07989 8 8.51984 8.21799 8.09202C8.40973 7.71569 8.71569 7.40973 9.09202 7.21799C9.51984 7 10.0799 7 11.2 7H12.8C13.9201 7 14.4802 7 14.908 7.21799C15.2843 7.40973 15.5903 7.71569 15.782 8.09202C16 8.51984 16 9.07989 16 10.2V10.45C16 10.73 16 10.87 16.0545 10.977C16.1024 11.0711 16.1789 11.1476 16.273 11.1955C16.38 11.25 16.52 11.25 16.8 11.25H19.95C20.23 11.25 20.37 11.25 20.477 11.1955C20.5711 11.1476 20.6476 11.0711 20.6955 10.977C20.75 10.87 20.75 10.73 20.75 10.45V8.65C20.75 6.40979 20.75 5.28968 20.314 4.43404C19.9305 3.68139 19.3186 3.06947 18.566 2.68597C17.7103 2.25 16.5902 2.25 14.35 2.25H9.65Z" fill="#2F384C"/>
<path d="M1.25 15.45C1.25 14.3299 1.25 13.7698 1.46799 13.342C1.65973 12.9657 1.96569 12.6597 2.34202 12.468C2.76984 12.25 3.3299 12.25 4.45 12.25H19.55C20.6701 12.25 21.2302 12.25 21.658 12.468C22.0343 12.6597 22.3403 12.9657 22.532 13.342C22.75 13.7698 22.75 14.3299 22.75 15.45V21.25C22.75 21.6642 22.4142 22 22 22V22C21.5858 22 21.25 21.6642 21.25 21.25V20.2C21.25 19.9515 21.0485 19.75 20.8 19.75H3.2C2.95147 19.75 2.75 19.9515 2.75 20.2V21.25C2.75 21.6642 2.41421 22 2 22V22C1.58579 22 1.25 21.6642 1.25 21.25V15.45Z" fill="#2F384C"/>
</svg>
