<svg width="24" height="24" viewBox="0 0 24 24" fill="none" xmlns="http://www.w3.org/2000/svg">
<path d="M11.9665 1.25C10.5947 1.25 9.51931 1.24999 8.65496 1.32061C7.77482 1.39252 7.04771 1.54138 6.38958 1.87671C6.02051 2.06476 5.87377 2.51639 6.06182 2.88546C6.24987 3.25453 6.7015 3.40127 7.07057 3.21322C7.482 3.00359 7.98973 2.87996 8.77711 2.81563C9.57325 2.75058 10.5875 2.75 12 2.75C13.4125 2.75 14.4268 2.75058 15.2229 2.81563C16.0103 2.87996 16.5181 3.00359 16.9295 3.21322C17.7292 3.62068 18.3793 4.27085 18.7868 5.07054C18.9964 5.48197 19.1201 5.9897 19.1844 6.77708C19.2494 7.57322 19.25 8.58749 19.25 10V14C19.25 14.4142 19.5858 14.75 20 14.75C20.4142 14.75 20.75 14.4142 20.75 14V9.96642C20.75 8.59473 20.75 7.51927 20.6794 6.65494C20.6075 5.77479 20.4586 5.04768 20.1233 4.38956C19.572 3.30762 18.6924 2.42798 17.6105 1.87671C16.9523 1.54138 16.2252 1.39252 15.3451 1.32061C14.4807 1.24999 13.4053 1.25 12.0336 1.25H11.9665Z" fill="#2F384C"/>
<path d="M2.46855 3.41435C2.1451 3.15559 1.67313 3.20803 1.41438 3.53148C1.15562 3.85493 1.20806 4.32689 1.53151 4.58565L3.38444 6.068C3.24993 7.0375 3.24997 8.26335 3.25003 9.89923L3.25003 22C3.25003 22.2599 3.38462 22.5013 3.60573 22.638C3.82684 22.7746 4.10295 22.7871 4.33544 22.6708L5.18002 22.2485C8.7586 20.4592 10.3301 19.6943 12 19.6943C13.6699 19.6943 15.2415 20.4592 18.82 22.2485L19.6646 22.6708C19.8971 22.7871 20.1732 22.7746 20.3943 22.638C20.6154 22.5013 20.75 22.2599 20.75 22V19.9605L21.5315 20.5857C21.855 20.8444 22.3269 20.792 22.5857 20.4685C22.8444 20.1451 22.792 19.6731 22.4685 19.4143L2.46855 3.41435Z" fill="#2F384C"/>
</svg>
