<svg width="24" height="24" viewBox="0 0 24 24" fill="none" xmlns="http://www.w3.org/2000/svg">
<path fill-rule="evenodd" clip-rule="evenodd" d="M5.98005 1.79497C7.04961 1.25 8.44974 1.25 11.25 1.25H12.75C15.5503 1.25 16.9504 1.25 18.02 1.79497C18.9608 2.27433 19.7257 3.03924 20.205 3.98005C20.75 5.04961 20.75 6.44974 20.75 9.25V21.9191C20.75 22.3477 20.75 22.562 20.6597 22.6911C20.5809 22.8038 20.4591 22.879 20.3231 22.8991C20.1673 22.9222 19.9756 22.8263 19.5922 22.6346L17.7243 21.7007C15.6254 20.6512 14.576 20.1265 13.4752 19.92C12.5002 19.7371 11.4998 19.7371 10.5248 19.92C9.42404 20.1265 8.37458 20.6512 6.27566 21.7007L4.40777 22.6346C4.02441 22.8263 3.83273 22.9222 3.67692 22.8991C3.54086 22.879 3.4191 22.8038 3.34027 22.6911C3.25 22.562 3.25 22.3477 3.25 21.9191V9.25001C3.25 6.44974 3.25 5.04961 3.79497 3.98005C4.27433 3.03924 5.03924 2.27433 5.98005 1.79497ZM9 10.25C8.58579 10.25 8.25 10.5858 8.25 11C8.25 11.4142 8.58579 11.75 9 11.75H15C15.4142 11.75 15.75 11.4142 15.75 11C15.75 10.5858 15.4142 10.25 15 10.25H9Z" fill="#2F384C"/>
</svg>
