<svg width="24" height="24" viewBox="0 0 24 24" fill="none" xmlns="http://www.w3.org/2000/svg">
<path fill-rule="evenodd" clip-rule="evenodd" d="M8.83697 5.25C9.17555 3.81665 10.4632 2.75 12 2.75C13.5368 2.75 14.8245 3.81665 15.163 5.25H8.83697ZM7.30887 5.25006C7.66843 2.98304 9.63183 1.25 12 1.25C14.3682 1.25 16.3316 2.98304 16.6911 5.25006C18.7062 5.25118 19.7549 5.27271 20.566 5.68597C21.3186 6.06947 21.9305 6.68139 22.314 7.43404C22.6291 8.05247 22.7165 8.80905 22.7407 10.0268C20.8097 10.9068 18.7975 11.5377 16.75 11.9195V11C16.75 10.5858 16.4142 10.25 16 10.25C15.5858 10.25 15.25 10.5858 15.25 11V12.1539C13.0921 12.4267 10.9079 12.4267 8.75 12.1539V11C8.75 10.5858 8.41421 10.25 8 10.25C7.58579 10.25 7.25 10.5858 7.25 11V11.9195C5.2025 11.5377 3.19026 10.9068 1.25929 10.0268C1.28351 8.80905 1.37087 8.05247 1.68597 7.43404C2.06947 6.68139 2.68139 6.06947 3.43404 5.68597C4.24511 5.27271 5.2938 5.25118 7.30887 5.25006ZM1.25 16.35V11.662C3.19149 12.4901 5.20508 13.0841 7.25 13.4439V14.5C7.25 14.9142 7.58579 15.25 8 15.25C8.41421 15.25 8.75 14.9142 8.75 14.5V13.6652C10.9088 13.9229 13.0912 13.9229 15.25 13.6652V14.5C15.25 14.9142 15.5858 15.25 16 15.25C16.4142 15.25 16.75 14.9142 16.75 14.5V13.4439C18.7949 13.0841 20.8085 12.4901 22.75 11.662V16.35C22.75 18.5902 22.75 19.7103 22.314 20.566C21.9305 21.3186 21.3186 21.9305 20.566 22.314C19.7103 22.75 18.5902 22.75 16.35 22.75H7.65C5.40979 22.75 4.28969 22.75 3.43404 22.314C2.68139 21.9305 2.06947 21.3186 1.68597 20.566C1.25 19.7103 1.25 18.5902 1.25 16.35Z" fill="#2F384C"/>
</svg>
