<svg width="24" height="24" viewBox="0 0 24 24" fill="none" xmlns="http://www.w3.org/2000/svg">
<path fill-rule="evenodd" clip-rule="evenodd" d="M4.52606 1.90396C5.80953 1.25 7.48969 1.25 10.85 1.25L13.15 1.25C16.5103 1.25 18.1905 1.25 19.4739 1.90396C20.6029 2.4792 21.5208 3.39709 22.096 4.52606C22.75 5.80953 22.75 7.48969 22.75 10.85V13.15C22.75 16.5103 22.75 18.1905 22.096 19.4739C21.5208 20.6029 20.6029 21.5208 19.4739 22.096C18.1905 22.75 16.5103 22.75 13.15 22.75H10.85C7.48968 22.75 5.80953 22.75 4.52606 22.096C3.39708 21.5208 2.4792 20.6029 1.90396 19.4739C1.25 18.1905 1.25 16.5103 1.25 13.15V10.85C1.25 7.48968 1.25 5.80953 1.90396 4.52606C2.4792 3.39708 3.39708 2.4792 4.52606 1.90396ZM8.85029 6.66317C9.21655 6.46971 9.35663 6.01597 9.16317 5.64971C8.96972 5.28345 8.51597 5.14337 8.14971 5.33682C5.82376 6.56539 4.25 9.09931 4.25 12C4.25 14.9007 5.82376 17.4346 8.14971 18.6632C8.51597 18.8566 8.96972 18.7165 9.16317 18.3503C9.35663 17.984 9.21655 17.5303 8.85029 17.3368C7.02743 16.374 5.75 14.3575 5.75 12C5.75 9.64248 7.02743 7.626 8.85029 6.66317ZM15.8503 5.33682C15.484 5.14337 15.0303 5.28345 14.8368 5.64971C14.6434 6.01597 14.7835 6.46971 15.1497 6.66317C16.9726 7.626 18.25 9.64248 18.25 12C18.25 14.3575 16.9726 16.374 15.1497 17.3368C14.7835 17.5303 14.6434 17.984 14.8368 18.3503C15.0303 18.7165 15.484 18.8566 15.8503 18.6632C18.1762 17.4346 19.75 14.9007 19.75 12C19.75 9.09931 18.1762 6.56539 15.8503 5.33682ZM9.81716 9.57277C10.1335 9.30538 10.1732 8.83217 9.90581 8.51582C9.63842 8.19947 9.16521 8.15978 8.84886 8.42717C7.86386 9.25973 7.25 10.5618 7.25 12C7.25 13.4381 7.86386 14.7402 8.84886 15.5728C9.16521 15.8402 9.63842 15.8005 9.90581 15.4841C10.1732 15.1678 10.1335 14.6946 9.81716 14.4272C9.18327 13.8914 8.75 13.0152 8.75 12C8.75 10.9847 9.18327 10.1086 9.81716 9.57277ZM15.1511 8.42717C14.8348 8.15978 14.3616 8.19947 14.0942 8.51582C13.8268 8.83217 13.8665 9.30538 14.1828 9.57277C14.8167 10.1086 15.25 10.9847 15.25 12C15.25 13.0152 14.8167 13.8914 14.1828 14.4272C13.8665 14.6946 13.8268 15.1678 14.0942 15.4841C14.3616 15.8005 14.8348 15.8402 15.1511 15.5728C16.1361 14.7402 16.75 13.4381 16.75 12C16.75 10.5618 16.1361 9.25973 15.1511 8.42717ZM12 10.75C11.3096 10.75 10.75 11.3096 10.75 12C10.75 12.6903 11.3096 13.25 12 13.25C12.6904 13.25 13.25 12.6903 13.25 12C13.25 11.3096 12.6904 10.75 12 10.75Z" fill="#2F384C"/>
</svg>
