<svg width="24" height="24" viewBox="0 0 24 24" fill="none" xmlns="http://www.w3.org/2000/svg">
<path fill-rule="evenodd" clip-rule="evenodd" d="M4.52606 1.90396C5.80953 1.25 7.48969 1.25 10.85 1.25H13.15C16.5103 1.25 18.1905 1.25 19.4739 1.90396C20.6029 2.4792 21.5208 3.39709 22.096 4.52606C22.75 5.80953 22.75 7.48969 22.75 10.85V13.15C22.75 16.5103 22.75 18.1905 22.096 19.4739C21.5208 20.6029 20.6029 21.5208 19.4739 22.096C18.1905 22.75 16.5103 22.75 13.15 22.75H10.85C7.48969 22.75 5.80953 22.75 4.52606 22.096C3.39708 21.5208 2.4792 20.6029 1.90396 19.4739C1.25 18.1905 1.25 16.5103 1.25 13.15V10.85C1.25 7.48969 1.25 5.80953 1.90396 4.52606C2.4792 3.39708 3.39709 2.4792 4.52606 1.90396ZM17.5303 9.53033C17.8232 9.23744 17.8232 8.76256 17.5303 8.46967C17.2374 8.17678 16.7626 8.17678 16.4697 8.46967L11 13.9393L9.03033 11.9697C8.73744 11.6768 8.26256 11.6768 7.96967 11.9697C7.67678 12.2626 7.67678 12.7374 7.96967 13.0303L10.4697 15.5303C10.7626 15.8232 11.2374 15.8232 11.5303 15.5303L17.5303 9.53033Z" fill="#2F384C"/>
</svg>
