<svg width="24" height="24" viewBox="0 0 24 24" fill="none" xmlns="http://www.w3.org/2000/svg">
<path fill-rule="evenodd" clip-rule="evenodd" d="M4.98005 2.79497C6.04961 2.25 7.44974 2.25 10.25 2.25H13.75C16.5503 2.25 17.9504 2.25 19.02 2.79497C19.6905 3.13664 20.2717 3.62337 20.7239 4.21547L12 12.9393L9.53033 10.4697C9.23744 10.1768 8.76256 10.1768 8.46967 10.4697C8.17678 10.7626 8.17678 11.2374 8.46967 11.5303L11.4697 14.5303C11.7626 14.8232 12.2374 14.8232 12.5303 14.5303L21.453 5.60766C21.75 6.60953 21.75 7.96269 21.75 10.25V13.75C21.75 16.5503 21.75 17.9504 21.205 19.02C20.7257 19.9608 19.9608 20.7257 19.02 21.205C17.9504 21.75 16.5503 21.75 13.75 21.75H10.25C7.44974 21.75 6.04961 21.75 4.98005 21.205C4.03924 20.7257 3.27433 19.9608 2.79497 19.02C2.25 17.9504 2.25 16.5503 2.25 13.75V10.25C2.25 7.44974 2.25 6.0496 2.79497 4.98005C3.27434 4.03924 4.03924 3.27433 4.98005 2.79497ZM21.453 5.60766L23.5303 3.53033C23.8232 3.23744 23.8232 2.76256 23.5303 2.46967C23.2374 2.17678 22.7626 2.17678 22.4697 2.46967L20.7239 4.21547C20.9061 4.45408 21.0673 4.70981 21.205 4.98005C21.3049 5.17597 21.3864 5.38298 21.453 5.60766Z" fill="#2F384C"/>
</svg>
