<svg width="24" height="24" viewBox="0 0 24 24" fill="none" xmlns="http://www.w3.org/2000/svg">
<path fill-rule="evenodd" clip-rule="evenodd" d="M4.52606 1.90396C5.80953 1.25 7.48969 1.25 10.85 1.25H13.15C16.5103 1.25 18.1905 1.25 19.4739 1.90396C20.6029 2.4792 21.5208 3.39709 22.096 4.52606C22.75 5.80953 22.75 7.48969 22.75 10.85V13.15C22.75 16.5103 22.75 18.1905 22.096 19.4739C21.5208 20.6029 20.6029 21.5208 19.4739 22.096C18.1905 22.75 16.5103 22.75 13.15 22.75H10.85C7.48969 22.75 5.80953 22.75 4.52606 22.096C3.39708 21.5208 2.4792 20.6029 1.90396 19.4739C1.25 18.1905 1.25 16.5103 1.25 13.15V10.85C1.25 7.48969 1.25 5.80953 1.90396 4.52606C2.4792 3.39708 3.39709 2.4792 4.52606 1.90396ZM8.53033 7.46967C8.23744 7.17677 7.76257 7.17677 7.46967 7.46967C7.17678 7.76256 7.17678 8.23743 7.46967 8.53033L10.9393 12L7.46967 15.4697C7.17678 15.7626 7.17678 16.2374 7.46967 16.5303C7.76257 16.8232 8.23744 16.8232 8.53033 16.5303L12 13.0607L15.4697 16.5303C15.7626 16.8232 16.2374 16.8232 16.5303 16.5303C16.8232 16.2374 16.8232 15.7626 16.5303 15.4697L13.0607 12L16.5303 8.53033C16.8232 8.23743 16.8232 7.76256 16.5303 7.46967C16.2374 7.17677 15.7626 7.17677 15.4697 7.46967L12 10.9393L8.53033 7.46967Z" fill="#2F384C"/>
</svg>
