<svg width="24" height="24" viewBox="0 0 24 24" fill="none" xmlns="http://www.w3.org/2000/svg">
<path fill-rule="evenodd" clip-rule="evenodd" d="M13.223 1.76495C13.0396 1.89976 12.8497 2.08974 12.4697 2.4697C12.0897 2.84965 11.8998 3.03963 11.765 3.22299C10.9877 4.28019 10.9877 5.71986 11.765 6.77706C11.8998 6.96042 12.0897 7.1504 12.4697 7.53035L12.4697 7.53036L13.9394 9.00002L11.4697 11.4697L9.00002 13.9394L7.53036 12.4697L7.53035 12.4697C7.1504 12.0897 6.96042 11.8998 6.77706 11.765C5.71986 10.9877 4.28019 10.9877 3.22299 11.765C3.03963 11.8998 2.84965 12.0897 2.4697 12.4697C2.08974 12.8497 1.89976 13.0396 1.76495 13.223C0.987691 14.2802 0.987691 15.7199 1.76495 16.7771C1.89976 16.9604 2.08974 17.1504 2.46969 17.5304L3.93936 19L2.96969 19.9697C2.6768 20.2626 2.6768 20.7375 2.96969 21.0304C3.26259 21.3232 3.73746 21.3232 4.03035 21.0304L5.00002 20.0607L6.4697 21.5304L6.46971 21.5304L6.46977 21.5304L6.46986 21.5305C6.84971 21.9104 7.03966 22.1003 7.22299 22.2351C8.28019 23.0124 9.71986 23.0124 10.7771 22.2351C10.9604 22.1003 11.1504 21.9103 11.5303 21.5304L11.5303 21.5304L11.5303 21.5304L11.5304 21.5304C11.9103 21.1504 12.1003 20.9604 12.2351 20.7771C13.0124 19.7199 13.0124 18.2802 12.2351 17.223C12.1003 17.0396 11.9103 16.8497 11.5304 16.4697L10.0607 15L12.5304 12.5304L15 10.0607L16.4697 11.5304C16.8497 11.9103 17.0396 12.1003 17.223 12.2351C18.2802 13.0124 19.7199 13.0124 20.7771 12.2351C20.9604 12.1003 21.1504 11.9103 21.5304 11.5304L21.5304 11.5303L21.5304 11.5303L21.5304 11.5303C21.9103 11.1504 22.1003 10.9604 22.2351 10.7771C23.0124 9.71986 23.0124 8.28019 22.2351 7.22299C22.1003 7.03966 21.9104 6.84971 21.5305 6.46986L21.5304 6.46977L21.5304 6.46971L21.5304 6.4697L20.0607 5.00002L21.0304 4.03035C21.3232 3.73746 21.3232 3.26259 21.0304 2.96969C20.7375 2.6768 20.2626 2.6768 19.9697 2.96969L19 3.93936L17.5304 2.46969C17.1504 2.08974 16.9604 1.89976 16.7771 1.76495C15.7199 0.987691 14.2802 0.987691 13.223 1.76495Z" fill="#2F384C"/>
</svg>
