<svg width="24" height="24" viewBox="0 0 24 24" fill="none" xmlns="http://www.w3.org/2000/svg">
<path d="M4.25622 1.25C4.25044 1.25 4.24756 1.25 4.24512 1.25001C3.14436 1.25269 2.25269 2.14436 2.25001 3.24512C2.25 3.24756 2.25 3.25045 2.25 3.25622V3.25622C2.25 3.26869 2.25 3.27493 2.25001 3.28084C2.25381 5.85611 3.49711 8.27207 5.59048 9.77201C5.59528 9.77545 5.60036 9.77908 5.61051 9.78633L8.74028 12.0219C9.06016 12.2504 9.25 12.6193 9.25 13.0124V20C9.25 21.5188 10.4812 22.75 12 22.75V22.75C13.5188 22.75 14.75 21.5188 14.75 20V13.0124C14.75 12.6193 14.9398 12.2504 15.2597 12.0219L18.3895 9.78633C18.3996 9.77908 18.4047 9.77545 18.4095 9.77201C20.5029 8.27207 21.7462 5.85611 21.75 3.28084C21.75 3.27493 21.75 3.26869 21.75 3.25622V3.25622C21.75 3.25045 21.75 3.24756 21.75 3.24512C21.7473 2.14436 20.8556 1.25269 19.7549 1.25001C19.7524 1.25 19.7496 1.25 19.7438 1.25H4.25622Z" fill="#2F384C"/>
</svg>
