<svg width="24" height="24" viewBox="0 0 24 24" fill="none" xmlns="http://www.w3.org/2000/svg">
<path fill-rule="evenodd" clip-rule="evenodd" d="M5.41575 4.62406C5.76039 4.39429 5.85352 3.92864 5.62376 3.58399C5.394 3.23935 4.92834 3.14622 4.5837 3.37598L3.00866 4.42601L2.93061 4.47798L2.93061 4.47799C2.48583 4.77404 2.13614 5.0068 1.87522 5.32425C1.64567 5.60354 1.47344 5.92536 1.36839 6.27128C1.24898 6.66446 1.24929 7.08453 1.24968 7.61884L1.24972 7.71261V16C1.24972 16.01 1.24992 16.0199 1.2503 16.0297C1.26634 18.6394 3.3868 20.7499 6.00021 20.7499C8.34202 20.7499 10.288 19.0553 10.6787 16.8254C10.6846 16.8167 10.6921 16.8061 10.7012 16.7939C10.7399 16.7423 10.8065 16.6652 10.9058 16.5857C11.0951 16.4344 11.4323 16.25 12.0001 16.25C12.5679 16.25 12.9048 16.4344 13.0938 16.5856C13.193 16.665 13.2595 16.7421 13.2981 16.7936C13.308 16.8068 13.3159 16.8182 13.322 16.8272C13.7135 19.0562 15.659 20.7499 18.0002 20.7499C20.6236 20.7499 22.7502 18.6233 22.7502 15.9999C22.7502 15.9885 22.7502 15.977 22.7501 15.9656L22.7498 7.7125L22.7498 7.61874C22.7502 7.08446 22.7505 6.6644 22.6311 6.27124C22.526 5.92533 22.3538 5.60353 22.1242 5.32425C21.8633 5.00681 21.5137 4.77406 21.0689 4.47802L20.9909 4.42605L19.4157 3.37598C19.0711 3.14622 18.6054 3.23935 18.3757 3.58399C18.1459 3.92864 18.2391 4.39429 18.5837 4.62406L20.1588 5.67413C20.7186 6.04733 20.8643 6.15362 20.9654 6.2767C21.0698 6.40365 21.1481 6.54992 21.1958 6.70715C21.2421 6.8596 21.2498 7.03975 21.2498 7.71256L21.25 12.5356C20.4003 11.7383 19.2573 11.2499 18.0002 11.2499C15.7159 11.2499 13.8082 12.8624 13.3533 15.0112C12.9865 14.8552 12.5382 14.75 12.0001 14.75C11.4622 14.75 11.0139 14.8551 10.6471 15.011C10.1921 12.8623 8.28445 11.2499 6.00021 11.2499C4.74276 11.2499 3.59943 11.7386 2.74972 12.5363V7.71261C2.74972 7.03977 2.75736 6.85961 2.80366 6.70715C2.85141 6.54992 2.9297 6.40364 3.03404 6.27669C3.13521 6.1536 3.28087 6.04731 3.84071 5.67408L5.41575 4.62406Z" fill="#2F384C"/>
</svg>
