<svg width="24" height="24" viewBox="0 0 24 24" fill="none" xmlns="http://www.w3.org/2000/svg">
<path fill-rule="evenodd" clip-rule="evenodd" d="M4.52606 1.90396C5.80953 1.25 7.48969 1.25 10.85 1.25H13.15C16.5103 1.25 18.1905 1.25 19.4739 1.90396C20.6029 2.4792 21.5208 3.39709 22.096 4.52606C22.75 5.80953 22.75 7.48969 22.75 10.85V13.15C22.75 16.5103 22.75 18.1905 22.096 19.4739C21.5208 20.6029 20.6029 21.5208 19.4739 22.096C18.1905 22.75 16.5103 22.75 13.15 22.75H10.85C7.48969 22.75 5.80953 22.75 4.52606 22.096C3.39708 21.5208 2.4792 20.6029 1.90396 19.4739C1.25 18.1905 1.25 16.5103 1.25 13.15V10.85C1.25 7.48969 1.25 5.80953 1.90396 4.52606C2.4792 3.39708 3.39709 2.4792 4.52606 1.90396ZM11.2463 7.07463C11.2875 6.66247 10.9868 6.29494 10.5746 6.25372C10.1625 6.21251 9.79494 6.51321 9.75372 6.92537L9.52126 9.25H7.625C7.21079 9.25 6.875 9.58579 6.875 10C6.875 10.4142 7.21079 10.75 7.625 10.75H9.37126L9.12126 13.25H7C6.58579 13.25 6.25 13.5858 6.25 14C6.25 14.4142 6.58579 14.75 7 14.75H8.97126L8.75372 16.9254C8.71251 17.3375 9.01321 17.7051 9.42537 17.7463C9.83753 17.7875 10.2051 17.4868 10.2463 17.0746L10.4787 14.75H12.9713L12.7537 16.9254C12.7125 17.3375 13.0132 17.7051 13.4254 17.7463C13.8375 17.7875 14.2051 17.4868 14.2463 17.0746L14.4787 14.75H16.375C16.7892 14.75 17.125 14.4142 17.125 14C17.125 13.5858 16.7892 13.25 16.375 13.25H14.6287L14.8787 10.75H17C17.4142 10.75 17.75 10.4142 17.75 10C17.75 9.58579 17.4142 9.25 17 9.25H15.0287L15.2463 7.07463C15.2875 6.66247 14.9868 6.29494 14.5746 6.25372C14.1625 6.21251 13.7949 6.51321 13.7537 6.92537L13.5213 9.25H11.0287L11.2463 7.07463ZM10.6287 13.25L10.8787 10.75H13.3713L13.1213 13.25H10.6287Z" fill="#2F384C"/>
</svg>
