<svg width="24" height="24" viewBox="0 0 24 24" fill="none" xmlns="http://www.w3.org/2000/svg">
<g clip-path="url(#clip0_2546_6225)">
<path fill-rule="evenodd" clip-rule="evenodd" d="M1.25 12.2531C1.25 10.5587 1.25 9.71155 1.46548 8.92934C1.65638 8.23639 1.97024 7.58337 2.39209 7.00142C2.86828 6.34452 3.52983 5.81528 4.85293 4.7568L6.00293 3.8368C8.14324 2.12455 9.21339 1.26843 10.4002 0.940096C11.4471 0.650485 12.5529 0.650485 13.5998 0.940096C14.7866 1.26843 15.8568 2.12455 17.9971 3.83679L19.1471 4.7568C20.4702 5.81528 21.1317 6.34452 21.6079 7.00142C22.0298 7.58337 22.3436 8.23639 22.5345 8.92934C22.75 9.71155 22.75 10.5587 22.75 12.2531V13.1496C22.75 16.5099 22.75 18.1901 22.096 19.4736C21.5208 20.6025 20.6029 21.5204 19.4739 22.0956C18.1905 22.7496 16.5103 22.7496 13.15 22.7496H10.85C7.48969 22.7496 5.80953 22.7496 4.52606 22.0956C3.39708 21.5204 2.4792 20.6025 1.90396 19.4736C1.25 18.1901 1.25 16.5099 1.25 13.1496V12.2531ZM8.75 15.2501C8.33579 15.2501 8 15.5859 8 16.0001V16.0001C8 16.4143 8.33579 16.7501 8.75 16.7501H15.25C15.6642 16.7501 16 16.4143 16 16.0001V16.0001C16 15.5859 15.6642 15.2501 15.25 15.2501H8.75Z" fill="#2F384C"/>
</g>
<defs>
<clipPath id="clip0_2546_6225">
<rect width="24" height="24" fill="white"/>
</clipPath>
</defs>
</svg>
