<svg width="24" height="24" viewBox="0 0 24 24" fill="none" xmlns="http://www.w3.org/2000/svg">
<path fill-rule="evenodd" clip-rule="evenodd" d="M12.5303 1.46967C12.2374 1.17678 11.7626 1.17678 11.4697 1.46967L8.46967 4.46967C8.17678 4.76256 8.17678 5.23744 8.46967 5.53033C8.76256 5.82322 9.23744 5.82322 9.53033 5.53033L11.25 3.81066V7.25H8.49187C7.05607 7.25 6.33817 7.25 5.70436 7.46861C5.14387 7.66193 4.63337 7.97743 4.20979 8.39229C3.7308 8.86141 3.40973 9.50351 2.7676 10.7877L2.11531 12.0922C1.92362 12.4756 1.82778 12.6673 1.85079 12.8231C1.87089 12.9591 1.94615 13.0809 2.05885 13.1597C2.18792 13.25 2.40223 13.25 2.83085 13.25H5.23794C5.78092 13.25 6.05241 13.25 6.30538 13.2936C6.94289 13.4035 7.5278 13.7165 7.97287 14.186C8.14948 14.3723 8.30007 14.5982 8.60127 15.05L8.60127 15.05C8.80206 15.3512 8.90246 15.5018 9.0202 15.626C9.31691 15.939 9.70685 16.1477 10.1319 16.2209C10.3005 16.25 10.4815 16.25 10.8435 16.25H13.1563C13.5183 16.25 13.6993 16.25 13.8679 16.2209C14.2929 16.1477 14.6828 15.939 14.9796 15.626C15.0973 15.5018 15.1977 15.3512 15.3985 15.05C15.6997 14.5982 15.8503 14.3723 16.0269 14.186C16.472 13.7165 17.0569 13.4035 17.6944 13.2936C17.9473 13.25 18.2188 13.25 18.7618 13.25H21.169C21.5976 13.25 21.8119 13.25 21.941 13.1597C22.0537 13.0809 22.129 12.9591 22.1491 12.8231C22.1721 12.6673 22.0763 12.4756 21.8846 12.0922L21.2325 10.7879L21.2325 10.7879C20.5904 9.50365 20.2693 8.86151 19.7903 8.39237C19.3667 7.97749 18.8562 7.66196 18.2957 7.46863C17.6619 7.25 16.9439 7.25 15.5081 7.25H12.75V3.81066L14.4697 5.53033C14.7626 5.82322 15.2374 5.82322 15.5303 5.53033C15.8232 5.23744 15.8232 4.76256 15.5303 4.46967L12.5303 1.46967ZM12.75 7.25H11.25V11C11.25 11.4142 11.5858 11.75 12 11.75C12.4142 11.75 12.75 11.4142 12.75 11V7.25ZM1.79562 14.8224C1.91506 14.75 2.08969 14.75 2.43894 14.75H5.15627C5.51826 14.75 5.69925 14.75 5.8679 14.7791C6.29291 14.8523 6.68285 15.061 6.97956 15.374C7.09729 15.4982 7.19768 15.6488 7.39845 15.9499L7.39847 15.95L7.39849 15.95L7.39849 15.95C7.69968 16.4018 7.85028 16.6277 8.02688 16.814C8.47196 17.2835 9.05687 17.5965 9.69438 17.7064C9.94735 17.75 10.2188 17.75 10.7618 17.75H13.2379C13.7809 17.75 14.0524 17.75 14.3054 17.7064C14.9429 17.5965 15.5278 17.2835 15.9729 16.814C16.1495 16.6277 16.3001 16.4018 16.6013 15.95C16.8021 15.6488 16.9025 15.4982 17.0202 15.374C17.3169 15.061 17.7069 14.8523 18.1319 14.7791C18.3005 14.75 18.4815 14.75 18.8435 14.75H21.5609C21.9101 14.75 22.0848 14.75 22.2042 14.8224C22.3089 14.8858 22.3867 14.9854 22.4228 15.1024C22.464 15.2358 22.4217 15.4052 22.337 15.744L22.1004 16.6903C21.5588 18.8569 21.2879 19.9403 20.6839 20.7469C20.151 21.4586 19.438 22.0153 18.6183 22.3597C17.6893 22.75 16.5726 22.75 14.3393 22.75H9.66053C7.42719 22.75 6.31052 22.75 5.3815 22.3597C4.56181 22.0153 3.84878 21.4586 3.31587 20.7469C2.71189 19.9403 2.44106 18.8569 1.89939 16.6903L1.66283 15.744C1.57812 15.4052 1.53577 15.2358 1.57701 15.1024C1.61315 14.9854 1.69093 14.8858 1.79562 14.8224Z" fill="#2F384C"/>
</svg>
