<svg width="24" height="24" viewBox="0 0 24 24" fill="none" xmlns="http://www.w3.org/2000/svg">
<path fill-rule="evenodd" clip-rule="evenodd" d="M12.9439 12.9129C12.8748 12.931 12.8064 12.9464 12.7376 12.9593C12.2501 13.0507 11.7499 13.0507 11.2624 12.9593C10.712 12.856 10.1873 12.5936 9.1378 12.0689L4.7243 9.86217C2.88187 8.94096 1.96066 8.48035 1.66505 7.85705C1.40779 7.31464 1.40779 6.68536 1.66505 6.14295C1.96066 5.51966 2.88188 5.05905 4.7243 4.13784L9.1378 1.93109C9.99281 1.50359 10.4995 1.25023 10.9556 1.11518C10.9894 1.10517 11.0229 1.09581 11.0562 1.08708C11.1253 1.069 11.1937 1.05361 11.2625 1.0407C11.75 0.949243 12.2502 0.949243 12.7377 1.0407C13.2881 1.14396 13.8128 1.40633 14.8623 1.93105L19.2758 4.13781C21.1182 5.05902 22.0394 5.51962 22.335 6.14292C22.5923 6.68533 22.5923 7.31461 22.335 7.85702C22.0394 8.48032 21.1182 8.94092 19.2758 9.86214L19.2756 9.86217L14.8623 12.0689L14.8622 12.0689L14.8621 12.0689C14.0608 12.4696 13.5654 12.7173 13.1309 12.858M2.33542 12.3292C1.96494 12.144 1.51443 12.2941 1.32919 12.6646C1.14395 13.0351 1.29412 13.4856 1.6646 13.6709L7.37135 16.5242L7.48286 16.58L7.48286 16.58L7.48289 16.58C8.95051 17.314 9.82561 17.7517 10.7553 17.9261C11.5779 18.0804 12.4221 18.0804 13.2447 17.9261C14.1744 17.7517 15.0495 17.314 16.5172 16.58L16.6287 16.5242L22.3354 13.6709C22.7059 13.4856 22.8561 13.0351 22.6708 12.6646C22.4856 12.2941 22.0351 12.144 21.6646 12.3292L15.9579 15.1826C14.3448 15.9891 13.6662 16.3208 12.9681 16.4518C12.3283 16.5718 11.6717 16.5718 11.0319 16.4518C10.3338 16.3208 9.65524 15.9891 8.04217 15.1826L2.33542 12.3292ZM2.33542 17.3292C1.96494 17.144 1.51443 17.2941 1.32919 17.6646C1.14395 18.0351 1.29412 18.4856 1.6646 18.6709L7.37135 21.5242L7.48286 21.58L7.48287 21.58C8.9505 22.314 9.8256 22.7517 10.7553 22.9261C11.5779 23.0804 12.4221 23.0804 13.2447 22.9261C14.1744 22.7517 15.0495 22.314 16.5172 21.58L16.6287 21.5242L22.3354 18.6709C22.7059 18.4856 22.8561 18.0351 22.6708 17.6646C22.4856 17.2941 22.0351 17.144 21.6646 17.3292L15.9579 20.1826C14.3448 20.9891 13.6662 21.3208 12.9681 21.4518C12.3283 21.5718 11.6717 21.5718 11.0319 21.4518C10.3338 21.3208 9.65524 20.9891 8.04217 20.1826L2.33542 17.3292Z" fill="#2F384C"/>
</svg>
