<svg width="24" height="24" viewBox="0 0 24 24" fill="none" xmlns="http://www.w3.org/2000/svg">
<path fill-rule="evenodd" clip-rule="evenodd" d="M4.52606 1.90396C5.80953 1.25 7.48969 1.25 10.85 1.25H13.15C16.5103 1.25 18.1905 1.25 19.4739 1.90396C20.6029 2.4792 21.5208 3.39709 22.096 4.52606C22.75 5.80953 22.75 7.48969 22.75 10.85V13.15C22.75 16.5103 22.75 18.1905 22.096 19.4739C21.5208 20.6029 20.6029 21.5208 19.4739 22.096C18.1905 22.75 16.5103 22.75 13.15 22.75H10.85C7.48969 22.75 5.80953 22.75 4.52606 22.096C3.39708 21.5208 2.4792 20.6029 1.90396 19.4739C1.25 18.1905 1.25 16.5103 1.25 13.15V10.85C1.25 7.48969 1.25 5.80953 1.90396 4.52606C2.4792 3.39708 3.39709 2.4792 4.52606 1.90396ZM12.7775 6C12.7775 5.57054 12.4293 5.22239 11.9999 5.22239C11.5704 5.22239 11.2223 5.57054 11.2223 6V8.00604C11.2223 8.4355 11.5704 8.78365 11.9999 8.78365C12.4293 8.78365 12.7775 8.4355 12.7775 8.00604V6ZM8.54986 7.45007C8.24618 7.1464 7.75382 7.1464 7.45014 7.45007C7.14647 7.75375 7.14647 8.24611 7.45014 8.54979L8.73434 9.83398C9.03802 10.1377 9.53038 10.1377 9.83405 9.83398C10.1377 9.53031 10.1377 9.03795 9.83405 8.73427L8.54986 7.45007ZM16.5499 8.54979C16.8536 8.24611 16.8536 7.75375 16.5499 7.45007C16.2462 7.1464 15.7538 7.1464 15.4502 7.45007L14.166 8.73425C13.8623 9.03793 13.8623 9.53029 14.166 9.83396C14.4697 10.1376 14.962 10.1376 15.2657 9.83396L16.5499 8.54979ZM15.9939 11.2223C15.5644 11.2223 15.2163 11.5705 15.2163 11.9999C15.2163 12.4294 15.5644 12.7775 15.9939 12.7775H17.9999C18.4294 12.7775 18.7775 12.4294 18.7775 11.9999C18.7775 11.5705 18.4294 11.2223 17.9999 11.2223H15.9939ZM6 11.2223C5.57054 11.2223 5.22239 11.5705 5.22239 11.9999C5.22239 12.4294 5.57054 12.7775 6 12.7775H8.00588C8.43534 12.7775 8.78349 12.4294 8.78349 11.9999C8.78349 11.5705 8.43534 11.2223 8.00588 11.2223H6ZM9.83393 15.2657C10.1376 14.9621 10.1376 14.4697 9.83393 14.166C9.53025 13.8623 9.0379 13.8623 8.73422 14.166L7.45014 15.4501C7.14647 15.7538 7.14647 16.2461 7.45014 16.5498C7.75382 16.8535 8.24618 16.8535 8.54986 16.5498L9.83393 15.2657ZM15.2659 14.1661C14.9622 13.8624 14.4699 13.8624 14.1662 14.1661C13.8625 14.4698 13.8625 14.9622 14.1662 15.2658L15.4503 16.5499C15.754 16.8536 16.2463 16.8536 16.55 16.5499C16.8537 16.2463 16.8537 15.7539 16.55 15.4502L15.2659 14.1661ZM12.7775 15.9941C12.7775 15.5646 12.4293 15.2164 11.9999 15.2164C11.5704 15.2164 11.2223 15.5646 11.2223 15.9941V17.9999C11.2223 18.4294 11.5704 18.7775 11.9999 18.7775C12.4293 18.7775 12.7775 18.4294 12.7775 17.9999V15.9941Z" fill="#2F384C"/>
</svg>
