<svg width="24" height="24" viewBox="0 0 24 24" fill="none" xmlns="http://www.w3.org/2000/svg">
<path fill-rule="evenodd" clip-rule="evenodd" d="M4.52606 1.90396C5.80953 1.25 7.48969 1.25 10.85 1.25H13.15C16.5103 1.25 18.1905 1.25 19.4739 1.90396C20.6029 2.4792 21.5208 3.39709 22.096 4.52606C22.75 5.80953 22.75 7.48969 22.75 10.85V13.15C22.75 16.5103 22.75 18.1905 22.096 19.4739C21.5208 20.6029 20.6029 21.5208 19.4739 22.096C18.1905 22.75 16.5103 22.75 13.15 22.75H10.85C7.48969 22.75 5.80953 22.75 4.52606 22.096C3.39708 21.5208 2.4792 20.6029 1.90396 19.4739C1.25 18.1905 1.25 16.5103 1.25 13.15V10.85C1.25 7.48969 1.25 5.80953 1.90396 4.52606C2.4792 3.39708 3.39709 2.4792 4.52606 1.90396ZM12 6C11.1733 6 10.5 6.67329 10.5 7.5C10.5 8.32671 11.1733 9 12 9C12.8267 9 13.5 8.32671 13.5 7.5C13.5 6.67329 12.8267 6 12 6ZM12 10.5C11.1733 10.5 10.5 11.1733 10.5 12C10.5 12.8267 11.1733 13.5 12 13.5C12.8267 13.5 13.5 12.8267 13.5 12C13.5 11.1733 12.8267 10.5 12 10.5ZM12 15.5C11.1733 15.5 10.5 16.1733 10.5 17C10.5 17.8267 11.1733 18.5 12 18.5C12.8267 18.5 13.5 17.8267 13.5 17C13.5 16.1733 12.8267 15.5 12 15.5Z" fill="#2F384C"/>
</svg>
