<svg width="24" height="24" viewBox="0 0 24 24" fill="none" xmlns="http://www.w3.org/2000/svg">
<path fill-rule="evenodd" clip-rule="evenodd" d="M10.8657 1.02397C10.3036 0.83755 9.69638 0.83755 9.1343 1.02397C8.84172 1.12101 8.59112 1.27492 8.34333 1.4591C8.1069 1.63483 7.83714 1.86606 7.5161 2.14125L7.49696 2.15765C6.9505 2.62605 6.79777 2.74578 6.64428 2.81065C6.44777 2.89369 6.23327 2.92506 6.0212 2.90176C5.85557 2.88356 5.67495 2.81257 5.01725 2.52026L2.3046 1.31464C2.07261 1.21153 1.80419 1.23279 1.59132 1.37113C1.37844 1.50947 1.25 1.74612 1.25 2V15.6V15.633C1.24999 16.7251 1.24999 17.5906 1.30699 18.2883C1.36527 19.0017 1.48688 19.6053 1.76772 20.1565C2.22312 21.0502 2.94978 21.7769 3.84355 22.2323C4.39472 22.5131 4.99835 22.6347 5.71173 22.693C6.40935 22.75 7.27484 22.75 8.36698 22.75H8.4H20C21.5188 22.75 22.75 21.5188 22.75 20V16L22.75 15.8842V15.8842C22.7503 15.0662 22.7505 14.5081 22.6222 14.0294C22.2755 12.7353 21.2647 11.7245 19.9706 11.3778C19.6269 11.2857 19.2423 11.2598 18.75 11.2526V2C18.75 1.74612 18.6216 1.50947 18.4087 1.37113C18.1958 1.23279 17.9274 1.21153 17.6954 1.31464L14.9828 2.52026C14.325 2.81257 14.1444 2.88356 13.9788 2.90176C13.7667 2.92506 13.5522 2.89369 13.3557 2.81065C13.2022 2.74578 13.0495 2.62605 12.503 2.15765L12.4839 2.14122L12.4839 2.14122C12.1628 1.86604 11.8931 1.63482 11.6567 1.4591C11.4089 1.27492 11.1583 1.12101 10.8657 1.02397ZM21.25 20C21.25 20.6904 20.6904 21.25 20 21.25C19.3096 21.25 18.75 20.6904 18.75 20V12.7537C19.185 12.7603 19.4025 12.7785 19.5823 12.8267C20.3588 13.0347 20.9653 13.6412 21.1733 14.4177C21.2436 14.6797 21.25 15.0217 21.25 16V20ZM6.25 8.99988C6.25 8.58566 6.58579 8.24988 7 8.24988H11C11.4142 8.24988 11.75 8.58566 11.75 8.99988C11.75 9.41409 11.4142 9.74988 11 9.74988H7C6.58579 9.74988 6.25 9.41409 6.25 8.99988ZM6.25 12.9999C6.25 12.5857 6.58579 12.2499 7 12.2499H13C13.4142 12.2499 13.75 12.5857 13.75 12.9999C13.75 13.4141 13.4142 13.7499 13 13.7499H7C6.58579 13.7499 6.25 13.4141 6.25 12.9999ZM6.25 16.9999C6.25 16.5857 6.58579 16.2499 7 16.2499H13C13.4142 16.2499 13.75 16.5857 13.75 16.9999C13.75 17.4141 13.4142 17.7499 13 17.7499H7C6.58579 17.7499 6.25 17.4141 6.25 16.9999Z" fill="#2F384C"/>
</svg>
