<svg width="24" height="24" viewBox="0 0 24 24" fill="none" xmlns="http://www.w3.org/2000/svg">
<path d="M12.75 2C12.75 1.58579 12.4142 1.25 12 1.25C11.5858 1.25 11.25 1.58579 11.25 2H12.75ZM11.25 12C11.25 12.4142 11.5858 12.75 12 12.75C12.4142 12.75 12.75 12.4142 12.75 12H11.25ZM16.3338 4.26391C15.9628 4.07957 15.5127 4.23084 15.3284 4.60177C15.144 4.97271 15.2953 5.42284 15.6662 5.60718L16.3338 4.26391ZM8.33377 5.60718C8.70471 5.42284 8.85597 4.97271 8.67164 4.60177C8.4873 4.23084 8.03716 4.07957 7.66623 4.26391L8.33377 5.60718ZM11.25 2V12H12.75V2H11.25ZM20.25 13C20.25 17.5564 16.5563 21.25 12 21.25V22.75C17.3848 22.75 21.75 18.3848 21.75 13H20.25ZM12 21.25C7.44365 21.25 3.75 17.5564 3.75 13H2.25C2.25 18.3848 6.61522 22.75 12 22.75V21.25ZM15.6662 5.60718C18.3845 6.95806 20.25 9.76188 20.25 13H21.75C21.75 9.17073 19.5423 5.85844 16.3338 4.26391L15.6662 5.60718ZM3.75 13C3.75 9.76188 5.61547 6.95806 8.33377 5.60718L7.66623 4.26391C4.45765 5.85844 2.25 9.17073 2.25 13H3.75Z" fill="#2F384C"/>
</svg>
