<svg width="24" height="24" viewBox="0 0 24 24" fill="none" xmlns="http://www.w3.org/2000/svg">
<path fill-rule="evenodd" clip-rule="evenodd" d="M9.1343 1.02397C9.69638 0.83755 10.3036 0.83755 10.8657 1.02397C11.1583 1.12101 11.4089 1.27492 11.6567 1.4591C11.8931 1.63482 12.1628 1.86604 12.4839 2.14122L12.4839 2.14122L12.503 2.15765C13.0495 2.62605 13.2022 2.74578 13.3557 2.81065C13.5522 2.89369 13.7667 2.92506 13.9788 2.90176C14.1444 2.88356 14.325 2.81257 14.9828 2.52026L17.6954 1.31464C17.9274 1.21153 18.1958 1.23279 18.4087 1.37113C18.6216 1.50947 18.75 1.74612 18.75 2V11.2526C19.2423 11.2598 19.6269 11.2857 19.9706 11.3778C21.2647 11.7245 22.2755 12.7353 22.6222 14.0294C22.7505 14.5081 22.7503 15.0662 22.75 15.8841V15.8842V15.8842L22.75 16V20C22.75 21.5188 21.5188 22.75 20 22.75H8.4H8.36698C7.27484 22.75 6.40935 22.75 5.71173 22.693C4.99835 22.6347 4.39472 22.5131 3.84355 22.2323C2.94978 21.7769 2.22312 21.0502 1.76772 20.1565C1.48688 19.6053 1.36527 19.0017 1.30699 18.2883C1.24999 17.5906 1.24999 16.7251 1.25 15.633V15.6V2C1.25 1.74612 1.37844 1.50947 1.59132 1.37113C1.80419 1.23279 2.07261 1.21153 2.3046 1.31464L5.01725 2.52026C5.67495 2.81257 5.85557 2.88356 6.0212 2.90176C6.23327 2.92506 6.44777 2.89369 6.64428 2.81065C6.79777 2.74578 6.9505 2.62605 7.49696 2.15765L7.5161 2.14125C7.83714 1.86606 8.1069 1.63483 8.34333 1.4591C8.59112 1.27492 8.84172 1.12101 9.1343 1.02397ZM20 21.25C20.6904 21.25 21.25 20.6904 21.25 20V16C21.25 15.0217 21.2436 14.6797 21.1733 14.4177C20.9653 13.6412 20.3588 13.0347 19.5823 12.8267C19.4025 12.7785 19.185 12.7603 18.75 12.7537V20C18.75 20.6904 19.3096 21.25 20 21.25ZM6.5 8.24988C6.08579 8.24988 5.75 8.58566 5.75 8.99988C5.75 9.41409 6.08579 9.74988 6.5 9.74988H11C11.4142 9.74988 11.75 9.41409 11.75 8.99988C11.75 8.58566 11.4142 8.24988 11 8.24988H6.5ZM7 11.7499C6.30964 11.7499 5.75 12.3095 5.75 12.9999C5.75 13.6902 6.30964 14.2499 7 14.2499C7.69036 14.2499 8.25 13.6902 8.25 12.9999C8.25 12.3095 7.69036 11.7499 7 11.7499ZM10.5 12.2499C10.0858 12.2499 9.75 12.5857 9.75 12.9999C9.75 13.4141 10.0858 13.7499 10.5 13.7499H13.5C13.9142 13.7499 14.25 13.4141 14.25 12.9999C14.25 12.5857 13.9142 12.2499 13.5 12.2499H10.5ZM7 15.7499C6.30964 15.7499 5.75 16.3095 5.75 16.9999C5.75 17.6902 6.30964 18.2499 7 18.2499C7.69036 18.2499 8.25 17.6902 8.25 16.9999C8.25 16.3095 7.69036 15.7499 7 15.7499ZM10.5 16.2499C10.0858 16.2499 9.75 16.5857 9.75 16.9999C9.75 17.4141 10.0858 17.7499 10.5 17.7499H13.5C13.9142 17.7499 14.25 17.4141 14.25 16.9999C14.25 16.5857 13.9142 16.2499 13.5 16.2499H10.5Z" fill="#2F384C"/>
</svg>
