<svg width="24" height="24" viewBox="0 0 24 24" fill="none" xmlns="http://www.w3.org/2000/svg">
<g clip-path="url(#clip0_2546_6175)">
<path d="M3.16391 20.5775C2.50789 20.7087 2.17988 20.7743 1.92318 20.6855C1.69803 20.6076 1.50808 20.4519 1.38755 20.2464C1.25012 20.0121 1.25012 19.6776 1.25012 19.0086L1.25012 16.7575C1.25012 15.7332 1.25012 15.221 1.3667 14.7488C1.51956 14.1296 1.81825 13.5559 2.23786 13.0756C2.55791 12.7093 2.97749 12.4157 3.81666 11.8283V11.8283C4.15811 11.5893 4.32884 11.4698 4.46963 11.4612C4.65409 11.45 4.82971 11.5414 4.92629 11.699C5 11.8193 5 12.0277 5 12.4444V19.5545C5 19.7881 5 19.9049 4.95816 20.0006C4.92126 20.0851 4.86175 20.1577 4.78619 20.2104C4.70052 20.2702 4.58598 20.2931 4.35689 20.3389L3.16391 20.5775Z" fill="#2F384C"/>
<path d="M20.1834 11.8282C21.0226 12.4157 21.4423 12.7094 21.7624 13.0757C22.182 13.556 22.4807 14.1296 22.6335 14.7487C22.7501 15.221 22.7501 15.7332 22.7501 16.7577V19.0086C22.7501 19.6776 22.7501 20.0121 22.6127 20.2464C22.4922 20.4519 22.3022 20.6076 22.0771 20.6855C21.8204 20.7743 21.4924 20.7087 20.8363 20.5775L19.6431 20.3389C19.414 20.2931 19.2995 20.2702 19.2138 20.2103C19.1383 20.1576 19.0787 20.085 19.0418 20.0006C19 19.9048 19 19.788 19 19.5544V12.4444C19 12.0276 19 11.8192 19.0737 11.6989C19.1703 11.5414 19.3459 11.45 19.5303 11.4612C19.6711 11.4697 19.8419 11.5892 20.1834 11.8282V11.8282Z" fill="#2F384C"/>
<path fill-rule="evenodd" clip-rule="evenodd" d="M8.03305 3.95958C9.42116 2.56641 10.1152 1.86982 10.9161 1.60896C11.6206 1.37951 12.3797 1.37952 13.0841 1.60898C13.885 1.86986 14.579 2.56646 15.9671 3.95966L16.1338 4.12695C16.8226 4.81828 17.167 5.16395 17.4132 5.56698C17.6316 5.9243 17.7925 6.3137 17.89 6.72094C18 7.18027 18 7.66821 18 8.64411L18 9.6247V18.5502C18 18.7359 18 18.8287 17.9969 18.9072C17.915 20.993 16.2429 22.6652 14.157 22.7471C14.0785 22.7502 13.9857 22.7502 13.8 22.7502H13.5C13.0858 22.7502 12.75 22.4144 12.75 22.0002V19.75C12.75 19.3358 12.4142 19 12 19V19C11.5858 19 11.25 19.3358 11.25 19.75V22.0002C11.25 22.4144 10.9142 22.7502 10.5 22.7502H10.2C10.0143 22.7502 9.92145 22.7502 9.84296 22.7471C7.75714 22.6652 6.08504 20.993 6.00308 18.9072C6 18.8287 6 18.7359 6 18.5502L6 8.64419C6 7.66826 6 7.1803 6.11001 6.72097C6.20755 6.31372 6.36843 5.92431 6.58678 5.56697C6.83306 5.16394 7.17747 4.81827 7.8663 4.12694L8.03305 3.95958ZM12 11C13.1046 11 14 10.1046 14 9.00003C14 7.89546 13.1046 7.00003 12 7.00003C10.8954 7.00003 10 7.89546 10 9.00003C10 10.1046 10.8954 11 12 11Z" fill="#2F384C"/>
</g>
<defs>
<clipPath id="clip0_2546_6175">
<rect width="24" height="24" fill="white"/>
</clipPath>
</defs>
</svg>
