<svg width="24" height="24" viewBox="0 0 24 24" fill="none" xmlns="http://www.w3.org/2000/svg">
<g clip-path="url(#clip0_2546_6194)">
<path d="M6.8816 12.2192C3.45331 10.9006 1.73916 10.2413 1.30802 9.35601C0.935139 8.59034 0.977677 7.68752 1.4209 6.96031C1.93337 6.11949 3.70191 5.6243 7.239 4.63391L17.2341 1.8353C19.4735 1.20826 20.5932 0.894745 21.3615 1.18574C22.0314 1.43946 22.5603 1.96835 22.814 2.63825C23.105 3.4066 22.7915 4.5263 22.1644 6.76571L19.3657 16.7607C18.3753 20.2978 17.8801 22.0664 17.0393 22.5788C16.3121 23.022 15.4092 23.0646 14.6436 22.6917C13.7583 22.2605 13.099 20.5464 11.7805 17.118L11.0877 15.3167C10.9526 14.9654 10.8851 14.7898 10.8813 14.6152C10.878 14.4609 10.9105 14.3079 10.9762 14.1682C11.0505 14.0102 11.1836 13.8771 11.4497 13.611L14 11.0607C14.2929 10.7678 14.2929 10.2929 14 10V10C13.7071 9.70711 13.2322 9.70711 12.9393 10L10.3892 12.5502C10.123 12.8163 9.98997 12.9494 9.83195 13.0237C9.69227 13.0894 9.53927 13.1219 9.38495 13.1186C9.21036 13.1148 9.03472 13.0473 8.68344 12.9122L6.8816 12.2192Z" fill="#2F384C"/>
</g>
<defs>
<clipPath id="clip0_2546_6194">
<rect width="24" height="24" fill="white"/>
</clipPath>
</defs>
</svg>
