<svg width="24" height="24" viewBox="0 0 24 24" fill="none" xmlns="http://www.w3.org/2000/svg">
<path fill-rule="evenodd" clip-rule="evenodd" d="M15.325 5.75001L11 5.75001C9.00126 5.75001 7.26339 6.86695 6.37652 8.5107C7.76654 9.05951 8.75 10.4149 8.75 12C8.75 13.5851 7.76654 14.9405 6.37652 15.4893C7.26339 17.1331 9.00125 18.25 11 18.25L15.325 18.25C15.6725 16.5383 17.1858 15.25 19 15.25C21.0711 15.25 22.75 16.9289 22.75 19C22.75 21.0711 21.0711 22.75 19 22.75C17.1858 22.75 15.6725 21.4617 15.325 19.75L11 19.75C8.25002 19.75 5.88414 18.1055 4.8321 15.7463C2.83895 15.6585 1.25 14.0148 1.25 12C1.25 9.9852 2.83895 8.34151 4.8321 8.25369C5.88414 5.89449 8.25002 4.25001 11 4.25001L15.325 4.25001C15.6725 2.53833 17.1858 1.25 19 1.25C21.0711 1.25 22.75 2.92894 22.75 5C22.75 7.07107 21.0711 8.75 19 8.75C17.1858 8.75 15.6725 7.46169 15.325 5.75001Z" fill="#2F384C"/>
</svg>
