<svg width="24" height="24" viewBox="0 0 24 24" fill="none" xmlns="http://www.w3.org/2000/svg">
<path fill-rule="evenodd" clip-rule="evenodd" d="M9.64309 2.38586C9.85621 2.03068 9.74103 1.56998 9.38585 1.35687C9.03066 1.14376 8.56997 1.25893 8.35686 1.61412L5.52768 6.32941C4.73264 6.40512 4.06281 6.55859 3.47603 6.90276C2.49988 7.4753 1.76021 8.37755 1.39022 9.44703C1.15984 10.113 1.14758 10.8262 1.23954 11.6572C1.32996 12.4742 1.53207 13.4847 1.78844 14.7666L1.79557 14.8022L2.23557 17.0022L2.24132 17.031C2.41971 17.9229 2.56171 18.633 2.72065 19.2037C2.88383 19.7897 3.07769 20.2796 3.38427 20.7188C3.8853 21.4366 4.57492 22.0019 5.377 22.3525C5.86779 22.567 6.3862 22.661 6.99282 22.7061C7.58368 22.75 8.30779 22.75 9.21747 22.75H9.24672H14.7532H14.7825C15.6922 22.75 16.4163 22.75 17.0071 22.7061C17.6138 22.661 18.1322 22.567 18.623 22.3525C19.425 22.0019 20.1146 21.4366 20.6157 20.7188C20.9223 20.2796 21.1161 19.7897 21.2793 19.2037C21.4382 18.633 21.5802 17.923 21.7586 17.031L21.7644 17.0022L22.2044 14.8022L22.2115 14.7666C22.4679 13.4847 22.67 12.4742 22.7604 11.6572C22.8524 10.8262 22.8401 10.113 22.6097 9.44703C22.2397 8.37755 21.5001 7.4753 20.5239 6.90276C19.9371 6.55859 19.2673 6.40512 18.4723 6.32941L15.6431 1.61412C15.43 1.25893 14.9693 1.14376 14.6141 1.35687C14.2589 1.56998 14.1437 2.03068 14.3569 2.38586L16.6781 6.25466C16.2373 6.24999 15.7559 6.24999 15.2296 6.24999H15.2296H15.1932H8.80672H8.77039H8.77032C8.24406 6.24999 7.76264 6.24999 7.32182 6.25466L9.64309 2.38586Z" fill="#2F384C"/>
</svg>
