<svg width="24" height="24" viewBox="0 0 24 24" fill="none" xmlns="http://www.w3.org/2000/svg">
<path fill-rule="evenodd" clip-rule="evenodd" d="M7.93142 1.48927C8.82297 1.24997 9.88196 1.24997 11.9999 1.24997C14.1179 1.24997 15.1769 1.24997 16.0685 1.48927C18.2279 2.06887 19.9805 3.64512 20.785 5.73118C21.1171 6.59245 21.229 7.64552 21.4528 9.75165L21.6892 11.9767C21.9858 14.7685 22.1341 16.1644 21.8778 17.2963C21.3406 19.6679 19.6112 21.5907 17.3097 22.3754C16.2113 22.75 14.8075 22.75 11.9999 22.75C9.19241 22.75 7.78863 22.75 6.69017 22.3754C4.38867 21.5907 2.65929 19.6679 2.12213 17.2963C1.86575 16.1644 2.01407 14.7685 2.3107 11.9767L2.54711 9.75165C2.77089 7.64552 2.88277 6.59245 3.21493 5.73118C4.01944 3.64512 5.77204 2.06887 7.93142 1.48927ZM9.75012 9C9.75012 10.2426 10.7575 11.25 12.0001 11.25C13.2428 11.25 14.2501 10.2426 14.2501 9V7C14.2501 6.58578 14.5859 6.25 15.0001 6.25C15.4143 6.25 15.7501 6.58578 15.7501 7V9C15.7501 11.0711 14.0712 12.75 12.0001 12.75C9.92906 12.75 8.25012 11.0711 8.25012 9V7C8.25012 6.58578 8.58591 6.25 9.00012 6.25C9.41434 6.25 9.75012 6.58578 9.75012 7V9Z" fill="#2F384C"/>
</svg>
