<svg width="24" height="24" viewBox="0 0 24 24" fill="none" xmlns="http://www.w3.org/2000/svg">
<path d="M6.16013 5.09944C5.74888 4.68818 5.54325 4.48256 5.47598 4.21423C5.42232 4.00018 5.4555 3.71091 5.55623 3.51457C5.68251 3.26845 5.89671 3.13505 6.32511 2.86825C7.97213 1.84253 9.9169 1.25 12.0001 1.25C17.9371 1.25 22.7501 6.06294 22.7501 12C22.7501 14.0832 22.1575 16.0279 21.1318 17.675C20.865 18.1034 20.7316 18.3176 20.4855 18.4438C20.2891 18.5446 19.9999 18.5777 19.7858 18.5241C19.5175 18.4568 19.3119 18.2512 18.9006 17.8399L6.16013 5.09944Z" fill="#2F384C"/>
<path d="M5.09948 6.16011C4.68822 5.74885 4.48259 5.54322 4.21427 5.47595C4.00022 5.42229 3.71095 5.45547 3.5146 5.55621C3.26848 5.68249 3.13508 5.89669 2.86829 6.32509C1.84258 7.97211 1.25006 9.91686 1.25006 12C1.25006 17.9371 6.063 22.75 12.0001 22.75C14.0832 22.75 16.028 22.1575 17.675 21.1318C18.1034 20.865 18.3176 20.7316 18.4439 20.4855C18.5446 20.2891 18.5778 19.9998 18.5241 19.7858C18.4568 19.5175 18.2512 19.3118 17.84 18.9006L5.09948 6.16011Z" fill="#2F384C"/>
</svg>
