<svg width="24" height="24" viewBox="0 0 24 24" fill="none" xmlns="http://www.w3.org/2000/svg">
<path fill-rule="evenodd" clip-rule="evenodd" d="M16.0001 1.50009C14.0671 1.50009 12.5001 3.0671 12.5001 5.00009C12.5001 6.93309 14.0671 8.50009 16.0001 8.50009C17.6756 8.50009 19.0761 7.32275 19.4195 5.75022L22 5.75022C22.4142 5.75022 22.75 5.41443 22.75 5.00022C22.75 4.58601 22.4142 4.25022 22 4.25022L19.4195 4.25022C19.0763 2.67757 17.6757 1.50009 16.0001 1.50009ZM4.58063 12.7502L2.00003 12.7502C1.58582 12.7502 1.25003 12.4144 1.25003 12.0002C1.25003 11.586 1.58582 11.2502 2.00003 11.2502L4.58057 11.2502C4.92386 9.67757 6.32445 8.50009 8.00006 8.50009C9.93305 8.50009 11.5001 10.0671 11.5001 12.0001C11.5001 13.9331 9.93305 15.5001 8.00006 15.5001C6.32454 15.5001 4.92401 14.3227 4.58063 12.7502ZM12.5001 19.0001C12.5001 17.0671 14.0671 15.5001 16.0001 15.5001C17.6757 15.5001 19.0763 16.6776 19.4195 18.2502L22 18.2502C22.4142 18.2502 22.75 18.586 22.75 19.0002C22.75 19.4144 22.4142 19.7502 22 19.7502L19.4195 19.7502C19.0761 21.3227 17.6756 22.5001 16.0001 22.5001C14.0671 22.5001 12.5001 20.9331 12.5001 19.0001ZM2.00003 4.25022C1.58582 4.25022 1.25003 4.58601 1.25003 5.00022C1.25003 5.41443 1.58582 5.75022 2.00003 5.75022L10 5.75022C10.4142 5.75022 10.75 5.41443 10.75 5.00022C10.75 4.58601 10.4142 4.25022 10 4.25022L2.00003 4.25022ZM14 11.2502C13.5858 11.2502 13.25 11.586 13.25 12.0002C13.25 12.4144 13.5858 12.7502 14 12.7502L22 12.7502C22.4142 12.7502 22.75 12.4144 22.75 12.0002C22.75 11.586 22.4142 11.2502 22 11.2502L14 11.2502ZM2.00003 18.2502C1.58582 18.2502 1.25003 18.586 1.25003 19.0002C1.25003 19.4144 1.58582 19.7502 2.00003 19.7502L10 19.7502C10.4142 19.7502 10.75 19.4144 10.75 19.0002C10.75 18.586 10.4142 18.2502 10 18.2502L2.00003 18.2502Z" fill="#2F384C"/>
</svg>
