<svg width="24" height="24" viewBox="0 0 24 24" fill="none" xmlns="http://www.w3.org/2000/svg">
<path fill-rule="evenodd" clip-rule="evenodd" d="M5.75 2C5.75 1.58579 5.41421 1.25 5 1.25C4.58579 1.25 4.25 1.58579 4.25 2V4.58054C2.67741 4.92388 1.5 6.32444 1.5 8C1.5 9.933 3.067 11.5 5 11.5C6.933 11.5 8.5 9.933 8.5 8C8.5 6.32444 7.32259 4.92388 5.75 4.58054L5.75 2ZM12.75 2C12.75 1.58579 12.4142 1.25 12 1.25C11.5858 1.25 11.25 1.58579 11.25 2L11.25 10C11.25 10.4142 11.5858 10.75 12 10.75C12.4142 10.75 12.75 10.4142 12.75 10L12.75 2ZM19.75 2C19.75 1.58579 19.4142 1.25 19 1.25C18.5858 1.25 18.25 1.58579 18.25 2V4.58054C16.6774 4.92388 15.5 6.32444 15.5 8C15.5 9.933 17.067 11.5 19 11.5C20.933 11.5 22.5 9.933 22.5 8C22.5 6.32444 21.3226 4.92388 19.75 4.58054V2ZM5.75 14C5.75 13.5858 5.41421 13.25 5 13.25C4.58579 13.25 4.25 13.5858 4.25 14L4.25 22C4.25 22.4142 4.58579 22.75 5 22.75C5.41421 22.75 5.75 22.4142 5.75 22L5.75 14ZM19.75 14C19.75 13.5858 19.4142 13.25 19 13.25C18.5858 13.25 18.25 13.5858 18.25 14V22C18.25 22.4142 18.5858 22.75 19 22.75C19.4142 22.75 19.75 22.4142 19.75 22V14ZM11.25 19.4195C9.67741 19.0761 8.5 17.6756 8.5 16C8.5 14.067 10.067 12.5 12 12.5C13.933 12.5 15.5 14.067 15.5 16C15.5 17.6756 14.3226 19.0761 12.75 19.4195V22C12.75 22.4142 12.4142 22.75 12 22.75C11.5858 22.75 11.25 22.4142 11.25 22V19.4195Z" fill="#2F384C"/>
</svg>
