<svg width="24" height="24" viewBox="0 0 24 24" fill="none" xmlns="http://www.w3.org/2000/svg">
<path fill-rule="evenodd" clip-rule="evenodd" d="M4.52606 1.90396C5.80953 1.25 7.48969 1.25 10.85 1.25H13.15C16.5103 1.25 18.1905 1.25 19.4739 1.90396C20.6029 2.4792 21.5208 3.39709 22.096 4.52606C22.75 5.80953 22.75 7.48969 22.75 10.85V13.15C22.75 16.5103 22.75 18.1905 22.096 19.4739C21.5208 20.6029 20.6029 21.5208 19.4739 22.096C18.1905 22.75 16.5103 22.75 13.15 22.75H10.85C7.48969 22.75 5.80953 22.75 4.52606 22.096C3.39708 21.5208 2.4792 20.6029 1.90396 19.4739C1.25 18.1905 1.25 16.5103 1.25 13.15V10.85C1.25 7.48969 1.25 5.80953 1.90396 4.52606C2.4792 3.39708 3.39709 2.4792 4.52606 1.90396ZM9.75 5C9.75 4.58579 9.41421 4.25 9 4.25C8.58579 4.25 8.25 4.58579 8.25 5V9V12V16.1893L6.53033 14.4697C6.23744 14.1768 5.76256 14.1768 5.46967 14.4697C5.17678 14.7626 5.17678 15.2374 5.46967 15.5303L8.46967 18.5303C8.68417 18.7448 9.00676 18.809 9.28701 18.6929C9.56727 18.5768 9.75 18.3033 9.75 18V12V9V5ZM14.5 4.25C13.2574 4.25 12.25 5.25736 12.25 6.5C12.25 7.74264 13.2574 8.75 14.5 8.75C14.6886 8.75 14.8718 8.72679 15.0469 8.68308C14.8839 8.93281 14.6343 9.11987 14.3393 9.20307C14.1981 9.2429 14.0019 9.25 13.3 9.25H13C12.5858 9.25 12.25 9.58579 12.25 10C12.25 10.4142 12.5858 10.75 13 10.75H13.3L13.4026 10.75H13.4026C13.9527 10.7504 14.3778 10.7507 14.7465 10.6468C15.6673 10.387 16.387 9.66734 16.6468 8.74646C16.7507 8.37781 16.7504 7.95265 16.75 7.40261L16.75 7.3V6.5C16.75 5.25736 15.7426 4.25 14.5 4.25ZM14.5 5.75C14.9142 5.75 15.25 6.08579 15.25 6.5C15.25 6.91421 14.9142 7.25 14.5 7.25C14.0858 7.25 13.75 6.91421 13.75 6.5C13.75 6.08579 14.0858 5.75 14.5 5.75ZM15.4167 13C15.4167 12.701 15.2391 12.4306 14.9648 12.3118C14.6905 12.193 14.3718 12.2484 14.1537 12.4528L12.487 14.0153C12.1849 14.2986 12.1695 14.7733 12.4528 15.0755C12.7361 15.3776 13.2108 15.393 13.513 15.1097L13.9167 14.7312V17.25H13.3333C12.9191 17.25 12.5833 17.5858 12.5833 18C12.5833 18.4142 12.9191 18.75 13.3333 18.75H14.6667H16C16.4142 18.75 16.75 18.4142 16.75 18C16.75 17.5858 16.4142 17.25 16 17.25H15.4167V13Z" fill="#2F384C"/>
</svg>
