<svg width="24" height="24" viewBox="0 0 24 24" fill="none" xmlns="http://www.w3.org/2000/svg">
<path fill-rule="evenodd" clip-rule="evenodd" d="M4.52606 1.90396C5.80953 1.25 7.48969 1.25 10.85 1.25H13.15C16.5103 1.25 18.1905 1.25 19.4739 1.90396C20.6029 2.4792 21.5208 3.39709 22.096 4.52606C22.75 5.80953 22.75 7.48969 22.75 10.85V13.15C22.75 16.5103 22.75 18.1905 22.096 19.4739C21.5208 20.6029 20.6029 21.5208 19.4739 22.096C18.1905 22.75 16.5103 22.75 13.15 22.75H10.85C7.48969 22.75 5.80953 22.75 4.52606 22.096C3.39708 21.5208 2.4792 20.6029 1.90396 19.4739C1.25 18.1905 1.25 16.5103 1.25 13.15V10.85C1.25 7.48969 1.25 5.80953 1.90396 4.52606C2.4792 3.39708 3.39709 2.4792 4.52606 1.90396ZM9.75 4.99998C9.75 4.58577 9.41421 4.24999 9 4.24999C8.58579 4.24999 8.25 4.58577 8.25 4.99998V16.1893L6.53033 14.4697C6.23744 14.1768 5.76256 14.1768 5.46967 14.4697C5.17678 14.7625 5.17678 15.2374 5.46967 15.5303L8.46967 18.5303C8.68417 18.7448 9.00676 18.809 9.28701 18.6929C9.56726 18.5768 9.75 18.3033 9.75 18V4.99998ZM14.5 4.24999C13.2574 4.24999 12.25 5.25735 12.25 6.49998V8.12498V9.99998C12.25 10.4142 12.5858 10.75 13 10.75C13.4142 10.75 13.75 10.4142 13.75 9.99998V8.87498H15.25V9.99998C15.25 10.4142 15.5858 10.75 16 10.75C16.4142 10.75 16.75 10.4142 16.75 9.99998V8.12498V6.49998C16.75 5.25735 15.7426 4.24999 14.5 4.24999ZM15.25 6.49998V7.37499H13.75V6.49998C13.75 6.08577 14.0858 5.74998 14.5 5.74998C14.9142 5.74998 15.25 6.08577 15.25 6.49998ZM13 12.25C12.5858 12.25 12.25 12.5858 12.25 13C12.25 13.4142 12.5858 13.75 13 13.75H14.6754L12.3569 17.6141C12.2179 17.8458 12.2142 18.1344 12.3474 18.3695C12.4805 18.6046 12.7298 18.75 13 18.75H16C16.4142 18.75 16.75 18.4142 16.75 18C16.75 17.5858 16.4142 17.25 16 17.25H14.3246L16.6431 13.3859C16.7821 13.1542 16.7858 12.8656 16.6526 12.6305C16.5195 12.3953 16.2702 12.25 16 12.25H13Z" fill="#2F384C"/>
</svg>
