<svg width="24" height="24" viewBox="0 0 24 24" fill="none" xmlns="http://www.w3.org/2000/svg">
<path fill-rule="evenodd" clip-rule="evenodd" d="M4.52606 1.90396C5.80953 1.25 7.48969 1.25 10.85 1.25H13.15C16.5103 1.25 18.1905 1.25 19.4739 1.90396C20.6029 2.4792 21.5208 3.39709 22.096 4.52606C22.75 5.80953 22.75 7.48969 22.75 10.85V13.15C22.75 16.5103 22.75 18.1905 22.096 19.4739C21.5208 20.6029 20.6029 21.5208 19.4739 22.096C18.1905 22.75 16.5103 22.75 13.15 22.75H10.85C7.48969 22.75 5.80953 22.75 4.52606 22.096C3.39708 21.5208 2.4792 20.6029 1.90396 19.4739C1.25 18.1905 1.25 16.5103 1.25 13.15V10.85C1.25 7.48969 1.25 5.80953 1.90396 4.52606C2.4792 3.39708 3.39709 2.4792 4.52606 1.90396ZM15.4167 5C15.4167 4.70105 15.2391 4.43065 14.9648 4.31181C14.6905 4.19297 14.3718 4.24838 14.1537 4.45285L12.487 6.01535C12.1849 6.29864 12.1695 6.77327 12.4528 7.07546C12.7361 7.37764 13.2108 7.39295 13.513 7.10965L13.9167 6.73117V9.25H13.3333C12.9191 9.25 12.5833 9.58579 12.5833 10C12.5833 10.4142 12.9191 10.75 13.3333 10.75H14.6667H16C16.4142 10.75 16.75 10.4142 16.75 10C16.75 9.58579 16.4142 9.25 16 9.25H15.4167V5ZM9.75 4.99998C9.75 4.58577 9.41421 4.24998 9 4.24998C8.58579 4.24998 8.25 4.58577 8.25 4.99998V16.1893L6.53033 14.4697C6.23744 14.1768 5.76256 14.1768 5.46967 14.4697C5.17678 14.7625 5.17678 15.2374 5.46967 15.5303L8.46967 18.5303C8.68417 18.7448 9.00676 18.809 9.28701 18.6929C9.56727 18.5768 9.75 18.3033 9.75 18V4.99998ZM14.5 12.25C13.2574 12.25 12.25 13.2574 12.25 14.5C12.25 15.7426 13.2574 16.75 14.5 16.75C14.543 16.75 14.5858 16.7488 14.6283 16.7464C14.2872 17.0591 13.8326 17.25 13.3333 17.25L13.3333 18L13.3333 17.25L13 17.25C12.5858 17.25 12.25 17.5858 12.25 18C12.25 18.4142 12.5858 18.75 13 18.75L13.3333 18.75H13.3334C15.2203 18.75 16.75 17.2203 16.75 15.3333V14.5C16.75 13.2574 15.7426 12.25 14.5 12.25ZM14.5 13.75C14.9142 13.75 15.25 14.0858 15.25 14.5C15.25 14.9142 14.9142 15.25 14.5 15.25C14.0858 15.25 13.75 14.9142 13.75 14.5C13.75 14.0858 14.0858 13.75 14.5 13.75Z" fill="#2F384C"/>
</svg>
