<svg width="24" height="24" viewBox="0 0 24 24" fill="none" xmlns="http://www.w3.org/2000/svg">
<path fill-rule="evenodd" clip-rule="evenodd" d="M4.12452 15.1851C3.43271 14.4933 3.08681 14.1474 2.83944 13.7438C2.62012 13.3859 2.45851 12.9957 2.36052 12.5876C2.25 12.1272 2.25 11.638 2.25 10.6597V8.64997C2.25 6.40976 2.25 5.28965 2.68597 4.43401C3.06947 3.68136 3.68139 3.06944 4.43404 2.68594C5.28968 2.24997 6.40979 2.24997 8.65 2.24997H10.6597C11.6381 2.24997 12.1272 2.24997 12.5876 2.36049C12.9957 2.45848 13.3859 2.62009 13.7438 2.83941C14.1475 3.08678 14.4934 3.43268 15.1852 4.12449L18.5303 7.46964C20.3911 9.33046 21.3216 10.2609 21.6996 11.3219C22.0863 12.4072 22.0863 13.5928 21.6996 14.6781C21.3216 15.7391 20.3911 16.6695 18.5303 18.5303V18.5303C16.6695 20.3911 15.7391 21.3215 14.6781 21.6995C13.5928 22.0862 12.4072 22.0862 11.3219 21.6995C10.2609 21.3215 9.33049 20.3911 7.46967 18.5303L4.12452 15.1851ZM10 12C11.1046 12 12 11.1045 12 9.99997C12 8.8954 11.1046 7.99997 10 7.99997C8.89543 7.99997 8 8.8954 8 9.99997C8 11.1045 8.89543 12 10 12Z" fill="#2F384C"/>
</svg>
