<svg width="24" height="24" viewBox="0 0 24 24" fill="none" xmlns="http://www.w3.org/2000/svg">
<path fill-rule="evenodd" clip-rule="evenodd" d="M16.0303 1.96967C15.7375 1.67678 15.2626 1.67678 14.9697 1.96967C14.6768 2.26256 14.6768 2.73744 14.9697 3.03033L15.4697 3.53033L16.5501 4.61074C17.9449 6.00555 18.9587 7.02017 19.6922 7.88421C20.42 8.74155 20.8277 9.40116 21.0446 10.0686C21.4525 11.3239 21.4525 12.6761 21.0446 13.9314C20.8277 14.5988 20.42 15.2585 19.6922 16.1158C18.9587 16.9798 17.9449 17.9945 16.5501 19.3893L14.9697 20.9697L14.4697 21.4697C14.1768 21.7626 14.1768 22.2374 14.4697 22.5303C14.7626 22.8232 15.2375 22.8232 15.5303 22.5303L16.0303 22.0303L17.6108 20.4499L17.635 20.4257L17.635 20.4256C19.0006 19.0601 20.058 18.0027 20.8357 17.0866C21.6238 16.1583 22.1688 15.3257 22.4712 14.3949C22.977 12.8383 22.977 11.1617 22.4712 9.60512C22.1688 8.6743 21.6238 7.84173 20.8357 6.91344C20.0579 5.99725 19.0005 4.93986 17.635 3.57428L17.6108 3.55008L16.5303 2.46967L16.0303 1.96967ZM1.83944 13.7438C2.08681 14.1475 2.43271 14.4934 3.12452 15.1852L5.90883 17.9695C7.69091 19.7516 8.58195 20.6426 9.60942 20.9765C10.5132 21.2701 11.4868 21.2701 12.3906 20.9765C13.4181 20.6426 14.3091 19.7516 16.0912 17.9695L16.9695 17.0912L16.9695 17.0912C18.7516 15.3091 19.6426 14.4181 19.9765 13.3906C20.2701 12.4868 20.2701 11.5132 19.9765 10.6094C19.6426 9.58195 18.7516 8.69091 16.9695 6.90883L14.1852 4.12452C13.4934 3.43271 13.1475 3.08681 12.7438 2.83944C12.3859 2.62012 11.9957 2.45851 11.5876 2.36052C11.1272 2.25 10.6381 2.25 9.65969 2.25H7.65C5.40979 2.25 4.28969 2.25 3.43404 2.68597C2.68139 3.06947 2.06947 3.68139 1.68597 4.43404C1.25 5.28968 1.25 6.40979 1.25 8.65V10.6597C1.25 11.6381 1.25 12.1272 1.36052 12.5876C1.45851 12.9957 1.62012 13.3859 1.83944 13.7438ZM11 10C11 11.1046 10.1046 12 9 12C7.89543 12 7 11.1046 7 10C7 8.89543 7.89543 8 9 8C10.1046 8 11 8.89543 11 10Z" fill="#2F384C"/>
</svg>
