<svg width="24" height="24" viewBox="0 0 24 24" fill="none" xmlns="http://www.w3.org/2000/svg">
<path d="M9.15068 22.7502C9.33272 22.7502 9.50731 22.6779 9.63603 22.5491L15.0626 17.1226C16.1003 16.0849 16.6191 15.5661 16.9902 14.9606C17.3191 14.4237 17.5616 13.8385 17.7086 13.2262C17.8743 12.5357 17.8743 11.8019 17.8743 10.3344V6.05018C17.8743 4.37003 17.8743 3.52995 17.5474 2.88821C17.2597 2.32373 16.8008 1.86478 16.2363 1.57716C15.5946 1.25018 14.7545 1.25018 13.0743 1.25018H6.5989C5.13742 1.25018 4.40668 1.25018 3.81647 1.51762C3.29629 1.75332 2.85419 2.13261 2.54213 2.6109C2.18806 3.15358 2.07695 3.87582 1.85472 5.32031L1.26199 9.17301C0.98455 10.9764 0.845828 11.8781 1.00512 12.6057C1.29245 13.9181 2.21943 14.9986 3.47288 15.4821C4.16776 15.7502 5.08007 15.7502 6.90467 15.7502H7.14073C7.21846 15.7502 7.25732 15.7502 7.28581 15.7535C7.59489 15.789 7.7968 16.0952 7.70773 16.3933C7.69952 16.4208 7.68421 16.4565 7.65359 16.528L6.62711 18.9231C5.85066 20.7348 7.1796 22.7502 9.15068 22.7502V22.7502Z" fill="#2F384C"/>
<path d="M19.1243 13.1252C19.1243 14.1607 19.9638 15.0002 20.9993 15.0002V15.0002C22.0349 15.0002 22.8743 14.1607 22.8743 13.1252V3.12539C22.8743 2.08986 22.0349 1.25039 20.9993 1.25039V1.25039C19.9638 1.25039 19.1243 2.08986 19.1243 3.1254V13.1252Z" fill="#2F384C"/>
</svg>
