<svg width="24" height="24" viewBox="0 0 24 24" fill="none" xmlns="http://www.w3.org/2000/svg">
<path fill-rule="evenodd" clip-rule="evenodd" d="M10.2517 5.25C10.2598 4.08507 10.3066 3.41873 10.577 2.88803C10.8646 2.32354 11.3236 1.8646 11.888 1.57698C12.5298 1.25 13.3699 1.25 15.05 1.25H18.95C20.6302 1.25 21.4703 1.25 22.112 1.57698C22.6765 1.8646 23.1354 2.32354 23.423 2.88803C23.75 3.52976 23.75 4.36984 23.75 6.05V17.9932C23.75 18.9634 22.9635 19.75 21.9932 19.75C22.1323 17.2089 20.0501 15 17.5 15C15.2371 15 13.3426 16.7393 13.0419 18.9067C12.9937 19.2535 12.9697 19.4268 12.911 19.5189C12.8522 19.6111 12.7972 19.6589 12.6978 19.7045C12.5986 19.75 12.453 19.75 12.1618 19.75H11.8382C11.547 19.75 11.4015 19.75 11.3022 19.7045C11.2028 19.6589 11.1478 19.6111 11.0891 19.5189C11.0304 19.4268 11.0063 19.2535 10.9582 18.9067C10.6574 16.7393 8.76288 15 6.50001 15C4.03834 15 2.01262 17.0584 2.0003 19.487C1.99958 19.6299 1.88671 19.75 1.74386 19.75C0.918832 19.75 0.250015 19.0812 0.250015 18.2562V13.45C0.250015 13.4498 0.250015 13.4496 0.250015 13.4494L0.250015 12.3295L0.250007 12.2725C0.24992 11.8322 0.249859 11.5272 0.299191 11.2256C0.34285 10.9587 0.415259 10.6973 0.515154 10.4459C0.628028 10.1619 0.784995 9.90044 1.01159 9.52296L1.04093 9.47407L1.95864 7.94455L2.01891 7.84404C2.47017 7.0913 2.78211 6.57095 3.22233 6.18386C3.6106 5.84245 4.06527 5.58502 4.55778 5.42774C5.11621 5.2494 5.72289 5.24964 6.60054 5.24997L6.71773 5.25H10.2517ZM10.25 6.75H6.71773C5.67714 6.75 5.32165 6.75843 5.0141 6.85664C4.7186 6.95101 4.44579 7.10547 4.21283 7.31031C3.97038 7.5235 3.78026 7.824 3.24488 8.71629L2.32717 10.2458C2.32319 10.2525 2.31925 10.259 2.31534 10.2655C2.61765 10.25 2.98572 10.25 3.45001 10.25H7.05001C8.17012 10.25 8.73017 10.25 9.158 10.032C9.53432 9.84027 9.84028 9.53431 10.032 9.15798C10.25 8.73016 10.25 8.17011 10.25 7.05V6.75ZM3.25001 19.5C3.25001 17.7051 4.70509 16.25 6.50001 16.25C8.29494 16.25 9.75001 17.7051 9.75001 19.5C9.75001 21.2949 8.29494 22.75 6.50001 22.75C4.70509 22.75 3.25001 21.2949 3.25001 19.5ZM14.25 19.5C14.25 17.7051 15.7051 16.25 17.5 16.25C19.2949 16.25 20.75 17.7051 20.75 19.5C20.75 21.2949 19.2949 22.75 17.5 22.75C15.7051 22.75 14.25 21.2949 14.25 19.5Z" fill="#2F384C"/>
</svg>
