<svg width="24" height="24" viewBox="0 0 24 24" fill="none" xmlns="http://www.w3.org/2000/svg">
<path fill-rule="evenodd" clip-rule="evenodd" d="M4.52606 1.90396C5.80953 1.25 7.48969 1.25 10.85 1.25H13.15C16.5103 1.25 18.1905 1.25 19.4739 1.90396C20.6029 2.4792 21.5208 3.39709 22.096 4.52606C22.75 5.80953 22.75 7.48969 22.75 10.85V13.15C22.75 16.5103 22.75 18.1905 22.096 19.4739C21.5208 20.6029 20.6029 21.5208 19.4739 22.096C18.1905 22.75 16.5103 22.75 13.15 22.75H10.85C7.48969 22.75 5.80953 22.75 4.52606 22.096C3.39708 21.5208 2.4792 20.6029 1.90396 19.4739C1.25 18.1905 1.25 16.5103 1.25 13.15V10.85C1.25 7.48969 1.25 5.80953 1.90396 4.52606C2.4792 3.39708 3.39709 2.4792 4.52606 1.90396ZM12 3.75C11.3096 3.75 10.75 4.30964 10.75 5C10.75 5.69036 11.3096 6.25 12 6.25C12.6904 6.25 13.25 5.69036 13.25 5C13.25 4.30964 12.6904 3.75 12 3.75ZM12.75 8C12.75 7.58579 12.4142 7.25 12 7.25C11.5858 7.25 11.25 7.58579 11.25 8V10.0769V11.0337L11.25 11.0614C11.25 11.3818 11.25 11.6662 11.2692 11.902C11.2898 12.1533 11.3359 12.4147 11.4657 12.6695C11.6554 13.0419 11.9581 13.3446 12.3305 13.5343C12.5853 13.6641 12.8467 13.7102 13.098 13.7308C13.3338 13.75 13.6181 13.75 13.9386 13.75H13.9663H14.0337C14.3902 13.75 14.6125 13.7506 14.7798 13.7643C14.9384 13.7772 14.9804 13.7981 14.9885 13.8022C15.0786 13.8481 15.1519 13.9214 15.1978 14.0115C15.2019 14.0196 15.2228 14.0616 15.2357 14.2202C15.2494 14.3875 15.25 14.6098 15.25 14.9663V15.6667L15.25 15.6856C15.25 15.7633 15.2499 15.8362 15.2544 15.903L16.0027 15.853L15.2544 15.903C15.3205 16.892 16.108 17.6795 17.097 17.7456L17.147 16.9973L17.097 17.7456C17.1638 17.7501 17.2367 17.75 17.3144 17.75L17.3333 17.75H18C18.4142 17.75 18.75 17.4142 18.75 17C18.75 16.5858 18.4142 16.25 18 16.25H17.3333C17.2243 16.25 17.2066 16.2496 17.197 16.2489C16.9576 16.2329 16.7671 16.0424 16.7511 15.803C16.7504 15.7934 16.75 15.7757 16.75 15.6667V14.9663V14.9386C16.75 14.6181 16.75 14.3338 16.7308 14.098C16.7102 13.8467 16.6641 13.5853 16.5343 13.3305C16.3446 12.9582 16.0419 12.6554 15.6695 12.4657C15.4147 12.3359 15.1533 12.2898 14.902 12.2692C14.6662 12.25 14.3818 12.25 14.0614 12.25L14.0337 12.25H13.9663C13.6098 12.25 13.3875 12.2494 13.2202 12.2357C13.0616 12.2228 13.0196 12.2019 13.0115 12.1978C12.9214 12.1519 12.8481 12.0786 12.8022 11.9885C12.7981 11.9804 12.7772 11.9384 12.7643 11.7798C12.7506 11.6125 12.75 11.3902 12.75 11.0337V10.4501C13.125 10.6419 13.5499 10.75 14 10.75H15C15.4142 10.75 15.75 10.4142 15.75 10C15.75 9.58579 15.4142 9.25 15 9.25H14C13.3096 9.25 12.75 8.69036 12.75 8ZM9.18694 9.85621C9.58808 9.75296 9.82957 9.34408 9.72633 8.94294C9.62308 8.5418 9.2142 8.30031 8.81306 8.40355C6.76451 8.93081 5.25 10.7895 5.25 13.0039C5.25 15.6272 7.37665 17.7539 10 17.7539C11.2041 17.7539 12.3052 17.3048 13.1421 16.5662C13.4527 16.2921 13.4822 15.8181 13.2081 15.5076C12.934 15.197 12.4601 15.1675 12.1495 15.4416C11.5761 15.9476 10.8248 16.2539 10 16.2539C8.20507 16.2539 6.75 14.7988 6.75 13.0039C6.75 11.4905 7.78504 10.217 9.18694 9.85621Z" fill="#2F384C"/>
</svg>
