<svg width="24" height="24" viewBox="0 0 24 24" fill="none" xmlns="http://www.w3.org/2000/svg">
<path fill-rule="evenodd" clip-rule="evenodd" d="M4.52606 1.90396C5.80953 1.25 7.48969 1.25 10.85 1.25H13.15C16.5103 1.25 18.1905 1.25 19.4739 1.90396C20.6029 2.4792 21.5208 3.39709 22.096 4.52606C22.75 5.80953 22.75 7.48969 22.75 10.85V13.15C22.75 16.5103 22.75 18.1905 22.096 19.4739C21.5208 20.6029 20.6029 21.5208 19.4739 22.096C18.1905 22.75 16.5103 22.75 13.15 22.75H10.85C7.48969 22.75 5.80953 22.75 4.52606 22.096C3.39708 21.5208 2.4792 20.6029 1.90396 19.4739C1.25 18.1905 1.25 16.5103 1.25 13.15V10.85C1.25 7.48969 1.25 5.80953 1.90396 4.52606C2.4792 3.39708 3.39709 2.4792 4.52606 1.90396ZM5.54609 10.5141C7.1439 8.81679 9.4414 7.75 12 7.75C14.5586 7.75 16.8561 8.81679 18.4539 10.5141C18.7378 10.8157 19.2125 10.83 19.5141 10.5461C19.8157 10.2622 19.83 9.78751 19.5461 9.48591C17.6721 7.49526 14.9826 6.25 12 6.25C9.01735 6.25 6.32789 7.49526 4.45391 9.48591C4.16999 9.78751 4.18432 10.2622 4.48591 10.5461C4.78751 10.83 5.26217 10.8157 5.54609 10.5141ZM7.51646 12.5438C8.68914 11.4302 10.2656 10.75 12 10.75C13.7344 10.75 15.3109 11.4302 16.4835 12.5438C16.7839 12.8291 17.2586 12.8168 17.5438 12.5165C17.8291 12.2161 17.8168 11.7414 17.5165 11.4562C16.0774 10.0896 14.1357 9.25 12 9.25C9.86434 9.25 7.92256 10.0896 6.48354 11.4562C6.18318 11.7414 6.17092 12.2161 6.45615 12.5165C6.74139 12.8168 7.2161 12.8291 7.51646 12.5438ZM9.95834 14.5937C10.3658 14.279 10.6413 14.0811 10.9323 13.9497C11.2032 13.8274 11.5187 13.75 12 13.75C12.4813 13.75 12.7968 13.8274 13.0677 13.9497C13.3587 14.0811 13.6342 14.279 14.0417 14.5937C14.3695 14.8468 14.8405 14.7862 15.0937 14.4583C15.3468 14.1305 15.2862 13.6595 14.9583 13.4063C14.5582 13.0974 14.156 12.7953 13.6851 12.5826C13.1941 12.3609 12.6635 12.25 12 12.25C11.3365 12.25 10.8059 12.3609 10.3149 12.5826C9.84397 12.7953 9.44183 13.0974 9.04166 13.4063C8.7138 13.6595 8.65321 14.1305 8.90635 14.4583C9.15948 14.7862 9.63047 14.8468 9.95834 14.5937ZM12 15.25C11.3096 15.25 10.75 15.8096 10.75 16.5C10.75 17.1904 11.3096 17.75 12 17.75C12.6904 17.75 13.25 17.1904 13.25 16.5C13.25 15.8096 12.6904 15.25 12 15.25Z" fill="#2F384C"/>
</svg>
