<svg width="24" height="24" viewBox="0 0 24 24" fill="none" xmlns="http://www.w3.org/2000/svg">
<path d="M5.14648 12.7177C6.51401 11.4302 8.24419 10.5236 10.1675 10.1675M14 10.2C15.8562 10.5768 17.5256 11.4678 18.8533 12.7177M8.1084 15.4329C9.15606 14.5394 10.5149 14 11.9998 14C12.9247 14 13.8007 14.2093 14.5831 14.5831M22.3201 10.5398C19.7609 7.74938 16.0847 6 11.9999 6C11.3209 6 10.6532 6.04834 10 6.14176M1.67969 10.5398C3.12143 8.96783 4.91764 7.72624 6.94168 6.94168M3 3L21 21M12.5 18C12.5 18.2761 12.2761 18.5 12 18.5C11.7239 18.5 11.5 18.2761 11.5 18M12.5 18C12.5 17.7239 12.2761 17.5 12 17.5C11.7239 17.5 11.5 17.7239 11.5 18M12.5 18H11.5" stroke="#2F384C" stroke-width="1.5" stroke-linecap="round" stroke-linejoin="round"/>
</svg>
