<svg width="24" height="24" viewBox="0 0 24 24" fill="none" xmlns="http://www.w3.org/2000/svg">
<path fill-rule="evenodd" clip-rule="evenodd" d="M4.52606 1.90396C5.80953 1.25 7.48969 1.25 10.85 1.25H13.15C16.5103 1.25 18.1905 1.25 19.4739 1.90396C20.6029 2.4792 21.5208 3.39709 22.096 4.52606C22.75 5.80953 22.75 7.48969 22.75 10.85V13.15C22.75 16.5103 22.75 18.1905 22.096 19.4739C21.5208 20.6029 20.6029 21.5208 19.4739 22.096C18.1905 22.75 16.5103 22.75 13.15 22.75H10.85C7.48969 22.75 5.80953 22.75 4.52606 22.096C3.39708 21.5208 2.4792 20.6029 1.90396 19.4739C1.25 18.1905 1.25 16.5103 1.25 13.15V10.85C1.25 7.48969 1.25 5.80953 1.90396 4.52606C2.4792 3.39708 3.39709 2.4792 4.52606 1.90396ZM6.53033 5.46967C6.23744 5.17678 5.76256 5.17678 5.46967 5.46967C5.17678 5.76256 5.17678 6.23744 5.46967 6.53033L6.65594 7.7166C5.83961 8.20459 5.09856 8.80113 4.45391 9.48591C4.16999 9.78751 4.18432 10.2622 4.48591 10.5461C4.78751 10.83 5.26217 10.8157 5.54609 10.5141C6.18119 9.83945 6.92697 9.26436 7.75566 8.81632L8.83924 9.8999C7.9624 10.2778 7.16634 10.8077 6.48354 11.4562C6.18318 11.7414 6.17092 12.2161 6.45615 12.5165C6.74139 12.8168 7.2161 12.8291 7.51646 12.5438C8.21848 11.8772 9.06508 11.3661 10.0025 11.0632L11.2451 12.3058C10.9085 12.3594 10.6048 12.4517 10.3149 12.5826C9.84397 12.7953 9.44183 13.0974 9.04166 13.4063C8.7138 13.6595 8.65321 14.1305 8.90635 14.4583C9.15948 14.7862 9.63047 14.8468 9.95834 14.5937C10.3658 14.279 10.6413 14.0811 10.9323 13.9497C11.2032 13.8274 11.5187 13.75 12 13.75C12.3281 13.75 12.5769 13.786 12.785 13.8457L16.4697 17.5303C16.7626 17.8232 17.2374 17.8232 17.5303 17.5303C17.8232 17.2374 17.8232 16.7626 17.5303 16.4697L13.7198 12.6592L10.7508 9.69014L8.43333 7.37267L6.53033 5.46967ZM11.0761 7.79682C11.3795 7.76588 11.6877 7.75 12 7.75C14.5586 7.75 16.8561 8.81679 18.4539 10.5141C18.7378 10.8157 19.2125 10.83 19.5141 10.5461C19.8157 10.2622 19.83 9.78751 19.5461 9.48591C17.6721 7.49526 14.9826 6.25 12 6.25C11.6368 6.25 11.2778 6.26847 10.9239 6.30456C10.5118 6.34657 10.2119 6.71469 10.2539 7.12677C10.2959 7.53884 10.664 7.83884 11.0761 7.79682ZM13.6547 9.42183C13.2494 9.33639 12.8516 9.59569 12.7661 10.001C12.6807 10.4063 12.94 10.8041 13.3453 10.8896C14.543 11.1421 15.6221 11.7258 16.4835 12.5438C16.7839 12.8291 17.2586 12.8168 17.5438 12.5165C17.8291 12.2161 17.8168 11.7414 17.5165 11.4562C16.4601 10.453 15.1327 9.73339 13.6547 9.42183ZM12 15.25C11.3096 15.25 10.75 15.8096 10.75 16.5C10.75 17.1904 11.3096 17.75 12 17.75C12.6904 17.75 13.25 17.1904 13.25 16.5C13.25 15.8096 12.6904 15.25 12 15.25Z" fill="#2F384C"/>
</svg>
