<svg width="24" height="24" viewBox="0 0 24 24" fill="none" xmlns="http://www.w3.org/2000/svg">
<path fill-rule="evenodd" clip-rule="evenodd" d="M12.75 2C12.75 1.58579 12.4142 1.25 12 1.25C11.5858 1.25 11.25 1.58579 11.25 2V6.25H7.85C5.88982 6.25 4.90972 6.25 4.16103 6.63148C3.50247 6.96703 2.96703 7.50247 2.63148 8.16103C2.25 8.90972 2.25 9.88982 2.25 11.85V12.15C2.25 14.1102 2.25 15.0903 2.63148 15.839C2.96703 16.4975 3.50247 17.033 4.16103 17.3685C4.90972 17.75 5.88982 17.75 7.85 17.75H11.25V22C11.25 22.4142 11.5858 22.75 12 22.75C12.4142 22.75 12.75 22.4142 12.75 22V17.75H16.15C18.1102 17.75 19.0903 17.75 19.839 17.3685C20.4975 17.033 21.033 16.4975 21.3685 15.839C21.75 15.0903 21.75 14.1102 21.75 12.15V11.85C21.75 9.88982 21.75 8.90972 21.3685 8.16103C21.033 7.50247 20.4975 6.96703 19.839 6.63148C19.0903 6.25 18.1102 6.25 16.15 6.25H12.75V2Z" fill="#2F384C"/>
</svg>
