<svg width="24" height="24" viewBox="0 0 24 24" fill="none" xmlns="http://www.w3.org/2000/svg">
<path fill-rule="evenodd" clip-rule="evenodd" d="M8.16103 2.63148C8.90972 2.25 9.88982 2.25 11.85 2.25H12.15C14.1102 2.25 15.0903 2.25 15.839 2.63148C16.4975 2.96703 17.033 3.50247 17.3685 4.16103C17.75 4.90972 17.75 5.88982 17.75 7.85V11.25H22C22.4142 11.25 22.75 11.5858 22.75 12C22.75 12.4142 22.4142 12.75 22 12.75H17.75V16.15C17.75 18.1102 17.75 19.0903 17.3685 19.839C17.033 20.4975 16.4975 21.033 15.839 21.3685C15.0903 21.75 14.1102 21.75 12.15 21.75H11.85C9.88982 21.75 8.90972 21.75 8.16103 21.3685C7.50247 21.033 6.96703 20.4975 6.63148 19.839C6.25 19.0903 6.25 18.1102 6.25 16.15V12.75H2C1.58579 12.75 1.25 12.4142 1.25 12C1.25 11.5858 1.58579 11.25 2 11.25H6.25V7.85C6.25 5.88982 6.25 4.90972 6.63148 4.16103C6.96703 3.50247 7.50247 2.96703 8.16103 2.63148Z" fill="#2F384C"/>
</svg>
