<svg width="24" height="24" viewBox="0 0 24 24" fill="none" xmlns="http://www.w3.org/2000/svg">
<path fill-rule="evenodd" clip-rule="evenodd" d="M2.75 3C2.75 2.58579 2.41421 2.25 2 2.25C1.58579 2.25 1.25 2.58579 1.25 3V21C1.25 21.4142 1.58579 21.75 2 21.75C2.41421 21.75 2.75 21.4142 2.75 21L2.75 3ZM7.16103 6.63148C7.90972 6.25 8.88982 6.25 10.85 6.25H17.15C19.1102 6.25 20.0903 6.25 20.839 6.63148C21.4975 6.96703 22.033 7.50247 22.3685 8.16103C22.75 8.90972 22.75 9.88982 22.75 11.85V12.15C22.75 14.1102 22.75 15.0903 22.3685 15.839C22.033 16.4975 21.4975 17.033 20.839 17.3685C20.0903 17.75 19.1102 17.75 17.15 17.75H10.85C8.88982 17.75 7.90972 17.75 7.16103 17.3685C6.50247 17.033 5.96703 16.4975 5.63148 15.839C5.25 15.0903 5.25 14.1102 5.25 12.15V11.85C5.25 9.88982 5.25 8.90972 5.63148 8.16103C5.96703 7.50247 6.50247 6.96703 7.16103 6.63148Z" fill="#2F384C"/>
</svg>
