<svg width="24" height="24" viewBox="0 0 24 24" fill="none" xmlns="http://www.w3.org/2000/svg">
<path fill-rule="evenodd" clip-rule="evenodd" d="M3.98005 1.79497C5.04961 1.25 6.44974 1.25 9.25 1.25H14.75C17.5503 1.25 18.9504 1.25 20.02 1.79497C20.9608 2.27433 21.7257 3.03924 22.205 3.98005C22.75 5.04961 22.75 6.44974 22.75 9.25V14.75C22.75 17.5503 22.75 18.9504 22.205 20.02C21.7257 20.9608 20.9608 21.7257 20.02 22.205C18.9504 22.75 17.5503 22.75 14.75 22.75H9.25C6.44974 22.75 5.04961 22.75 3.98005 22.205C3.03924 21.7257 2.27433 20.9608 1.79497 20.02C1.25 18.9504 1.25 17.5503 1.25 14.75V9.25C1.25 6.44974 1.25 5.04961 1.79497 3.98005C2.27433 3.03924 3.03924 2.27433 3.98005 1.79497ZM8.75 6C8.75 5.58579 8.41421 5.25 8 5.25C7.58579 5.25 7.25 5.58579 7.25 6V7.25H6C5.58579 7.25 5.25 7.58579 5.25 8C5.25 8.41421 5.58579 8.75 6 8.75H7.25V12.8L7.25 12.8304V12.8305C7.24999 13.3646 7.24998 13.8104 7.27974 14.1747C7.31078 14.5546 7.37789 14.9112 7.54973 15.2485C7.81338 15.7659 8.23408 16.1866 8.75153 16.4503C9.08879 16.6221 9.44545 16.6892 9.82533 16.7203C10.1895 16.75 10.6354 16.75 11.1695 16.75H11.1695H11.2H15.25V18C15.25 18.4142 15.5858 18.75 16 18.75C16.4142 18.75 16.75 18.4142 16.75 18V16.75H18C18.4142 16.75 18.75 16.4142 18.75 16C18.75 15.5858 18.4142 15.25 18 15.25H16H11.2C10.6276 15.25 10.2434 15.2494 9.94748 15.2252C9.66035 15.2018 9.52307 15.1599 9.43251 15.1138C9.19731 14.9939 9.00608 14.8027 8.88624 14.5675C8.8401 14.4769 8.79822 14.3396 8.77476 14.0525C8.75058 13.7566 8.75 13.3724 8.75 12.8V8V6ZM12.8 8.75C13.3724 8.75 13.7566 8.75058 14.0525 8.77476C14.3396 8.79822 14.4769 8.8401 14.5675 8.88624C14.8027 9.00608 14.9939 9.19731 15.1138 9.43251C15.1599 9.52307 15.2018 9.66035 15.2252 9.94748C15.2494 10.2434 15.25 10.6276 15.25 11.2V13C15.25 13.4142 15.5858 13.75 16 13.75C16.4142 13.75 16.75 13.4142 16.75 13V11.2V11.1695V11.1695C16.75 10.6354 16.75 10.1896 16.7203 9.82533C16.6892 9.44545 16.6221 9.08879 16.4503 8.75153C16.1866 8.23408 15.7659 7.81338 15.2485 7.54973C14.9112 7.37789 14.5546 7.31078 14.1747 7.27974C13.8104 7.24998 13.3646 7.24999 12.8305 7.25H12.8304L12.8 7.25H11C10.5858 7.25 10.25 7.58579 10.25 8C10.25 8.41421 10.5858 8.75 11 8.75H12.8Z" fill="#2F384C"/>
</svg>
