<svg width="24" height="24" viewBox="0 0 24 24" fill="none" xmlns="http://www.w3.org/2000/svg">
<path fill-rule="evenodd" clip-rule="evenodd" d="M2.75 3C2.75 2.58579 2.41421 2.25 2 2.25C1.58579 2.25 1.25 2.58579 1.25 3V21C1.25 21.4142 1.58579 21.75 2 21.75C2.41421 21.75 2.75 21.4142 2.75 21L2.75 3ZM22.75 3C22.75 2.58579 22.4142 2.25 22 2.25C21.5858 2.25 21.25 2.58579 21.25 3V21C21.25 21.4142 21.5858 21.75 22 21.75C22.4142 21.75 22.75 21.4142 22.75 21V3ZM8.16103 3.63148C8.90972 3.25 9.88982 3.25 11.85 3.25H12.15C14.1102 3.25 15.0903 3.25 15.839 3.63148C16.4975 3.96703 17.033 4.50247 17.3685 5.16103C17.75 5.90972 17.75 6.88982 17.75 8.85V15.15C17.75 17.1102 17.75 18.0903 17.3685 18.839C17.033 19.4975 16.4975 20.033 15.839 20.3685C15.0903 20.75 14.1102 20.75 12.15 20.75H11.85C9.88982 20.75 8.90972 20.75 8.16103 20.3685C7.50247 20.033 6.96703 19.4975 6.63148 18.839C6.25 18.0903 6.25 17.1102 6.25 15.15V8.85C6.25 6.88982 6.25 5.90972 6.63148 5.16103C6.96703 4.50247 7.50247 3.96703 8.16103 3.63148Z" fill="#2F384C"/>
</svg>
