<svg width="24" height="24" viewBox="0 0 24 24" fill="none" xmlns="http://www.w3.org/2000/svg">
<path fill-rule="evenodd" clip-rule="evenodd" d="M2.85 12.75C2.28995 12.75 2.00992 12.75 1.79601 12.859C1.60785 12.9549 1.45487 13.1078 1.35899 13.296C1.25 13.5099 1.25 13.7899 1.25 14.35V14.75C1.25 17.5503 1.25 18.9504 1.79497 20.02C2.27433 20.9608 3.03924 21.7257 3.98005 22.205C5.04961 22.75 6.44974 22.75 9.25 22.75H14.75C17.5503 22.75 18.9504 22.75 20.02 22.205C20.9608 21.7257 21.7257 20.9608 22.205 20.02C22.75 18.9504 22.75 17.5503 22.75 14.75V14.35C22.75 13.7899 22.75 13.5099 22.641 13.296C22.5451 13.1078 22.3922 12.9549 22.204 12.859C21.9901 12.75 21.7101 12.75 21.15 12.75H2.85ZM1.25 9.65C1.25 10.2101 1.25 10.4901 1.35899 10.704C1.45487 10.8922 1.60785 11.0451 1.79601 11.141C2.00992 11.25 2.28995 11.25 2.85 11.25H21.15C21.7101 11.25 21.9901 11.25 22.204 11.141C22.3922 11.0451 22.5451 10.8922 22.641 10.704C22.75 10.4901 22.75 10.2101 22.75 9.65V9.25C22.75 6.44974 22.75 5.04961 22.205 3.98005C21.7257 3.03924 20.9608 2.27433 20.02 1.79497C18.9504 1.25 17.5503 1.25 14.75 1.25H9.25C6.44974 1.25 5.04961 1.25 3.98005 1.79497C3.03924 2.27433 2.27433 3.03924 1.79497 3.98005C1.25 5.04961 1.25 6.44974 1.25 9.25V9.65Z" fill="#2F384C"/>
</svg>
