<svg width="24" height="24" viewBox="0 0 24 24" fill="none" xmlns="http://www.w3.org/2000/svg">
<path fill-rule="evenodd" clip-rule="evenodd" d="M11.25 2.85C11.25 2.28995 11.25 2.00992 11.141 1.79601C11.0451 1.60785 10.8922 1.45487 10.704 1.35899C10.4901 1.25 10.2101 1.25 9.65 1.25H9.25C6.44974 1.25 5.04961 1.25 3.98005 1.79497C3.03924 2.27433 2.27433 3.03924 1.79497 3.98005C1.25 5.04961 1.25 6.44974 1.25 9.25V14.75C1.25 17.5503 1.25 18.9504 1.79497 20.02C2.27433 20.9608 3.03924 21.7257 3.98005 22.205C5.04961 22.75 6.44974 22.75 9.25 22.75H9.65C10.2101 22.75 10.4901 22.75 10.704 22.641C10.8922 22.5451 11.0451 22.3922 11.141 22.204C11.25 21.9901 11.25 21.7101 11.25 21.15L11.25 2.85ZM12.75 21.15C12.75 21.7101 12.75 21.9901 12.859 22.204C12.9549 22.3922 13.1078 22.5451 13.296 22.641C13.5099 22.75 13.7899 22.75 14.35 22.75H14.75C17.5503 22.75 18.9504 22.75 20.02 22.205C20.9608 21.7257 21.7257 20.9608 22.205 20.02C22.75 18.9504 22.75 17.5503 22.75 14.75V9.25C22.75 6.44974 22.75 5.04961 22.205 3.98005C21.7257 3.03924 20.9608 2.27433 20.02 1.79497C18.9504 1.25 17.5503 1.25 14.75 1.25H14.35C13.7899 1.25 13.5099 1.25 13.296 1.35899C13.1078 1.45487 12.9549 1.60785 12.859 1.79601C12.75 2.00992 12.75 2.28995 12.75 2.85L12.75 21.15Z" fill="#2F384C"/>
</svg>
