<svg width="24" height="24" viewBox="0 0 24 24" fill="none" xmlns="http://www.w3.org/2000/svg">
<path fill-rule="evenodd" clip-rule="evenodd" d="M2.85 15.25C2.28995 15.25 2.00992 15.25 1.79601 15.141C1.60785 15.0451 1.45487 14.8922 1.35899 14.704C1.25 14.4901 1.25 14.2101 1.25 13.65V10.35C1.25 9.78995 1.25 9.50992 1.35899 9.29601C1.45487 9.10785 1.60785 8.95487 1.79601 8.85899C2.00992 8.75 2.28995 8.75 2.85 8.75H21.15C21.7101 8.75 21.9901 8.75 22.204 8.85899C22.3922 8.95487 22.5451 9.10785 22.641 9.29601C22.75 9.50992 22.75 9.78995 22.75 10.35V13.65C22.75 14.2101 22.75 14.4901 22.641 14.704C22.5451 14.8922 22.3922 15.0451 22.204 15.141C21.9901 15.25 21.7101 15.25 21.15 15.25H2.85ZM2.25 16.75C1.69772 16.75 1.25 17.1977 1.25 17.75V17.75C1.25 20.5114 3.48858 22.75 6.25 22.75H17.75C20.5114 22.75 22.75 20.5114 22.75 17.75V17.75C22.75 17.1977 22.3023 16.75 21.75 16.75H2.25ZM22.75 6.25C22.75 6.80228 22.3023 7.25 21.75 7.25H2.25C1.69772 7.25 1.25 6.80228 1.25 6.25V6.25C1.25 3.48858 3.48858 1.25 6.25 1.25H17.75C20.5114 1.25 22.75 3.48858 22.75 6.25V6.25Z" fill="#2F384C"/>
</svg>
