<svg width="24" height="24" viewBox="0 0 24 24" fill="none" xmlns="http://www.w3.org/2000/svg">
<path fill-rule="evenodd" clip-rule="evenodd" d="M7.91667 1.25C6.36671 1.25 5.59174 1.25 4.9559 1.42037C3.23044 1.88271 1.88271 3.23044 1.42037 4.9559C1.25 5.59174 1.25 6.36671 1.25 7.91667V7.91667C1.25 8.22666 1.25 8.38165 1.28407 8.50882C1.37654 8.85391 1.64609 9.12346 1.99118 9.21593C2.11835 9.25 2.27334 9.25 2.58333 9.25H10H21.4167C21.7267 9.25 21.8817 9.25 22.0088 9.21593C22.3539 9.12346 22.6235 8.85391 22.7159 8.50882C22.75 8.38165 22.75 8.22666 22.75 7.91667V7.91667C22.75 6.36671 22.75 5.59174 22.5796 4.9559C22.1173 3.23044 20.7696 1.88271 19.0441 1.42037C18.4083 1.25 17.6333 1.25 16.0833 1.25H7.91667ZM7.91667 22.75C6.36671 22.75 5.59174 22.75 4.9559 22.5796C3.23044 22.1173 1.88271 20.7696 1.42037 19.0441C1.25 18.4083 1.25 17.6333 1.25 16.0833V12.35C1.25 11.7899 1.25 11.5099 1.35899 11.296C1.45487 11.1078 1.60785 10.9549 1.79601 10.859C2.00992 10.75 2.28995 10.75 2.85 10.75H7.65C8.21005 10.75 8.49008 10.75 8.70399 10.859C8.89215 10.9549 9.04513 11.1078 9.14101 11.296C9.25 11.5099 9.25 11.7899 9.25 12.35L9.25 21.4167C9.25 21.7267 9.25 21.8817 9.21593 22.0088C9.12346 22.3539 8.85391 22.6235 8.50882 22.7159C8.38165 22.75 8.22666 22.75 7.91667 22.75V22.75ZM12.35 17.25C11.7899 17.25 11.5099 17.25 11.296 17.359C11.1078 17.4549 10.9549 17.6078 10.859 17.796C10.75 18.0099 10.75 18.2899 10.75 18.85V21.15C10.75 21.7101 10.75 21.9901 10.859 22.204C10.9549 22.3922 11.1078 22.5451 11.296 22.641C11.5099 22.75 11.7899 22.75 12.35 22.75H18.1667C20.698 22.75 22.75 20.698 22.75 18.1667V18.1667C22.75 17.6604 22.3396 17.25 21.8333 17.25L12.35 17.25ZM21.15 15.75C21.7101 15.75 21.9901 15.75 22.204 15.641C22.3922 15.5451 22.5451 15.3922 22.641 15.204C22.75 14.9901 22.75 14.7101 22.75 14.15V12.35C22.75 11.7899 22.75 11.5099 22.641 11.296C22.5451 11.1078 22.3922 10.9549 22.204 10.859C21.9901 10.75 21.7101 10.75 21.15 10.75H12.35C11.7899 10.75 11.5099 10.75 11.296 10.859C11.1078 10.9549 10.9549 11.1078 10.859 11.296C10.75 11.5099 10.75 11.7899 10.75 12.35V14.15C10.75 14.7101 10.75 14.9901 10.859 15.204C10.9549 15.3922 11.1078 15.5451 11.296 15.641C11.5099 15.75 11.7899 15.75 12.35 15.75L21.15 15.75Z" fill="#2F384C"/>
</svg>
