<svg width="24" height="24" viewBox="0 0 24 24" fill="none" xmlns="http://www.w3.org/2000/svg">
<path fill-rule="evenodd" clip-rule="evenodd" d="M13.25 2.85C13.25 2.28995 13.25 2.00992 13.141 1.79601C13.0451 1.60785 12.8922 1.45487 12.704 1.35899C12.4901 1.25 12.2101 1.25 11.65 1.25H9.25C6.44974 1.25 5.04961 1.25 3.98005 1.79497C3.03924 2.27433 2.27433 3.03924 1.79497 3.98005C1.25 5.04961 1.25 6.44974 1.25 9.25V14.75C1.25 17.5503 1.25 18.9504 1.79497 20.02C2.27433 20.9608 3.03924 21.7257 3.98005 22.205C5.04961 22.75 6.44974 22.75 9.25 22.75H11.65C12.2101 22.75 12.4901 22.75 12.704 22.641C12.8922 22.5451 13.0451 22.3922 13.141 22.204C13.25 21.9901 13.25 21.7101 13.25 21.15L13.25 2.85ZM14.75 21.4167C14.75 21.7267 14.75 21.8817 14.7841 22.0088C14.8765 22.3539 15.1461 22.6235 15.4912 22.7159C15.6183 22.75 15.7733 22.75 16.0833 22.75V22.75C17.6333 22.75 18.4083 22.75 19.0441 22.5796C20.7696 22.1173 22.1173 20.7696 22.5796 19.0441C22.75 18.4083 22.75 17.6333 22.75 16.0833V7.91667C22.75 6.36671 22.75 5.59174 22.5796 4.9559C22.1173 3.23044 20.7696 1.88271 19.0441 1.42037C18.4083 1.25 17.6333 1.25 16.0833 1.25V1.25C15.7733 1.25 15.6183 1.25 15.4912 1.28407C15.1461 1.37654 14.8765 1.64609 14.7841 1.99118C14.75 2.11835 14.75 2.27334 14.75 2.58333L14.75 21.4167Z" fill="#2F384C"/>
</svg>
