<svg width="24" height="24" viewBox="0 0 24 24" fill="none" xmlns="http://www.w3.org/2000/svg">
<path fill-rule="evenodd" clip-rule="evenodd" d="M7.25 2.07651C7.25 1.79118 7.25 1.64851 7.19204 1.53887C7.14208 1.44436 7.05812 1.3645 6.96122 1.31934C6.84881 1.26695 6.71085 1.27387 6.43491 1.28772C5.35576 1.34186 4.61048 1.47375 3.98005 1.79497C3.03924 2.27433 2.27433 3.03924 1.79497 3.98005C1.47375 4.61048 1.34186 5.35576 1.28772 6.43491C1.27387 6.71085 1.26695 6.84881 1.31934 6.96122C1.3645 7.05812 1.44436 7.14208 1.53887 7.19204C1.64851 7.25 1.79118 7.25 2.07651 7.25H6.45C6.73003 7.25 6.87004 7.25 6.977 7.1955C7.07108 7.14757 7.14757 7.07108 7.1955 6.977C7.25 6.87004 7.25 6.73003 7.25 6.45L7.25 2.07651ZM1.75013 8.75C1.74994 8.75 1.74985 8.75 1.74969 8.75C1.47394 8.75017 1.25017 8.97394 1.25 9.24969C1.25 9.24985 1.25 9.2499 1.25 9.25V9.25V14.75V14.75C1.25 14.7501 1.25 14.7502 1.25 14.7503C1.25017 15.0261 1.47394 15.2498 1.74969 15.25C1.74985 15.25 1.74994 15.25 1.75013 15.25H6.45C6.73003 15.25 6.87004 15.25 6.977 15.1955C7.07108 15.1476 7.14757 15.0711 7.1955 14.977C7.25 14.87 7.25 14.73 7.25 14.45V9.55C7.25 9.26997 7.25 9.12996 7.1955 9.023C7.14757 8.92892 7.07108 8.85243 6.977 8.8045C6.87004 8.75 6.73003 8.75 6.45 8.75H1.75013ZM2.07651 16.75C1.79118 16.75 1.64851 16.75 1.53887 16.808C1.44436 16.8579 1.3645 16.9419 1.31934 17.0388C1.26695 17.1512 1.27387 17.2892 1.28772 17.5651C1.34186 18.6442 1.47375 19.3895 1.79497 20.02C2.27433 20.9608 3.03924 21.7257 3.98005 22.205C4.61048 22.5263 5.35576 22.6581 6.43491 22.7123C6.71085 22.7261 6.84881 22.7331 6.96123 22.6807C7.05812 22.6355 7.14208 22.5556 7.19204 22.4611C7.25 22.3515 7.25 22.2088 7.25 21.9235L7.25 17.55C7.25 17.27 7.25 17.13 7.1955 17.023C7.14757 16.9289 7.07108 16.8524 6.977 16.8045C6.87004 16.75 6.73003 16.75 6.45 16.75H2.07651ZM8.75 22.2499C8.75 22.2501 8.75 22.2502 8.75 22.2503C8.75017 22.5261 8.97394 22.7498 9.2497 22.75C9.24985 22.75 9.2499 22.75 9.25 22.75V22.75H14.75V22.75C14.7501 22.75 14.7502 22.75 14.7503 22.75C15.0261 22.7498 15.2498 22.5261 15.25 22.2503C15.25 22.2502 15.25 22.2501 15.25 22.2499V17.55C15.25 17.27 15.25 17.13 15.1955 17.023C15.1476 16.9289 15.0711 16.8524 14.977 16.8045C14.87 16.75 14.73 16.75 14.45 16.75H9.55C9.26997 16.75 9.12996 16.75 9.02301 16.8045C8.92892 16.8524 8.85243 16.9289 8.8045 17.023C8.75 17.13 8.75 17.27 8.75 17.55V22.2499ZM16.75 21.9235C16.75 22.2088 16.75 22.3515 16.808 22.4611C16.8579 22.5556 16.9419 22.6355 17.0388 22.6807C17.1512 22.7331 17.2892 22.7261 17.5651 22.7123C18.6442 22.6581 19.3895 22.5263 20.02 22.205C20.9608 21.7257 21.7257 20.9608 22.205 20.02C22.5263 19.3895 22.6581 18.6442 22.7123 17.5651C22.7261 17.2892 22.7331 17.1512 22.6807 17.0388C22.6355 16.9419 22.5556 16.8579 22.4611 16.808C22.3515 16.75 22.2088 16.75 21.9235 16.75H17.55C17.27 16.75 17.13 16.75 17.023 16.8045C16.9289 16.8524 16.8524 16.9289 16.8045 17.023C16.75 17.13 16.75 17.27 16.75 17.55V21.9235ZM22.2499 15.25C22.2501 15.25 22.2502 15.25 22.2503 15.25C22.5261 15.2498 22.7498 15.0261 22.75 14.7503C22.75 14.7502 22.75 14.7501 22.75 14.75V14.75V9.25V9.25C22.75 9.2499 22.75 9.24985 22.75 9.24969C22.7498 8.97394 22.5261 8.75017 22.2503 8.75C22.2502 8.75 22.2501 8.75 22.2499 8.75H17.55C17.27 8.75 17.13 8.75 17.023 8.8045C16.9289 8.85243 16.8524 8.92892 16.8045 9.023C16.75 9.12996 16.75 9.26997 16.75 9.55V14.45C16.75 14.73 16.75 14.87 16.8045 14.977C16.8524 15.0711 16.9289 15.1476 17.023 15.1955C17.13 15.25 17.27 15.25 17.55 15.25H22.2499ZM21.9235 7.25C22.2088 7.25 22.3515 7.25 22.4611 7.19204C22.5556 7.14208 22.6355 7.05812 22.6807 6.96122C22.7331 6.84881 22.7261 6.71085 22.7123 6.43491C22.6581 5.35576 22.5263 4.61048 22.205 3.98005C21.7257 3.03924 20.9608 2.27433 20.02 1.79497C19.3895 1.47375 18.6442 1.34186 17.5651 1.28772C17.2892 1.27387 17.1512 1.26695 17.0388 1.31934C16.9419 1.3645 16.8579 1.44436 16.808 1.53887C16.75 1.64851 16.75 1.79118 16.75 2.07651V6.45C16.75 6.73003 16.75 6.87004 16.8045 6.977C16.8524 7.07108 16.9289 7.14757 17.023 7.1955C17.13 7.25 17.27 7.25 17.55 7.25H21.9235ZM15.25 1.75013C15.25 1.74994 15.25 1.74985 15.25 1.74969C15.2498 1.47394 15.0261 1.25017 14.7503 1.25C14.7502 1.25 14.7501 1.25 14.75 1.25V1.25H9.25V1.25C9.2499 1.25 9.24985 1.25 9.24969 1.25C8.97394 1.25017 8.75017 1.47394 8.75 1.74969C8.75 1.74985 8.75 1.74994 8.75 1.75013V6.45C8.75 6.73003 8.75 6.87004 8.8045 6.977C8.85243 7.07108 8.92892 7.14757 9.023 7.1955C9.12996 7.25 9.26997 7.25 9.55 7.25H14.45C14.73 7.25 14.87 7.25 14.977 7.1955C15.0711 7.14757 15.1476 7.07108 15.1955 6.977C15.25 6.87004 15.25 6.73003 15.25 6.45V1.75013ZM9.55 15.25C9.26997 15.25 9.12996 15.25 9.02301 15.1955C8.92892 15.1476 8.85243 15.0711 8.8045 14.977C8.75 14.87 8.75 14.73 8.75 14.45L8.75 9.55C8.75 9.26997 8.75 9.12996 8.8045 9.023C8.85243 8.92892 8.92892 8.85243 9.023 8.8045C9.12996 8.75 9.26997 8.75 9.55 8.75H14.45C14.73 8.75 14.87 8.75 14.977 8.8045C15.0711 8.85243 15.1476 8.92892 15.1955 9.023C15.25 9.12996 15.25 9.26997 15.25 9.55V14.45C15.25 14.73 15.25 14.87 15.1955 14.977C15.1476 15.0711 15.0711 15.1476 14.977 15.1955C14.87 15.25 14.73 15.25 14.45 15.25H9.55Z" fill="#2F384C"/>
</svg>
