<svg width="24" height="24" viewBox="0 0 24 24" fill="none" xmlns="http://www.w3.org/2000/svg">
<path fill-rule="evenodd" clip-rule="evenodd" d="M9.25 22.75C6.44974 22.75 5.04961 22.75 3.98005 22.205C3.03924 21.7257 2.27433 20.9608 1.79497 20.02C1.25 18.9504 1.25 17.5503 1.25 14.75V9.25C1.25 6.44974 1.25 5.04961 1.79497 3.98005C2.27433 3.03924 3.03924 2.27433 3.98005 1.79497C5.04961 1.25 6.44974 1.25 9.25 1.25H14.75C17.5503 1.25 18.9504 1.25 20.02 1.79497C20.9608 2.27433 21.7257 3.03924 22.205 3.98005C22.75 5.04961 22.75 6.44974 22.75 9.25V14.75C22.75 17.5503 22.75 18.9504 22.205 20.02C21.7257 20.9608 20.9608 21.7257 20.02 22.205C18.9504 22.75 17.5503 22.75 14.75 22.75H9.25ZM13 15.8C13 14.1198 13 13.2798 12.673 12.638C12.3854 12.0735 11.9265 11.6146 11.362 11.327C10.7202 11 9.88016 11 8.2 11H6.6C6.03995 11 5.75992 11 5.54601 11.109C5.35785 11.2049 5.20487 11.3578 5.10899 11.546C5 11.7599 5 12.0399 5 12.6V15.8C5 16.9201 5 17.4802 5.21799 17.908C5.40973 18.2843 5.71569 18.5903 6.09202 18.782C6.51984 19 7.07989 19 8.2 19H11.4C11.9601 19 12.2401 19 12.454 18.891C12.6422 18.7951 12.7951 18.6422 12.891 18.454C13 18.2401 13 17.9601 13 17.4V15.8Z" fill="#2F384C"/>
</svg>
