<svg width="24" height="24" viewBox="0 0 24 24" fill="none" xmlns="http://www.w3.org/2000/svg">
<path fill-rule="evenodd" clip-rule="evenodd" d="M3 1.25C2.58579 1.25 2.25 1.58579 2.25 2C2.25 2.41421 2.58579 2.75 3 2.75H21C21.4142 2.75 21.75 2.41421 21.75 2C21.75 1.58579 21.4142 1.25 21 1.25H3ZM3 21.25C2.58579 21.25 2.25 21.5858 2.25 22C2.25 22.4142 2.58579 22.75 3 22.75H21C21.4142 22.75 21.75 22.4142 21.75 22C21.75 21.5858 21.4142 21.25 21 21.25H3ZM4.43404 5.68597C5.28968 5.25 6.40979 5.25 8.65 5.25H15.35C17.5902 5.25 18.7103 5.25 19.566 5.68597C20.3186 6.06947 20.9305 6.68139 21.314 7.43404C21.75 8.28968 21.75 9.40979 21.75 11.65V12.35C21.75 14.5902 21.75 15.7103 21.314 16.566C20.9305 17.3186 20.3186 17.9305 19.566 18.314C18.7103 18.75 17.5902 18.75 15.35 18.75H8.65C6.40979 18.75 5.28968 18.75 4.43404 18.314C3.68139 17.9305 3.06947 17.3186 2.68597 16.566C2.25 15.7103 2.25 14.5902 2.25 12.35V11.65C2.25 9.40979 2.25 8.28968 2.68597 7.43404C3.06947 6.68139 3.68139 6.06947 4.43404 5.68597Z" fill="#2F384C"/>
</svg>
