<svg width="24" height="24" viewBox="0 0 24 24" fill="none" xmlns="http://www.w3.org/2000/svg">
<path fill-rule="evenodd" clip-rule="evenodd" d="M3.43404 2.68597C4.28969 2.25 5.40979 2.25 7.65 2.25H8.35C10.5902 2.25 11.7103 2.25 12.566 2.68597C13.3186 3.06947 13.9305 3.68139 14.314 4.43404C14.75 5.28968 14.75 6.40979 14.75 8.65V15.35C14.75 17.5902 14.75 18.7103 14.314 19.566C13.9305 20.3186 13.3186 20.9305 12.566 21.314C11.7103 21.75 10.5902 21.75 8.35 21.75H7.65C5.40979 21.75 4.28969 21.75 3.43404 21.314C2.68139 20.9305 2.06947 20.3186 1.68597 19.566C1.25 18.7103 1.25 17.5902 1.25 15.35V8.65C1.25 6.40979 1.25 5.28968 1.68597 4.43404C2.06947 3.68139 2.68139 3.06947 3.43404 2.68597ZM18.75 6C18.75 5.58579 18.4142 5.25 18 5.25C17.5858 5.25 17.25 5.58579 17.25 6L17.25 18C17.25 18.4142 17.5858 18.75 18 18.75C18.4142 18.75 18.75 18.4142 18.75 18V6ZM22.75 9C22.75 8.58579 22.4142 8.25 22 8.25C21.5858 8.25 21.25 8.58579 21.25 9V15C21.25 15.4142 21.5858 15.75 22 15.75C22.4142 15.75 22.75 15.4142 22.75 15V9Z" fill="#2F384C"/>
</svg>
