<svg width="24" height="24" viewBox="0 0 24 24" fill="none" xmlns="http://www.w3.org/2000/svg">
<path fill-rule="evenodd" clip-rule="evenodd" d="M11.367 1.25H11.4H12.6H12.633C13.7251 1.24999 14.5906 1.24999 15.2883 1.30699C16.0017 1.36527 16.6053 1.48688 17.1565 1.76772C18.0502 2.22312 18.7769 2.94978 19.2323 3.84355C19.4583 4.28719 19.5812 4.76481 19.651 5.3063C21.4117 5.61447 22.75 7.15095 22.75 9V15C22.75 16.849 21.4117 18.3855 19.651 18.6937C19.5812 19.2352 19.4583 19.7128 19.2323 20.1565C18.7769 21.0502 18.0502 21.7769 17.1565 22.2323C16.6053 22.5131 16.0017 22.6347 15.2883 22.693C14.5906 22.75 13.7252 22.75 12.633 22.75H12.6H11.4H11.367C10.2748 22.75 9.40935 22.75 8.71173 22.693C7.99834 22.6347 7.39472 22.5131 6.84354 22.2323C5.94978 21.7769 5.22312 21.0502 4.76772 20.1565C4.54167 19.7128 4.41879 19.2352 4.34905 18.6937C2.58826 18.3855 1.25 16.849 1.25 15V9C1.25 7.15095 2.58826 5.61447 4.34905 5.3063C4.41879 4.76481 4.54167 4.28719 4.76772 3.84355C5.22312 2.94978 5.94978 2.22312 6.84354 1.76772C7.39472 1.48688 7.99834 1.36527 8.71173 1.30699C9.40936 1.24999 10.2749 1.24999 11.367 1.25ZM4.25738 6.87544C3.37963 7.18222 2.75 8.01758 2.75 9V15C2.75 15.9824 3.37963 16.8178 4.25738 17.1246C4.24999 16.6803 4.25 16.1857 4.25 15.633V15.6V8.4V8.367V8.36694V8.36692C4.25 7.81426 4.24999 7.31964 4.25738 6.87544ZM19.7426 17.1246C20.6204 16.8178 21.25 15.9824 21.25 15V9C21.25 8.01758 20.6204 7.18222 19.7426 6.87544C19.75 7.31965 19.75 7.8143 19.75 8.36698V8.4V15.6V15.633C19.75 16.1857 19.75 16.6803 19.7426 17.1246ZM9 6.25C8.58579 6.25 8.25 6.58579 8.25 7C8.25 7.41421 8.58579 7.75 9 7.75H15C15.4142 7.75 15.75 7.41421 15.75 7C15.75 6.58579 15.4142 6.25 15 6.25H9ZM9 10.25C8.58579 10.25 8.25 10.5858 8.25 11C8.25 11.4142 8.58579 11.75 9 11.75H15C15.4142 11.75 15.75 11.4142 15.75 11C15.75 10.5858 15.4142 10.25 15 10.25H9ZM9 14.25C8.58579 14.25 8.25 14.5858 8.25 15C8.25 15.4142 8.58579 15.75 9 15.75H11C11.4142 15.75 11.75 15.4142 11.75 15C11.75 14.5858 11.4142 14.25 11 14.25H9Z" fill="#2F384C"/>
</svg>
