<svg width="24" height="24" viewBox="0 0 24 24" fill="none" xmlns="http://www.w3.org/2000/svg">
<path fill-rule="evenodd" clip-rule="evenodd" d="M3.98005 1.79497C5.04961 1.25 6.44974 1.25 9.25 1.25H14.75C17.5503 1.25 18.9504 1.25 20.02 1.79497C20.9608 2.27433 21.7257 3.03924 22.205 3.98005C22.75 5.04961 22.75 6.44974 22.75 9.25V14.75C22.75 17.5503 22.75 18.9504 22.205 20.02C21.7257 20.9608 20.9608 21.7257 20.02 22.205C18.9504 22.75 17.5503 22.75 14.75 22.75H9.25C6.44974 22.75 5.04961 22.75 3.98005 22.205C3.03924 21.7257 2.27433 20.9608 1.79497 20.02C1.25 18.9504 1.25 17.5503 1.25 14.75V9.25C1.25 6.44974 1.25 5.04961 1.79497 3.98005C2.27433 3.03924 3.03924 2.27433 3.98005 1.79497ZM8.9 8.25L8.87109 8.25C8.47573 8.24999 8.13466 8.24997 7.85373 8.27293C7.55722 8.29715 7.26231 8.35064 6.97852 8.49524C6.55516 8.71095 6.21095 9.05516 5.99524 9.47852C5.85064 9.76231 5.79715 10.0572 5.77293 10.3537C5.74997 10.6347 5.74999 10.9757 5.75 11.3711L5.75 11.4V12.6L5.75 12.6289C5.74999 13.0243 5.74997 13.3653 5.77293 13.6463C5.79715 13.9428 5.85064 14.2377 5.99524 14.5215C6.21095 14.9448 6.55516 15.289 6.97852 15.5048C7.26231 15.6494 7.55722 15.7028 7.85373 15.7271C8.13466 15.75 8.47573 15.75 8.8711 15.75L8.9 15.75H9C10.2426 15.75 11.25 14.7426 11.25 13.5C11.25 13.0858 10.9142 12.75 10.5 12.75C10.0858 12.75 9.75 13.0858 9.75 13.5C9.75 13.9142 9.41421 14.25 9 14.25H8.9C8.46759 14.25 8.18838 14.2494 7.97588 14.2321C7.77213 14.2154 7.69659 14.1871 7.65951 14.1683C7.51839 14.0963 7.40365 13.9816 7.33175 13.8405C7.31285 13.8034 7.28459 13.7279 7.26795 13.5241C7.25058 13.3116 7.25 13.0324 7.25 12.6V11.4C7.25 10.9676 7.25058 10.6884 7.26795 10.4759C7.28459 10.2721 7.31285 10.1966 7.33175 10.1595C7.40365 10.0184 7.51839 9.90365 7.65951 9.83175C7.69659 9.81285 7.77213 9.78459 7.97588 9.76795C8.18838 9.75058 8.46759 9.75 8.9 9.75H9C9.41421 9.75 9.75 10.0858 9.75 10.5C9.75 10.9142 10.0858 11.25 10.5 11.25C10.9142 11.25 11.25 10.9142 11.25 10.5C11.25 9.25736 10.2426 8.25 9 8.25H8.9ZM15.9 8.25L15.8711 8.25C15.4757 8.24999 15.1347 8.24997 14.8537 8.27293C14.5572 8.29715 14.2623 8.35064 13.9785 8.49524C13.5552 8.71095 13.211 9.05516 12.9952 9.47852C12.8506 9.76231 12.7972 10.0572 12.7729 10.3537C12.75 10.6347 12.75 10.9757 12.75 11.3711L12.75 11.4V12.6L12.75 12.6289C12.75 13.0243 12.75 13.3653 12.7729 13.6463C12.7972 13.9428 12.8506 14.2377 12.9952 14.5215C13.211 14.9448 13.5552 15.289 13.9785 15.5048C14.2623 15.6494 14.5572 15.7028 14.8537 15.7271C15.1347 15.75 15.4757 15.75 15.8711 15.75L15.9 15.75H16C17.2426 15.75 18.25 14.7426 18.25 13.5C18.25 13.0858 17.9142 12.75 17.5 12.75C17.0858 12.75 16.75 13.0858 16.75 13.5C16.75 13.9142 16.4142 14.25 16 14.25H15.9C15.4676 14.25 15.1884 14.2494 14.9759 14.2321C14.7721 14.2154 14.6966 14.1871 14.6595 14.1683C14.5184 14.0963 14.4037 13.9816 14.3317 13.8405C14.3129 13.8034 14.2846 13.7279 14.2679 13.5241C14.2506 13.3116 14.25 13.0324 14.25 12.6V11.4C14.25 10.9676 14.2506 10.6884 14.2679 10.4759C14.2846 10.2721 14.3129 10.1966 14.3317 10.1595C14.4037 10.0184 14.5184 9.90365 14.6595 9.83175C14.6966 9.81285 14.7721 9.78459 14.9759 9.76795C15.1884 9.75058 15.4676 9.75 15.9 9.75H16C16.4142 9.75 16.75 10.0858 16.75 10.5C16.75 10.9142 17.0858 11.25 17.5 11.25C17.9142 11.25 18.25 10.9142 18.25 10.5C18.25 9.25736 17.2426 8.25 16 8.25H15.9Z" fill="#2F384C"/>
</svg>
