<svg width="24" height="24" viewBox="0 0 24 24" fill="none" xmlns="http://www.w3.org/2000/svg">
<path fill-rule="evenodd" clip-rule="evenodd" d="M3.98005 1.79497C5.04961 1.25 6.44974 1.25 9.25 1.25L14.75 1.25C17.5503 1.25 18.9504 1.25 20.02 1.79497C20.9608 2.27434 21.7257 3.03924 22.205 3.98005C22.75 5.04961 22.75 6.44974 22.75 9.25L22.75 14.75L22.75 14.75C22.75 17.5503 22.75 18.9504 22.205 20.02C21.7257 20.9608 20.9608 21.7257 20.02 22.205C18.9504 22.75 17.5503 22.75 14.75 22.75L9.25 22.75C6.44974 22.75 5.04961 22.75 3.98005 22.205C3.03924 21.7257 2.27433 20.9608 1.79497 20.02C1.25 18.9504 1.25 17.5503 1.25 14.75L1.25 9.25C1.25 6.44974 1.25 5.04961 1.79497 3.98005C2.27433 3.03924 3.03924 2.27434 3.98005 1.79497ZM7.74991 8.00024C7.74991 7.58603 7.41412 7.25024 6.99991 7.25024C6.5857 7.25024 6.24991 7.58603 6.24991 8.00024L6.24991 16.0002C6.24991 16.4145 6.5857 16.7502 6.99991 16.7502C7.41412 16.7502 7.74991 16.4145 7.74991 16.0002L7.74991 8.00024ZM17.7499 9.00024C17.7499 8.58603 17.4141 8.25024 16.9999 8.25024C16.5857 8.25024 16.2499 8.58603 16.2499 9.00024L16.2499 16.0002C16.2499 16.4145 16.5857 16.7502 16.9999 16.7502C17.4141 16.7502 17.7499 16.4145 17.7499 16.0002L17.7499 9.00024ZM12.7499 11.0002C12.7499 10.586 12.4141 10.2502 11.9999 10.2502C11.5857 10.2502 11.2499 10.586 11.2499 11.0002L11.2499 16.0002C11.2499 16.4145 11.5857 16.7502 11.9999 16.7502C12.4141 16.7502 12.7499 16.4145 12.7499 16.0002L12.7499 11.0002Z" fill="#2F384C"/>
</svg>
