<svg width="24" height="24" viewBox="0 0 24 24" fill="none" xmlns="http://www.w3.org/2000/svg">
<path fill-rule="evenodd" clip-rule="evenodd" d="M3.98005 1.79497C5.04961 1.25 6.44974 1.25 9.25 1.25H14.75C17.5503 1.25 18.9504 1.25 20.02 1.79497C20.9608 2.27433 21.7257 3.03924 22.205 3.98005C22.75 5.04961 22.75 6.44974 22.75 9.25V14.75C22.75 17.5503 22.75 18.9504 22.205 20.02C21.7257 20.9608 20.9608 21.7257 20.02 22.205C18.9504 22.75 17.5503 22.75 14.75 22.75H9.25C6.44974 22.75 5.04961 22.75 3.98005 22.205C3.03924 21.7257 2.27433 20.9608 1.79497 20.02C1.25 18.9504 1.25 17.5503 1.25 14.75V9.25C1.25 6.44974 1.25 5.04961 1.79497 3.98005C2.27433 3.03924 3.03924 2.27433 3.98005 1.79497ZM11.75 8.99999C11.75 8.69664 11.5673 8.42316 11.287 8.30708C11.0068 8.19099 10.6842 8.25516 10.4697 8.46966L6.46967 12.4697C6.25517 12.6842 6.191 13.0067 6.30709 13.287C6.42318 13.5673 6.69665 13.75 7 13.75H10.25V15C10.25 15.4142 10.5858 15.75 11 15.75C11.4142 15.75 11.75 15.4142 11.75 15V13V8.99999ZM10.25 10.8106V12.25H8.81066L10.25 10.8106ZM17.5644 9.49387C17.8372 9.18214 17.8056 8.70832 17.4939 8.43555C17.1822 8.16279 16.7083 8.19438 16.4356 8.50611L14.25 11.0039V8.99999C14.25 8.58577 13.9142 8.24999 13.5 8.24999C13.0858 8.24999 12.75 8.58577 12.75 8.99999V13V15C12.75 15.4142 13.0858 15.75 13.5 15.75C13.9142 15.75 14.25 15.4142 14.25 15V13.2818L14.375 13.1389L16.4356 15.4939C16.7083 15.8056 17.1822 15.8372 17.4939 15.5644C17.8056 15.2917 17.8372 14.8178 17.5644 14.5061L15.3716 12L17.5644 9.49387Z" fill="#2F384C"/>
</svg>
