<svg width="24" height="24" viewBox="0 0 24 24" fill="none" xmlns="http://www.w3.org/2000/svg">
<path fill-rule="evenodd" clip-rule="evenodd" d="M3.98005 1.79497C5.04961 1.25 6.44974 1.25 9.25 1.25H14.75C17.5503 1.25 18.9504 1.25 20.02 1.79497C20.9608 2.27433 21.7257 3.03924 22.205 3.98005C22.75 5.04961 22.75 6.44974 22.75 9.25V14.75C22.75 17.5503 22.75 18.9504 22.205 20.02C21.7257 20.9608 20.9608 21.7257 20.02 22.205C18.9504 22.75 17.5503 22.75 14.75 22.75H9.25C6.44974 22.75 5.04961 22.75 3.98005 22.205C3.03924 21.7257 2.27433 20.9608 1.79497 20.02C1.25 18.9504 1.25 17.5503 1.25 14.75V9.25C1.25 6.44974 1.25 5.04961 1.79497 3.98005C2.27433 3.03924 3.03924 2.27433 3.98005 1.79497ZM14.5 9.75C14.9762 9.75 15.2958 9.75041 15.5433 9.76729C15.784 9.78372 15.9012 9.81319 15.9784 9.84515C16.2846 9.97202 16.528 10.2154 16.6548 10.5216C16.6868 10.5988 16.7163 10.716 16.7327 10.9567C16.7496 11.2042 16.75 11.5238 16.75 12C16.75 12.4762 16.7496 12.7958 16.7327 13.0433C16.7163 13.284 16.6868 13.4012 16.6548 13.4784C16.528 13.7846 16.2846 14.028 15.9784 14.1549C15.9012 14.1868 15.784 14.2163 15.5433 14.2327C15.2958 14.2496 14.9762 14.25 14.5 14.25H14.25V9.75H14.5ZM16.5524 8.45933C16.262 8.33905 15.9625 8.29241 15.6454 8.27077C15.3408 8.24999 14.9697 8.24999 14.5253 8.25H14.5H13.5C13.0858 8.25 12.75 8.58579 12.75 9V15C12.75 15.4142 13.0858 15.75 13.5 15.75H14.5H14.5253C14.9697 15.75 15.3408 15.75 15.6454 15.7292C15.9625 15.7076 16.262 15.661 16.5524 15.5407C17.2262 15.2616 17.7616 14.7262 18.0407 14.0524C18.161 13.762 18.2076 13.4625 18.2292 13.1454C18.25 12.8408 18.25 12.4697 18.25 12.0253V12V11.9747C18.25 11.5303 18.25 11.1592 18.2292 10.8546C18.2076 10.5375 18.161 10.238 18.0407 9.94762C17.7616 9.27379 17.2262 8.73844 16.5524 8.45933ZM7.75 9C7.75 8.58579 7.41421 8.25 7 8.25C6.58579 8.25 6.25 8.58579 6.25 9V12V15C6.25 15.4142 6.58579 15.75 7 15.75C7.41421 15.75 7.75 15.4142 7.75 15V12.75H10.25V15C10.25 15.4142 10.5858 15.75 11 15.75C11.4142 15.75 11.75 15.4142 11.75 15V12V9C11.75 8.58579 11.4142 8.25 11 8.25C10.5858 8.25 10.25 8.58579 10.25 9V11.25H7.75V9Z" fill="#2F384C"/>
</svg>
