<svg width="24" height="24" viewBox="0 0 24 24" fill="none" xmlns="http://www.w3.org/2000/svg">
<path fill-rule="evenodd" clip-rule="evenodd" d="M3.98005 1.79497C5.04961 1.25 6.44974 1.25 9.25 1.25H14.75C17.5503 1.25 18.9504 1.25 20.02 1.79497C20.9608 2.27433 21.7257 3.03924 22.205 3.98005C22.75 5.04961 22.75 6.44974 22.75 9.25V14.75C22.75 17.5503 22.75 18.9504 22.205 20.02C21.7257 20.9608 20.9608 21.7257 20.02 22.205C18.9504 22.75 17.5503 22.75 14.75 22.75H9.25C6.44974 22.75 5.04961 22.75 3.98005 22.205C3.03924 21.7257 2.27433 20.9608 1.79497 20.02C1.25 18.9504 1.25 17.5503 1.25 14.75V9.25C1.25 6.44974 1.25 5.04961 1.79497 3.98005C2.27433 3.03924 3.03924 2.27433 3.98005 1.79497ZM10.75 6C10.75 5.58579 10.4142 5.25 10 5.25C9.58579 5.25 9.25 5.58579 9.25 6V7.6C9.25 8.03241 9.24942 8.31162 9.23205 8.52412C9.21541 8.72787 9.18715 8.80341 9.16825 8.84049C9.09635 8.98161 8.98161 9.09635 8.84049 9.16825C8.80341 9.18715 8.72787 9.21541 8.52412 9.23205C8.31162 9.24942 8.03241 9.25 7.6 9.25H6C5.58579 9.25 5.25 9.58579 5.25 10C5.25 10.4142 5.58579 10.75 6 10.75H7.6L7.6289 10.75C8.02427 10.75 8.36534 10.75 8.64627 10.7271C8.94278 10.7028 9.23769 10.6494 9.52148 10.5048C9.94484 10.289 10.289 9.94484 10.5048 9.52148C10.6494 9.23769 10.7028 8.94278 10.7271 8.64627C10.75 8.36534 10.75 8.02427 10.75 7.6289L10.75 7.6V6ZM14.75 6C14.75 5.58579 14.4142 5.25 14 5.25C13.5858 5.25 13.25 5.58579 13.25 6V7.6L13.25 7.6289C13.25 8.02427 13.25 8.36534 13.2729 8.64627C13.2972 8.94278 13.3506 9.23769 13.4952 9.52148C13.711 9.94484 14.0552 10.289 14.4785 10.5048C14.7623 10.6494 15.0572 10.7028 15.3537 10.7271C15.6347 10.75 15.9757 10.75 16.3711 10.75L16.4 10.75H18C18.4142 10.75 18.75 10.4142 18.75 10C18.75 9.58579 18.4142 9.25 18 9.25H16.4C15.9676 9.25 15.6884 9.24942 15.4759 9.23205C15.2721 9.21541 15.1966 9.18715 15.1595 9.16825C15.0184 9.09635 14.9037 8.98161 14.8317 8.84049C14.8128 8.80341 14.7846 8.72787 14.7679 8.52412C14.7506 8.31162 14.75 8.03241 14.75 7.6V6ZM7.6 14.75C8.03241 14.75 8.31162 14.7506 8.52412 14.7679C8.72787 14.7846 8.80341 14.8128 8.84049 14.8317C8.98161 14.9037 9.09635 15.0184 9.16825 15.1595C9.18715 15.1966 9.21541 15.2721 9.23205 15.4759C9.24942 15.6884 9.25 15.9676 9.25 16.4V18C9.25 18.4142 9.58579 18.75 10 18.75C10.4142 18.75 10.75 18.4142 10.75 18V16.4L10.75 16.3711C10.75 15.9757 10.75 15.6347 10.7271 15.3537C10.7028 15.0572 10.6494 14.7623 10.5048 14.4785C10.289 14.0552 9.94484 13.711 9.52148 13.4952C9.23769 13.3506 8.94278 13.2972 8.64627 13.2729C8.36534 13.25 8.02427 13.25 7.6289 13.25L7.6 13.25H6C5.58579 13.25 5.25 13.5858 5.25 14C5.25 14.4142 5.58579 14.75 6 14.75H7.6ZM16.4 13.25L16.3711 13.25C15.9757 13.25 15.6347 13.25 15.3537 13.2729C15.0572 13.2972 14.7623 13.3506 14.4785 13.4952C14.0552 13.711 13.711 14.0552 13.4952 14.4785C13.3506 14.7623 13.2972 15.0572 13.2729 15.3537C13.25 15.6347 13.25 15.9757 13.25 16.3711L13.25 16.4V18C13.25 18.4142 13.5858 18.75 14 18.75C14.4142 18.75 14.75 18.4142 14.75 18V16.4C14.75 15.9676 14.7506 15.6884 14.7679 15.4759C14.7846 15.2721 14.8128 15.1966 14.8317 15.1595C14.9037 15.0184 15.0184 14.9037 15.1595 14.8317C15.1966 14.8128 15.2721 14.7846 15.4759 14.7679C15.6884 14.7506 15.9676 14.75 16.4 14.75H18C18.4142 14.75 18.75 14.4142 18.75 14C18.75 13.5858 18.4142 13.25 18 13.25H16.4Z" fill="#2F384C"/>
</svg>
