<svg width="24" height="24" viewBox="0 0 24 24" fill="none" xmlns="http://www.w3.org/2000/svg">
<path fill-rule="evenodd" clip-rule="evenodd" d="M9.25 1.25C6.44974 1.25 5.04961 1.25 3.98005 1.79497C3.03924 2.27433 2.27433 3.03924 1.79497 3.98005C1.25 5.04961 1.25 6.44974 1.25 9.25V14.75C1.25 17.5503 1.25 18.9504 1.79497 20.02C2.27433 20.9608 3.03924 21.7257 3.98005 22.205C5.04961 22.75 6.44974 22.75 9.25 22.75H14.75C17.5503 22.75 18.9504 22.75 20.02 22.205C20.9608 21.7257 21.7257 20.9608 22.205 20.02C22.75 18.9504 22.75 17.5503 22.75 14.75V9.25C22.75 6.44974 22.75 5.04961 22.205 3.98005C21.7257 3.03924 20.9608 2.27433 20.02 1.79497C18.9504 1.25 17.5503 1.25 14.75 1.25H9.25ZM10 15.2C10 14.0799 10 13.5198 10.218 13.092C10.4097 12.7157 10.7157 12.4097 11.092 12.218C11.5198 12 12.0799 12 13.2 12H15.8C16.9201 12 17.4802 12 17.908 12.218C18.2843 12.4097 18.5903 12.7157 18.782 13.092C19 13.5198 19 14.0799 19 15.2V15.8C19 16.9201 19 17.4802 18.782 17.908C18.5903 18.2843 18.2843 18.5903 17.908 18.782C17.4802 19 16.9201 19 15.8 19H13.2C12.0799 19 11.5198 19 11.092 18.782C10.7157 18.5903 10.4097 18.2843 10.218 17.908C10 17.4802 10 16.9201 10 15.8V15.2Z" fill="#2F384C"/>
</svg>
