<svg width="24" height="24" viewBox="0 0 24 24" fill="none" xmlns="http://www.w3.org/2000/svg">
<path fill-rule="evenodd" clip-rule="evenodd" d="M17.2389 3.65545C17.9236 3.49433 18.3894 3.38543 18.7507 3.33336C19.1062 3.28212 19.2745 3.30064 19.3807 3.33458C19.6699 3.42705 19.9155 3.6216 20.0718 3.88192C20.1291 3.97748 20.1857 4.13712 20.2173 4.49487C20.2493 4.85848 20.25 5.33688 20.25 6.04032V12.9997C19.6233 12.5289 18.8442 12.25 18 12.25C15.9289 12.25 14.25 13.9289 14.25 16C14.25 18.0711 15.9289 19.75 18 19.75C20.0711 19.75 21.75 18.0711 21.75 16V6.04032V6.00602C21.75 5.34543 21.75 4.80049 21.7115 4.36312C21.6717 3.91234 21.5857 3.48954 21.3579 3.10999C21.0142 2.53729 20.4737 2.10927 19.8375 1.90584C19.4159 1.77102 18.9846 1.78414 18.5367 1.8487C18.1022 1.91133 17.5717 2.03616 16.9286 2.18748L16.8953 2.19532L11.2953 3.51297L11.2698 3.51898C10.8509 3.61752 10.4979 3.70057 10.2103 3.79077C9.90781 3.88563 9.62957 4.00223 9.37319 4.19035C8.97475 4.48269 8.66245 4.877 8.46913 5.33181C8.34474 5.62447 8.29496 5.92201 8.27191 6.23818C8.24998 6.53882 8.24999 6.90145 8.25 7.33173V7.35796V15.9997C7.62325 15.5289 6.8442 15.25 6 15.25C3.92893 15.25 2.25 16.9289 2.25 19C2.25 21.0711 3.92893 22.75 6 22.75C8.07107 22.75 9.75 21.0711 9.75 19V7.35796C9.75 6.89455 9.75046 6.58689 9.76793 6.34728C9.78472 6.1171 9.81463 6.00087 9.84961 5.91858C9.93748 5.71185 10.0794 5.53262 10.2605 5.39973C10.3326 5.34684 10.4389 5.2911 10.6591 5.22204C10.8884 5.15015 11.1878 5.07924 11.6389 4.9731L17.2389 3.65545Z" fill="#2F384C"/>
</svg>
