<svg width="24" height="24" viewBox="0 0 24 24" fill="none" xmlns="http://www.w3.org/2000/svg">
<path fill-rule="evenodd" clip-rule="evenodd" d="M8.4 1.25H8.367H8.36699C7.27485 1.24999 6.40935 1.24999 5.71173 1.30699C4.99835 1.36527 4.39472 1.48688 3.84355 1.76772C2.94978 2.22312 2.22312 2.94978 1.76772 3.84355C1.48688 4.39472 1.36527 4.99835 1.30699 5.71173C1.24999 6.40936 1.24999 7.27486 1.25 8.367V8.4V15.6V15.633C1.24999 16.7251 1.24999 17.5906 1.30699 18.2883C1.36527 19.0017 1.48688 19.6053 1.76772 20.1565C2.22312 21.0502 2.94978 21.7769 3.84355 22.2323C4.39472 22.5131 4.99835 22.6347 5.71173 22.693C6.40935 22.75 7.27485 22.75 8.36698 22.75H8.4H9.6H9.63302C10.7252 22.75 11.5906 22.75 12.2883 22.693C13.0017 22.6347 13.6053 22.5131 14.1565 22.2323C15.0502 21.7769 15.7769 21.0502 16.2323 20.1565C16.5131 19.6053 16.6347 19.0017 16.693 18.2883C16.75 17.5907 16.75 16.7252 16.75 15.633V15.633V15.6V8.4V8.36698V8.36697C16.75 7.27484 16.75 6.40935 16.693 5.71173C16.6347 4.99835 16.5131 4.39472 16.2323 3.84355C15.7769 2.94978 15.0502 2.22312 14.1565 1.76772C13.6053 1.48688 13.0017 1.36527 12.2883 1.30699C11.5906 1.24999 10.7251 1.24999 9.633 1.25H9.6H8.4ZM19.75 6C19.75 5.58579 19.4142 5.25 19 5.25C18.5858 5.25 18.25 5.58579 18.25 6V18C18.25 18.4142 18.5858 18.75 19 18.75C19.4142 18.75 19.75 18.4142 19.75 18V6ZM22.75 8C22.75 7.58579 22.4142 7.25 22 7.25C21.5858 7.25 21.25 7.58579 21.25 8V16C21.25 16.4142 21.5858 16.75 22 16.75C22.4142 16.75 22.75 16.4142 22.75 16V8ZM9.64611 6.33875C9.88997 6.20823 10.1859 6.22254 10.416 6.37596L13.416 8.37596C13.7607 8.60573 13.8538 9.07138 13.624 9.41603C13.3943 9.76067 12.9286 9.8538 12.584 9.62404L10.75 8.40139V15C10.75 16.5188 9.51878 17.75 8 17.75C6.48122 17.75 5.25 16.5188 5.25 15C5.25 13.4812 6.48122 12.25 8 12.25C8.45011 12.25 8.87497 12.3581 9.25 12.5499V7C9.25 6.7234 9.40224 6.46926 9.64611 6.33875ZM9.25 15C9.25 14.3096 8.69036 13.75 8 13.75C7.30964 13.75 6.75 14.3096 6.75 15C6.75 15.6904 7.30964 16.25 8 16.25C8.69036 16.25 9.25 15.6904 9.25 15Z" fill="#2F384C"/>
</svg>
