<svg width="24" height="24" viewBox="0 0 24 24" fill="none" xmlns="http://www.w3.org/2000/svg">
<path fill-rule="evenodd" clip-rule="evenodd" d="M11.4 1.25H11.367C10.2749 1.24999 9.40936 1.24999 8.71173 1.30699C7.99834 1.36527 7.39472 1.48688 6.84354 1.76772C5.94978 2.22312 5.22312 2.94978 4.76772 3.84355C4.54167 4.28719 4.41879 4.76481 4.34905 5.3063C2.58826 5.61447 1.25 7.15095 1.25 9V15C1.25 16.849 2.58826 18.3855 4.34905 18.6937C4.41879 19.2352 4.54167 19.7128 4.76772 20.1565C5.22312 21.0502 5.94978 21.7769 6.84354 22.2323C7.39472 22.5131 7.99834 22.6347 8.71173 22.693C9.40935 22.75 10.2748 22.75 11.367 22.75H11.4H12.6H12.633C13.7252 22.75 14.5906 22.75 15.2883 22.693C16.0017 22.6347 16.6053 22.5131 17.1565 22.2323C18.0502 21.7769 18.7769 21.0502 19.2323 20.1565C19.4583 19.7128 19.5812 19.2352 19.651 18.6937C21.4117 18.3855 22.75 16.849 22.75 15V9C22.75 7.15095 21.4117 5.61447 19.651 5.3063C19.5812 4.76481 19.4583 4.28719 19.2323 3.84355C18.7769 2.94978 18.0502 2.22312 17.1565 1.76772C16.6053 1.48688 16.0017 1.36527 15.2883 1.30699C14.5906 1.24999 13.7251 1.24999 12.633 1.25H12.6H11.4ZM2.75 9C2.75 8.01758 3.37963 7.18222 4.25738 6.87544C4.24999 7.31964 4.25 7.81427 4.25 8.36694V8.36701V8.4V15.6V15.633C4.25 16.1857 4.24999 16.6803 4.25738 17.1246C3.37963 16.8178 2.75 15.9824 2.75 15V9ZM21.25 15C21.25 15.9824 20.6204 16.8178 19.7426 17.1246C19.75 16.6803 19.75 16.1857 19.75 15.633V15.6V8.4V8.36698C19.75 7.8143 19.75 7.31965 19.7426 6.87544C20.6204 7.18222 21.25 8.01758 21.25 9V15ZM12.6461 6.33874C12.89 6.20823 13.1859 6.22253 13.416 6.37596L16.416 8.37596C16.7607 8.60573 16.8538 9.07138 16.624 9.41603C16.3943 9.76067 15.9286 9.8538 15.584 9.62404L13.75 8.40139V15C13.75 16.5188 12.5188 17.75 11 17.75C9.48122 17.75 8.25 16.5188 8.25 15C8.25 13.4812 9.48122 12.25 11 12.25C11.4501 12.25 11.875 12.3581 12.25 12.5499V7C12.25 6.7234 12.4022 6.46926 12.6461 6.33874ZM12.25 15C12.25 14.3096 11.6904 13.75 11 13.75C10.3096 13.75 9.75 14.3096 9.75 15C9.75 15.6904 10.3096 16.25 11 16.25C11.6904 16.25 12.25 15.6904 12.25 15Z" fill="#2F384C"/>
</svg>
