<svg width="24" height="24" viewBox="0 0 24 24" fill="none" xmlns="http://www.w3.org/2000/svg">
<path fill-rule="evenodd" clip-rule="evenodd" d="M14.0823 1.79772L14.0823 1.79772L14.8784 2.48013L14.8784 2.48013C15.2111 2.76531 15.3775 2.90789 15.5652 3.00946C15.7316 3.09954 15.91 3.16554 16.0951 3.20548C16.3037 3.25051 16.5228 3.25051 16.961 3.25051L17.5498 3.25051C18.6699 3.25051 19.2299 3.25051 19.6577 3.46849C20.0341 3.66024 20.34 3.9662 20.5318 4.34252C20.7498 4.77035 20.7498 5.3304 20.7498 6.4505L20.7498 7.03931L20.7498 7.03933C20.7498 7.47752 20.7498 7.69661 20.7948 7.90519C20.8347 8.09022 20.9007 8.26863 20.9908 8.4351C21.0924 8.62278 21.235 8.78913 21.5201 9.12184L22.2025 9.91797C22.8361 10.6571 23.1529 11.0267 23.2736 11.4412C23.38 11.8065 23.38 12.1945 23.2736 12.5598C23.1529 12.9743 22.8361 13.3439 22.2025 14.083L21.5201 14.8792C21.235 15.2119 21.0924 15.3782 20.9908 15.5659C20.9007 15.7324 20.8347 15.9108 20.7948 16.0958C20.7498 16.3044 20.7498 16.5235 20.7498 16.9617L20.7498 17.5505C20.7498 18.6706 20.7498 19.2307 20.5318 19.6585C20.34 20.0348 20.0341 20.3408 19.6577 20.5325C19.2299 20.7505 18.6699 20.7505 17.5498 20.7505L16.961 20.7505C16.5228 20.7505 16.3037 20.7505 16.0951 20.7955C15.91 20.8355 15.7316 20.9015 15.5652 20.9916C15.3775 21.0931 15.2111 21.2357 14.8784 21.5209L14.8784 21.5209L14.0823 22.2033C13.3431 22.8368 12.9736 23.1536 12.5591 23.2743C12.1938 23.3808 11.8057 23.3808 11.4404 23.2744C11.026 23.1536 10.6564 22.8368 9.91724 22.2033L9.91723 22.2033L9.12109 21.5209C8.78839 21.2357 8.62203 21.0931 8.43436 20.9916C8.26789 20.9015 8.08947 20.8355 7.90445 20.7955C7.69586 20.7505 7.47676 20.7505 7.03856 20.7505L6.41554 20.7505C5.29544 20.7505 4.73539 20.7505 4.30756 20.5325C3.93124 20.3408 3.62528 20.0348 3.43353 19.6585C3.21555 19.2307 3.21554 18.6706 3.21555 17.5505L3.21554 16.949C3.21555 16.5145 3.21555 16.2973 3.17124 16.0903C3.13193 15.9067 3.06697 15.7295 2.97825 15.564C2.87825 15.3775 2.73781 15.2117 2.45692 14.8803L1.76969 14.0692C1.14692 13.3343 0.835535 12.9668 0.716727 12.5555C0.612 12.1929 0.612 11.8081 0.716727 11.4455C0.835535 11.0342 1.14692 10.6667 1.76969 9.93176L2.45692 9.12075L2.45693 9.12074C2.73781 8.78926 2.87825 8.62353 2.97825 8.43697C3.06697 8.27148 3.13193 8.09432 3.17124 7.91072C3.21555 7.70373 3.21555 7.48649 3.21555 7.05201L3.21555 6.4505C3.21555 5.3304 3.21555 4.77035 3.43353 4.34252C3.62528 3.9662 3.93124 3.66024 4.30756 3.46849C4.73539 3.25051 5.29544 3.25051 6.41554 3.25051L7.03856 3.25051C7.47676 3.25051 7.69586 3.25051 7.90445 3.20548C8.08947 3.16554 8.26789 3.09954 8.43436 3.00946C8.62203 2.90789 8.78838 2.76531 9.12109 2.48013L9.12109 2.48013L9.91723 1.79772C10.6564 1.16417 11.0259 0.847394 11.4404 0.72666C11.8057 0.62025 12.1938 0.62025 12.5591 0.72666C12.9736 0.847393 13.3431 1.16417 14.0823 1.79772ZM12.7501 8C12.7501 7.58579 12.4143 7.25 12.0001 7.25C11.5859 7.25 11.2501 7.58579 11.2501 8L11.2501 13C11.2501 13.4142 11.5859 13.75 12.0001 13.75C12.4143 13.75 12.7501 13.4142 12.7501 13L12.7501 8ZM12.0001 14.75C11.3098 14.75 10.7501 15.3096 10.7501 16C10.7501 16.6904 11.3098 17.25 12.0001 17.25C12.6905 17.25 13.2501 16.6904 13.2501 16C13.2501 15.3096 12.6905 14.75 12.0001 14.75Z" fill="#2F384C"/>
</svg>
