<svg width="24" height="24" viewBox="0 0 24 24" fill="none" xmlns="http://www.w3.org/2000/svg">
<path d="M2.25 6.25C2.25 4.84987 2.25 4.1498 2.52248 3.61502C2.76217 3.14462 3.14462 2.76217 3.61502 2.52248C4.1498 2.25 4.84987 2.25 6.25 2.25H6.75C8.15013 2.25 8.8502 2.25 9.38498 2.52248C9.85538 2.76217 10.2378 3.14462 10.4775 3.61502C10.75 4.1498 10.75 4.84987 10.75 6.25V17.75C10.75 19.1501 10.75 19.8502 10.4775 20.385C10.2378 20.8554 9.85538 21.2378 9.38498 21.4775C8.8502 21.75 8.15013 21.75 6.75 21.75H6.25C4.84987 21.75 4.1498 21.75 3.61502 21.4775C3.14462 21.2378 2.76217 20.8554 2.52248 20.385C2.25 19.8502 2.25 19.1501 2.25 17.75V6.25Z" fill="#2F384C"/>
<path d="M17.25 2.25C15.8499 2.25 15.1498 2.25 14.615 2.52248C14.1446 2.76217 13.7622 3.14462 13.5225 3.61502C13.25 4.1498 13.25 4.84987 13.25 6.25V17.75C13.25 19.1501 13.25 19.8502 13.5225 20.385C13.7622 20.8554 14.1446 21.2378 14.615 21.4775C15.1498 21.75 15.8499 21.75 17.25 21.75H17.75C19.1501 21.75 19.8502 21.75 20.385 21.4775C20.8554 21.2378 21.2378 20.8554 21.4775 20.385C21.75 19.8502 21.75 19.1501 21.75 17.75V6.25C21.75 4.84987 21.75 4.1498 21.4775 3.61502C21.2378 3.14462 20.8554 2.76217 20.385 2.52248C19.8502 2.25 19.1501 2.25 17.75 2.25H17.25Z" fill="#2F384C"/>
</svg>
