<svg width="24" height="24" viewBox="0 0 24 24" fill="none" xmlns="http://www.w3.org/2000/svg">
<path fill-rule="evenodd" clip-rule="evenodd" d="M9.336 5.53869L9.3036 5.51786L9.30359 5.51785C8.52813 5.01933 7.90212 4.61689 7.38702 4.34879C6.87061 4.08 6.34982 3.88135 5.80408 3.92033C5.00842 3.97716 4.27664 4.37667 3.79858 5.01523C3.47068 5.45322 3.35616 5.99871 3.303 6.57846C3.24998 7.15673 3.24999 7.90094 3.25 8.82283V8.82284V8.86134V15.1387V15.1772V15.1772C3.24999 16.0991 3.24998 16.8433 3.303 17.4216C3.35616 18.0013 3.47068 18.5468 3.79858 18.9848C4.27664 19.6233 5.00842 20.0229 5.80408 20.0797C6.34982 20.1187 6.87061 19.92 7.38702 19.6512C7.90213 19.3831 8.52816 18.9807 9.30365 18.4821L9.33599 18.4613L14.2184 15.3227L14.2495 15.3026L14.2495 15.3026C14.9198 14.8717 15.4663 14.5205 15.8718 14.2042C16.284 13.8828 16.6395 13.5322 16.8346 13.0704C17.1238 12.3861 17.1238 11.6139 16.8346 10.9297C16.6395 10.4678 16.284 10.1172 15.8718 9.79585C15.4663 9.47955 14.9198 9.12828 14.2495 8.69736L14.2495 8.69735L14.2184 8.67735L9.336 5.53869ZM21.75 5.00001C21.75 4.5858 21.4142 4.25001 21 4.25001C20.5858 4.25001 20.25 4.5858 20.25 5.00001V19C20.25 19.4142 20.5858 19.75 21 19.75C21.4142 19.75 21.75 19.4142 21.75 19V5.00001Z" fill="#2F384C"/>
</svg>
