<svg width="24" height="24" viewBox="0 0 24 24" fill="none" xmlns="http://www.w3.org/2000/svg">
<path fill-rule="evenodd" clip-rule="evenodd" d="M11.0741 2.79571C11.3784 2.76549 11.6873 2.75 12 2.75C17.1086 2.75 21.25 6.89137 21.25 12C21.25 17.1086 17.1086 21.25 12 21.25C11.6873 21.25 11.3784 21.2345 11.0741 21.2043C10.6619 21.1634 10.2946 21.4643 10.2537 21.8765C10.2127 22.2887 10.5137 22.656 10.9259 22.697C11.2794 22.732 11.6377 22.75 12 22.75C17.9371 22.75 22.75 17.9371 22.75 12C22.75 6.06294 17.9371 1.25 12 1.25C11.6377 1.25 11.2794 1.26795 10.9259 1.30304C10.5137 1.34397 10.2127 1.71129 10.2537 2.12348C10.2946 2.53566 10.6619 2.83663 11.0741 2.79571ZM8.30028 3.51935C8.67984 3.35351 8.8531 2.91137 8.68726 2.53181C8.52143 2.15224 8.07929 1.97898 7.69972 2.14482C6.93185 2.48032 6.21099 2.90278 5.54957 3.39959C5.21838 3.64836 5.15156 4.11851 5.40033 4.4497C5.64909 4.78089 6.11924 4.84771 6.45043 4.59894C7.01992 4.17118 7.64014 3.80778 8.30028 3.51935ZM4.59894 6.45043C4.84771 6.11924 4.78089 5.64909 4.4497 5.40033C4.11851 5.15156 3.64836 5.21838 3.39959 5.54957C2.90278 6.21099 2.48032 6.93185 2.14482 7.69972C1.97898 8.07929 2.15224 8.52143 2.53181 8.68726C2.91137 8.8531 3.35351 8.67984 3.51935 8.30028C3.80778 7.64014 4.17118 7.01992 4.59894 6.45043ZM2.79571 11.0741C2.83663 10.6619 2.53566 10.2946 2.12348 10.2537C1.71129 10.2127 1.34397 10.5137 1.30304 10.9259C1.26795 11.2794 1.25 11.6377 1.25 12C1.25 12.3623 1.26795 12.7206 1.30304 13.0741C1.34397 13.4863 1.71129 13.7873 2.12348 13.7463C2.53566 13.7054 2.83663 13.3381 2.79571 12.9259C2.76549 12.6216 2.75 12.3127 2.75 12C2.75 11.6873 2.76549 11.3784 2.79571 11.0741ZM3.51935 15.6997C3.35351 15.3202 2.91137 15.1469 2.53181 15.3127C2.15224 15.4786 1.97898 15.9207 2.14482 16.3003C2.48032 17.0682 2.90278 17.789 3.39959 18.4504C3.64836 18.7816 4.11851 18.8484 4.4497 18.5997C4.78089 18.3509 4.84771 17.8808 4.59894 17.5496C4.17118 16.9801 3.80778 16.3599 3.51935 15.6997ZM6.44953 19.4004C6.11837 19.1516 5.64821 19.2183 5.3994 19.5495C5.1506 19.8807 5.21736 20.3508 5.54852 20.5996C6.21023 21.0968 6.93144 21.5195 7.69972 21.8552C8.07929 22.021 8.52143 21.8478 8.68726 21.4682C8.8531 21.0886 8.67984 20.6465 8.30028 20.4806C7.63979 20.1921 7.01927 19.8284 6.44953 19.4004ZM10.8798 8.21119C11.3743 8.17144 11.9735 8.54596 13.172 9.295L14.2437 9.9648C15.3235 10.6397 15.8634 10.9771 16.0485 11.4091C16.2102 11.7865 16.2102 12.2135 16.0485 12.5909C15.8634 13.0229 15.3235 13.3603 14.2437 14.0352L13.172 14.705C11.9735 15.454 11.3743 15.8286 10.8798 15.7888C10.4488 15.7542 10.0536 15.5352 9.7958 15.188C9.5 14.7897 9.5 14.0831 9.5 12.6698V11.3302C9.5 9.91691 9.5 9.21027 9.7958 8.812C10.0536 8.46484 10.4488 8.24585 10.8798 8.21119Z" fill="#2F384C"/>
</svg>
