<svg width="24" height="24" viewBox="0 0 24 24" fill="none" xmlns="http://www.w3.org/2000/svg">
<path fill-rule="evenodd" clip-rule="evenodd" d="M6.87094 3.27036C7.174 2.38585 8.01274 1.75 9 1.75L17 1.75C17.4142 1.75 17.75 1.41422 17.75 1C17.75 0.585789 17.4142 0.250003 17 0.250003L9 0.250001C7.13483 0.250001 5.5877 1.6117 5.29851 3.3952C4.7847 3.47565 4.36136 3.60067 3.98005 3.79497C3.03924 4.27433 2.27433 5.03923 1.79497 5.98004C1.25 7.0496 1.25 8.44973 1.25 11.25L1.25 14.75C1.25 17.5503 1.25 18.9504 1.79496 20.02C2.27433 20.9608 3.03923 21.7257 3.98005 22.205C5.0496 22.75 6.44973 22.75 9.24997 22.75L9.25 22.75L14.75 22.75L14.75 22.75C17.5503 22.75 18.9504 22.75 20.02 22.205C20.9608 21.7257 21.7257 20.9608 22.205 20.02C22.75 18.9504 22.75 17.5503 22.75 14.75L22.75 11.25L22.75 11.25C22.75 8.44973 22.75 7.0496 22.205 5.98005C21.7257 5.03924 20.9608 4.27433 20.02 3.79497C18.9504 3.25 17.5503 3.25 14.7501 3.25L14.7501 3.25L14.75 3.25L14.75 3.25L9.25 3.25C8.31381 3.25 7.53411 3.25 6.87094 3.27036ZM8 8.25C6.48121 8.25 5.25 9.48121 5.25 11C5.25 12.5188 6.48121 13.75 8 13.75C9.51878 13.75 10.75 12.5188 10.75 11C10.75 9.48121 9.51878 8.25 8 8.25ZM14 8.25C13.5858 8.25 13.25 8.58578 13.25 9C13.25 9.41421 13.5858 9.75 14 9.75L18 9.75C18.4142 9.75 18.75 9.41421 18.75 9C18.75 8.58578 18.4142 8.25 18 8.25L14 8.25ZM14 12.25C13.5858 12.25 13.25 12.5858 13.25 13C13.25 13.4142 13.5858 13.75 14 13.75L18 13.75C18.4142 13.75 18.75 13.4142 18.75 13C18.75 12.5858 18.4142 12.25 18 12.25L14 12.25Z" fill="#2F384C"/>
</svg>
