<svg width="24" height="24" viewBox="0 0 24 24" fill="none" xmlns="http://www.w3.org/2000/svg">
<path fill-rule="evenodd" clip-rule="evenodd" d="M3.98005 1.79497C5.04961 1.25 6.44974 1.25 9.25 1.25H14.75C17.5503 1.25 18.9504 1.25 20.02 1.79497C20.9608 2.27433 21.7257 3.03924 22.205 3.98005C22.75 5.04961 22.75 6.44974 22.75 9.25V14.75C22.75 17.5503 22.75 18.9504 22.205 20.02C21.7257 20.9608 20.9608 21.7257 20.02 22.205C18.9504 22.75 17.5503 22.75 14.75 22.75H9.25C6.44974 22.75 5.04961 22.75 3.98005 22.205C3.03924 21.7257 2.27433 20.9608 1.79497 20.02C1.25 18.9504 1.25 17.5503 1.25 14.75V9.25C1.25 6.44974 1.25 5.04961 1.79497 3.98005C2.27433 3.03924 3.03924 2.27433 3.98005 1.79497ZM8.7138 4.23018C8.84093 3.83596 8.62441 3.41332 8.23018 3.2862C7.83596 3.15907 7.41332 3.37559 7.2862 3.76982L6.2862 6.87083C6.17943 7.20192 6.31435 7.56297 6.61208 7.74291C6.90982 7.92284 7.2922 7.87441 7.53568 7.62594C8.67094 6.46742 10.251 5.75 12 5.75C15.4518 5.75 18.25 8.54822 18.25 12C18.25 15.4518 15.4518 18.25 12 18.25C8.54822 18.25 5.75 15.4518 5.75 12C5.75 11.3782 5.84056 10.779 6.00872 10.2139C6.12687 9.81693 5.90082 9.39931 5.50382 9.28116C5.10681 9.16301 4.68919 9.38906 4.57104 9.78606C4.36199 10.4885 4.25 11.2318 4.25 12C4.25 16.2802 7.71979 19.75 12 19.75C16.2802 19.75 19.75 16.2802 19.75 12C19.75 7.71979 16.2802 4.25 12 4.25C10.7113 4.25 9.4957 4.56488 8.42638 5.1215L8.7138 4.23018ZM10.5 8.75C10.0858 8.75 9.75 9.08579 9.75 9.5V12C9.75 12.4142 10.0858 12.75 10.5 12.75H12.75V13.75H10.5C10.0858 13.75 9.75 14.0858 9.75 14.5C9.75 14.9142 10.0858 15.25 10.5 15.25H13.5C13.9142 15.25 14.25 14.9142 14.25 14.5V12C14.25 11.5858 13.9142 11.25 13.5 11.25H11.25V10.25H13.5C13.9142 10.25 14.25 9.91421 14.25 9.5C14.25 9.08579 13.9142 8.75 13.5 8.75H10.5Z" fill="#2F384C"/>
</svg>
