<svg width="24" height="24" viewBox="0 0 24 24" fill="none" xmlns="http://www.w3.org/2000/svg">
<path fill-rule="evenodd" clip-rule="evenodd" d="M3.98005 1.79497C5.04961 1.25 6.44974 1.25 9.25 1.25H14.75C17.5503 1.25 18.9504 1.25 20.02 1.79497C20.9608 2.27433 21.7257 3.03924 22.205 3.98005C22.75 5.04961 22.75 6.44974 22.75 9.25V14.75C22.75 17.5503 22.75 18.9504 22.205 20.02C21.7257 20.9608 20.9608 21.7257 20.02 22.205C18.9504 22.75 17.5503 22.75 14.75 22.75H9.25C6.44974 22.75 5.04961 22.75 3.98005 22.205C3.03924 21.7257 2.27433 20.9608 1.79497 20.02C1.25 18.9504 1.25 17.5503 1.25 14.75V9.25C1.25 6.44974 1.25 5.04961 1.79497 3.98005C2.27433 3.03924 3.03924 2.27433 3.98005 1.79497ZM12.6301 4.549C12.9333 4.201 12.897 3.67309 12.549 3.36989C12.201 3.06669 11.6731 3.103 11.3699 3.451L9.36989 5.7465C9.21611 5.92301 9.1434 6.15592 9.16947 6.38856C9.19554 6.62121 9.31799 6.83225 9.50703 6.97034L11.8404 8.67484C12.2131 8.94711 12.7359 8.86568 13.0082 8.49297C13.2804 8.12027 13.199 7.59742 12.8263 7.32516L12.1596 6.83815C14.9379 6.92249 17.1643 9.20125 17.1643 12C17.1643 14.8522 14.8522 17.1643 12 17.1643C9.14785 17.1643 6.83572 14.8522 6.83572 12C6.83572 10.9372 7.15588 9.95168 7.70486 9.13155C7.96161 8.74799 7.8588 8.22892 7.47525 7.97217C7.09169 7.71543 6.57262 7.81823 6.31587 8.20179C5.58848 9.28845 5.16428 10.596 5.16428 12C5.16428 15.7753 8.22473 18.8357 12 18.8357C15.7753 18.8357 18.8357 15.7753 18.8357 12C18.8357 8.25595 15.8257 5.21493 12.0935 5.1649L12.6301 4.549Z" fill="#2F384C"/>
</svg>
