<svg width="24" height="24" viewBox="0 0 24 24" fill="none" xmlns="http://www.w3.org/2000/svg">
<path fill-rule="evenodd" clip-rule="evenodd" d="M3.98005 1.79497C5.04961 1.25 6.44974 1.25 9.25 1.25H14.75C17.5503 1.25 18.9504 1.25 20.02 1.79497C20.9608 2.27433 21.7257 3.03924 22.205 3.98005C22.75 5.04961 22.75 6.44974 22.75 9.25V14.75C22.75 17.5503 22.75 18.9504 22.205 20.02C21.7257 20.9608 20.9608 21.7257 20.02 22.205C18.9504 22.75 17.5503 22.75 14.75 22.75H9.25C6.44974 22.75 5.04961 22.75 3.98005 22.205C3.03924 21.7257 2.27433 20.9608 1.79497 20.02C1.25 18.9504 1.25 17.5503 1.25 14.75V9.25C1.25 6.44974 1.25 5.04961 1.79497 3.98005C2.27433 3.03924 3.03924 2.27433 3.98005 1.79497ZM16.0303 4.96966C15.7374 4.67676 15.2626 4.67676 14.9697 4.96966C14.6768 5.26255 14.6768 5.73742 14.9697 6.03032L15.1893 6.24996L14.6234 6.24995L14.5966 6.24994C14.1522 6.24993 13.7782 6.24991 13.4687 6.27291C13.1435 6.29707 12.8377 6.34925 12.5384 6.48005C12.074 6.68299 11.6747 7.01031 11.3847 7.42585C11.1977 7.6937 11.0865 7.98338 10.9991 8.29746C10.9158 8.59643 10.8425 8.96321 10.7553 9.39898L10.7501 9.4253L9.75486 14.4015C9.5823 15.2643 9.52372 15.4969 9.42098 15.6616C9.27574 15.8944 9.05792 16.073 8.80112 16.1697C8.61947 16.2382 8.37993 16.25 7.50002 16.25L7.50001 17L7.49996 16.25L6.99996 16.25C6.58575 16.25 6.24998 16.5859 6.25001 17.0001C6.25004 17.4143 6.58585 17.75 7.00006 17.75L7.5 17.75H7.50005H7.50006L7.62599 17.7501C8.31792 17.7507 8.85811 17.7512 9.32998 17.5734C9.89494 17.3605 10.3741 16.9677 10.6937 16.4555C10.9605 16.0276 11.066 15.4978 11.2011 14.8192L11.2257 14.6957L12.2209 9.71947C12.3147 9.25046 12.3776 8.93873 12.4441 8.69985C12.5081 8.47007 12.5624 8.35931 12.6146 8.28444C12.7465 8.09556 12.928 7.94678 13.139 7.85453C13.2227 7.81797 13.342 7.78646 13.5798 7.76879C13.8271 7.75041 14.1451 7.74994 14.6234 7.74995L15.1894 7.74996L14.9697 7.96966C14.6768 8.26255 14.6768 8.73742 14.9697 9.03032C15.2626 9.32321 15.7374 9.32321 16.0303 9.03032L17.5303 7.53032C17.8232 7.23742 17.8232 6.76255 17.5303 6.46966L16.0303 4.96966ZM7.04255 6.25009C6.62834 6.25009 6.29255 6.58588 6.29255 7.00009C6.29255 7.41431 6.62834 7.75009 7.04255 7.75009H9.00001C9.41422 7.75009 9.75001 7.41431 9.75001 7.00009C9.75001 6.58588 9.41422 6.25009 9.00001 6.25009H7.04255ZM16.0303 14.9698C15.7374 14.6769 15.2626 14.6769 14.9697 14.9698C14.6768 15.2627 14.6768 15.7375 14.9697 16.0304L15.1894 16.2501H13C12.5858 16.2501 12.25 16.5859 12.25 17.0001C12.25 17.4143 12.5858 17.7501 13 17.7501H15.1894L14.9698 17.9698C14.6769 18.2627 14.6769 18.7376 14.9698 19.0304C15.2627 19.3233 15.7376 19.3233 16.0304 19.0304L17.5304 17.5304C17.8232 17.2375 17.8232 16.7626 17.5303 16.4698L16.0303 14.9698Z" fill="#2F384C"/>
</svg>
