<svg width="24" height="24" viewBox="0 0 24 24" fill="none" xmlns="http://www.w3.org/2000/svg">
<path fill-rule="evenodd" clip-rule="evenodd" d="M8.45 0.399986C8.11862 0.151458 7.64852 0.218615 7.4 0.549986C7.15147 0.881357 7.21862 1.35146 7.55 1.59999L8.66999 2.43999L8.79466 2.53354C9.16038 2.80811 9.48053 3.04846 9.77878 3.24994L9.25 3.24994C6.44974 3.24994 5.04961 3.24994 3.98005 3.7949C3.03924 4.27427 2.27433 5.03917 1.79497 5.97998C1.25 7.04954 1.25 8.44967 1.25 11.2499L1.25 12.7499C1.25 15.5502 1.25 16.9503 1.79497 18.0199C2.27433 18.9607 3.03923 19.7256 3.98005 20.205C4.6788 20.561 5.51866 20.6844 6.79785 20.7272L6.32917 21.6646C6.14393 22.0351 6.2941 22.4856 6.66459 22.6708C7.03507 22.856 7.48557 22.7059 7.67082 22.3354L8.4638 20.7494C8.71302 20.7499 8.97474 20.7499 9.25 20.7499L14.75 20.7499C15.0253 20.7499 15.287 20.7499 15.5362 20.7494L16.3292 22.3354C16.5144 22.7059 16.9649 22.856 17.3354 22.6708C17.7059 22.4856 17.8561 22.0351 17.6708 21.6646L17.2021 20.7272C18.4813 20.6844 19.3212 20.561 20.0199 20.205C20.9608 19.7256 21.7257 18.9607 22.205 18.0199C22.75 16.9503 22.75 15.5502 22.75 12.7499L22.75 11.2499C22.75 8.44968 22.75 7.04955 22.205 5.97999C21.7257 5.03918 20.9608 4.27427 20.02 3.79491C18.9504 3.24994 17.5503 3.24994 14.75 3.24994L14.2212 3.24994C14.5195 3.04846 14.8396 2.80811 15.2053 2.53354L15.33 2.43999L16.45 1.59999C16.7814 1.35146 16.8485 0.881357 16.6 0.549986C16.3515 0.218615 15.8814 0.151458 15.55 0.399986L14.43 1.23999C13.3438 2.05461 12.9636 2.32297 12.5728 2.42586C12.1973 2.52469 11.8027 2.52469 11.4272 2.42586C11.0364 2.32297 10.6562 2.05461 9.57 1.23999L8.45 0.399986ZM13.5 16.4999C13.5 17.3284 12.8284 17.9999 12 17.9999C11.1716 17.9999 10.5 17.3284 10.5 16.4999C10.5 15.6715 11.1716 14.9999 12 14.9999C12.8284 14.9999 13.5 15.6715 13.5 16.4999Z" fill="#2F384C"/>
</svg>
