<svg width="24" height="24" viewBox="0 0 24 24" fill="none" xmlns="http://www.w3.org/2000/svg">
<path fill-rule="evenodd" clip-rule="evenodd" d="M12.5589 0.726691C12.9733 0.847424 13.3429 1.1642 14.082 1.79776L14.8782 2.48016L14.8782 2.48016C15.2109 2.76534 15.3772 2.90792 15.5649 3.00949C15.7314 3.09957 15.9098 3.16558 16.0948 3.20551C16.3034 3.25054 16.5225 3.25054 16.9607 3.25054L17.5495 3.25054C18.6696 3.25054 19.2297 3.25054 19.6575 3.46852C20.0338 3.66027 20.3398 3.96623 20.5315 4.34255C20.7495 4.77038 20.7495 5.33043 20.7495 6.45053L20.7495 7.03934C20.7495 7.47754 20.7495 7.69664 20.7945 7.90523C20.8345 8.09025 20.9005 8.26866 20.9906 8.43513C21.0921 8.62281 21.2347 8.78916 21.5199 9.12187L22.2023 9.918C22.8359 10.6572 23.1526 11.0267 23.2734 11.4412C23.3798 11.8065 23.3798 12.1946 23.2734 12.5599C23.1526 12.9743 22.8359 13.3439 22.2023 14.0831L21.5199 14.8792L21.5199 14.8792C21.2347 15.2119 21.0921 15.3783 20.9906 15.5659C20.9005 15.7324 20.8345 15.9108 20.7945 16.0958C20.7495 16.3044 20.7495 16.5235 20.7495 16.9617L20.7495 17.5505C20.7495 18.6706 20.7495 19.2307 20.5315 19.6585C20.3398 20.0348 20.0338 20.3408 19.6575 20.5325C19.2297 20.7505 18.6696 20.7505 17.5495 20.7505L16.9607 20.7505C16.5225 20.7505 16.3034 20.7505 16.0948 20.7956C15.9098 20.8355 15.7314 20.9015 15.5649 20.9916C15.3772 21.0931 15.2109 21.2357 14.8782 21.5209L14.8782 21.5209L14.082 22.2033L14.082 22.2033C13.3429 22.8369 12.9733 23.1537 12.5589 23.2744C12.1936 23.3808 11.8055 23.3808 11.4402 23.2744C11.0257 23.1536 10.6561 22.8369 9.917 22.2033L9.91698 22.2033L9.12085 21.5209C8.78814 21.2357 8.62179 21.0931 8.43412 20.9916C8.26765 20.9015 8.08923 20.8355 7.90421 20.7956C7.69562 20.7505 7.47652 20.7505 7.03832 20.7505L6.4153 20.7505L6.41527 20.7505C5.29519 20.7505 4.73514 20.7505 4.30732 20.5325C3.931 20.3408 3.62503 20.0348 3.43329 19.6585C3.2153 19.2307 3.2153 18.6706 3.2153 17.5505L3.2153 16.949C3.2153 16.5146 3.2153 16.2973 3.17099 16.0903C3.13169 15.9067 3.06672 15.7296 2.97801 15.5641C2.878 15.3775 2.73756 15.2118 2.45668 14.8803L1.76945 14.0693C1.14668 13.3343 0.835291 12.9669 0.716483 12.5555C0.611756 12.1929 0.611756 11.8081 0.716483 11.4455C0.835291 11.0342 1.14668 10.6667 1.76945 9.9318L2.45668 9.12078L2.45668 9.12077C2.73756 8.78929 2.878 8.62356 2.97801 8.437C3.06672 8.27151 3.13169 8.09435 3.17099 7.91075C3.2153 7.70376 3.2153 7.48652 3.2153 7.05204L3.2153 6.45053C3.2153 5.33043 3.2153 4.77038 3.43329 4.34255C3.62503 3.96623 3.931 3.66027 4.30732 3.46852C4.73514 3.25054 5.2952 3.25054 6.4153 3.25054L7.03832 3.25054C7.47652 3.25054 7.69562 3.25054 7.90421 3.20551C8.08923 3.16557 8.26765 3.09957 8.43412 3.00949C8.62179 2.90792 8.78814 2.76534 9.12084 2.48016L9.12085 2.48016L9.91699 1.79775C10.6561 1.1642 11.0257 0.847424 11.4402 0.726691C11.8055 0.620281 12.1936 0.620281 12.5589 0.726691ZM16.5306 9.53033C16.8235 9.23744 16.8235 8.76257 16.5306 8.46967C16.2377 8.17678 15.7628 8.17678 15.4699 8.46967L11.0002 12.9393L9.53058 11.4697C9.23768 11.1768 8.76281 11.1768 8.46992 11.4697C8.17702 11.7626 8.17702 12.2374 8.46992 12.5303L10.4699 14.5303C10.6106 14.671 10.8013 14.75 11.0002 14.75C11.1992 14.75 11.3899 14.671 11.5306 14.5303L16.5306 9.53033Z" fill="#2F384C"/>
</svg>
