<svg width="24" height="24" viewBox="0 0 24 24" fill="none" xmlns="http://www.w3.org/2000/svg">
<path fill-rule="evenodd" clip-rule="evenodd" d="M24 3.2C24 2.0799 24 1.51984 23.782 1.09202C23.5903 0.715695 23.2843 0.409734 22.908 0.217987C22.4802 0 21.9201 0 20.8 0H19.2C18.0799 0 17.5198 0 17.092 0.217987C16.7157 0.409734 16.4097 0.715695 16.218 1.09202C16 1.51984 16 2.0799 16 3.2V4.8C16 5.9201 16 6.48016 16.218 6.90798C16.4097 7.28431 16.7157 7.59027 17.092 7.78201C17.5198 8 18.0799 8 19.2 8H20.8C21.9201 8 22.4802 8 22.908 7.78201C23.2843 7.59027 23.5903 7.28431 23.782 6.90798C24 6.48016 24 5.9201 24 4.8V3.2ZM7.65 22.75C5.40979 22.75 4.28969 22.75 3.43404 22.314C2.68139 21.9305 2.06947 21.3186 1.68597 20.566C1.25 19.7103 1.25 18.5902 1.25 16.35V9.65C1.25 7.40979 1.25 6.28968 1.68597 5.43404C2.06947 4.68139 2.68139 4.06947 3.43404 3.68597C4.28969 3.25 5.40979 3.25 7.65 3.25H12.9375C13.4622 3.25 13.7246 3.25 13.9276 3.34601C14.1367 3.44493 14.3051 3.6133 14.404 3.82244C14.5 4.02544 14.5 4.2878 14.5 4.8125C14.5 6.38662 14.5 7.17367 14.788 7.78267C15.0848 8.41009 15.5899 8.91522 16.2173 9.21197C16.8263 9.5 17.6134 9.5 19.1875 9.5C19.7122 9.5 19.9746 9.5 20.1776 9.59601C20.3867 9.69493 20.5551 9.8633 20.654 10.0724C20.75 10.2754 20.75 10.5378 20.75 11.0625V16.35C20.75 18.5902 20.75 19.7103 20.314 20.566C19.9305 21.3186 19.3186 21.9305 18.566 22.314C17.7103 22.75 16.5902 22.75 14.35 22.75H7.65ZM20 1.25C20.4142 1.25 20.75 1.58579 20.75 2V3.25H22C22.4142 3.25 22.75 3.58579 22.75 4C22.75 4.41421 22.4142 4.75 22 4.75H20.75V6C20.75 6.41421 20.4142 6.75 20 6.75C19.5858 6.75 19.25 6.41421 19.25 6V4.75H18C17.5858 4.75 17.25 4.41421 17.25 4C17.25 3.58579 17.5858 3.25 18 3.25H19.25V2C19.25 1.58579 19.5858 1.25 20 1.25ZM9 11.9896V14.0104C9 14.9815 9 15.4671 9.20249 15.7348C9.37889 15.968 9.64852 16.1123 9.9404 16.1297C10.2754 16.1497 10.6795 15.8804 11.4875 15.3417L13.0031 14.3313C13.6708 13.8862 14.0046 13.6636 14.1209 13.3831C14.2227 13.1378 14.2227 12.8622 14.1209 12.6169C14.0046 12.3364 13.6708 12.1138 13.0031 11.6687L11.4875 10.6583C10.6795 10.1196 10.2754 9.85029 9.9404 9.87029C9.64852 9.88772 9.37889 10.032 9.20249 10.2652C9 10.5329 9 11.0185 9 11.9896Z" fill="#2F384C"/>
</svg>
