<svg width="24" height="24" viewBox="0 0 24 24" fill="none" xmlns="http://www.w3.org/2000/svg">
<path fill-rule="evenodd" clip-rule="evenodd" d="M15.6 3.9271C15.75 4.34036 15.75 5.23741 15.75 7.0315L15.75 16.9688L15.75 16.9688C15.75 18.7629 15.75 19.6599 15.6 20.0732C15.0304 21.6425 13.1122 22.2233 11.7678 21.2335C11.4137 20.9729 10.9162 20.2265 9.92099 18.7337L9.92097 18.7337L9.92096 18.7337C9.64524 18.3201 9.50738 18.1133 9.35218 17.9371C8.7951 17.3044 8.02842 16.8941 7.19304 16.7815C6.96031 16.7501 6.71177 16.7501 6.2147 16.7501L5.87932 16.7501C4.82764 16.7502 4.3018 16.7501 3.88152 16.5945C3.19794 16.3412 2.65894 15.8022 2.4057 15.1186C2.25 14.6983 2.25 14.1725 2.25 13.1208L2.25 10.8795C2.25 9.82779 2.25 9.30196 2.4057 8.88167C2.65894 8.19809 3.19794 7.65909 3.88152 7.40585C4.3018 7.25015 4.82764 7.25015 5.87932 7.25015L6.2147 7.25015L6.21471 7.25015C6.71178 7.25015 6.96031 7.25015 7.19304 7.21878C8.02842 7.10617 8.7951 6.69586 9.35218 6.06324C9.50738 5.887 9.64524 5.6802 9.92097 5.26662L9.92097 5.26661C10.9162 3.77384 11.4137 3.02745 11.7678 2.76679C13.1122 1.77699 15.0304 2.35779 15.6 3.9271ZM19.4166 9.37629C19.0721 9.14625 18.6064 9.23901 18.3763 9.58348C18.1463 9.92794 18.2391 10.3937 18.5835 10.6237C18.9555 10.8721 19.25 11.3741 19.25 12C19.25 12.6259 18.9555 13.1279 18.5835 13.3763C18.2391 13.6063 18.1463 14.072 18.3763 14.4165C18.6064 14.761 19.0721 14.8537 19.4166 14.6237C20.2402 14.0736 20.75 13.0833 20.75 12C20.75 10.9166 20.2402 9.92635 19.4166 9.37629Z" fill="#2F384C"/>
</svg>
