<svg width="24" height="24" viewBox="0 0 24 24" fill="none" xmlns="http://www.w3.org/2000/svg">
<path fill-rule="evenodd" clip-rule="evenodd" d="M14.6 3.9271C14.75 4.34036 14.75 5.23741 14.75 7.0315L14.75 16.9688L14.75 16.9688C14.75 18.7629 14.75 19.6599 14.6 20.0732C14.0304 21.6425 12.1122 22.2233 10.7678 21.2335C10.4137 20.9729 9.91616 20.2265 8.92099 18.7337L8.92097 18.7337L8.92096 18.7337C8.64524 18.3201 8.50738 18.1133 8.35218 17.9371C7.7951 17.3044 7.02842 16.8941 6.19304 16.7815C5.96031 16.7501 5.71177 16.7501 5.2147 16.7501L4.87932 16.7501C3.82764 16.7502 3.3018 16.7501 2.88152 16.5945C2.19794 16.3412 1.65894 15.8022 1.4057 15.1186C1.25 14.6983 1.25 14.1725 1.25 13.1208L1.25 10.8795C1.25 9.82779 1.25 9.30196 1.4057 8.88167C1.65894 8.19809 2.19794 7.65909 2.88152 7.40585C3.3018 7.25015 3.82764 7.25015 4.87932 7.25015L5.2147 7.25015L5.21471 7.25015C5.71178 7.25015 5.96031 7.25015 6.19304 7.21878C7.02842 7.10617 7.7951 6.69586 8.35218 6.06324C8.50738 5.887 8.64524 5.6802 8.92097 5.26662L8.92097 5.26661C9.91615 3.77384 10.4137 3.02745 10.7678 2.76679C12.1122 1.77699 14.0304 2.35779 14.6 3.9271ZM18.4164 5.37628C18.0719 5.14625 17.6062 5.23901 17.3761 5.58347C17.1461 5.92794 17.2389 6.39367 17.5833 6.6237C19.1509 7.67051 20.2499 9.66488 20.2499 12C20.2499 14.3351 19.1509 16.3295 17.5833 17.3763C17.2389 17.6063 17.1461 18.072 17.3761 18.4165C17.6062 18.761 18.0719 18.8537 18.4164 18.6237C20.4357 17.2752 21.7499 14.7926 21.7499 12C21.7499 9.20741 20.4357 6.72478 18.4164 5.37628ZM17.4164 9.37629C17.0719 9.14625 16.6062 9.23901 16.3761 9.58348C16.1461 9.92794 16.2389 10.3937 16.5833 10.6237C16.9553 10.8721 17.2499 11.3741 17.2499 12C17.2499 12.6259 16.9553 13.1279 16.5833 13.3763C16.2389 13.6063 16.1461 14.072 16.3761 14.4165C16.6062 14.761 17.0719 14.8537 17.4164 14.6237C18.2401 14.0736 18.7499 13.0833 18.7499 12C18.7499 10.9166 18.2401 9.92635 17.4164 9.37629Z" fill="#2F384C"/>
</svg>
