<svg width="24" height="24" viewBox="0 0 24 24" fill="none" xmlns="http://www.w3.org/2000/svg">
<path fill-rule="evenodd" clip-rule="evenodd" d="M14.6 3.92722C14.75 4.34048 14.75 5.23753 14.75 7.03162L14.75 16.9689L14.75 16.969C14.75 18.763 14.75 19.6601 14.6 20.0733C14.0304 21.6426 12.1122 22.2234 10.7678 21.2336C10.4137 20.973 9.91616 20.2266 8.92099 18.7338L8.92097 18.7338L8.92096 18.7338C8.64524 18.3202 8.50738 18.1134 8.35218 17.9372C7.7951 17.3046 7.02842 16.8943 6.19304 16.7816C5.96031 16.7503 5.71177 16.7503 5.2147 16.7503L4.87932 16.7503C3.82764 16.7503 3.3018 16.7503 2.88152 16.5946C2.19794 16.3413 1.65894 15.8023 1.4057 15.1187C1.25 14.6985 1.25 14.1726 1.25 13.121L1.25 10.8796C1.25 9.82792 1.25 9.30208 1.4057 8.8818C1.65894 8.19821 2.19794 7.65921 2.88152 7.40597C3.3018 7.25027 3.82764 7.25027 4.87932 7.25027L5.2147 7.25027L5.21471 7.25027C5.71178 7.25027 5.96031 7.25027 6.19304 7.2189C7.02842 7.10629 7.7951 6.69598 8.35218 6.06337C8.50738 5.88712 8.64524 5.68033 8.92097 5.26674L8.92097 5.26673C9.91615 3.77396 10.4137 3.02757 10.7678 2.76691C12.1122 1.77711 14.0304 2.35791 14.6 3.92722ZM17.5304 9.46968C17.2375 9.17679 16.7626 9.17679 16.4697 9.46968C16.1768 9.76257 16.1768 10.2374 16.4697 10.5303L18.4394 12.5L16.4697 14.4697C16.1768 14.7626 16.1768 15.2374 16.4697 15.5303C16.7626 15.8232 17.2375 15.8232 17.5304 15.5303L19.5 13.5607L21.4697 15.5303C21.7626 15.8232 22.2375 15.8232 22.5304 15.5303C22.8233 15.2374 22.8233 14.7626 22.5304 14.4697L20.5607 12.5L22.5304 10.5303C22.8233 10.2374 22.8233 9.76257 22.5304 9.46968C22.2375 9.17679 21.7626 9.17679 21.4697 9.46968L19.5 11.4393L17.5304 9.46968Z" fill="#2F384C"/>
</svg>
