<svg width="24" height="24" viewBox="0 0 24 24" fill="none" xmlns="http://www.w3.org/2000/svg">
<path d="M17.7498 7.03159C17.7498 5.2375 17.7498 4.34046 17.5998 3.92719C17.0302 2.35788 15.1119 1.77708 13.7675 2.76689C13.4135 3.02755 12.9159 3.77393 11.9207 5.26671V5.26671C11.645 5.6803 11.5071 5.88709 11.3519 6.06334C10.7949 6.69595 10.0282 7.10626 9.1928 7.21887C8.96007 7.25025 8.71153 7.25025 8.21446 7.25025H7.87908C6.8274 7.25025 6.30156 7.25025 5.88128 7.40594C5.1977 7.65919 4.6587 8.19818 4.40546 8.88177C4.24976 9.30205 4.24976 9.82789 4.24976 10.8796L4.24976 13.1209C4.24976 14.1726 4.24976 14.6984 4.40545 15.1187C4.6587 15.8023 5.1977 16.3413 5.88128 16.5945C6.30156 16.7502 6.8274 16.7502 7.87908 16.7502L8.21446 16.7502C8.71153 16.7502 8.96007 16.7502 9.1928 16.7816C10.0282 16.8942 10.7949 17.3045 11.3519 17.9372C11.5071 18.1134 11.645 18.3202 11.9207 18.7338V18.7338C12.9159 20.2266 13.4135 20.9729 13.7675 21.2336C15.1119 22.2234 17.0302 21.6426 17.5998 20.0733C17.7498 19.66 17.7498 18.763 17.7498 16.9689V7.03159Z" fill="#2F384C"/>
</svg>
