<svg width="24" height="24" viewBox="0 0 24 24" fill="none" xmlns="http://www.w3.org/2000/svg">
<path fill-rule="evenodd" clip-rule="evenodd" d="M11.9999 1.25024C7.16744 1.25024 3.24994 5.16775 3.24994 10.0002C3.24994 14.8327 7.16744 18.7502 11.9999 18.7502C16.8324 18.7502 20.7499 14.8327 20.7499 10.0002C20.7499 5.16775 16.8324 1.25024 11.9999 1.25024ZM11.9999 12.0002C13.1045 12.0002 13.9999 11.1048 13.9999 10.0002C13.9999 8.89567 13.1045 8.00024 11.9999 8.00024C10.8954 8.00024 9.99994 8.89567 9.99994 10.0002C9.99993 11.1048 10.8954 12.0002 11.9999 12.0002Z" fill="#2F384C"/>
<path d="M5.80851 18.1697C5.62882 18.0333 5.53898 17.9651 5.46316 17.939C5.30216 17.8837 5.14656 17.9066 5.00839 18.0061C4.94333 18.0529 4.88237 18.1367 4.76045 18.3044V18.3044C3.96974 19.3916 3.57438 19.9352 3.49034 20.374C3.31846 21.2715 3.77667 22.1713 4.60355 22.5601C5.00786 22.7502 5.68003 22.7502 7.02439 22.7502H16.9755C18.3198 22.7502 18.992 22.7502 19.3963 22.5601C20.2232 22.1713 20.6814 21.2715 20.5095 20.374C20.4255 19.9352 20.0301 19.3916 19.2394 18.3044V18.3044C19.1175 18.1368 19.0565 18.0529 18.9915 18.0061C18.8533 17.9066 18.6977 17.8837 18.5367 17.9391C18.4609 17.9651 18.371 18.0333 18.1914 18.1697C16.4712 19.4754 14.3261 20.2502 11.9999 20.2502C9.67381 20.2502 7.52865 19.4754 5.80851 18.1697Z" fill="#2F384C"/>
</svg>
