<svg width="24" height="24" viewBox="0 0 24 24" fill="none" xmlns="http://www.w3.org/2000/svg">
<path fill-rule="evenodd" clip-rule="evenodd" d="M3.98005 1.79497C5.04961 1.25 6.44974 1.25 9.25 1.25H14.75C17.5503 1.25 18.9504 1.25 20.02 1.79497C20.9608 2.27433 21.7257 3.03924 22.205 3.98005C22.75 5.04961 22.75 6.44974 22.75 9.25V14.75C22.75 17.5503 22.75 18.9504 22.205 20.02C21.7257 20.9608 20.9608 21.7257 20.02 22.205C18.9504 22.75 17.5503 22.75 14.75 22.75H9.25C6.44974 22.75 5.04961 22.75 3.98005 22.205C3.03924 21.7257 2.27433 20.9608 1.79497 20.02C1.25 18.9504 1.25 17.5503 1.25 14.75V9.25C1.25 6.44974 1.25 5.04961 1.79497 3.98005C2.27433 3.03924 3.03924 2.27433 3.98005 1.79497ZM18.75 6.99992C18.75 6.58571 18.4142 6.24992 18 6.24992C17.5858 6.24992 17.25 6.58571 17.25 6.99992V8.6C17.25 9.73248 17.2494 10.5367 17.198 11.1661C17.1473 11.7867 17.0509 12.171 16.8958 12.4755C16.5842 13.087 16.087 13.5842 15.4755 13.8958C15.171 14.0509 14.7867 14.1473 14.1661 14.198C13.5367 14.2494 12.7325 14.25 11.6 14.25H8.81066L10.5303 12.5303C10.8232 12.2374 10.8232 11.7626 10.5303 11.4697C10.2374 11.1768 9.76256 11.1768 9.46967 11.4697L6.46967 14.4697C6.17678 14.7626 6.17678 15.2374 6.46967 15.5303L9.46967 18.5303C9.76256 18.8232 10.2374 18.8232 10.5303 18.5303C10.8232 18.2374 10.8232 17.7626 10.5303 17.4697L8.81066 15.75H11.6H11.633H11.633C12.7252 15.75 13.5907 15.75 14.2883 15.693C15.0017 15.6347 15.6053 15.5131 16.1565 15.2323C17.0502 14.7769 17.7769 14.0502 18.2323 13.1565C18.5131 12.6053 18.6347 12.0017 18.693 11.2883C18.75 10.5907 18.75 9.72519 18.75 8.63309V8.63302V8.6V6.99992Z" fill="#2F384C"/>
</svg>
