<svg width="24" height="24" viewBox="0 0 24 24" fill="none" xmlns="http://www.w3.org/2000/svg">
<path fill-rule="evenodd" clip-rule="evenodd" d="M3.98005 1.79497C5.04961 1.25 6.44974 1.25 9.25 1.25H14.75C17.5503 1.25 18.9504 1.25 20.02 1.79497C20.9608 2.27433 21.7257 3.03924 22.205 3.98005C22.75 5.04961 22.75 6.44974 22.75 9.25V14.75C22.75 17.5503 22.75 18.9504 22.205 20.02C21.7257 20.9608 20.9608 21.7257 20.02 22.205C18.9504 22.75 17.5503 22.75 14.75 22.75H9.25C6.44974 22.75 5.04961 22.75 3.98005 22.205C3.03924 21.7257 2.27433 20.9608 1.79497 20.02C1.25 18.9504 1.25 17.5503 1.25 14.75V9.25C1.25 6.44974 1.25 5.04961 1.79497 3.98005C2.27433 3.03924 3.03924 2.27433 3.98005 1.79497ZM10 7.25C9.58579 7.25 9.25 7.58579 9.25 8C9.25 8.41421 9.58579 8.75 10 8.75H14.1893L7.46967 15.4697C7.17678 15.7626 7.17678 16.2374 7.46967 16.5303C7.76256 16.8232 8.23744 16.8232 8.53033 16.5303L15.25 9.81066V14C15.25 14.4142 15.5858 14.75 16 14.75C16.4142 14.75 16.75 14.4142 16.75 14V8C16.75 7.58579 16.4142 7.25 16 7.25H10Z" fill="#2F384C"/>
</svg>
