<svg width="24" height="24" viewBox="0 0 24 24" fill="none" xmlns="http://www.w3.org/2000/svg">
<path fill-rule="evenodd" clip-rule="evenodd" d="M3.98005 1.79497C5.04961 1.25 6.44974 1.25 9.25 1.25H14.75C17.5503 1.25 18.9504 1.25 20.02 1.79497C20.9608 2.27433 21.7257 3.03924 22.205 3.98005C22.75 5.04961 22.75 6.44974 22.75 9.25V14.75C22.75 17.5503 22.75 18.9504 22.205 20.02C21.7257 20.9608 20.9608 21.7257 20.02 22.205C18.9504 22.75 17.5503 22.75 14.75 22.75H9.25C6.44974 22.75 5.04961 22.75 3.98005 22.205C3.03924 21.7257 2.27433 20.9608 1.79497 20.02C1.25 18.9504 1.25 17.5503 1.25 14.75V9.25C1.25 6.44974 1.25 5.04961 1.79497 3.98005C2.27433 3.03924 3.03924 2.27433 3.98005 1.79497ZM15.5303 5.46967C15.2375 5.17678 14.7626 5.17678 14.4697 5.46967L11.4697 8.46967C11.1768 8.76256 11.1768 9.23744 11.4697 9.53033C11.7626 9.82322 12.2375 9.82322 12.5303 9.53033L14.25 7.81066V10.6C14.25 11.7325 14.2494 12.5367 14.198 13.1661C14.1473 13.7867 14.0509 14.171 13.8958 14.4755C13.5842 15.087 13.087 15.5842 12.4755 15.8958C12.171 16.0509 11.7868 16.1473 11.1661 16.198C10.5368 16.2494 9.7325 16.25 8.60002 16.25H6.99994C6.58573 16.25 6.24994 16.5858 6.24994 17C6.24994 17.4142 6.58573 17.75 6.99994 17.75H8.60002H8.63304H8.63311C9.72521 17.75 10.5907 17.75 11.2883 17.693C12.0017 17.6347 12.6053 17.5131 13.1565 17.2323C14.0502 16.7769 14.7769 16.0502 15.2323 15.1565C15.5131 14.6053 15.6347 14.0017 15.693 13.2883C15.75 12.5907 15.75 11.7252 15.75 10.633V10.633V10.6V7.81066L17.4697 9.53033C17.7626 9.82322 18.2375 9.82322 18.5303 9.53033C18.8232 9.23744 18.8232 8.76256 18.5303 8.46967L15.5303 5.46967Z" fill="#2F384C"/>
</svg>
