<svg width="24" height="24" viewBox="0 0 24 24" fill="none" xmlns="http://www.w3.org/2000/svg">
<path fill-rule="evenodd" clip-rule="evenodd" d="M3.98005 1.79497C5.04961 1.25 6.44974 1.25 9.25 1.25H14.75C17.5503 1.25 18.9504 1.25 20.02 1.79497C20.9608 2.27433 21.7257 3.03924 22.205 3.98005C22.75 5.04961 22.75 6.44974 22.75 9.25V14.75C22.75 17.5503 22.75 18.9504 22.205 20.02C21.7257 20.9608 20.9608 21.7257 20.02 22.205C18.9504 22.75 17.5503 22.75 14.75 22.75H9.25C6.44974 22.75 5.04961 22.75 3.98005 22.205C3.03924 21.7257 2.27433 20.9608 1.79497 20.02C1.25 18.9504 1.25 17.5503 1.25 14.75V9.25C1.25 6.44974 1.25 5.04961 1.79497 3.98005C2.27433 3.03924 3.03924 2.27433 3.98005 1.79497ZM8.60002 6.75C9.7325 6.75 10.5368 6.75058 11.1661 6.80201C11.7868 6.85271 12.171 6.94909 12.4755 7.10423C13.087 7.41582 13.5842 7.913 13.8958 8.52453C14.0509 8.829 14.1473 9.21325 14.198 9.83388C14.2494 10.4633 14.25 11.2675 14.25 12.4V15.1893L12.5303 13.4697C12.2375 13.1768 11.7626 13.1768 11.4697 13.4697C11.1768 13.7626 11.1768 14.2374 11.4697 14.5303L14.4697 17.5303C14.7626 17.8232 15.2375 17.8232 15.5303 17.5303L18.5303 14.5303C18.8232 14.2374 18.8232 13.7626 18.5303 13.4697C18.2375 13.1768 17.7626 13.1768 17.4697 13.4697L15.75 15.1893V12.4V12.367V12.367C15.75 11.2748 15.75 10.4093 15.693 9.71173C15.6347 8.99834 15.5131 8.39472 15.2323 7.84354C14.7769 6.94978 14.0502 6.22312 13.1565 5.76772C12.6053 5.48688 12.0017 5.36527 11.2883 5.30699C10.5907 5.24999 9.72517 5.24999 8.63303 5.25H8.63302H8.60002H6.99994C6.58573 5.25 6.24994 5.58579 6.24994 6C6.24994 6.41421 6.58573 6.75 6.99994 6.75H8.60002Z" fill="#2F384C"/>
</svg>
