<svg width="24" height="24" viewBox="0 0 24 24" fill="none" xmlns="http://www.w3.org/2000/svg">
<path fill-rule="evenodd" clip-rule="evenodd" d="M1.25 12C1.25 6.06294 6.06294 1.25 12 1.25C17.9371 1.25 22.75 6.06294 22.75 12C22.75 17.9371 17.9371 22.75 12 22.75C6.06294 22.75 1.25 17.9371 1.25 12ZM12.5303 7.46967C12.3897 7.32902 12.1989 7.25 12 7.25C11.8011 7.25 11.6103 7.32902 11.4697 7.46967L8.46967 10.4697C8.17678 10.7626 8.17678 11.2374 8.46967 11.5303C8.76256 11.8232 9.23744 11.8232 9.53033 11.5303L11.25 9.81066V16C11.25 16.4142 11.5858 16.75 12 16.75C12.4142 16.75 12.75 16.4142 12.75 16V9.81066L14.4697 11.5303C14.7626 11.8232 15.2374 11.8232 15.5303 11.5303C15.8232 11.2374 15.8232 10.7626 15.5303 10.4697L12.5303 7.46967Z" fill="#2F384C"/>
</svg>
