<svg width="24" height="24" viewBox="0 0 24 24" fill="none" xmlns="http://www.w3.org/2000/svg">
<path fill-rule="evenodd" clip-rule="evenodd" d="M3.98005 1.79497C5.04961 1.25 6.44974 1.25 9.25 1.25H14.75C17.5503 1.25 18.9504 1.25 20.02 1.79497C20.9608 2.27433 21.7257 3.03924 22.205 3.98005C22.75 5.04961 22.75 6.44974 22.75 9.25V14.75C22.75 17.5503 22.75 18.9504 22.205 20.02C21.7257 20.9608 20.9608 21.7257 20.02 22.205C18.9504 22.75 17.5503 22.75 14.75 22.75H9.25C6.44974 22.75 5.04961 22.75 3.98005 22.205C3.03924 21.7257 2.27433 20.9608 1.79497 20.02C1.25 18.9504 1.25 17.5503 1.25 14.75V9.25C1.25 6.44974 1.25 5.04961 1.79497 3.98005C2.27433 3.03924 3.03924 2.27433 3.98005 1.79497ZM12.5303 4.46967C12.3897 4.32902 12.1989 4.25 12 4.25C11.8011 4.25 11.6103 4.32902 11.4697 4.46967L9.46967 6.46967C9.17678 6.76256 9.17678 7.23744 9.46967 7.53033C9.76256 7.82322 10.2374 7.82322 10.5303 7.53033L11.25 6.81066V11.25H6.81066L7.53033 10.5303C7.82322 10.2374 7.82322 9.76256 7.53033 9.46967C7.23744 9.17678 6.76256 9.17678 6.46967 9.46967L4.46967 11.4697C4.32902 11.6103 4.25 11.8011 4.25 12C4.25 12.1989 4.32902 12.3897 4.46967 12.5303L6.46967 14.5303C6.76256 14.8232 7.23744 14.8232 7.53033 14.5303C7.82322 14.2374 7.82322 13.7626 7.53033 13.4697L6.81066 12.75H11.25V17.1893L10.5303 16.4697C10.2374 16.1768 9.76256 16.1768 9.46967 16.4697C9.17678 16.7626 9.17678 17.2374 9.46967 17.5303L11.4697 19.5303C11.6103 19.671 11.8011 19.75 12 19.75C12.1989 19.75 12.3897 19.671 12.5303 19.5303L14.5303 17.5303C14.8232 17.2374 14.8232 16.7626 14.5303 16.4697C14.2374 16.1768 13.7626 16.1768 13.4697 16.4697L12.75 17.1893V12.75L17.1893 12.75L16.4697 13.4697C16.1768 13.7626 16.1768 14.2374 16.4697 14.5303C16.7626 14.8232 17.2374 14.8232 17.5303 14.5303L19.5303 12.5303C19.671 12.3897 19.75 12.1989 19.75 12C19.75 11.8011 19.671 11.6103 19.5303 11.4697L17.5303 9.46967C17.2374 9.17678 16.7626 9.17678 16.4697 9.46967C16.1768 9.76256 16.1768 10.2374 16.4697 10.5303L17.1893 11.25L12.75 11.25V6.81066L13.4697 7.53033C13.7626 7.82322 14.2374 7.82322 14.5303 7.53033C14.8232 7.23744 14.8232 6.76256 14.5303 6.46967L12.5303 4.46967Z" fill="#2F384C"/>
</svg>
