<svg width="24" height="24" viewBox="0 0 24 24" fill="none" xmlns="http://www.w3.org/2000/svg">
<path fill-rule="evenodd" clip-rule="evenodd" d="M3.98005 1.79497C5.04961 1.25 6.44974 1.25 9.25 1.25H14.75C17.5503 1.25 18.9504 1.25 20.02 1.79497C20.9608 2.27433 21.7257 3.03924 22.205 3.98005C22.75 5.04961 22.75 6.44974 22.75 9.25V14.75C22.75 17.5503 22.75 18.9504 22.205 20.02C21.7257 20.9608 20.9608 21.7257 20.02 22.205C18.9504 22.75 17.5503 22.75 14.75 22.75H9.25C6.44974 22.75 5.04961 22.75 3.98005 22.205C3.03924 21.7257 2.27433 20.9608 1.79497 20.02C1.25 18.9504 1.25 17.5503 1.25 14.75V9.25C1.25 6.44974 1.25 5.04961 1.79497 3.98005C2.27433 3.03924 3.03924 2.27433 3.98005 1.79497ZM9.53033 6.53033C9.82322 6.23744 9.82322 5.76256 9.53033 5.46967C9.23744 5.17678 8.76256 5.17678 8.46967 5.46967L5.46967 8.46967C5.17678 8.76256 5.17678 9.23744 5.46967 9.53033L8.46967 12.5303C8.76256 12.8232 9.23744 12.8232 9.53033 12.5303C9.82322 12.2374 9.82322 11.7626 9.53033 11.4697L7.81066 9.75H10.6C11.7325 9.75 12.5367 9.75058 13.1661 9.80201C13.7867 9.85271 14.171 9.94909 14.4755 10.1042C15.087 10.4158 15.5842 10.913 15.8958 11.5245C16.0509 11.829 16.1473 12.2133 16.198 12.8339C16.2494 13.4633 16.25 14.2675 16.25 15.4V17.0001C16.25 17.4143 16.5858 17.7501 17 17.7501C17.4142 17.7501 17.75 17.4143 17.75 17.0001V15.4V15.367V15.3669C17.75 14.2748 17.75 13.4093 17.693 12.7117C17.6347 11.9983 17.5131 11.3947 17.2323 10.8435C16.7769 9.94978 16.0502 9.22312 15.1565 8.76772C14.6053 8.48688 14.0017 8.36527 13.2883 8.30699C12.5906 8.24999 11.7251 8.25 10.633 8.25H10.633H10.6H7.81066L9.53033 6.53033Z" fill="#2F384C"/>
</svg>
