<svg width="24" height="24" viewBox="0 0 24 24" fill="none" xmlns="http://www.w3.org/2000/svg">
<path d="M9.13137 10.8685C8.73535 11.2646 8.53735 11.4626 8.46316 11.6909C8.3979 11.8917 8.3979 12.1081 8.46316 12.3089C8.53735 12.5373 8.73535 12.7353 9.13137 13.1313L12.2686 16.2685C13.1254 17.1253 13.5538 17.5537 13.9215 17.5826C14.2407 17.6077 14.5525 17.4786 14.7604 17.2351C15 16.9546 15 16.3488 15 15.1372L15 8.86265C15 7.65102 15 7.0452 14.7604 6.76467C14.5525 6.52126 14.2407 6.39209 13.9215 6.4172C13.5538 6.44615 13.1254 6.87453 12.2686 7.73128L9.13137 10.8685Z" fill="#2F384C"/>
</svg>
