<svg width="24" height="24" viewBox="0 0 24 24" fill="none" xmlns="http://www.w3.org/2000/svg">
<path fill-rule="evenodd" clip-rule="evenodd" d="M3.98005 1.79485C5.04961 1.24988 6.44974 1.24988 9.25 1.24988H14.75C17.5503 1.24988 18.9504 1.24988 20.02 1.79485C20.9608 2.27421 21.7257 3.03911 22.205 3.97993C22.75 5.04948 22.75 6.44962 22.75 9.24988V14.7499C22.75 17.5501 22.75 18.9503 22.205 20.0198C21.7257 20.9606 20.9608 21.7255 20.02 22.2049C18.9504 22.7499 17.5503 22.7499 14.75 22.7499H9.25C6.44974 22.7499 5.04961 22.7499 3.98005 22.2049C3.03924 21.7255 2.27433 20.9606 1.79497 20.0198C1.25 18.9503 1.25 17.5501 1.25 14.7499V9.24988C1.25 6.44962 1.25 5.04948 1.79497 3.97993C2.27433 3.03911 3.03924 2.27421 3.98005 1.79485ZM8.69478 11.5364C8.80607 11.1939 9.10308 10.8969 9.6971 10.3028L10.903 9.09696C12.1881 7.81183 12.8307 7.16927 13.3824 7.12585C13.861 7.08818 14.3288 7.28194 14.6407 7.64705C15 8.06784 15 8.97657 15 10.794L15 13.2058C15 15.0232 15 15.932 14.6407 16.3528C14.3288 16.7179 13.861 16.9116 13.3824 16.874C12.8307 16.8305 12.1881 16.188 10.903 14.9028L9.6971 13.697L9.69709 13.6969C9.10308 13.1029 8.80607 12.8059 8.69478 12.4634C8.5969 12.1622 8.5969 11.8376 8.69478 11.5364Z" fill="#2F384C"/>
</svg>
