<svg width="24" height="24" viewBox="0 0 24 24" fill="none" xmlns="http://www.w3.org/2000/svg">
<path fill-rule="evenodd" clip-rule="evenodd" d="M3.98005 1.79497C5.04961 1.25 6.44974 1.25 9.25 1.25H14.75C17.5503 1.25 18.9504 1.25 20.02 1.79497C20.9608 2.27433 21.7257 3.03924 22.205 3.98005C22.75 5.04961 22.75 6.44974 22.75 9.25V14.75C22.75 17.5503 22.75 18.9504 22.205 20.02C21.7257 20.9608 20.9608 21.7257 20.02 22.205C18.9504 22.75 17.5503 22.75 14.75 22.75H9.25C6.44974 22.75 5.04961 22.75 3.98005 22.205C3.03924 21.7257 2.27433 20.9608 1.79497 20.02C1.25 18.9504 1.25 17.5503 1.25 14.75V9.25C1.25 6.44974 1.25 5.04961 1.79497 3.98005C2.27433 3.03924 3.03924 2.27433 3.98005 1.79497ZM9.09702 13.0971L10.3029 14.3029C10.8969 14.897 11.1939 15.194 11.5364 15.3053C11.8377 15.4032 12.1622 15.4032 12.4635 15.3053C12.806 15.194 13.103 14.897 13.697 14.3029L13.697 14.3029L14.9029 13.0971C16.188 11.8119 16.8306 11.1694 16.874 10.6177C16.9117 10.139 16.7179 9.67123 16.3528 9.35939C15.932 9 15.0233 9 13.2059 9H10.7941C8.97663 9 8.06791 9 7.64711 9.35939C7.282 9.67123 7.08824 10.139 7.12591 10.6177C7.16933 11.1694 7.81189 11.8119 9.09702 13.0971Z" fill="#2F384C"/>
</svg>
