<svg width="24" height="24" viewBox="0 0 24 24" fill="none" xmlns="http://www.w3.org/2000/svg">
<path d="M10.8686 9.1314L7.73137 12.2687C6.87462 13.1254 6.44624 13.5538 6.4173 13.9216C6.39218 14.2407 6.52136 14.5525 6.76477 14.7604C7.04529 15 7.65111 15 8.86274 15H15.1373C16.3489 15 16.9547 15 17.2352 14.7604C17.4786 14.5525 17.6078 14.2407 17.5827 13.9216C17.5538 13.5538 17.1254 13.1254 16.2686 12.2687L13.1314 9.1314C12.7354 8.73538 12.5373 8.53738 12.309 8.46319C12.1082 8.39793 11.8918 8.39793 11.691 8.46319C11.4627 8.53738 11.2646 8.73538 10.8686 9.1314Z" fill="#2F384C"/>
</svg>
