<svg width="24" height="24" viewBox="0 0 24 24" fill="none" xmlns="http://www.w3.org/2000/svg">
<path fill-rule="evenodd" clip-rule="evenodd" d="M3.98005 1.79497C5.04961 1.25 6.44974 1.25 9.25 1.25H14.75C17.5503 1.25 18.9504 1.25 20.02 1.79497C20.9608 2.27433 21.7257 3.03924 22.205 3.98005C22.75 5.04961 22.75 6.44974 22.75 9.25V14.75C22.75 17.5503 22.75 18.9504 22.205 20.02C21.7257 20.9608 20.9608 21.7257 20.02 22.205C18.9504 22.75 17.5503 22.75 14.75 22.75H9.25C6.44974 22.75 5.04961 22.75 3.98005 22.205C3.03924 21.7257 2.27433 20.9608 1.79497 20.02C1.25 18.9504 1.25 17.5503 1.25 14.75V9.25C1.25 6.44974 1.25 5.04961 1.79497 3.98005C2.27433 3.03924 3.03924 2.27433 3.98005 1.79497ZM15.5303 7.46959C15.2374 7.1767 14.7626 7.1767 14.4697 7.46959C14.1768 7.76248 14.1768 8.23736 14.4697 8.53025L16.1893 10.2499H10.6667H10.6371H10.637C9.88493 10.2499 9.27828 10.2499 8.78586 10.2872C8.27917 10.3256 7.8327 10.4066 7.41511 10.6013C6.61613 10.9739 5.97397 11.6161 5.60138 12.415C5.40664 12.8326 5.32565 13.2791 5.28728 13.7858C5.24999 14.2782 5.24999 14.8849 5.25 15.637V15.6667V16C5.25 16.4142 5.58579 16.75 6 16.75C6.41421 16.75 6.75 16.4142 6.75 16V15.6667C6.75 14.8779 6.7505 14.3282 6.783 13.8991C6.8149 13.4778 6.87446 13.2342 6.96083 13.049C7.18438 12.5696 7.56968 12.1843 8.04907 11.9607C8.23427 11.8744 8.47785 11.8148 8.89913 11.7829C9.32824 11.7504 9.87803 11.7499 10.6667 11.7499H16.1893L14.4697 13.4696C14.1768 13.7625 14.1768 14.2374 14.4697 14.5302C14.7626 14.8231 15.2374 14.8231 15.5303 14.5302L18.5303 11.5302C18.671 11.3896 18.75 11.1988 18.75 10.9999C18.75 10.801 18.671 10.6102 18.5303 10.4696L15.5303 7.46959Z" fill="#2F384C"/>
</svg>
