<svg width="24" height="24" viewBox="0 0 24 24" fill="none" xmlns="http://www.w3.org/2000/svg">
<path fill-rule="evenodd" clip-rule="evenodd" d="M12.75 2C12.75 1.58579 12.4142 1.25 12 1.25C11.5858 1.25 11.25 1.58579 11.25 2V7.25H9C4.71979 7.25 1.25 10.7198 1.25 15C1.25 19.2802 4.71979 22.75 9 22.75H15C19.2802 22.75 22.75 19.2802 22.75 15C22.75 10.7198 19.2802 7.25 15 7.25H12.75V2ZM12.75 7.25H11.25L11.25 15.1893L8.53034 12.4697C8.23745 12.1768 7.76257 12.1768 7.46968 12.4697C7.17679 12.7626 7.17679 13.2374 7.46968 13.5303L11.4697 17.5303C11.6103 17.671 11.8011 17.75 12 17.75C12.1989 17.75 12.3897 17.671 12.5303 17.5303L16.5303 13.5303C16.8232 13.2374 16.8232 12.7626 16.5303 12.4697C16.2374 12.1768 15.7626 12.1768 15.4697 12.4697L12.75 15.1893V7.25Z" fill="#2F384C"/>
</svg>
