<svg width="24" height="24" viewBox="0 0 24 24" fill="none" xmlns="http://www.w3.org/2000/svg">
<path fill-rule="evenodd" clip-rule="evenodd" d="M3.98005 1.79497C5.04961 1.25 6.44974 1.25 9.25 1.25H14.75C17.5503 1.25 18.9504 1.25 20.02 1.79497C20.9608 2.27433 21.7257 3.03924 22.205 3.98005C22.75 5.04961 22.75 6.44974 22.75 9.25V14.75C22.75 17.5503 22.75 18.9504 22.205 20.02C21.7257 20.9608 20.9608 21.7257 20.02 22.205C18.9504 22.75 17.5503 22.75 14.75 22.75H9.25C6.44974 22.75 5.04961 22.75 3.98005 22.205C3.03924 21.7257 2.27433 20.9608 1.79497 20.02C1.25 18.9504 1.25 17.5503 1.25 14.75V9.25C1.25 6.44974 1.25 5.04961 1.79497 3.98005C2.27433 3.03924 3.03924 2.27433 3.98005 1.79497ZM12 5.25C9.79403 5.25 8.25089 6.08286 7.26191 6.93056L7.25 6.94079V6.5C7.25 6.08579 6.91421 5.75 6.5 5.75C6.08579 5.75 5.75 6.08579 5.75 6.5V9C5.75 9.41421 6.08579 9.75 6.5 9.75H9C9.41421 9.75 9.75 9.41421 9.75 9C9.75 8.58579 9.41421 8.25 9 8.25H8.03784C8.10091 8.19019 8.16764 8.12983 8.23809 8.06944C8.99911 7.41714 10.206 6.75 12 6.75C14.9175 6.75 17.25 9.0989 17.25 12C17.25 12.4142 17.5858 12.75 18 12.75C18.4142 12.75 18.75 12.4142 18.75 12C18.75 8.27368 15.7491 5.25 12 5.25ZM6.75 12C6.75 11.5858 6.41421 11.25 6 11.25C5.58579 11.25 5.25 11.5858 5.25 12C5.25 15.7279 8.27208 18.75 12 18.75C13.8867 18.75 15.4213 17.8974 16.4541 17.0912C16.5572 17.0107 16.6559 16.9303 16.75 16.8506V17.5C16.75 17.9142 17.0858 18.25 17.5 18.25C17.9142 18.25 18.25 17.9142 18.25 17.5V15C18.25 14.5858 17.9142 14.25 17.5 14.25H15C14.5858 14.25 14.25 14.5858 14.25 15C14.25 15.4142 14.5858 15.75 15 15.75H15.7281C15.6647 15.8027 15.5991 15.8558 15.5311 15.9088C14.6424 16.6026 13.427 17.25 12 17.25C9.1005 17.25 6.75 14.8995 6.75 12Z" fill="#2F384C"/>
</svg>
