<svg width="24" height="24" viewBox="0 0 24 24" fill="none" xmlns="http://www.w3.org/2000/svg">
<path fill-rule="evenodd" clip-rule="evenodd" d="M3.98005 1.79497C5.04961 1.25 6.44974 1.25 9.25 1.25H14.75C17.5503 1.25 18.9504 1.25 20.02 1.79497C20.9608 2.27433 21.7257 3.03924 22.205 3.98005C22.75 5.04961 22.75 6.44974 22.75 9.25V14.75C22.75 17.5503 22.75 18.9504 22.205 20.02C21.7257 20.9608 20.9608 21.7257 20.02 22.205C18.9504 22.75 17.5503 22.75 14.75 22.75H9.25C6.44974 22.75 5.04961 22.75 3.98005 22.205C3.03924 21.7257 2.27433 20.9608 1.79497 20.02C1.25 18.9504 1.25 17.5503 1.25 14.75V9.25C1.25 6.44974 1.25 5.04961 1.79497 3.98005C2.27433 3.03924 3.03924 2.27433 3.98005 1.79497ZM9.53033 8.53025C9.82322 8.23736 9.82322 7.76248 9.53033 7.46959C9.23744 7.1767 8.76256 7.1767 8.46967 7.46959L5.46967 10.4696C5.17678 10.7625 5.17678 11.2374 5.46967 11.5302L8.46967 14.5302C8.76256 14.8231 9.23744 14.8231 9.53033 14.5302C9.82322 14.2374 9.82322 13.7625 9.53033 13.4696L7.81066 11.7499H13.2C14.0525 11.7499 14.6467 11.7505 15.1093 11.7883C15.5632 11.8254 15.824 11.8945 16.0215 11.9952C16.4448 12.2109 16.789 12.5551 17.0048 12.9784C17.1054 13.176 17.1745 13.4367 17.2116 13.8906C17.2494 14.3532 17.25 14.9475 17.25 15.7999V16C17.25 16.4142 17.5858 16.75 18 16.75C18.4142 16.75 18.75 16.4142 18.75 16V15.7999V15.7678C18.75 14.955 18.75 14.2994 18.7066 13.7684C18.662 13.2218 18.5676 12.7417 18.3413 12.2975C17.9818 11.5918 17.4081 11.0182 16.7025 10.6586C16.2582 10.4323 15.7781 10.3379 15.2315 10.2933C14.7006 10.2499 14.0449 10.2499 13.2321 10.2499H13.2H7.81066L9.53033 8.53025Z" fill="#2F384C"/>
</svg>
