<svg width="24" height="24" viewBox="0 0 24 24" fill="none" xmlns="http://www.w3.org/2000/svg">
<path fill-rule="evenodd" clip-rule="evenodd" d="M16.25 2C16.25 2.41421 16.5858 2.75 17 2.75H20.1893L16.7152 6.22413C16.4966 6.06311 16.2642 5.91942 16.02 5.79497C14.9504 5.25 13.5503 5.25 10.75 5.25H9.25C6.44974 5.25 5.04961 5.25 3.98005 5.79497C3.03924 6.27433 2.27433 7.03924 1.79497 7.98005C1.25 9.04961 1.25 10.4497 1.25 13.25V14.75C1.25 17.5503 1.25 18.9504 1.79497 20.02C2.27433 20.9608 3.03924 21.7257 3.98005 22.205C5.04961 22.75 6.44974 22.75 9.25 22.75H10.75C13.5503 22.75 14.9504 22.75 16.02 22.205C16.9608 21.7257 17.7257 20.9608 18.205 20.02C18.75 18.9504 18.75 17.5503 18.75 14.75V13.25C18.75 10.4497 18.75 9.04961 18.205 7.98005C18.0806 7.7358 17.9369 7.50341 17.7759 7.28479L21.25 3.81066V7C21.25 7.41421 21.5858 7.75 22 7.75C22.4142 7.75 22.75 7.41421 22.75 7V2C22.75 1.58579 22.4142 1.25 22 1.25H17C16.5858 1.25 16.25 1.58579 16.25 2ZM17.7759 7.28479C17.4777 6.87994 17.1201 6.52233 16.7152 6.22413L10.75 12.1893V9C10.75 8.58579 10.4142 8.25 10 8.25C9.58579 8.25 9.25 8.58579 9.25 9V14C9.25 14.4142 9.58579 14.75 10 14.75H15C15.4142 14.75 15.75 14.4142 15.75 14C15.75 13.5858 15.4142 13.25 15 13.25H11.8107L17.7759 7.28479Z" fill="#2F384C"/>
</svg>
