<svg width="24" height="24" viewBox="0 0 24 24" fill="none" xmlns="http://www.w3.org/2000/svg">
<path fill-rule="evenodd" clip-rule="evenodd" d="M3.98005 1.79497C5.04961 1.25 6.44974 1.25 9.25 1.25H14.75C17.5503 1.25 18.9504 1.25 20.02 1.79497C20.9608 2.27433 21.7257 3.03924 22.205 3.98005C22.75 5.04961 22.75 6.44974 22.75 9.25V14.75C22.75 17.5503 22.75 18.9504 22.205 20.02C21.7257 20.9608 20.9608 21.7257 20.02 22.205C18.9504 22.75 17.5503 22.75 14.75 22.75H9.25C6.44974 22.75 5.04961 22.75 3.98005 22.205C3.03924 21.7257 2.27433 20.9608 1.79497 20.02C1.25 18.9504 1.25 17.5503 1.25 14.75V9.25C1.25 6.44974 1.25 5.04961 1.79497 3.98005C2.27433 3.03924 3.03924 2.27433 3.98005 1.79497ZM14 7.25C13.5858 7.25 13.25 7.58579 13.25 8C13.25 8.41421 13.5858 8.75 14 8.75H16.3987L13.8435 11.8163L13.8175 11.8474C13.3478 12.3992 12.5087 12.4373 11.991 11.9302L11.9623 11.9016L11.9599 11.8993C11.9459 11.8852 11.9351 11.8744 11.9253 11.8648C10.8559 10.8163 9.1441 10.8163 8.07471 11.8648L8.04033 11.899L8.03771 11.9016L5.46967 14.4697C5.17678 14.7626 5.17678 15.2374 5.46967 15.5303C5.76256 15.8232 6.23744 15.8232 6.53033 15.5303L9.09837 12.9623L9.12487 12.9359C9.61096 12.4593 10.389 12.4593 10.8751 12.9359L10.9016 12.9623L10.9045 12.9652C10.9196 12.9802 10.9311 12.9918 10.9414 13.0019C12.0805 14.1174 13.9264 14.0337 14.9597 12.8196C14.9691 12.8086 14.9796 12.796 14.9933 12.7796L14.9958 12.7766L17.25 10.0715V12C17.25 12.4142 17.5858 12.75 18 12.75C18.4142 12.75 18.75 12.4142 18.75 12V8C18.75 7.58579 18.4142 7.25 18 7.25H14Z" fill="#2F384C"/>
</svg>
