<svg width="24" height="24" viewBox="0 0 24 24" fill="none" xmlns="http://www.w3.org/2000/svg">
<path fill-rule="evenodd" clip-rule="evenodd" d="M3.98005 1.79497C5.04961 1.25 6.44974 1.25 9.25 1.25H14.75C17.5503 1.25 18.9504 1.25 20.02 1.79497C20.9608 2.27433 21.7257 3.03924 22.205 3.98005C22.75 5.04961 22.75 6.44974 22.75 9.25V14.75C22.75 17.5503 22.75 18.9504 22.205 20.02C21.7257 20.9608 20.9608 21.7257 20.02 22.205C18.9504 22.75 17.5503 22.75 14.75 22.75H9.25C6.44974 22.75 5.04961 22.75 3.98005 22.205C3.03924 21.7257 2.27433 20.9608 1.79497 20.02C1.25 18.9504 1.25 17.5503 1.25 14.75V9.25C1.25 6.44974 1.25 5.04961 1.79497 3.98005C2.27433 3.03924 3.03924 2.27433 3.98005 1.79497ZM6.53033 8.46967C6.23744 8.17678 5.76256 8.17678 5.46967 8.46967C5.17678 8.76256 5.17678 9.23744 5.46967 9.53033L8.03771 12.0984L8.04033 12.101L8.07471 12.1352C9.1441 13.1837 10.8559 13.1837 11.9253 12.1352L11.9597 12.101L11.9623 12.0984L11.991 12.0698C12.5087 11.5627 13.3478 11.6008 13.8175 12.1526L13.8435 12.1837L16.3987 15.25H14C13.5858 15.25 13.25 15.5858 13.25 16C13.25 16.4142 13.5858 16.75 14 16.75H18C18.4142 16.75 18.75 16.4142 18.75 16V12C18.75 11.5858 18.4142 11.25 18 11.25C17.5858 11.25 17.25 11.5858 17.25 12V13.9285L14.9958 11.2234L14.9932 11.2203L14.993 11.22C14.9794 11.2038 14.969 11.1913 14.9597 11.1804C13.9264 9.96631 12.0805 9.88258 10.9414 10.9981C10.9311 11.0082 10.9196 11.0197 10.9046 11.0348L10.9016 11.0377L10.8751 11.0641C10.389 11.5407 9.61096 11.5407 9.12487 11.0641L9.09837 11.0377L6.53033 8.46967Z" fill="#2F384C"/>
</svg>
