<svg width="24" height="24" viewBox="0 0 24 24" fill="none" xmlns="http://www.w3.org/2000/svg">
<path fill-rule="evenodd" clip-rule="evenodd" d="M3.43404 1.68597C4.0894 1.35205 4.8999 1.27389 6.25 1.25559V2.2C6.25 3.05245 6.24942 3.64669 6.21162 4.10932C6.17453 4.5632 6.1054 4.82396 6.00476 5.02148C5.78905 5.44484 5.44484 5.78905 5.02148 6.00476C4.82396 6.1054 4.5632 6.17453 4.10932 6.21162C3.64669 6.24942 3.05245 6.25 2.2 6.25H1.25559C1.27389 4.8999 1.35205 4.0894 1.68597 3.43404C2.06947 2.68139 2.68139 2.06947 3.43404 1.68597ZM1.25 12.25V7.75H2.2H2.2321C3.04494 7.75001 3.70056 7.75001 4.23147 7.70664C4.7781 7.66197 5.25825 7.56761 5.70246 7.34127C6.40807 6.98175 6.98175 6.40807 7.34127 5.70246C7.56761 5.25825 7.66197 4.7781 7.70664 4.23147C7.75001 3.70056 7.75001 3.04494 7.75 2.2321V2.2V1.25H16.25V2.2V2.23212C16.25 3.04495 16.25 3.70056 16.2934 4.23147C16.338 4.7781 16.4324 5.25825 16.6587 5.70246C17.0183 6.40807 17.5919 6.98175 18.2975 7.34127C18.7418 7.56761 19.2219 7.66197 19.7685 7.70664C20.2994 7.75001 20.9551 7.75001 21.7679 7.75H21.8H22.75V12.25H21.8H21.7679C20.955 12.25 20.2994 12.25 19.7685 12.2934C19.2219 12.338 18.7418 12.4324 18.2975 12.6587C17.5919 13.0183 17.0183 13.5919 16.6587 14.2975C16.4324 14.7418 16.338 15.2219 16.2934 15.7685C16.25 16.2994 16.25 16.955 16.25 17.7679V17.8V18.75H7.75V17.8V17.7679C7.75001 16.9551 7.75001 16.2994 7.70664 15.7685C7.66197 15.2219 7.56761 14.7418 7.34127 14.2975C6.98175 13.5919 6.40807 13.0183 5.70246 12.6587C5.25825 12.4324 4.7781 12.338 4.23147 12.2934C3.70056 12.25 3.04495 12.25 2.23212 12.25H2.2H1.25ZM17.75 2.2V1.25559C19.1001 1.27389 19.9106 1.35205 20.566 1.68597C21.3186 2.06947 21.9305 2.68139 22.314 3.43404C22.6479 4.0894 22.7261 4.8999 22.7444 6.25H21.8C20.9475 6.25 20.3533 6.24942 19.8907 6.21162C19.4368 6.17453 19.176 6.1054 18.9785 6.00476C18.5552 5.78905 18.211 5.44484 17.9952 5.02148C17.8946 4.82396 17.8255 4.5632 17.7884 4.10932C17.7506 3.64669 17.75 3.05245 17.75 2.2ZM21.8 13.75H22.7444C22.7261 15.1001 22.6479 15.9106 22.314 16.566C21.9305 17.3186 21.3186 17.9305 20.566 18.314C19.9106 18.6479 19.1001 18.7261 17.75 18.7444V17.8C17.75 16.9475 17.7506 16.3533 17.7884 15.8907C17.8255 15.4368 17.8946 15.176 17.9952 14.9785C18.211 14.5552 18.5552 14.211 18.9785 13.9952C19.176 13.8946 19.4368 13.8255 19.8907 13.7884C20.3533 13.7506 20.9475 13.75 21.8 13.75ZM6.25 17.8V18.7444C4.8999 18.7261 4.0894 18.6479 3.43404 18.314C2.68139 17.9305 2.06947 17.3186 1.68597 16.566C1.35205 15.9106 1.27389 15.1001 1.25559 13.75H2.2C3.05245 13.75 3.64669 13.7506 4.10932 13.7884C4.5632 13.8255 4.82396 13.8946 5.02148 13.9952C5.44484 14.211 5.78905 14.5552 6.00476 14.9785C6.1054 15.176 6.17453 15.4368 6.21162 15.8907C6.24942 16.3533 6.25 16.9475 6.25 17.8ZM12 8.75049C11.3096 8.75049 10.75 9.31013 10.75 10.0005C10.75 10.6908 11.3096 11.2505 12 11.2505C12.6904 11.2505 13.25 10.6908 13.25 10.0005C13.25 9.31013 12.6904 8.75049 12 8.75049ZM9.25 10.0005C9.25 8.4817 10.4812 7.25049 12 7.25049C13.5188 7.25049 14.75 8.4817 14.75 10.0005C14.75 11.5193 13.5188 12.7505 12 12.7505C10.4812 12.7505 9.25 11.5193 9.25 10.0005ZM5 21.25C4.58579 21.25 4.25 21.5858 4.25 22C4.25 22.4142 4.58579 22.75 5 22.75H19C19.4142 22.75 19.75 22.4142 19.75 22C19.75 21.5858 19.4142 21.25 19 21.25H5Z" fill="#2F384C"/>
</svg>
