<svg width="24" height="24" viewBox="0 0 24 24" fill="none" xmlns="http://www.w3.org/2000/svg">
<path fill-rule="evenodd" clip-rule="evenodd" d="M3.16103 22.3685C3.90972 22.75 4.88981 22.75 6.85 22.75L13.15 22.75C15.1102 22.75 16.0903 22.75 16.839 22.3685C17.4975 22.033 18.033 21.4975 18.3685 20.839C18.7089 20.1709 18.7456 19.3185 18.7495 17.7499L18.8 17.7499L18.8305 17.7499L18.8305 17.7499C19.3646 17.7499 19.8105 17.7499 20.1747 17.7201C20.5546 17.6891 20.9112 17.622 21.2485 17.4501C21.7659 17.1865 22.1866 16.7658 22.4503 16.2484C22.6221 15.9111 22.6892 15.5544 22.7203 15.1745C22.75 14.8103 22.75 14.3645 22.75 13.8304L22.75 13.8303L22.75 13.7999L22.75 10.1999L22.75 10.1694L22.75 10.0066L22.75 9.99988L22.75 9.99215C22.7496 9.5358 22.7467 9.14838 22.7203 8.82521C22.6892 8.44532 22.6221 8.08867 22.4503 7.7514C22.1866 7.23396 21.7659 6.81326 21.2485 6.54961C20.9112 6.37776 20.5546 6.31065 20.1747 6.27962C19.8104 6.24986 19.3646 6.24987 18.8304 6.24988L18.8 6.24988L18.7495 6.24988C18.7456 4.6814 18.7089 3.8291 18.3685 3.16104C18.033 2.50247 17.4975 1.96704 16.839 1.63148C16.0903 1.25 15.1102 1.25 13.15 1.25L6.85 1.25C4.88982 1.25 3.90972 1.25 3.16103 1.63148C2.50247 1.96704 1.96703 2.50247 1.63148 3.16103C1.25 3.90973 1.25 4.88982 1.25 6.85L1.25 17.15C1.25 19.1102 1.25 20.0903 1.63148 20.839C1.96703 21.4975 2.50246 22.033 3.16103 22.3685ZM18.75 7.74988L18.75 9.24988L21.2416 9.24988C21.2379 9.13864 21.2327 9.03878 21.2252 8.94735C21.2018 8.66023 21.1599 8.52295 21.1138 8.43239C20.9939 8.19719 20.8027 8.00596 20.5675 7.88612C20.4769 7.83998 20.3396 7.79809 20.0525 7.77463C19.7566 7.75046 19.3724 7.74988 18.8 7.74988L18.75 7.74988ZM18.75 10.7499L18.75 16.2499L18.8 16.2499C19.3724 16.2499 19.7566 16.2493 20.0525 16.2251C20.3396 16.2017 20.4769 16.1598 20.5675 16.1136C20.8027 15.9938 20.9939 15.8026 21.1138 15.5674C21.1599 15.4768 21.2018 15.3395 21.2252 15.0524C21.2494 14.7565 21.25 14.3723 21.25 13.7999L21.25 10.7499L18.75 10.7499ZM14.891 5.54595C15 5.75986 15 6.03989 15 6.59994L15 8.39994C15 8.95999 15 9.24002 14.891 9.45393C14.7951 9.64209 14.6422 9.79507 14.454 9.89095C14.2401 9.99994 13.9601 9.99994 13.4 9.99994L6.6 9.99994C6.03995 9.99994 5.75992 9.99994 5.54601 9.89095C5.35785 9.79507 5.20487 9.64209 5.10899 9.45393C5 9.24002 5 8.95999 5 8.39994L5 6.59994C5 6.03989 5 5.75986 5.10899 5.54595C5.20487 5.35779 5.35785 5.20481 5.54601 5.10893C5.75992 4.99994 6.03995 4.99994 6.6 4.99994L13.4 4.99994C13.9601 4.99994 14.2401 4.99994 14.454 5.10893C14.6422 5.20481 14.7951 5.35779 14.891 5.54595ZM6 14.9999C6.55228 14.9999 7 14.5522 7 13.9999C7 13.4477 6.55229 12.9999 6 12.9999C5.44772 12.9999 5 13.4477 5 13.9999C5 14.5522 5.44772 14.9999 6 14.9999ZM7 17.9999C7 18.5522 6.55228 18.9999 6 18.9999C5.44772 18.9999 5 18.5522 5 17.9999C5 17.4477 5.44772 16.9999 6 16.9999C6.55228 16.9999 7 17.4477 7 17.9999ZM10 14.9999C10.5523 14.9999 11 14.5522 11 13.9999C11 13.4477 10.5523 12.9999 10 12.9999C9.44772 12.9999 9 13.4477 9 13.9999C9 14.5522 9.44771 14.9999 10 14.9999ZM11 17.9999C11 18.5522 10.5523 18.9999 10 18.9999C9.44772 18.9999 9 18.5522 9 17.9999C9 17.4477 9.44771 16.9999 10 16.9999C10.5523 16.9999 11 17.4477 11 17.9999ZM14 14.9999C14.5523 14.9999 15 14.5522 15 13.9999C15 13.4477 14.5523 12.9999 14 12.9999C13.4477 12.9999 13 13.4477 13 13.9999C13 14.5522 13.4477 14.9999 14 14.9999ZM15 17.9999C15 18.5522 14.5523 18.9999 14 18.9999C13.4477 18.9999 13 18.5522 13 17.9999C13 17.4477 13.4477 16.9999 14 16.9999C14.5523 16.9999 15 17.4477 15 17.9999Z" fill="#2F384C"/>
</svg>
