<svg width="24" height="24" viewBox="0 0 24 24" fill="none" xmlns="http://www.w3.org/2000/svg">
<path fill-rule="evenodd" clip-rule="evenodd" d="M1.25 4.00003C1.25 3.99963 1.25 3.99919 1.25 3.99879C1.25067 2.48058 2.48163 1.25003 4 1.25003L10.9131 1.25001C11.9779 1.2498 12.6637 1.24966 13.3044 1.43265C13.8708 1.59439 14.4021 1.86004 14.8713 2.21607C15.4021 2.61886 15.8134 3.16757 16.4521 4.01949L17.3845 5.26274C17.7141 5.271 18.0141 5.28459 18.2883 5.30699C19.0017 5.36527 19.6053 5.48688 20.1565 5.76772C21.0502 6.22312 21.7769 6.94978 22.2323 7.84355C22.5131 8.39472 22.6347 8.99835 22.693 9.71173C22.7068 9.88099 22.7173 10.0601 22.7252 10.25H21C18.9289 10.25 17.25 11.9289 17.25 14C17.25 16.0711 18.9289 17.75 21 17.75H22.7252C22.7173 17.9399 22.7068 18.119 22.693 18.2883C22.6347 19.0017 22.5131 19.6053 22.2323 20.1565C21.7769 21.0502 21.0502 21.7769 20.1565 22.2323C19.6053 22.5131 19.0017 22.6347 18.2883 22.693C17.5906 22.75 16.7252 22.75 15.633 22.75H8.36698C7.27485 22.75 6.40935 22.75 5.71173 22.693C4.99834 22.6347 4.39472 22.5131 3.84355 22.2323C2.94978 21.7769 2.22312 21.0502 1.76772 20.1565C1.48688 19.6053 1.36527 19.0017 1.30699 18.2883C1.24999 17.5906 1.24999 16.7252 1.25 15.633V4.00003ZM12.8925 2.87498C12.4787 2.75681 12.0168 2.75003 10.8 2.75003H4C3.30964 2.75003 2.75 3.30967 2.75 4.00003C2.75 4.68746 3.30492 5.24529 3.99124 5.25H15.5L15.32 5.01003C14.5899 4.03659 14.3073 3.67112 13.9645 3.411C13.6435 3.16741 13.28 2.98564 12.8925 2.87498ZM11.0303 10.9697C10.7374 10.6768 10.2626 10.6768 9.96967 10.9697C9.67678 11.2626 9.67678 11.7374 9.96967 12.0303L11.1893 13.25H7C6.58579 13.25 6.25 13.5858 6.25 14C6.25 14.4142 6.58579 14.75 7 14.75H11.1893L9.96967 15.9697C9.67678 16.2626 9.67678 16.7374 9.96967 17.0303C10.2626 17.3232 10.7374 17.3232 11.0303 17.0303L13.5303 14.5303C13.8232 14.2374 13.8232 13.7626 13.5303 13.4697L11.0303 10.9697Z" fill="#2F384C"/>
<path d="M22.75 15.6359C22.75 15.8491 22.75 16.0536 22.7496 16.25H21C19.7574 16.25 18.75 15.2426 18.75 14C18.75 12.7574 19.7574 11.75 21 11.75H22.7496C22.75 11.9464 22.75 12.1509 22.75 12.3641V15.6359Z" fill="#2F384C"/>
</svg>
