<svg width="24" height="24" viewBox="0 0 24 24" fill="none" xmlns="http://www.w3.org/2000/svg">
<path d="M16.3617 12.3181C16.3617 10.796 17.0851 9.68519 18.4894 8.82126C17.6809 7.71048 16.4894 7.13452 14.9149 7.0111C13.383 6.88768 11.7234 7.8339 11.1277 7.8339C10.4894 7.8339 9.04255 7.05224 7.89362 7.05224C5.51064 7.09338 3 8.8624 3 12.5238C3 13.5935 3.17021 14.7043 3.59574 15.8562C4.14894 17.3783 6.10638 21.0809 8.14894 20.9986C9.21277 20.9986 9.97872 20.2581 11.383 20.2581C12.7447 20.2581 13.4255 20.9986 14.617 20.9986C16.7021 20.9986 18.4894 17.6252 19 16.103C16.234 14.8277 16.3617 12.4004 16.3617 12.3181Z" stroke="currentColor" stroke-width="1.5" stroke-linecap="round" stroke-linejoin="round"/>
<path d="M14.9958 1C14.9958 1.41044 15.123 2.52983 13.9783 3.72384C13.1304 4.58204 12.113 5.06711 11.0107 4.99248C10.9259 3.98503 11.3499 3.05221 12.113 2.30595C12.7913 1.63432 13.9783 1.07463 14.9958 1Z" stroke="currentColor" stroke-width="1.5" stroke-linecap="round" stroke-linejoin="round"/>
</svg>
