<svg width="24" height="24" viewBox="0 0 24 24" fill="none" xmlns="http://www.w3.org/2000/svg">
<path d="M13.5 13C13.5 15 14.5 16 16 16C17.5 16 18.25 15 18.25 15M13.5 13C13.5 11.6193 14.6193 10.5 16 10.5C17.3807 10.5 18.5 11.6193 18.5 13H13.5ZM14.5 8H17.5002M6 11.5H8.25C9.2165 11.5 10 10.7165 10 9.75C10 8.7835 9.2165 8 8.25 8H6V11.5ZM6 11.5H8.75C9.99264 11.5 11 12.5074 11 13.75C11 14.9926 9.99264 16 8.75 16H6V11.5ZM2 14V10C2 7.19974 2 5.79961 2.54497 4.73005C3.02433 3.78924 3.78924 3.02433 4.73005 2.54497C5.79961 2 7.19974 2 10 2H14C16.8003 2 18.2004 2 19.27 2.54497C20.2108 3.02433 20.9757 3.78924 21.455 4.73005C22 5.79961 22 7.19974 22 10V14C22 16.8003 22 18.2004 21.455 19.27C20.9757 20.2108 20.2108 20.9757 19.27 21.455C18.2004 22 16.8003 22 14 22H10C7.19974 22 5.79961 22 4.73005 21.455C3.78924 20.9757 3.02433 20.2108 2.54497 19.27C2 18.2004 2 16.8003 2 14Z" stroke="currentColor" stroke-width="1.5" stroke-linecap="round" stroke-linejoin="round"/>
</svg>
