<svg width="24" height="24" viewBox="0 0 24 24" fill="none" xmlns="http://www.w3.org/2000/svg">
<path d="M9 9H12M9 9C7.34315 9 6 10.3431 6 12C6 13.6569 7.34315 15 9 15M9 9C7.34315 9 6 7.65685 6 6C6 4.34315 7.34315 3 9 3H12M12 9V15M12 9H15M12 9V3M9 15H12M9 15C7.34315 15 6 16.3431 6 18C6 19.6569 7.34315 21 9 21C10.6569 21 12 19.6569 12 18V15M12 3H15C16.6569 3 18 4.34315 18 6C18 7.65685 16.6569 9 15 9M15 9C13.3431 9 12 10.3431 12 12C12 13.6569 13.3431 15 15 15C16.6569 15 18 13.6569 18 12C18 10.3431 16.6569 9 15 9Z" stroke="currentColor" stroke-width="1.5" stroke-linecap="round" stroke-linejoin="round"/>
</svg>
