<svg width="24" height="24" viewBox="0 0 24 24" fill="none" xmlns="http://www.w3.org/2000/svg">
<path d="M15 8L5 21M5 3L15 16M18.2166 14.7694L8.80332 20.2191C7.22733 21.1315 6.43934 21.5878 5.79261 21.5203C5.22852 21.4615 4.71592 21.166 4.38239 20.7073C4 20.1813 4 19.2708 4 17.4498V6.55023C4 4.72918 4 3.81866 4.38239 3.29274C4.71592 2.83403 5.22852 2.53849 5.79261 2.47968C6.43934 2.41225 7.22733 2.86845 8.80331 3.78086L18.2166 9.23064C19.7869 10.1398 20.572 10.5943 20.8358 11.1874C21.0658 11.7047 21.0658 12.2953 20.8358 12.8126C20.572 13.4057 19.7869 13.8602 18.2166 14.7694Z" stroke="currentColor" stroke-width="1.5" stroke-linejoin="round"/>
</svg>
