<svg width="24" height="24" viewBox="0 0 24 24" fill="none" xmlns="http://www.w3.org/2000/svg">
<path d="M7 16V13M7 13V8H9.5C10.8807 8 12 9.11929 12 10.5C12 11.8807 10.8807 13 9.5 13H7ZM17.5555 11.4167C17.271 11.1499 16.885 11 16.4826 11H15.6923C15.0032 11 14.4445 11.5238 14.4445 12.1699C14.4445 12.7067 14.8342 13.1747 15.3897 13.3049L17.0548 13.6951C17.6103 13.8253 18 14.2933 18 14.8301C18 15.4762 17.4413 16 16.7521 16H15.4382C14.8292 16 14.2724 15.6774 14 15.1667M2 14V10C2 7.19974 2 5.79961 2.54497 4.73005C3.02433 3.78924 3.78924 3.02433 4.73005 2.54497C5.79961 2 7.19974 2 10 2H14C16.8003 2 18.2004 2 19.27 2.54497C20.2108 3.02433 20.9757 3.78924 21.455 4.73005C22 5.79961 22 7.19974 22 10V14C22 16.8003 22 18.2004 21.455 19.27C20.9757 20.2108 20.2108 20.9757 19.27 21.455C18.2004 22 16.8003 22 14 22H10C7.19974 22 5.79961 22 4.73005 21.455C3.78924 20.9757 3.02433 20.2108 2.54497 19.27C2 18.2004 2 16.8003 2 14Z" stroke="currentColor" stroke-width="1.5" stroke-linecap="round" stroke-linejoin="round"/>
</svg>
