<svg width="24" height="24" viewBox="0 0 24 24" fill="none" xmlns="http://www.w3.org/2000/svg">
<path d="M10 15L12 13M12 13L14 11M12 13L10 11M12 13L14 15M4.3 10.9333C4.3 6.55187 7.74741 3 12 3C15.6211 3 18.6584 5.5753 19.4806 9.0452C21.5395 9.86433 23 11.9231 23 14.3333C23 17.4629 20.5376 20 17.5 20H5.4C2.96995 20 1 17.9704 1 15.4667C1 13.3539 2.40285 11.5786 4.30122 11.0758C4.30041 11.0284 4.3 10.9809 4.3 10.9333Z" stroke="currentColor" stroke-width="1.5" stroke-linecap="round" stroke-linejoin="round"/>
</svg>
