<svg width="24" height="24" viewBox="0 0 24 24" fill="none" xmlns="http://www.w3.org/2000/svg">
<path d="M3.2 18C1.88484 17.235 1 15.8051 1 14.1674C1 12.1053 2.40285 10.3727 4.30122 9.88197C4.30041 9.83571 4.3 9.78935 4.3 9.7429C4.3 5.46661 7.74741 2 12 2C15.6211 2 18.6584 4.51348 19.4806 7.90009C21.5395 8.69955 23 10.7089 23 13.0613C23 14.8707 22.1359 16.4772 20.8 17.4862M8.5 15C8.5 15.2761 8.27614 15.5 8 15.5C7.72386 15.5 7.5 15.2761 7.5 15M8.5 15C8.5 14.7239 8.27614 14.5 8 14.5C7.72386 14.5 7.5 14.7239 7.5 15M8.5 15H7.5M16.5 15C16.5 15.2761 16.2761 15.5 16 15.5C15.7239 15.5 15.5 15.2761 15.5 15M16.5 15C16.5 14.7239 16.2761 14.5 16 14.5C15.7239 14.5 15.5 14.7239 15.5 15M16.5 15H15.5M16.5 20C16.5 20.2761 16.2761 20.5 16 20.5C15.7239 20.5 15.5 20.2761 15.5 20M16.5 20C16.5 19.7239 16.2761 19.5 16 19.5C15.7239 19.5 15.5 19.7239 15.5 20M16.5 20H15.5M8.5 20C8.5 20.2761 8.27614 20.5 8 20.5C7.72386 20.5 7.5 20.2761 7.5 20M8.5 20C8.5 19.7239 8.27614 19.5 8 19.5C7.72386 19.5 7.5 19.7239 7.5 20M8.5 20H7.5M12.5 17C12.5 17.2761 12.2761 17.5 12 17.5C11.7239 17.5 11.5 17.2761 11.5 17M12.5 17C12.5 16.7239 12.2761 16.5 12 16.5C11.7239 16.5 11.5 16.7239 11.5 17M12.5 17H11.5M12.5 22C12.5 22.2761 12.2761 22.5 12 22.5C11.7239 22.5 11.5 22.2761 11.5 22M12.5 22C12.5 21.7239 12.2761 21.5 12 21.5C11.7239 21.5 11.5 21.7239 11.5 22M12.5 22H11.5" stroke="currentColor" stroke-width="1.5" stroke-linecap="round" stroke-linejoin="round"/>
</svg>
