<svg width="24" height="24" viewBox="0 0 24 24" fill="none" xmlns="http://www.w3.org/2000/svg">
<path fill-rule="evenodd" clip-rule="evenodd" d="M5.90552 10.2909C6.22299 11.3435 6.60729 12.3309 7.02501 13.2833C7.74349 14.9891 8.22805 15.8914 8.89793 17.0109L8.97221 17.1322C9.77168 18.4389 10.6653 19.8993 12.1075 20.8554C13.1936 21.5739 14.5151 21.9415 15.785 21.9415C17.5744 21.9415 19.1116 21.1562 20.0989 20.2357C21.0681 19.3334 22.3227 17.5942 22.3227 14.2008C22.3227 13.0982 22.783 12.1427 23.1577 11.365L23.1577 11.3649C23.1805 11.3177 23.203 11.271 23.225 11.2251C23.225 11.2084 23.2417 11.1749 23.2751 11.1081C23.4255 10.7739 23.6093 10.3395 23.6093 9.90506C23.6093 9.5876 23.5258 9.22 23.3086 8.90253C22.9744 8.33443 22.3729 8.13392 21.8199 8.13392C20.5334 8.13392 19.6463 9.0362 19.1951 9.95671L19.0448 10.2575C18.861 9.99013 18.6772 9.70608 18.5268 9.45544C18.0589 8.63671 17.7916 8.08532 17.5577 7.38203C17.3739 6.83063 17.2235 6.1957 17.1232 5.6762C16.8392 4.03722 16.3713 3.50253 15.6012 3.30203C15.0331 3.15165 14.3648 3.26861 13.8787 3.58608C13.546 2.83418 12.9779 2.5 12.2245 2.5C11.1551 2.5 10.1845 3.20177 10.1845 4.38962C10.1845 4.51628 10.1964 4.64293 10.2101 4.78955L10.2101 4.78958C10.2127 4.81704 10.2153 4.84519 10.2179 4.87418C10.0843 4.84076 9.93388 4.82405 9.78349 4.82405C8.63058 4.82405 7.77691 5.62608 7.77691 6.71367C7.77691 6.9643 7.81033 7.24835 7.89387 7.58253C7.79362 7.56582 7.69337 7.56582 7.59311 7.56582C7.02501 7.59924 6.50704 7.81646 6.13793 8.2676C5.77185 8.70203 5.62147 9.37038 5.90552 10.2909ZM6.85791 9.99011C6.70754 9.50556 6.72424 9.13796 6.90804 8.90404C7.09184 8.68682 7.34247 8.58657 7.64323 8.56986C8.16121 8.55315 8.36171 8.92075 8.66247 9.87315C8.84627 10.4747 9.21386 11.345 9.43108 11.8296C9.71513 12.4144 10.1161 13.1997 10.2999 13.4686C10.4503 13.7025 10.584 13.7694 10.7344 13.7694C11.0017 13.7694 11.2022 13.619 11.2022 13.3516C11.2022 13.2163 11.0804 12.9997 10.9951 12.8482L10.9951 12.8481C10.9857 12.8313 10.9766 12.8153 10.9683 12.8002C10.938 12.7431 10.901 12.6745 10.8595 12.5974L10.8594 12.5972L10.8594 12.5972C10.6942 12.2909 10.4567 11.8506 10.2832 11.4635C10.0493 10.9288 9.78197 10.2605 9.56475 9.65745C9.43108 9.30657 9.2807 8.8053 9.13032 8.30404C8.8964 7.53543 8.77943 7.06758 8.77943 6.71518C8.77943 6.18049 9.18045 5.82961 9.78197 5.82961C10.2164 5.82961 10.5004 6.04682 10.6842 6.83214C10.8346 7.55062 11.102 8.72176 11.4863 9.64075C11.7369 10.2423 12.1045 11.0458 12.3217 11.4468C12.3654 11.5232 12.4108 11.5961 12.4522 11.6625C12.5376 11.7993 12.6058 11.9085 12.6058 11.9648C12.6058 12.0392 12.518 12.1405 12.4068 12.2689C12.3431 12.3425 12.2717 12.4249 12.2048 12.5162C12.0878 12.6666 12.0377 12.7668 12.0377 12.8838C12.0377 12.984 12.1045 13.0843 12.2048 13.218C12.305 13.3516 12.4053 13.4853 12.5222 13.4853C12.6058 13.4853 12.6559 13.4519 12.706 13.3851C13.224 12.7334 13.7921 12.2823 14.4453 11.9132C15.2139 11.4787 16.0007 11.2615 16.6189 11.1278C16.9197 11.061 17.0032 10.9942 17.0032 10.8271C17.0032 10.6266 16.8529 10.5096 16.6523 10.4929C16.5295 10.4792 16.4177 10.4879 16.2534 10.5006C16.2166 10.5035 16.1772 10.5066 16.1344 10.5096C15.9673 10.5263 15.8837 10.4428 15.7835 10.2256C15.7367 10.1269 15.6831 10.0177 15.6246 9.89845C15.3066 9.25053 14.8434 8.3068 14.547 7.14961C14.3967 6.5648 14.263 5.94657 14.1794 5.14302C14.1293 4.77543 14.1961 4.64176 14.3799 4.47467C14.6139 4.27416 15.0316 4.19062 15.3491 4.27416C15.7334 4.37442 15.9339 4.67518 16.1344 5.84632C16.2346 6.39771 16.4017 7.09948 16.6022 7.70252C16.8529 8.47113 17.1703 9.10758 17.6549 9.95973C17.9222 10.4276 18.2564 10.9121 18.6073 11.3815C18.5404 11.582 18.4235 11.7157 18.0392 12.0332C17.6549 12.3506 17.2706 12.6848 16.9197 13.303C16.6691 13.7542 16.5521 14.2554 16.5521 14.5896C16.5521 14.9071 16.6189 14.9739 16.8194 14.9739C17.1703 14.9739 17.4544 14.9071 17.4711 14.7567C17.5546 14.1552 17.6549 13.7709 17.9891 13.3182C18.1896 13.0676 18.5404 12.7501 18.8245 12.4995C19.3592 12.0651 19.543 11.8144 19.7268 11.1962C19.8103 10.9121 19.9106 10.6448 20.0442 10.3942C20.3617 9.80935 20.9298 9.141 21.8169 9.141C22.101 9.141 22.3349 9.22454 22.4853 9.45847C22.5688 9.59214 22.6022 9.77594 22.6022 9.90961C22.6022 10.196 22.4052 10.5885 22.2999 10.7984L22.2848 10.8286C22.2661 10.8684 22.2469 10.9092 22.2272 10.9511L22.2272 10.9512C21.8577 11.7365 21.3156 12.8888 21.3156 14.2053C21.3156 17.2311 20.2463 18.7364 19.4093 19.5051C18.5906 20.2737 17.3025 20.9435 15.782 20.9435C14.6959 20.9435 13.5749 20.6261 12.6559 20.0245C11.3953 19.1896 10.5985 17.8881 9.79671 16.5786L9.7967 16.5786L9.74703 16.4975C9.09538 15.4114 8.64424 14.5577 7.94095 12.9035C7.5445 11.945 7.17538 11.0094 6.85791 9.99011ZM12.2245 3.50403C11.7399 3.50403 11.1551 3.75466 11.1551 4.3896C11.1551 4.80732 11.2721 5.42555 11.389 5.92529C11.5344 6.27767 11.5919 6.53265 11.7081 7.04731C11.7521 7.24258 11.8046 7.47524 11.8736 7.76479C12.024 8.38453 12.2077 8.91922 12.3915 9.38707C12.6088 9.95669 12.8594 10.4412 13.2103 11.0929C13.3774 11.4104 13.4609 11.4104 13.8619 11.1931C14.1794 11.0261 14.6472 10.8255 14.9981 10.7086C14.3966 9.40529 13.8953 8.3177 13.6447 7.39871C13.5779 7.13137 13.344 6.06048 13.2771 5.59264C13.227 5.12479 13.1769 4.72378 13.0599 4.28934C12.9262 3.75466 12.7424 3.50403 12.2245 3.50403Z" fill="#B4A9A5"/>
<path d="M5.17028 15.5815C4.81635 15.8003 2.9404 16.7831 2.51661 16.9395C2.21433 17.0519 1.88623 17.0246 1.69332 16.4534C1.45635 15.7471 1.78901 15.58 2.26294 15.3962C2.68218 15.2337 4.42142 14.6048 4.82547 14.4955C5.10952 14.4195 5.30699 14.5152 5.4437 14.857C5.59408 15.2322 5.49078 15.3825 5.17028 15.5815Z" fill="#B4A9A5"/>
<path d="M3.62394 11.6003C3.11964 11.614 1.02495 11.5243 0.546473 11.4772C0.13027 11.4362 -0.0383376 11.2524 0.00723201 10.6494C0.0558396 10.0023 0.307992 9.96281 0.716599 10.0023C1.19052 10.0479 3.38546 10.4048 3.73483 10.5127C4.09635 10.6251 4.14647 10.7891 4.10242 11.1051C4.04622 11.5152 3.8609 11.5927 3.62394 11.6003Z" fill="#B4A9A5"/>
<path d="M3.88364 7.35926C3.30643 7.17698 1.59301 6.13951 1.14643 5.87217C0.742377 5.62913 0.690732 5.4104 0.971744 4.87724C1.22086 4.40635 1.49731 4.32432 1.90744 4.53698C2.38288 4.78458 4.06136 6.09091 4.38187 6.34913C4.69174 6.59825 4.64921 6.72736 4.48668 7.04787C4.32415 7.36838 4.17225 7.4504 3.88364 7.35926Z" fill="#B4A9A5"/>
</svg>
